<?xml version="1.0" encoding="UTF-8" standalone="no"?>
<!-- Created with Inkscape (http://www.inkscape.org/) -->

<svg
   xmlns:dc="http://purl.org/dc/elements/1.1/"
   xmlns:cc="http://creativecommons.org/ns#"
   xmlns:rdf="http://www.w3.org/1999/02/22-rdf-syntax-ns#"
   xmlns:svg="http://www.w3.org/2000/svg"
   xmlns="http://www.w3.org/2000/svg"
   xmlns:xlink="http://www.w3.org/1999/xlink"
   xmlns:sodipodi="http://sodipodi.sourceforge.net/DTD/sodipodi-0.dtd"
   xmlns:inkscape="http://www.inkscape.org/namespaces/inkscape"
   inkscape:export-ydpi="90.000000"
   inkscape:export-xdpi="90.000000"
   width="480"
   height="300"
   id="svg11300"
   sodipodi:version="0.32"
   inkscape:version="0.92.5 (2060ec1f9f, 2020-04-08)"
   sodipodi:docname="firefox-nightly.svg"
   inkscape:output_extension="org.inkscape.output.svg.inkscape"
   version="1.0"
   style="display:inline;enable-background:new"
   inkscape:export-filename="/home/sam/moka-next-template.png">
  <sodipodi:namedview
     stroke="#ef2929"
     fill="#f57900"
     id="base"
     pagecolor="#777777"
     bordercolor="#666666"
     borderopacity="0.25490196"
     inkscape:pageopacity="0"
     inkscape:pageshadow="2"
     inkscape:zoom="1.4534973"
     inkscape:cx="394.49896"
     inkscape:cy="144.90214"
     inkscape:current-layer="layer6"
     showgrid="false"
     inkscape:grid-bbox="true"
     inkscape:document-units="px"
     inkscape:showpageshadow="false"
     inkscape:window-width="1366"
     inkscape:window-height="741"
     inkscape:window-x="0"
     inkscape:window-y="0"
     width="400px"
     height="300px"
     inkscape:snap-nodes="true"
     inkscape:snap-bbox="true"
     gridtolerance="10000"
     inkscape:object-nodes="true"
     inkscape:snap-grids="true"
     showguides="true"
     inkscape:guide-bbox="true"
     inkscape:window-maximized="1"
     inkscape:bbox-nodes="true"
     inkscape:bbox-paths="true"
     inkscape:snap-bbox-edge-midpoints="true"
     inkscape:snap-bbox-midpoints="true">
    <inkscape:grid
       spacingy="1"
       spacingx="1"
       id="grid5883"
       type="xygrid"
       enabled="true"
       visible="true"
       empspacing="4"
       snapvisiblegridlinesonly="true"
       dotted="false"
       color="#000000"
       opacity="0.1254902"
       empcolor="#203ef3"
       empopacity="0.36470588"
       originx="0"
       originy="0" />
    <inkscape:grid
       type="xygrid"
       id="grid11592"
       empspacing="8"
       visible="true"
       enabled="false"
       spacingx="0.5"
       spacingy="0.5"
       color="#ff0000"
       opacity="0.1254902"
       empcolor="#ff0000"
       empopacity="0.25098039"
       snapvisiblegridlinesonly="true"
       dotted="true"
       originx="0"
       originy="0" />
  </sodipodi:namedview>
  <defs
     id="defs3">
    <linearGradient
       inkscape:collect="always"
       xlink:href="#linearGradient6464-1"
       id="linearGradient4254"
       x1="35"
       y1="156"
       x2="253"
       y2="156"
       gradientUnits="userSpaceOnUse"
       gradientTransform="matrix(0,1,-1,0,300,12)" />
    <linearGradient
       inkscape:collect="always"
       xlink:href="#linearGradient6464-1"
       id="linearGradient4256"
       x1="417"
       y1="148"
       x2="431"
       y2="148"
       gradientUnits="userSpaceOnUse"
       gradientTransform="matrix(0,1,-1,0,572,-276)" />
    <linearGradient
       inkscape:collect="always"
       xlink:href="#linearGradient6464-1"
       id="linearGradient4260"
       x1="418"
       y1="68"
       x2="446"
       y2="68"
       gradientUnits="userSpaceOnUse"
       gradientTransform="matrix(0,1,-1,0,500,-364)" />
    <linearGradient
       inkscape:collect="always"
       xlink:href="#linearGradient6464-1"
       id="linearGradient4262"
       x1="292"
       y1="244"
       x2="332"
       y2="244"
       gradientUnits="userSpaceOnUse"
       gradientTransform="matrix(0,1,-1,0,556,-68)" />
    <linearGradient
       inkscape:collect="always"
       xlink:href="#linearGradient6464-1"
       id="linearGradient4264"
       x1="293"
       y1="76"
       x2="379"
       y2="76"
       gradientUnits="userSpaceOnUse"
       gradientTransform="rotate(90,336.25,75.75)" />
    <linearGradient
       inkscape:collect="always"
       xlink:href="#linearGradient6464-1"
       id="linearGradient4266"
       x1="291"
       y1="172"
       x2="349"
       y2="172"
       gradientUnits="userSpaceOnUse"
       gradientTransform="matrix(0,1,-1,0,492,-148)" />
    <linearGradient
       inkscape:collect="always"
       xlink:href="#linearGradient6464-1"
       id="linearGradient3870"
       gradientUnits="userSpaceOnUse"
       x1="418"
       y1="112"
       x2="438"
       y2="112"
       gradientTransform="matrix(0,1,-1,0,540,-316)" />
    <linearGradient
       id="linearGradient6464-1">
      <stop
         style="stop-color:#483164;stop-opacity:1"
         offset="0"
         id="stop6466-7" />
      <stop
         style="stop-color:#332b51;stop-opacity:1"
         offset="1"
         id="stop6468-6" />
    </linearGradient>
    <linearGradient
       id="outerBackgroundGradient">
      <stop
         id="stop3864-8-6"
         offset="0"
         style="stop-color:#fd5d38;stop-opacity:1" />
      <stop
         id="stop3866-9-1"
         offset="1"
         style="stop-color:#f69d31;stop-opacity:1" />
    </linearGradient>
  </defs>
  <metadata
     id="metadata4">
    <rdf:RDF>
      <cc:Work
         rdf:about="">
        <dc:format>image/svg+xml</dc:format>
        <dc:type
           rdf:resource="http://purl.org/dc/dcmitype/StillImage" />
        <dc:creator>
          <cc:Agent>
            <dc:title>Sam Hewitt</dc:title>
          </cc:Agent>
        </dc:creator>
        <dc:source />
        <cc:license
           rdf:resource="" />
        <dc:title />
        <dc:subject>
          <rdf:Bag />
        </dc:subject>
        <dc:date />
        <dc:rights>
          <cc:Agent>
            <dc:title />
          </cc:Agent>
        </dc:rights>
        <dc:publisher>
          <cc:Agent>
            <dc:title />
          </cc:Agent>
        </dc:publisher>
        <dc:identifier />
        <dc:relation />
        <dc:language />
        <dc:coverage />
        <dc:description />
        <dc:contributor>
          <cc:Agent>
            <dc:title />
          </cc:Agent>
        </dc:contributor>
      </cc:Work>
      <cc:Work
         rdf:about="">
        <dc:format>image/svg+xml</dc:format>
        <dc:type
           rdf:resource="http://purl.org/dc/dcmitype/StillImage" />
      </cc:Work>
    </rdf:RDF>
  </metadata>
  <g
     style="display:inline"
     inkscape:groupmode="layer"
     inkscape:label="Icon"
     id="layer1">
    <g
       inkscape:groupmode="layer"
       id="layer2"
       inkscape:label="Background"
       style="display:inline">
      <g
         inkscape:groupmode="layer"
         id="layer7-3"
         inkscape:label="Baseplate"
         style="display:none"
         transform="translate(-226.5,268.5)">
        <text
           id="context-6"
           inkscape:label="context"
           style="font-style:normal;font-variant:normal;font-weight:normal;font-stretch:normal;line-height:0%;font-family:'DejaVu Sans';-inkscape-font-specification:'DejaVu Sans';display:inline;fill:#000000;fill-opacity:1;stroke:none;enable-background:new"
           x="15.006836"
           xml:space="preserve"
           y="19.745117"><tspan
             id="tspan3933-0"
             sodipodi:role="line"
             x="15.006836"
             y="19.745117"
             style="font-style:normal;font-variant:normal;font-weight:normal;font-stretch:normal;font-size:18px;line-height:1.25;font-family:'DejaVu Sans';-inkscape-font-specification:'DejaVu Sans'">apps</tspan></text>
        <text
           id="icon-name-6"
           inkscape:label="icon-name"
           style="font-style:normal;font-variant:normal;font-weight:bold;font-stretch:normal;line-height:0%;font-family:'DejaVu Sans';-inkscape-font-specification:'DejaVu Sans Bold';text-align:start;writing-mode:lr-tb;text-anchor:start;display:inline;fill:#000000;fill-opacity:1;stroke:none;enable-background:new"
           x="122.48828"
           xml:space="preserve"
           y="19.745117"><tspan
             id="tspan3937-2"
             sodipodi:role="line"
             x="122.48828"
             y="19.745117"
             style="font-style:normal;font-variant:normal;font-weight:bold;font-stretch:normal;font-size:18px;line-height:1.25;font-family:'DejaVu Sans';-inkscape-font-specification:'DejaVu Sans Bold'">brave</tspan></text>
        <rect
           inkscape:label="16x16"
           y="140"
           x="416"
           height="16"
           width="16"
           id="rect16x16-6"
           style="display:inline;overflow:visible;visibility:visible;fill:#eeeeec;fill-opacity:1;fill-rule:nonzero;stroke:none;stroke-width:2;marker:none;enable-background:accumulate" />
        <rect
           inkscape:label="24x24"
           y="100"
           x="416"
           height="24"
           width="24"
           id="rect24x24-1"
           style="display:inline;overflow:visible;visibility:visible;fill:#d4d4d4;fill-opacity:1;fill-rule:nonzero;stroke:none;stroke-width:2;marker:none;enable-background:accumulate" />
        <rect
           inkscape:label="32x32"
           y="52"
           x="416"
           height="32"
           width="32"
           id="rect32x32-8"
           style="display:inline;overflow:visible;visibility:visible;fill:#eeeeec;fill-opacity:1;fill-rule:nonzero;stroke:none;stroke-width:2;marker:none;enable-background:accumulate" />
        <rect
           style="display:inline;overflow:visible;visibility:visible;fill:#eeeeec;fill-opacity:1;fill-rule:nonzero;stroke:none;stroke-width:2;marker:none;enable-background:accumulate"
           id="rect22x22-7"
           width="22"
           height="22"
           x="417"
           y="101"
           inkscape:label="22x22" />
        <rect
           style="display:inline;overflow:visible;visibility:visible;fill:#eeeeec;fill-opacity:1;fill-rule:nonzero;stroke:none;stroke-width:2;marker:none;enable-background:accumulate"
           id="rect48x48-9"
           width="48"
           height="48"
           x="288"
           y="220"
           inkscape:label="48x48" />
        <rect
           inkscape:label="256x256"
           y="28"
           x="16"
           height="256"
           width="256"
           id="rect256x256-2"
           style="display:inline;overflow:visible;visibility:visible;fill:#eeeeec;fill-opacity:1;fill-rule:nonzero;stroke:none;stroke-width:2;marker:none;enable-background:accumulate" />
        <rect
           inkscape:label="64x64"
           y="140"
           x="288"
           height="64"
           width="64"
           id="rect64x64-0"
           style="display:inline;overflow:visible;visibility:visible;fill:#eeeeec;fill-opacity:1;fill-rule:nonzero;stroke:none;stroke-width:2;marker:none;enable-background:accumulate" />
        <rect
           inkscape:label="96x96"
           y="28"
           x="288"
           height="96"
           width="96"
           id="rect96x96-2"
           style="display:inline;overflow:visible;visibility:visible;fill:#eeeeec;fill-opacity:1;fill-rule:nonzero;stroke:none;stroke-width:2;marker:none;enable-background:accumulate" />
      </g>
      <g
         style="display:inline"
         inkscape:label="Background"
         id="layer2-7"
         inkscape:groupmode="layer"
         transform="translate(-226.5,268.5)" />
    </g>
    <g
       inkscape:groupmode="layer"
       id="layer6"
       inkscape:label="Symbols"
       style="display:inline;opacity:1">
      <g
         id="g686">
        <g
           id="g573">
          <path
             style="display:inline;enable-background:accumulate;color:#bebebe;fill:url(#linearGradient4254);fill-opacity:1;fill-rule:nonzero;stroke:none;stroke-width:2;marker:none;visibility:visible;overflow:visible"
             d="m 204,265.5 c 27.43126,0 49.5,-22.06873 49.5,-49.5 l 0,-120 C 253.5,68.56873 231.43126,46.5 204,46.5 l -120,0 C 56.56873,46.5 34.5,68.56873 34.5,96 l 0,120 c 0,27.43127 22.06873,49.5 49.5,49.5 l 120,0 z"
             id="path4200"
             inkscape:connector-curvature="0" />
          <path
             inkscape:connector-curvature="0"
             style="display:inline;fill:#ffffff;fill-opacity:1;fill-rule:evenodd;stroke:none;stroke-width:1px;stroke-linecap:butt;stroke-linejoin:miter;stroke-opacity:1;enable-background:new"
             d="m 144.00565,77.400525 c 2.69285,0 7.20688,1.17604 21.11449,5.49556 3.2572,1.01168 6.55175,1.83296 7.32742,1.83181 0.77563,-9.5e-4 6.9139,-1.05479 13.63047,-2.35007 6.71645,-1.29534 12.62225,-2.36209 13.13633,-2.36209 1.81942,0 22.33086,27.110705 27.48973,36.335725 2.15667,3.85633 2.82886,7.69451 1.8681,10.60545 -0.86528,2.62172 -3.39263,5.247 -19.17422,19.92143 -7.24489,6.73667 -13.31309,12.61351 -13.48581,13.06395 -0.75245,1.96086 -0.15781,4.83295 2.08485,10.06311 2.93945,6.85429 3.31797,9.71364 1.83195,13.94387 -1.5846,4.51022 -3.92295,7.83007 -7.8336,11.14775 -3.98851,3.38367 -6.421,4.55212 -8.70133,4.18195 -2.72289,-0.442 -19.71893,-9.01621 -22.52449,-11.36469 -6.68216,-5.59339 -13.24521,-12.09573 -13.48587,-13.3533 -0.14082,-0.73404 0.1258,-2.02003 0.59075,-2.86833 0.46506,-0.84836 5.32093,-5.40702 10.79833,-10.12331 9.53352,-8.20865 11.25622,-10.11169 11.25622,-12.47352 0,-0.58348 -1.69394,-5.22576 -3.77219,-10.31616 -2.98112,-7.3022 -3.78443,-9.81451 -3.77204,-11.88298 0.017,-3.27177 1.23978,-5.64824 3.76003,-7.31534 1.07227,-0.70932 8.78347,-3.91443 17.13747,-7.1226 8.35394,-3.20808 15.76749,-6.05807 16.46252,-6.32709 0.74865,-0.2884 1.06541,-0.66853 0.78339,-0.94005 -0.26294,-0.25318 -4.86535,-0.86166 -10.23187,-1.34974 -11.50861,-1.04641 -11.25739,-1.08939 -23.92249,3.44675 -7.85617,2.81375 -9.15969,3.44329 -9.82216,4.72424 -0.41953,0.81224 -0.75335,1.904 -0.74721,2.42238 0.006,0.5185 1.64506,8.01341 3.63959,16.65542 3.41588,14.80035 3.5744,15.75649 2.73576,16.60721 -1.03756,1.0526 -11.31337,3.50024 -16.34202,3.89264 -4.4025,0.34364 -18.50701,-2.36513 -19.94553,-3.83241 -0.90663,-0.92474 -0.80007,-1.53067 2.68754,-16.66744 1.99113,-8.64201 3.62136,-16.13716 3.62754,-16.65542 0.006,-0.5185 -0.32966,-1.60365 -0.74721,-2.4103 -0.66183,-1.27991 -2.04903,-1.93228 -10.87059,-5.08585 l -10.0993,-3.61547 -5.50764,0.1445 c -7.270346,0.18396 -17.281728,1.29873 -17.426718,1.9403 -0.0638,0.2811 7.30881,3.35088 16.390268,6.82119 9.08148,3.47034 17.27684,6.85577 18.21008,7.52029 2.3015,1.63874 3.4524,4.01114 3.47083,7.17071 0.0113,2.09113 -0.79225,4.61685 -3.8565,12.1602 -5.15993,12.70252 -5.72698,11.05121 7.8336,22.75355 5.73744,4.95108 10.68543,9.62146 11.00323,10.38853 0.93797,2.26464 -0.27683,4.04891 -6.86948,10.0269 -7.84261,7.11113 -9.37295,8.12683 -19.6322,13.06411 -4.70795,2.26574 -9.21394,4.10399 -10.01487,4.08547 -2.23811,-0.0486 -3.71503,-0.80386 -7.508296,-3.86859 -4.079092,-3.29583 -6.770762,-7.11336 -8.363772,-11.83473 -1.46497,-4.34159 -1.20343,-6.33103 1.83186,-13.52196 2.21029,-5.2357 2.82106,-8.22654 2.06082,-10.20781 -0.16943,-0.44321 -5.88673,-5.97969 -12.70245,-12.30472 -20.26222,-18.80465 -20.99455,-19.71184 -20.22269,-25.06744 0.5519,-3.82725 1.2319,-5.12083 8.01436,-15.17301 5.76762,-8.548265 19.08653,-26.001775 20.65653,-27.068095 0.39466,-0.26775 5.78003,0.52153 13.401498,1.96441 7.00543,1.32679 13.40135,2.42238 14.2209,2.42238 0.81951,0 4.15448,-0.83209 7.41174,-1.84384 13.90764,-4.31951 18.42179,-5.49561 21.11459,-5.49561 z m 0.0366,112.683015 c 2.34239,0.0122 4.71687,0.89353 9.01465,2.66341 8.17199,3.3654 25.26608,11.97717 25.95926,13.07604 0.86588,1.37277 0.0303,2.36102 -5.2666,6.24279 -9.41785,6.89988 -12.409,9.2834 -19.99366,15.89616 -10.11718,8.82068 -9.35771,8.81116 -19.22247,0.20456 -6.83746,-5.96524 -14.49904,-11.93163 -22.06657,-17.17369 -3.67347,-2.54461 -4.41022,-3.86356 -2.95258,-5.30271 1.41164,-1.3937 18.22935,-9.90967 25.70615,-13.01579 4.16897,-1.73207 6.47939,-2.60156 8.82182,-2.59111 z"
             id="path4265"
             sodipodi:nodetypes="cccssscscscscsccssscsscccscsscccsscccccsscsscsscscccccsccsccccsccssssccc" />
        </g>
        <g
           id="g588">
          <path
             style="display:inline;enable-background:accumulate;color:#bebebe;overflow:visible;visibility:visible;fill:url(#linearGradient4264);fill-opacity:1;fill-rule:nonzero;stroke:none;stroke-width:2;marker:none"
             d="m 362,119 c 9.70255,0 17.5,-7.79745 17.5,-17.5 v -52 C 379.5,39.79745 371.70255,32 362,32 h -52 c -9.70255,0 -17.5,7.79745 -17.5,17.5 v 52 c 0,9.70255 7.79745,17.5 17.5,17.5 z"
             id="path4210"
             inkscape:connector-curvature="0" />
          <path
             sodipodi:nodetypes="cccssscscscscsccssscsscccscsscccsscccccsscsscsscscccccsccsccccsccssssccc"
             id="path577"
             d="m 336.00224,44.275546 c 1.06977,0 2.86301,0.4672 8.38795,2.18317 1.29396,0.4019 2.60275,0.72816 2.91089,0.72771 0.30813,-3.8e-4 2.74662,-0.41903 5.41485,-0.93359 2.66818,-0.51459 5.01432,-0.93837 5.21854,-0.93837 0.72278,0 8.87116,10.77001 10.92058,14.43474 0.85676,1.53197 1.12379,3.05673 0.74212,4.21313 -0.34374,1.0415 -1.34776,2.08442 -7.61716,7.91399 -2.8781,2.67621 -5.28876,5.01085 -5.35737,5.18979 -0.29892,0.77897 -0.0627,1.91994 0.82823,3.99767 1.16772,2.72294 1.31809,3.85884 0.72776,5.53935 -0.6295,1.79173 -1.55844,3.11057 -3.11198,4.42855 -1.58448,1.3442 -2.55081,1.80838 -3.45669,1.66133 -1.0817,-0.17559 -7.83355,-3.58178 -8.94809,-4.51474 -2.65456,-2.22203 -5.26179,-4.80516 -5.3574,-5.30474 -0.0559,-0.2916 0.05,-0.80248 0.23468,-1.13947 0.18475,-0.33702 2.1138,-2.148 4.28975,-4.02159 3.78729,-3.26097 4.47165,-4.01697 4.47165,-4.95523 0,-0.2318 -0.67294,-2.07599 -1.49854,-4.0982 -1.18428,-2.90088 -1.50341,-3.89892 -1.49848,-4.72064 0.007,-1.29974 0.49251,-2.24382 1.49371,-2.90609 0.42597,-0.28179 3.48932,-1.55505 6.80803,-2.82953 3.31869,-1.27444 6.2638,-2.40663 6.53991,-2.5135 0.29741,-0.11457 0.42324,-0.26558 0.31121,-0.37345 -0.10446,-0.10057 -1.93281,-0.3423 -4.06472,-0.53619 -4.57191,-0.4157 -4.47211,-0.43278 -9.50345,1.36925 -3.12095,1.11779 -3.63878,1.36788 -3.90196,1.87676 -0.16666,0.32267 -0.29927,0.75638 -0.29683,0.96231 0.002,0.20598 0.65351,3.18341 1.44586,6.61654 1.35699,5.87959 1.41997,6.25942 1.08681,6.59738 -0.41218,0.41816 -4.49435,1.39051 -6.49204,1.54639 -1.74893,0.13652 -7.3521,-0.93957 -7.92356,-1.52246 -0.36017,-0.36736 -0.31784,-0.60808 1.06765,-6.62131 0.791,-3.43313 1.43862,-6.41066 1.44108,-6.61654 0.002,-0.20598 -0.13096,-0.63707 -0.29684,-0.95752 -0.26292,-0.50845 -0.814,-0.76761 -4.31845,-2.0204 l -4.01205,-1.43628 -2.18797,0.0574 c -2.88822,0.0731 -6.86534,0.51593 -6.92294,0.7708 -0.0254,0.11167 2.9035,1.33117 6.5112,2.70979 3.60771,1.37863 6.8634,2.72353 7.23414,2.98751 0.9143,0.65101 1.3715,1.59347 1.37882,2.84864 0.004,0.83072 -0.31473,1.83409 -1.53203,4.83077 -2.04984,5.0462 -2.2751,4.3902 3.11198,9.03908 2.27925,1.96686 4.24489,3.82222 4.37114,4.12695 0.37262,0.89965 -0.10997,1.60847 -2.72897,3.98329 -3.11556,2.82497 -3.7235,3.22846 -7.79909,5.18985 -1.87028,0.90009 -3.66033,1.63035 -3.97851,1.62299 -0.88911,-0.0193 -1.47583,-0.31934 -2.98275,-1.53683 -1.62046,-1.30931 -2.68975,-2.82586 -3.32259,-4.70147 -0.58198,-1.72474 -0.47808,-2.51507 0.72772,-5.37174 0.87806,-2.07993 1.1207,-3.26808 0.81868,-4.05516 -0.0673,-0.17607 -2.33856,-2.37549 -5.04617,-4.88817 -8.04938,-7.47034 -8.3403,-7.83073 -8.03368,-9.9583 0.21925,-1.52042 0.48939,-2.0343 3.18379,-6.02763 2.29125,-3.39589 7.58232,-10.32948 8.20602,-10.75308 0.15678,-0.10637 2.29618,0.20718 5.32388,0.78038 2.78298,0.52708 5.32383,0.96231 5.6494,0.96231 0.32556,0 1.65041,-0.33055 2.94439,-0.73248 5.52495,-1.71597 7.31825,-2.18319 8.38799,-2.18319 z m 0.0145,44.76449 c 0.93054,0.005 1.87383,0.35496 3.58117,1.05807 3.2464,1.33694 10.03721,4.75805 10.31258,5.19459 0.34398,0.54534 0.012,0.93794 -2.09221,2.48001 -3.74134,2.741054 -4.92961,3.687934 -7.94269,6.314914 -4.01915,3.50411 -3.71745,3.50033 -7.63632,0.0813 -2.71625,-2.36976 -5.7599,-4.739974 -8.76617,-6.822434 -1.45933,-1.01087 -1.75201,-1.53484 -1.17295,-2.10656 0.56079,-0.55366 7.2418,-3.93671 10.21203,-5.17065 1.65617,-0.68808 2.57401,-1.0335 3.50456,-1.02935 z"
             style="display:inline;fill:#ffffff;fill-opacity:1;fill-rule:evenodd;stroke:none;stroke-width:0.39726028px;stroke-linecap:butt;stroke-linejoin:miter;stroke-opacity:1;enable-background:new"
             inkscape:connector-curvature="0" />
        </g>
        <g
           id="g603">
          <path
             style="display:inline;enable-background:accumulate;color:#bebebe;fill:url(#linearGradient4266);fill-opacity:1;fill-rule:nonzero;stroke:none;stroke-width:2;marker:none;visibility:visible;overflow:visible"
             d="m 337.5,201.5 c 6.65502,0 12,-5.34498 12,-12 l 0,-35 c 0,-6.65502 -5.34498,-12 -12,-12 l -35,0 c -6.65502,0 -12,5.34498 -12,12 l 0,35 c 0,6.65502 5.34498,12 12,12 l 35,0 z"
             id="path4212"
             inkscape:connector-curvature="0" />
          <path
             inkscape:connector-curvature="0"
             style="display:inline;fill:#ffffff;fill-opacity:1;fill-rule:evenodd;stroke:none;stroke-width:0.26940641px;stroke-linecap:butt;stroke-linejoin:miter;stroke-opacity:1;enable-background:new"
             d="m 320.00152,150.82481 c 0.72547,0 1.94158,0.31683 5.68838,1.48054 0.87751,0.27255 1.76508,0.49381 1.97405,0.4935 0.20896,-2.6e-4 1.86265,-0.28417 3.67214,-0.63312 1.80945,-0.34898 3.40052,-0.63637 3.53901,-0.63637 0.49016,0 6.01607,7.3038 7.40591,9.78908 0.58102,1.03892 0.76211,2.07295 0.50328,2.85718 -0.23311,0.7063 -0.914,1.41357 -5.16566,5.36696 -1.95182,1.8149 -3.58663,3.39816 -3.63316,3.51951 -0.20272,0.52827 -0.0425,1.30203 0.56167,2.71106 0.7919,1.84659 0.89388,2.61692 0.49354,3.75657 -0.4269,1.21508 -1.05687,2.10947 -2.11042,3.00327 -1.07454,0.91159 -1.72986,1.22637 -2.3442,1.12665 -0.73356,-0.11908 -5.3124,-2.42902 -6.06824,-3.06172 -1.80022,-1.50689 -3.56834,-3.25867 -3.63318,-3.59747 -0.0379,-0.19775 0.0339,-0.54421 0.15915,-0.77274 0.12529,-0.22855 1.4335,-1.45669 2.90914,-2.72729 2.56839,-2.21146 3.0325,-2.72415 3.0325,-3.36044 0,-0.1572 -0.45636,-1.40785 -1.01625,-2.77924 -0.80313,-1.96726 -1.01956,-2.64409 -1.01621,-3.20135 0.005,-0.88143 0.334,-1.52167 1.01297,-1.9708 0.28888,-0.1911 2.36632,-1.05457 4.61694,-1.91888 2.25061,-0.86427 4.24787,-1.63208 4.43511,-1.70455 0.2017,-0.0777 0.28703,-0.18011 0.21106,-0.25326 -0.0709,-0.0682 -1.31076,-0.23214 -2.75654,-0.36362 -3.10049,-0.28192 -3.03281,-0.2935 -6.44487,0.92857 -2.1165,0.75804 -2.46768,0.92764 -2.64615,1.27274 -0.11303,0.21882 -0.20296,0.51295 -0.2013,0.6526 0.001,0.13969 0.44318,2.15887 0.98052,4.48708 0.92026,3.98731 0.96297,4.2449 0.73704,4.47409 -0.27953,0.28358 -3.0479,0.94299 -4.40265,1.0487 -1.18606,0.0926 -4.98591,-0.63718 -5.37345,-1.03247 -0.24425,-0.24913 -0.21555,-0.41238 0.72404,-4.49032 0.53642,-2.32821 0.97561,-4.34746 0.97728,-4.48708 10e-4,-0.13968 -0.0888,-0.43203 -0.2013,-0.64935 -0.17831,-0.34481 -0.55203,-0.52056 -2.92861,-1.37016 l -2.72081,-0.97402 -1.4838,0.0389 c -1.95868,0.0496 -4.6558,0.34989 -4.69487,0.52273 -0.0172,0.0757 1.96904,0.90275 4.41564,1.83767 2.44661,0.93493 4.65449,1.84699 4.90592,2.02601 0.62004,0.44149 0.93009,1.08063 0.93506,1.93184 0.003,0.56336 -0.21344,1.24381 -1.03897,3.27604 -1.39012,3.42214 -1.54288,2.97726 2.11043,6.12995 1.5457,1.33385 2.87872,2.59208 2.96433,2.79874 0.2527,0.6101 -0.0746,1.0908 -1.85068,2.70131 -2.11285,1.91578 -2.52513,2.18941 -5.28903,3.51955 -1.26836,0.61041 -2.4823,1.10564 -2.69807,1.10065 -0.60296,-0.0131 -1.00085,-0.21656 -2.02279,-1.04222 -1.09893,-0.88792 -1.82408,-1.91639 -2.25325,-3.18835 -0.39468,-1.16965 -0.32422,-1.70562 0.49351,-3.6429 0.59547,-1.41053 0.76002,-2.21629 0.5552,-2.75006 -0.0456,-0.1194 -1.58592,-1.61096 -3.42212,-3.31496 -5.45877,-5.06609 -5.65606,-5.3105 -5.44812,-6.75333 0.14868,-1.03109 0.33188,-1.37958 2.15912,-4.0877 1.55383,-2.30296 5.14203,-7.00505 5.565,-7.29232 0.10632,-0.0721 1.55718,0.1405 3.61045,0.52922 1.8873,0.35745 3.61041,0.6526 3.8312,0.6526 0.22078,0 1.11924,-0.22417 1.99677,-0.49674 3.7468,-1.1637 4.96295,-1.48055 5.68841,-1.48055 z m 0.01,30.35752 c 0.63106,0.003 1.27076,0.24072 2.42861,0.71754 2.20158,0.90666 6.80684,3.22673 6.99359,3.52277 0.23327,0.36983 0.008,0.63608 -1.41886,1.68185 -2.53723,1.85887 -3.34306,2.50101 -5.38642,4.28253 -2.72563,2.37635 -2.52103,2.37378 -5.17865,0.0551 -1.84206,-1.60708 -3.90614,-3.21446 -5.94487,-4.62671 -0.98967,-0.68553 -1.18815,-1.04087 -0.79545,-1.42858 0.3803,-0.37547 4.9111,-2.66973 6.9254,-3.50654 1.12315,-0.46663 1.74559,-0.70088 2.37665,-0.69806 z"
             id="path592"
             sodipodi:nodetypes="cccssscscscscsccssscsscccscsscccsscccccsscsscsscscccccsccsccccsccssssccc" />
        </g>
        <g
           id="g618">
          <path
             style="display:inline;enable-background:accumulate;color:#bebebe;fill:url(#linearGradient4262);fill-opacity:1;fill-rule:nonzero;stroke:none;stroke-width:2;marker:none;visibility:visible;overflow:visible"
             d="m 324,264.5 c 4.71531,0 8.5,-3.78469 8.5,-8.5 l 0,-24 c 0,-4.71531 -3.78469,-8.5 -8.5,-8.5 l -24,0 c -4.71531,0 -8.5,3.78469 -8.5,8.5 l 0,24 c 0,4.71531 3.78469,8.5 8.5,8.5 l 24,0 z"
             id="path4208"
             inkscape:connector-curvature="0" />
          <path
             sodipodi:nodetypes="cccssscscscscsccssscsscccscsscccsscccccsscsscsscscccccsccsccccsccssssccc"
             id="path607"
             d="m 312.00106,229.28506 c 0.50414,0 1.34923,0.22017 3.95294,1.02885 0.60979,0.1894 1.22658,0.34316 1.3718,0.34294 0.14521,-1.8e-4 1.29438,-0.19747 2.55182,-0.43996 1.25742,-0.24252 2.36308,-0.44223 2.45931,-0.44223 0.34062,0 4.18066,5.07553 5.14648,6.80258 0.40376,0.72197 0.52961,1.44053 0.34974,1.9855 -0.16199,0.49082 -0.63515,0.98231 -3.5897,3.72958 -1.35634,1.26121 -2.4924,2.36144 -2.52473,2.44577 -0.14088,0.3671 -0.0295,0.9048 0.39031,1.88395 0.5503,1.28323 0.62117,1.81854 0.34297,2.6105 -0.29666,0.84438 -0.73444,1.4659 -1.46657,2.08702 -0.74671,0.63348 -1.2021,0.85222 -1.62902,0.78292 -0.50976,-0.0828 -3.69166,-1.68796 -4.21691,-2.12763 -1.251,-1.04716 -2.47969,-2.2645 -2.52475,-2.49994 -0.0263,-0.13742 0.0236,-0.37818 0.1106,-0.53699 0.0871,-0.15882 0.99616,-1.01227 2.0216,-1.89523 1.78481,-1.53678 2.10733,-1.89306 2.10733,-2.33522 0,-0.10924 -0.31713,-0.97834 -0.70621,-1.93134 -0.5581,-1.36708 -0.7085,-1.83742 -0.70618,-2.22467 0.003,-0.61252 0.23211,-1.05743 0.70393,-1.36954 0.20075,-0.13279 1.64439,-0.73283 3.20838,-1.33345 1.56399,-0.6006 2.95191,-1.13416 3.08203,-1.18452 0.14016,-0.054 0.19946,-0.12516 0.14667,-0.176 -0.0493,-0.0474 -0.91087,-0.16131 -1.91556,-0.25268 -2.15458,-0.19591 -2.10755,-0.20396 -4.47864,0.64528 -1.47079,0.52677 -1.71483,0.64463 -1.83885,0.88444 -0.0786,0.15206 -0.14104,0.35646 -0.13989,0.4535 7e-4,0.0971 0.30798,1.50024 0.68138,3.11814 0.6395,2.77085 0.66918,2.94985 0.51218,3.10912 -0.19425,0.19706 -2.11803,0.6553 -3.05947,0.72876 -0.82421,0.0643 -3.46478,-0.44279 -3.73409,-0.71748 -0.16973,-0.17313 -0.14979,-0.28657 0.50315,-3.1204 0.37276,-1.6179 0.67796,-3.02111 0.67912,-3.11814 7e-4,-0.0971 -0.0617,-0.30022 -0.13988,-0.45124 -0.12391,-0.23961 -0.38362,-0.36174 -2.03514,-0.95214 l -1.89073,-0.67687 -1.03112,0.027 c -1.36111,0.0345 -3.23538,0.24314 -3.26253,0.36325 -0.012,0.0526 1.36831,0.62733 3.06849,1.27702 1.70019,0.6497 3.23448,1.28351 3.4092,1.40791 0.43088,0.3068 0.64633,0.75095 0.64979,1.34246 0.002,0.39149 -0.14832,0.86435 -0.722,2.27658 -0.96601,2.37809 -1.07217,2.06894 1.46657,4.25979 1.07413,0.92691 2.00047,1.80128 2.05996,1.94489 0.17561,0.42397 -0.0518,0.75801 -1.28607,1.87718 -1.46825,1.3313 -1.75475,1.52145 -3.67542,2.44579 -0.88141,0.42418 -1.72499,0.76832 -1.87493,0.76486 -0.41901,-0.009 -0.69551,-0.15049 -1.40567,-0.72426 -0.76366,-0.61703 -1.26758,-1.33173 -1.56582,-2.21563 -0.27427,-0.81281 -0.2253,-1.18526 0.34295,-2.53151 0.4138,-0.9802 0.52815,-1.54013 0.38582,-1.91106 -0.0317,-0.083 -1.10208,-1.11948 -2.37809,-2.30361 -3.79338,-3.52051 -3.93048,-3.69035 -3.78598,-4.69299 0.10332,-0.71652 0.23063,-0.9587 1.50041,-2.84061 1.07978,-1.60036 3.57327,-4.86792 3.8672,-5.06754 0.0739,-0.0501 1.08211,0.0976 2.50896,0.36776 1.31151,0.2484 2.50893,0.4535 2.66236,0.4535 0.15342,0 0.77777,-0.15578 1.38758,-0.34519 2.60371,-0.80867 3.44883,-1.02886 3.95296,-1.02886 z m 0.007,21.0959 c 0.43853,0.002 0.88307,0.16728 1.68767,0.49863 1.52992,0.63006 4.73018,2.24231 4.85996,2.44803 0.1621,0.257 0.006,0.44202 -0.98599,1.16874 -1.76316,1.29176 -2.32314,1.73799 -3.74311,2.976 -1.89408,1.65136 -1.7519,1.64957 -3.59872,0.0383 -1.28008,-1.11679 -2.71444,-2.23378 -4.13118,-3.21517 -0.68774,-0.47639 -0.82566,-0.72332 -0.55277,-0.99274 0.26428,-0.26092 3.4128,-1.85524 4.81257,-2.43675 0.78049,-0.32427 1.21303,-0.48706 1.65157,-0.4851 z"
             style="display:inline;fill:#ffffff;fill-opacity:1;fill-rule:evenodd;stroke:none;stroke-width:0.18721463px;stroke-linecap:butt;stroke-linejoin:miter;stroke-opacity:1;enable-background:new"
             inkscape:connector-curvature="0" />
        </g>
        <g
           id="g633">
          <path
             style="display:inline;enable-background:accumulate;color:#bebebe;fill:url(#linearGradient4260);fill-opacity:1;fill-rule:nonzero;stroke:none;stroke-width:2;marker:none;visibility:visible;overflow:visible"
             d="m 440,82.5 c 3.60654,0 6.5,-2.89346 6.5,-6.5 l 0,-16 c 0,-3.60654 -2.89346,-6.5 -6.5,-6.5 l -16,0 c -3.60654,0 -6.5,2.89346 -6.5,6.5 l 0,16 c 0,3.60654 2.89346,6.5 6.5,6.5 l 16,0 z"
             id="path4206"
             inkscape:connector-curvature="0" />
          <path
             inkscape:connector-curvature="0"
             style="display:inline;fill:#ffffff;fill-opacity:1;fill-rule:evenodd;stroke:none;stroke-width:0.13242011px;stroke-linecap:butt;stroke-linejoin:miter;stroke-opacity:1;enable-background:new"
             d="m 432.00073,57.591868 c 0.35658,0 0.95433,0.15573 2.79598,0.72772 0.43131,0.13397 0.86758,0.24273 0.9703,0.24257 0.1027,-1.3e-4 0.91553,-0.13967 1.80494,-0.31119 0.8894,-0.17154 1.67145,-0.3128 1.73951,-0.3128 0.24093,0 2.95706,3.59001 3.6402,4.81158 0.28558,0.51067 0.3746,1.01892 0.24737,1.40438 -0.11458,0.34717 -0.44925,0.69481 -2.53905,2.638 -0.95937,0.89207 -1.76292,1.67028 -1.78579,1.72993 -0.0996,0.25966 -0.0209,0.63998 0.27608,1.33255 0.38923,0.90765 0.43936,1.28629 0.24258,1.84645 -0.20983,0.59725 -0.51948,1.03686 -1.03733,1.47619 -0.52816,0.44807 -0.85026,0.60279 -1.15223,0.55377 -0.36056,-0.0586 -2.61117,-1.19392 -2.98269,-1.50491 -0.88486,-0.74067 -1.75393,-1.60172 -1.7858,-1.76825 -0.0186,-0.0972 0.0167,-0.26749 0.0782,-0.37982 0.0616,-0.11234 0.7046,-0.716 1.42991,-1.34053 1.26243,-1.08699 1.49055,-1.33899 1.49055,-1.65174 0,-0.0773 -0.22431,-0.692 -0.49951,-1.36607 -0.39476,-0.96696 -0.50114,-1.29964 -0.4995,-1.57355 0.002,-0.43324 0.16418,-0.74793 0.49791,-0.9687 0.14199,-0.0939 1.1631,-0.51834 2.26934,-0.94317 1.10623,-0.42481 2.08793,-0.80221 2.17997,-0.83783 0.0991,-0.0382 0.14108,-0.0885 0.10374,-0.12449 -0.0349,-0.0335 -0.64427,-0.11409 -1.35491,-0.17872 -1.52397,-0.13857 -1.4907,-0.14427 -3.16782,0.45642 -1.04031,0.37259 -1.21292,0.45595 -1.30065,0.62558 -0.0556,0.10755 -0.0998,0.25213 -0.0989,0.32076 4.9e-4,0.0687 0.21784,1.06115 0.48195,2.20552 0.45233,1.95987 0.47332,2.08648 0.36227,2.19913 -0.13739,0.13939 -1.49812,0.46351 -2.16401,0.51547 -0.58298,0.0455 -2.4507,-0.3132 -2.64119,-0.50749 -0.12005,-0.12246 -0.10595,-0.2027 0.35589,-2.20711 0.26366,-1.14437 0.47953,-2.13688 0.48035,-2.20552 5e-4,-0.0687 -0.0436,-0.21235 -0.0989,-0.31917 -0.0876,-0.16948 -0.27134,-0.25586 -1.43949,-0.67346 l -1.33734,-0.47876 -0.72933,0.0191 c -0.96274,0.0244 -2.28844,0.17197 -2.30764,0.25693 -0.008,0.0372 0.96783,0.44372 2.17039,0.90326 1.20257,0.45954 2.2878,0.90785 2.41139,0.99584 0.30477,0.217 0.45716,0.53116 0.4596,0.94954 10e-4,0.27691 -0.1049,0.61137 -0.51068,1.61026 -0.68327,1.68207 -0.75836,1.4634 1.03733,3.01303 0.75975,0.65562 1.41497,1.27407 1.45705,1.37565 0.12421,0.29988 -0.0366,0.53615 -0.90966,1.32776 -1.03852,0.94165 -1.24117,1.07615 -2.59969,1.72995 -0.62344,0.30003 -1.22012,0.54345 -1.32617,0.541 -0.29637,-0.006 -0.49195,-0.10644 -0.99425,-0.51228 -0.54015,-0.43644 -0.89659,-0.94196 -1.10754,-1.56716 -0.19399,-0.57491 -0.15935,-0.83835 0.24258,-1.79058 0.29269,-0.69331 0.37357,-1.08936 0.2729,-1.35172 -0.0224,-0.0587 -0.77952,-0.79183 -1.68207,-1.62938 -2.68312,-2.49012 -2.78009,-2.61025 -2.67789,-3.31944 0.0731,-0.5068 0.16313,-0.6781 1.06127,-2.00921 0.76375,-1.13196 2.52743,-3.44316 2.73534,-3.58435 0.0523,-0.0354 0.76539,0.069 1.77463,0.26012 0.92765,0.1757 1.77461,0.32077 1.88313,0.32077 0.10852,0 0.55013,-0.11019 0.98146,-0.24416 1.84165,-0.57199 2.43941,-0.72773 2.79599,-0.72773 z m 0.005,14.92149 c 0.31018,0.001 0.62461,0.11832 1.19371,0.35269 1.08214,0.44565 3.34574,1.58602 3.43754,1.73153 0.11465,0.18178 0.004,0.31265 -0.69741,0.82667 -1.24711,0.91369 -1.6432,1.22931 -2.64757,2.10498 -1.33971,1.16803 -1.23914,1.16677 -2.54543,0.0271 -0.90542,-0.78993 -1.91997,-1.57999 -2.92206,-2.27414 -0.48645,-0.33696 -0.584,-0.51162 -0.39098,-0.70219 0.18693,-0.18455 2.41393,-1.31224 3.40401,-1.72355 0.55206,-0.22936 0.858,-0.34451 1.16819,-0.34312 z"
             id="path622"
             sodipodi:nodetypes="cccssscscscscsccssscsscccscsscccsscccccsscsscsscscccccsccsccccsccssssccc" />
        </g>
        <g
           id="g658">
          <path
             style="display:inline;enable-background:accumulate;color:#bebebe;fill:url(#linearGradient3870);fill-opacity:1;fill-rule:nonzero;stroke:none;stroke-width:2;marker:none;visibility:visible;overflow:visible"
             d="m 434,122.5 c 2.49699,0 4.5,-2.00301 4.5,-4.5 l 0,-12 c 0,-2.49699 -2.00301,-4.5 -4.5,-4.5 l -12,0 c -2.49699,0 -4.5,2.00301 -4.5,4.5 l 0,12 c 0,2.49699 2.00301,4.5 4.5,4.5 l 12,0 z"
             id="path4204"
             inkscape:connector-curvature="0" />
          <path
             sodipodi:nodetypes="cccssscscscscsccssscsscccscsscccsscccccsscsscsscscccccsccsccccsccssssccc"
             id="path637"
             d="m 428.00054,104.46308 c 0.25822,0 0.69107,0.11277 2.02468,0.52697 0.31233,0.097 0.62825,0.17577 0.70263,0.17565 0.0744,-9e-5 0.66297,-0.10114 1.30703,-0.22534 0.64404,-0.12422 1.21036,-0.22651 1.25964,-0.22651 0.17447,0 2.14132,2.59966 2.63601,3.48424 0.2068,0.3698 0.27126,0.73784 0.17913,1.01697 -0.083,0.2514 -0.32532,0.50314 -1.83862,1.91027 -0.69472,0.64599 -1.2766,1.20952 -1.29316,1.25271 -0.0721,0.18803 -0.0151,0.46344 0.19992,0.96495 0.28185,0.65727 0.31815,0.93145 0.17566,1.33709 -0.15195,0.43249 -0.37618,0.75083 -0.75117,1.06896 -0.38246,0.32447 -0.61571,0.4365 -0.83437,0.40101 -0.2611,-0.0424 -1.89085,-0.86457 -2.15988,-1.08976 -0.64076,-0.53635 -1.27009,-1.15987 -1.29317,-1.28046 -0.0135,-0.0704 0.0121,-0.1937 0.0566,-0.27504 0.0446,-0.0814 0.51023,-0.51849 1.03545,-0.97073 0.91417,-0.78713 1.07936,-0.96962 1.07936,-1.19609 0,-0.056 -0.16243,-0.5011 -0.36171,-0.98922 -0.28586,-0.70022 -0.36289,-0.94112 -0.36171,-1.13947 0.001,-0.31373 0.11889,-0.5416 0.36056,-0.70147 0.10282,-0.068 0.84224,-0.37535 1.64331,-0.68299 0.80107,-0.30762 1.51195,-0.58091 1.5786,-0.6067 0.0718,-0.0277 0.10216,-0.0641 0.0751,-0.0901 -0.0253,-0.0243 -0.46655,-0.0826 -0.98115,-0.12942 -1.10356,-0.10034 -1.07947,-0.10447 -2.29394,0.33051 -0.75332,0.26981 -0.87832,0.33017 -0.94185,0.45301 -0.0403,0.0779 -0.0723,0.18258 -0.0716,0.23227 3.5e-4,0.0497 0.15774,0.76842 0.349,1.5971 0.32755,1.41922 0.34274,1.5109 0.26233,1.59248 -0.0995,0.10094 -1.08485,0.33564 -1.56704,0.37327 -0.42216,0.0329 -1.77465,-0.2268 -1.91259,-0.36749 -0.0869,-0.0887 -0.0767,-0.14679 0.25772,-1.59826 0.19092,-0.82868 0.34724,-1.54739 0.34783,-1.5971 3.7e-4,-0.0497 -0.0316,-0.15377 -0.0716,-0.23112 -0.0634,-0.12273 -0.19649,-0.18528 -1.04239,-0.48768 l -0.96842,-0.34669 -0.52814,0.0138 c -0.69715,0.0177 -1.65714,0.12453 -1.67105,0.18605 -0.006,0.0269 0.70085,0.32131 1.57167,0.65408 0.87082,0.33277 1.65668,0.65741 1.74618,0.72113 0.22069,0.15714 0.33104,0.38463 0.33281,0.6876 7.2e-4,0.20052 -0.076,0.44271 -0.3698,1.16605 -0.49479,1.21805 -0.54916,1.0597 0.75117,2.18185 0.55016,0.47476 1.02463,0.9226 1.0551,0.99616 0.0899,0.21715 -0.0265,0.38824 -0.65872,0.96148 -0.75203,0.68188 -0.89878,0.77928 -1.88253,1.25272 -0.45146,0.21726 -0.88354,0.39353 -0.96033,0.39176 -0.21461,-0.004 -0.35624,-0.0771 -0.71998,-0.37096 -0.39114,-0.31605 -0.64925,-0.68211 -0.80201,-1.13484 -0.14047,-0.41632 -0.11539,-0.60708 0.17566,-1.29663 0.21195,-0.50205 0.27052,-0.78885 0.19762,-0.97883 -0.0162,-0.0425 -0.56448,-0.5734 -1.21805,-1.1799 -1.94295,-1.80319 -2.01317,-1.89018 -1.93916,-2.40373 0.0529,-0.36699 0.11813,-0.49104 0.7685,-1.45494 0.55306,-0.8197 1.83021,-2.49333 1.98077,-2.59557 0.0379,-0.0256 0.55425,0.05 1.28507,0.18836 0.67175,0.12724 1.28507,0.23229 1.36365,0.23229 0.0786,0 0.39837,-0.0798 0.71071,-0.17681 1.33361,-0.4142 1.76647,-0.52698 2.02469,-0.52698 z m 0.004,10.80521 c 0.22461,7.3e-4 0.4523,0.0857 0.86441,0.2554 0.78361,0.32271 2.42277,1.1485 2.48925,1.25387 0.083,0.13163 0.003,0.2264 -0.50502,0.59862 -0.90308,0.66164 -1.18991,0.89019 -1.91721,1.5243 -0.97013,0.84581 -0.89731,0.8449 -1.84324,0.0196 -0.65565,-0.57202 -1.39032,-1.14413 -2.11597,-1.64679 -0.35226,-0.24401 -0.4229,-0.37048 -0.28313,-0.50848 0.13536,-0.13364 1.74802,-0.95025 2.46497,-1.24809 0.39977,-0.16609 0.62131,-0.24947 0.84594,-0.24847 z"
             style="display:inline;fill:#ffffff;fill-opacity:1;fill-rule:evenodd;stroke:none;stroke-width:0.09589043px;stroke-linecap:butt;stroke-linejoin:miter;stroke-opacity:1;enable-background:new"
             inkscape:connector-curvature="0" />
        </g>
        <g
           id="g663">
          <path
             style="display:inline;enable-background:accumulate;color:#bebebe;fill:url(#linearGradient4256);fill-opacity:1;fill-rule:nonzero;stroke:none;stroke-width:2;marker:none;visibility:visible;overflow:visible"
             d="m 429,155.5 c 1.3844,0 2.5,-1.1156 2.5,-2.5 l 0,-10 c 0,-1.3844 -1.1156,-2.5 -2.5,-2.5 l -10,0 c -1.3844,0 -2.5,1.1156 -2.5,2.5 l 0,10 c 0,1.3844 1.1156,2.5 2.5,2.5 l 10,0 z"
             id="path4202"
             inkscape:connector-curvature="0" />
          <path
             inkscape:connector-curvature="0"
             style="display:inline;fill:#ffffff;fill-opacity:1;fill-rule:evenodd;stroke:none;stroke-width:0.06849316px;stroke-linecap:butt;stroke-linejoin:miter;stroke-opacity:1;enable-background:new"
             d="m 424.00042,142.61647 c 0.18444,0 0.49362,0.0805 1.4462,0.3764 0.22309,0.0693 0.44875,0.12555 0.50188,0.12547 0.0531,-7e-5 0.47355,-0.0722 0.93359,-0.16096 0.46003,-0.0887 0.86454,-0.16179 0.89975,-0.16179 0.12461,0 1.52951,1.8569 1.88286,2.48875 0.14771,0.26414 0.19376,0.52702 0.12795,0.7264 -0.0593,0.17957 -0.23237,0.35938 -1.3133,1.36448 -0.49623,0.46142 -0.91186,0.86394 -0.92369,0.89479 -0.0515,0.13431 -0.0108,0.33103 0.1428,0.68925 0.20133,0.46948 0.22726,0.66533 0.12547,0.95506 -0.10853,0.30893 -0.26869,0.53631 -0.53655,0.76355 -0.27318,0.23176 -0.43979,0.31179 -0.59598,0.28643 -0.18649,-0.0303 -1.3506,-0.61754 -1.54277,-0.7784 -0.45768,-0.3831 -0.9072,-0.82847 -0.92369,-0.91461 -0.01,-0.0503 0.009,-0.13836 0.0404,-0.19646 0.0319,-0.0581 0.36445,-0.37034 0.73961,-0.69338 0.65298,-0.56223 0.77097,-0.69258 0.77097,-0.85434 0,-0.04 -0.11602,-0.35794 -0.25836,-0.70659 -0.20419,-0.50015 -0.25921,-0.67223 -0.25837,-0.81391 0.001,-0.22409 0.0849,-0.38686 0.25754,-0.50105 0.0734,-0.0486 0.60161,-0.26811 1.1738,-0.48785 0.57219,-0.21973 1.07996,-0.41493 1.12757,-0.43336 0.0513,-0.0198 0.073,-0.0458 0.0537,-0.0644 -0.0181,-0.0173 -0.33324,-0.059 -0.70082,-0.0924 -0.78826,-0.0717 -0.77105,-0.0746 -1.63852,0.23608 -0.53809,0.19272 -0.62738,0.23584 -0.67275,0.32358 -0.0288,0.0556 -0.0516,0.13041 -0.0512,0.16591 2.6e-4,0.0355 0.11268,0.54887 0.24929,1.14078 0.23396,1.01373 0.24482,1.07922 0.18738,1.13748 -0.0711,0.0721 -0.77489,0.23975 -1.11932,0.26663 -0.30154,0.0235 -1.2676,-0.162 -1.36613,-0.2625 -0.0621,-0.0633 -0.0548,-0.10484 0.18408,-1.14161 0.13638,-0.59191 0.24803,-1.10528 0.24846,-1.14078 2.6e-4,-0.0355 -0.0226,-0.10984 -0.0512,-0.16509 -0.0453,-0.0877 -0.14035,-0.13234 -0.74456,-0.34834 l -0.69173,-0.24764 -0.37724,0.01 c -0.49797,0.0126 -1.18368,0.089 -1.19361,0.1329 -0.004,0.0192 0.50061,0.22951 1.12262,0.4672 0.62202,0.23769 1.18334,0.46958 1.24727,0.51509 0.15764,0.11224 0.23646,0.27474 0.23772,0.49114 5.2e-4,0.14323 -0.0543,0.31623 -0.26414,0.83289 -0.35342,0.87004 -0.39226,0.75694 0.53655,1.55847 0.39297,0.33911 0.73188,0.659 0.75365,0.71154 0.0642,0.15511 -0.0189,0.27732 -0.47052,0.68677 -0.53716,0.48706 -0.64198,0.55663 -1.34467,0.89481 -0.32246,0.15518 -0.63109,0.28109 -0.68595,0.27982 -0.15329,-0.003 -0.25445,-0.0551 -0.51426,-0.26497 -0.27939,-0.22574 -0.46376,-0.48722 -0.57287,-0.8106 -0.10034,-0.29737 -0.0824,-0.43363 0.12547,-0.92616 0.1514,-0.35861 0.19323,-0.56346 0.14116,-0.69917 -0.0116,-0.0304 -0.4032,-0.40956 -0.87004,-0.84278 -1.38782,-1.28799 -1.43797,-1.35013 -1.38511,-1.71695 0.0378,-0.26214 0.0844,-0.35074 0.54893,-1.03925 0.39504,-0.58549 1.30729,-1.78094 1.41483,-1.85397 0.0271,-0.0183 0.39589,0.0357 0.91791,0.13454 0.47982,0.0909 0.91791,0.16592 0.97404,0.16592 0.0561,0 0.28455,-0.057 0.50765,-0.12629 0.95258,-0.29586 1.26176,-0.37641 1.4462,-0.37641 z m 0.003,7.71801 c 0.16044,5.2e-4 0.32307,0.0612 0.61744,0.18243 0.55972,0.2305 1.73055,0.82035 1.77803,0.89561 0.0593,0.094 0.002,0.16172 -0.36073,0.42759 -0.64505,0.4726 -0.84993,0.63585 -1.36943,1.08878 -0.69295,0.60416 -0.64093,0.60351 -1.3166,0.014 -0.46832,-0.40858 -0.99309,-0.81723 -1.51141,-1.17628 -0.25161,-0.17429 -0.30207,-0.26463 -0.20223,-0.3632 0.0967,-0.0955 1.24858,-0.67874 1.76069,-0.89149 0.28555,-0.11863 0.4438,-0.1782 0.60424,-0.17748 z"
             id="path645"
             sodipodi:nodetypes="cccssscscscscsccssscsscccscsscccsscccccsscsscsscscccccsccsccccsccssssccc" />
        </g>
      </g>
    </g>
    <g
       inkscape:groupmode="layer"
       id="layer3"
       inkscape:label="Border"
       style="display:inline"
       sodipodi:insensitive="true">
      <path
         style="opacity:0.41;color:#bebebe;fill:#000000;fill-opacity:1;fill-rule:nonzero;stroke:none;stroke-width:0;marker:none;visibility:visible;display:inline;overflow:visible;enable-background:accumulate"
         d="m 422,101 c -2.77,0 -5,2.23 -5,5 l 0,12 c 0,2.77 2.23,5 5,5 l 12,0 c 2.77,0 5,-2.23 5,-5 l 0,-12 c 0,-2.77 -2.23,-5 -5,-5 l -12,0 z m 0,1 12,0 c 2.2333,0 4,1.7667 4,4 l 0,12 c 0,2.2333 -1.7667,4 -4,4 l -12,0 c -2.2333,0 -4,-1.7667 -4,-4 l 0,-12 c 0,-2.2333 1.7667,-4 4,-4 z"
         id="rect4099"
         inkscape:connector-curvature="0" />
      <path
         style="opacity:0.41;color:#bebebe;fill:#000000;fill-opacity:1;fill-rule:nonzero;stroke:none;stroke-width:0;marker:none;visibility:visible;display:inline;overflow:visible;enable-background:accumulate"
         d="m 424,53 c -3.878,0 -7,3.122 -7,7 l 0,16 c 0,3.878 3.122,7 7,7 l 16,0 c 3.878,0 7,-3.122 7,-7 l 0,-16 c 0,-3.878 -3.122,-7 -7,-7 l -16,0 z m 0,1 16,0 c 3.3413,0 6,2.658703 6,6 l 0,16 c 0,3.341297 -2.6587,6 -6,6 l -16,0 c -3.3413,0 -6,-2.658703 -6,-6 l 0,-16 c 0,-3.341297 2.6587,-6 6,-6 z"
         id="rect4151"
         inkscape:connector-curvature="0" />
      <path
         style="opacity:0.41;color:#bebebe;fill:#000000;fill-opacity:1;fill-rule:nonzero;stroke:none;stroke-width:0;marker:none;visibility:visible;display:inline;overflow:visible;enable-background:accumulate"
         d="m 419,140 c -1.662,0 -3,1.338 -3,3 l 0,10 c 0,1.662 1.338,3 3,3 l 10,0 c 1.662,0 3,-1.338 3,-3 l 0,-10 c 0,-1.662 -1.338,-3 -3,-3 l -10,0 z m 0,1 10,0 c 1.1253,0 2,0.8747 2,2 l 0,10 c 0,1.1253 -0.8747,2 -2,2 l -10,0 c -1.1253,0 -2,-0.8747 -2,-2 l 0,-10 c 0,-1.1253 0.8747,-2 2,-2 z"
         id="rect4095"
         inkscape:connector-curvature="0" />
      <path
         style="opacity:0.41;color:#bebebe;fill:#000000;fill-opacity:1;fill-rule:nonzero;stroke:none;stroke-width:0;marker:none;visibility:visible;display:inline;overflow:visible;enable-background:accumulate"
         d="m 300,223 c -4.986,0 -9,4.014 -9,9 l 0,24 c 0,4.986 4.014,9 9,9 l 24,0 c 4.986,0 9,-4.014 9,-9 l 0,-24 c 0,-4.986 -4.014,-9 -9,-9 l -24,0 z m 0,1 24,0 c 4.4493,0 8,3.5507 8,8 l 0,24 c 0,4.4493 -3.5507,8 -8,8 l -24,0 c -4.4493,0 -8,-3.5507 -8,-8 l 0,-24 c 0,-4.4493 3.5507,-8 8,-8 z"
         id="rect4783"
         inkscape:connector-curvature="0" />
      <path
         style="opacity:0.41;color:#bebebe;fill:#000000;fill-opacity:1;fill-rule:nonzero;stroke:none;stroke-width:0;marker:none;visibility:visible;display:inline;overflow:visible;enable-background:accumulate"
         d="m 302.5,142 c -6.925,0 -12.5,5.575 -12.5,12.5 l 0,35 c 0,6.925 5.575,12.5 12.5,12.5 l 35,0 c 6.925,0 12.5,-5.575 12.5,-12.5 l 0,-35 c 0,-6.925 -5.575,-12.5 -12.5,-12.5 l -35,0 z m 0,1 35,0 c 6.3883,0 11.5,5.1117 11.5,11.5 l 0,35 c 0,6.3883 -5.1117,11.5 -11.5,11.5 l -35,0 c -6.3883,0 -11.5,-5.1117 -11.5,-11.5 l 0,-35 c 0,-6.3883 5.1117,-11.5 11.5,-11.5 z"
         id="rect4515"
         inkscape:connector-curvature="0" />
      <path
         style="opacity:0.41;color:#bebebe;fill:#000000;fill-opacity:1;fill-rule:nonzero;stroke:none;stroke-width:0;marker:none;visibility:visible;display:inline;overflow:visible;enable-background:accumulate"
         d="m 310,32 c -9.972,0 -18,8.028 -18,18 l 0,52 c 0,9.972 8.028,18 18,18 l 52,0 c 9.972,0 18,-8.028 18,-18 l 0,-52 c 0,-9.972 -8.028,-18 -18,-18 l -52,0 z m 0,1 52,0 c 9.4353,0 17,7.564703 17,17 l 0,52 c 0,9.4353 -7.5647,17 -17,17 l -52,0 c -9.4353,0 -17,-7.5647 -17,-17 l 0,-52 c 0,-9.435297 7.5647,-17 17,-17 z"
         id="rect4511"
         inkscape:connector-curvature="0" />
      <path
         style="opacity:0.41;color:#bebebe;fill:#000000;fill-opacity:1;fill-rule:nonzero;stroke:none;stroke-width:0;marker:none;visibility:visible;display:inline;overflow:visible;enable-background:accumulate"
         d="M 84,46 C 56.3,46 34,68.3 34,96 l 0,120 c 0,27.7 22.3,50 50,50 l 120,0 c 27.7,0 50,-22.3 50,-50 L 254,96 C 254,68.3 231.7,46 204,46 L 84,46 z m 0,1 120,0 c 27.1633,0 49,21.836703 49,49 l 0,120 c 0,27.1633 -21.8367,49 -49,49 L 84,265 C 56.836703,265 35,243.1633 35,216 L 35,96 C 35,68.836703 56.836703,47 84,47 z"
         id="rect4040"
         inkscape:connector-curvature="0" />
    </g>
  </g>
</svg>
