<?xml version="1.0" encoding="UTF-8" standalone="no"?>
<!-- Created with Inkscape (http://www.inkscape.org/) -->

<svg
   xmlns:dc="http://purl.org/dc/elements/1.1/"
   xmlns:cc="http://creativecommons.org/ns#"
   xmlns:rdf="http://www.w3.org/1999/02/22-rdf-syntax-ns#"
   xmlns:svg="http://www.w3.org/2000/svg"
   xmlns="http://www.w3.org/2000/svg"
   xmlns:xlink="http://www.w3.org/1999/xlink"
   xmlns:sodipodi="http://sodipodi.sourceforge.net/DTD/sodipodi-0.dtd"
   xmlns:inkscape="http://www.inkscape.org/namespaces/inkscape"
   inkscape:export-ydpi="90.000000"
   inkscape:export-xdpi="90.000000"
   width="480"
   height="300"
   id="svg11300"
   sodipodi:version="0.32"
   inkscape:version="0.92.5 (2060ec1f9f, 2020-04-08)"
   sodipodi:docname="mint-y-assets (copy).svg"
   inkscape:output_extension="org.inkscape.output.svg.inkscape"
   version="1.0"
   style="display:inline;enable-background:new"
   inkscape:export-filename="/home/sam/moka-next-template.png"
   enable-background="new">
  <sodipodi:namedview
     stroke="#ef2929"
     fill="#f57900"
     id="base"
     pagecolor="#777777"
     bordercolor="#666666"
     borderopacity="0.25490196"
     inkscape:pageopacity="0"
     inkscape:pageshadow="2"
     inkscape:zoom="1.4142136"
     inkscape:cx="434.57391"
     inkscape:cy="153.54479"
     inkscape:current-layer="layer2"
     showgrid="false"
     inkscape:grid-bbox="true"
     inkscape:document-units="px"
     inkscape:showpageshadow="false"
     inkscape:window-width="1366"
     inkscape:window-height="741"
     inkscape:window-x="0"
     inkscape:window-y="0"
     width="400px"
     height="300px"
     inkscape:snap-nodes="true"
     inkscape:snap-bbox="true"
     gridtolerance="10000"
     inkscape:object-nodes="true"
     inkscape:snap-grids="true"
     showguides="false"
     inkscape:guide-bbox="true"
     inkscape:window-maximized="1"
     inkscape:bbox-nodes="true"
     inkscape:bbox-paths="true"
     inkscape:snap-bbox-edge-midpoints="true"
     inkscape:snap-bbox-midpoints="true">
    <inkscape:grid
       spacingy="1"
       spacingx="1"
       id="grid5883"
       type="xygrid"
       enabled="true"
       visible="true"
       empspacing="4"
       snapvisiblegridlinesonly="true"
       dotted="false"
       color="#000000"
       opacity="0.1254902"
       empcolor="#203ef3"
       empopacity="0.36470588"
       originx="0"
       originy="0" />
    <inkscape:grid
       type="xygrid"
       id="grid11592"
       empspacing="8"
       visible="true"
       enabled="false"
       spacingx="0.5"
       spacingy="0.5"
       color="#ff0000"
       opacity="0.1254902"
       empcolor="#ff0000"
       empopacity="0.25098039"
       snapvisiblegridlinesonly="true"
       dotted="true"
       originx="0"
       originy="0" />
  </sodipodi:namedview>
  <defs
     id="defs3">
    <linearGradient
       id="outerBackgroundGradient">
      <stop
         style="stop-color:#fd5d38;stop-opacity:1"
         offset="0"
         id="stop1633" />
      <stop
         style="stop-color:#f69d31;stop-opacity:1"
         offset="1"
         id="stop1635" />
    </linearGradient>
    <linearGradient
       id="outerBackgroundGradient-5">
      <stop
         style="stop-color:#f2f2f2;stop-opacity:1;"
         offset="0"
         id="stop3864-8-6-7" />
      <stop
         style="stop-color:#ffffff;stop-opacity:1;"
         offset="1"
         id="stop3866-9-1-73" />
    </linearGradient>
    <linearGradient
       inkscape:collect="always"
       xlink:href="#outerBackgroundGradient-5"
       id="linearGradient7760"
       gradientUnits="userSpaceOnUse"
       gradientTransform="rotate(-90,144.25,155.75)"
       x1="35"
       y1="156"
       x2="253"
       y2="156" />
    <linearGradient
       inkscape:collect="always"
       xlink:href="#outerBackgroundGradient-5"
       id="linearGradient7762"
       gradientUnits="userSpaceOnUse"
       gradientTransform="matrix(0,-1,1,0,276,572)"
       x1="417"
       y1="148"
       x2="431"
       y2="148" />
    <linearGradient
       inkscape:collect="always"
       xlink:href="#outerBackgroundGradient-5"
       id="linearGradient7764"
       gradientUnits="userSpaceOnUse"
       gradientTransform="matrix(0,-1,1,0,316,540)"
       x1="418"
       y1="112"
       x2="438"
       y2="112" />
    <linearGradient
       inkscape:collect="always"
       xlink:href="#outerBackgroundGradient-5"
       id="linearGradient7766"
       gradientUnits="userSpaceOnUse"
       gradientTransform="matrix(0,-1,1,0,364,500)"
       x1="418"
       y1="68"
       x2="446"
       y2="68" />
    <linearGradient
       inkscape:collect="always"
       xlink:href="#outerBackgroundGradient-5"
       id="linearGradient7768"
       gradientUnits="userSpaceOnUse"
       gradientTransform="matrix(0,-1,1,0,68,556)"
       x1="292"
       y1="244"
       x2="332"
       y2="244" />
    <linearGradient
       inkscape:collect="always"
       xlink:href="#outerBackgroundGradient-5"
       id="linearGradient7770"
       gradientUnits="userSpaceOnUse"
       gradientTransform="matrix(0,-1,1,0,260,412)"
       x1="293"
       y1="76"
       x2="379"
       y2="76" />
    <linearGradient
       inkscape:collect="always"
       xlink:href="#outerBackgroundGradient-5"
       id="linearGradient7772"
       gradientUnits="userSpaceOnUse"
       gradientTransform="matrix(0,-1,1,0,148,492)"
       x1="291"
       y1="172"
       x2="349"
       y2="172" />
    <linearGradient
       id="outerBackgroundGradient-9">
      <stop
         id="stop3864-8-6"
         offset="0"
         style="stop-color:#fd5d38;stop-opacity:1" />
      <stop
         id="stop3866-9-1"
         offset="1"
         style="stop-color:#f69d31;stop-opacity:1" />
    </linearGradient>
    <linearGradient
       inkscape:collect="always"
       xlink:href="#outerBackgroundGradient-9"
       id="linearGradient1631"
       x1="576.73248"
       y1="110.00159"
       x2="788.06451"
       y2="110.00159"
       gradientUnits="userSpaceOnUse" />
    <linearGradient
       inkscape:collect="always"
       xlink:href="#outerBackgroundGradient-9"
       id="linearGradient1642"
       gradientUnits="userSpaceOnUse"
       x1="576.73248"
       y1="110.00159"
       x2="788.06451"
       y2="110.00159" />
    <linearGradient
       inkscape:collect="always"
       xlink:href="#outerBackgroundGradient-9"
       id="linearGradient1644"
       gradientUnits="userSpaceOnUse"
       x1="576.73248"
       y1="110.00159"
       x2="788.06451"
       y2="110.00159" />
    <linearGradient
       inkscape:collect="always"
       xlink:href="#outerBackgroundGradient-9"
       id="linearGradient1672"
       gradientUnits="userSpaceOnUse"
       x1="576.73248"
       y1="110.00159"
       x2="788.06451"
       y2="110.00159" />
    <linearGradient
       inkscape:collect="always"
       xlink:href="#outerBackgroundGradient-9"
       id="linearGradient1674"
       gradientUnits="userSpaceOnUse"
       x1="576.73248"
       y1="110.00159"
       x2="788.06451"
       y2="110.00159" />
    <linearGradient
       inkscape:collect="always"
       xlink:href="#outerBackgroundGradient-9"
       id="linearGradient1676"
       gradientUnits="userSpaceOnUse"
       x1="576.73248"
       y1="110.00159"
       x2="788.06451"
       y2="110.00159" />
    <linearGradient
       inkscape:collect="always"
       xlink:href="#outerBackgroundGradient-9"
       id="linearGradient1704"
       gradientUnits="userSpaceOnUse"
       x1="576.73248"
       y1="110.00159"
       x2="788.06451"
       y2="110.00159" />
    <linearGradient
       inkscape:collect="always"
       xlink:href="#outerBackgroundGradient-9"
       id="linearGradient1706"
       gradientUnits="userSpaceOnUse"
       x1="576.73248"
       y1="110.00159"
       x2="788.06451"
       y2="110.00159" />
    <linearGradient
       inkscape:collect="always"
       xlink:href="#outerBackgroundGradient-9"
       id="linearGradient1708"
       gradientUnits="userSpaceOnUse"
       x1="576.73248"
       y1="110.00159"
       x2="788.06451"
       y2="110.00159" />
    <linearGradient
       inkscape:collect="always"
       xlink:href="#outerBackgroundGradient-9"
       id="linearGradient1732"
       gradientUnits="userSpaceOnUse"
       x1="576.73248"
       y1="110.00159"
       x2="788.06451"
       y2="110.00159" />
    <linearGradient
       inkscape:collect="always"
       xlink:href="#outerBackgroundGradient-9"
       id="linearGradient1734"
       gradientUnits="userSpaceOnUse"
       x1="576.73248"
       y1="110.00159"
       x2="788.06451"
       y2="110.00159" />
    <linearGradient
       inkscape:collect="always"
       xlink:href="#outerBackgroundGradient-9"
       id="linearGradient1736"
       gradientUnits="userSpaceOnUse"
       x1="576.73248"
       y1="110.00159"
       x2="788.06451"
       y2="110.00159" />
    <linearGradient
       inkscape:collect="always"
       xlink:href="#outerBackgroundGradient-9"
       id="linearGradient1760"
       gradientUnits="userSpaceOnUse"
       x1="576.73248"
       y1="110.00159"
       x2="788.06451"
       y2="110.00159" />
    <linearGradient
       inkscape:collect="always"
       xlink:href="#outerBackgroundGradient-9"
       id="linearGradient1762"
       gradientUnits="userSpaceOnUse"
       x1="576.73248"
       y1="110.00159"
       x2="788.06451"
       y2="110.00159" />
    <linearGradient
       inkscape:collect="always"
       xlink:href="#outerBackgroundGradient-9"
       id="linearGradient1764"
       gradientUnits="userSpaceOnUse"
       x1="576.73248"
       y1="110.00159"
       x2="788.06451"
       y2="110.00159" />
    <linearGradient
       inkscape:collect="always"
       xlink:href="#outerBackgroundGradient-9"
       id="linearGradient1788"
       gradientUnits="userSpaceOnUse"
       x1="576.73248"
       y1="110.00159"
       x2="788.06451"
       y2="110.00159" />
    <linearGradient
       inkscape:collect="always"
       xlink:href="#outerBackgroundGradient-9"
       id="linearGradient1790"
       gradientUnits="userSpaceOnUse"
       x1="576.73248"
       y1="110.00159"
       x2="788.06451"
       y2="110.00159" />
    <linearGradient
       inkscape:collect="always"
       xlink:href="#outerBackgroundGradient-9"
       id="linearGradient1792"
       gradientUnits="userSpaceOnUse"
       x1="576.73248"
       y1="110.00159"
       x2="788.06451"
       y2="110.00159" />
    <linearGradient
       inkscape:collect="always"
       xlink:href="#outerBackgroundGradient-9"
       id="linearGradient1806"
       gradientUnits="userSpaceOnUse"
       x1="576.73248"
       y1="110.00159"
       x2="788.06451"
       y2="110.00159" />
    <linearGradient
       inkscape:collect="always"
       xlink:href="#outerBackgroundGradient-9"
       id="linearGradient1808"
       gradientUnits="userSpaceOnUse"
       x1="576.73248"
       y1="110.00159"
       x2="788.06451"
       y2="110.00159" />
    <linearGradient
       inkscape:collect="always"
       xlink:href="#outerBackgroundGradient-9"
       id="linearGradient1810"
       gradientUnits="userSpaceOnUse"
       x1="576.73248"
       y1="110.00159"
       x2="788.06451"
       y2="110.00159" />
  </defs>
  <metadata
     id="metadata4">
    <rdf:RDF>
      <cc:Work
         rdf:about="">
        <dc:format>image/svg+xml</dc:format>
        <dc:type
           rdf:resource="http://purl.org/dc/dcmitype/StillImage" />
        <dc:creator>
          <cc:Agent>
            <dc:title>Sam Hewitt</dc:title>
          </cc:Agent>
        </dc:creator>
        <dc:source />
        <cc:license
           rdf:resource="" />
        <dc:title />
        <dc:subject>
          <rdf:Bag />
        </dc:subject>
        <dc:date />
        <dc:rights>
          <cc:Agent>
            <dc:title />
          </cc:Agent>
        </dc:rights>
        <dc:publisher>
          <cc:Agent>
            <dc:title />
          </cc:Agent>
        </dc:publisher>
        <dc:identifier />
        <dc:relation />
        <dc:language />
        <dc:coverage />
        <dc:description />
        <dc:contributor>
          <cc:Agent>
            <dc:title />
          </cc:Agent>
        </dc:contributor>
      </cc:Work>
      <cc:Work
         rdf:about="">
        <dc:format>image/svg+xml</dc:format>
        <dc:type
           rdf:resource="http://purl.org/dc/dcmitype/StillImage" />
      </cc:Work>
    </rdf:RDF>
  </metadata>
  <g
     style="display:inline"
     inkscape:groupmode="layer"
     inkscape:label="Icon"
     id="layer1">
    <g
       inkscape:groupmode="layer"
       id="layer2"
       inkscape:label="Background"
       style="display:inline;opacity:1">
      <g
         id="g1867">
        <g
           style=""
           id="g1658">
          <path
             style="color:#bebebe;display:inline;overflow:visible;visibility:visible;fill:url(#linearGradient7760);fill-opacity:1;fill-rule:nonzero;stroke:none;stroke-width:2;marker:none;enable-background:accumulate"
             d="M 84.5,46.5 C 57.068735,46.5 35,68.568732 35,96 v 120 c 0,27.43127 22.068735,49.5 49.5,49.5 h 120 c 27.43127,0 49.5,-22.06873 49.5,-49.5 V 96 C 254,68.568732 231.93127,46.5 204.5,46.5 Z"
             id="path4200"
             inkscape:connector-curvature="0" />
          <g
             id="g160"
             transform="matrix(0.80442127,0,0,0.80395867,-404.43587,67.563266)"
             style="fill:url(#linearGradient1631);fill-opacity:1">
            <path
               id="path133"
               d="m 663.1058,16.908592 -15.33333,4.666667 -15.73334,-2.8 c -8.53333,-1.466667 -16.66667,-2.666667 -18.13333,-2.666667 -1.6,0 -6.8,6 -15.06667,16.933334 -21.6,28.933335 -24.8,35.733335 -20.4,42.666669 1.33333,2.133333 10.66667,11.733334 20.8,21.466668 20.4,19.599997 20.4,19.599997 15.86667,30.933337 -3.33334,8.53333 -3.33334,14.66666 0,21.2 2.8,5.73333 10.93333,13.06667 15.46666,14.26667 3.33334,0.8 20.00001,-6.4 28.80001,-12.53334 8.4,-5.86667 18.4,-16 18.4,-18.66667 0,-1.2 -6.26667,-8.26666 -14,-15.6 l -14.13334,-13.33333 1.86667,-6.000001 c 1.06667,-3.333333 3.2,-9.2 4.8,-13.066667 3.33333,-8.266667 3.6,-13.333334 0.93333,-17.066668 -1.2,-1.6 -10.26666,-6 -23.46667,-11.2 -11.86666,-4.533334 -21.06666,-8.800001 -20.4,-9.466667 0.53334,-0.533334 7.06667,-1.333334 14.4,-1.866667 12.66667,-0.666667 13.86667,-0.533333 25.20001,3.733333 6.8,2.400001 12.53333,5.466667 13.46666,6.933334 1.46667,2.266667 0.93334,6 -2.8,22.533335 -3.06666,13.6 -4.13333,20.400001 -3.2,21.466667 1.6,2.000001 14.4,4.666671 22,4.666671 7.73334,0 20.4,-2.66667 22,-4.666671 0.93334,-1.2 0.13334,-7.466667 -3.2,-21.466667 -3.73333,-16.533335 -4.26666,-20.266668 -2.8,-22.533335 0.93334,-1.466667 6.66667,-4.533333 13.46667,-6.933334 11.33334,-4.266666 12.53334,-4.4 25.2,-3.733333 7.33334,0.533333 13.86667,1.333333 14.4,1.866667 0.53334,0.533333 -8.4,4.8 -20,9.333333 -11.6,4.533334 -22.13333,9.600001 -23.33333,11.066668 -3.46667,4 -2.93334,8.266667 2.53333,22.933334 l 4.93334,13.199998 -14.26667,13.46667 c -7.86667,7.46667 -14.26667,14.4 -14.26667,15.6 0,4.4 17.6,19.06667 30.8,25.73334 14.53334,7.33333 16.8,7.33333 24.53334,0.53333 9.86666,-8.53333 12.13333,-18.13334 7.33333,-30.66667 -1.46667,-3.86667 -2.66667,-8.4 -2.66667,-10 0,-1.86667 5.86667,-8.53333 18.53334,-20.666667 10.13333,-9.733334 19.46667,-19.333335 20.8,-21.333335 4.4,-7.066667 0.53333,-15.333334 -19.86667,-42.266669 -14.93333,-19.600001 -12.4,-18.400001 -32.53333,-14.933334 l -16.93334,2.933334 -15.86667,-4.8 c -8.8,-2.533334 -17.46666,-4.666667 -19.33333,-4.533334 -1.86667,0 -10.4,2.133333 -18.8,4.666667 z"
               inkscape:connector-curvature="0"
               style="fill:url(#linearGradient1642);fill-opacity:1;stroke:none;stroke-width:0.13333334" />
            <path
               id="path135"
               d="m 666.97247,157.84193 c -14.66667,6.66667 -27.86667,14.26667 -27.86667,16.26667 0,0.93333 4.93333,5.33333 11.06667,9.73333 6,4.4 14.8,11.33334 19.46666,15.46667 4.66667,4.13333 9.73334,7.73333 11.06667,8.26667 3.06667,0.93333 6.66667,-1.33334 18.4,-11.33334 4.8,-4.13333 12.8,-10.53333 17.73334,-14.13333 5.06666,-3.73333 8.8,-7.46667 8.53333,-8.66667 -0.13333,-1.06666 -8,-5.86666 -17.6,-10.53333 -21.86667,-10.93333 -26.4,-11.46667 -40.8,-5.06667 z"
               inkscape:connector-curvature="0"
               style="fill:url(#linearGradient1644);fill-opacity:1;stroke:none;stroke-width:0.13333334" />
          </g>
        </g>
        <g
           style=""
           id="g1686">
          <path
             style="color:#bebebe;fill:url(#linearGradient7770);fill-opacity:1;fill-rule:nonzero;stroke:none;stroke-width:2;marker:none;visibility:visible;display:inline;overflow:visible;enable-background:accumulate"
             d="M 310 32.5 C 300.29745 32.5 292.5 40.297452 292.5 50 L 292.5 102 C 292.5 111.70255 300.29745 119.5 310 119.5 L 362 119.5 C 371.70255 119.5 379.5 111.70255 379.5 102 L 379.5 50 C 379.5 40.297452 371.70255 32.5 362 32.5 L 310 32.5 z "
             id="path4210" />
          <g
             style="fill:url(#linearGradient1676);fill-opacity:1"
             transform="matrix(0.31956461,0,0,0.31938084,117.92959,40.867599)"
             id="g1666">
            <path
               style="fill:url(#linearGradient1672);fill-opacity:1;stroke:none;stroke-width:0.13333334"
               inkscape:connector-curvature="0"
               d="m 663.1058,16.908592 -15.33333,4.666667 -15.73334,-2.8 c -8.53333,-1.466667 -16.66667,-2.666667 -18.13333,-2.666667 -1.6,0 -6.8,6 -15.06667,16.933334 -21.6,28.933335 -24.8,35.733335 -20.4,42.666669 1.33333,2.133333 10.66667,11.733334 20.8,21.466668 20.4,19.599997 20.4,19.599997 15.86667,30.933337 -3.33334,8.53333 -3.33334,14.66666 0,21.2 2.8,5.73333 10.93333,13.06667 15.46666,14.26667 3.33334,0.8 20.00001,-6.4 28.80001,-12.53334 8.4,-5.86667 18.4,-16 18.4,-18.66667 0,-1.2 -6.26667,-8.26666 -14,-15.6 l -14.13334,-13.33333 1.86667,-6.000001 c 1.06667,-3.333333 3.2,-9.2 4.8,-13.066667 3.33333,-8.266667 3.6,-13.333334 0.93333,-17.066668 -1.2,-1.6 -10.26666,-6 -23.46667,-11.2 -11.86666,-4.533334 -21.06666,-8.800001 -20.4,-9.466667 0.53334,-0.533334 7.06667,-1.333334 14.4,-1.866667 12.66667,-0.666667 13.86667,-0.533333 25.20001,3.733333 6.8,2.400001 12.53333,5.466667 13.46666,6.933334 1.46667,2.266667 0.93334,6 -2.8,22.533335 -3.06666,13.6 -4.13333,20.400001 -3.2,21.466667 1.6,2.000001 14.4,4.666671 22,4.666671 7.73334,0 20.4,-2.66667 22,-4.666671 0.93334,-1.2 0.13334,-7.466667 -3.2,-21.466667 -3.73333,-16.533335 -4.26666,-20.266668 -2.8,-22.533335 0.93334,-1.466667 6.66667,-4.533333 13.46667,-6.933334 11.33334,-4.266666 12.53334,-4.4 25.2,-3.733333 7.33334,0.533333 13.86667,1.333333 14.4,1.866667 0.53334,0.533333 -8.4,4.8 -20,9.333333 -11.6,4.533334 -22.13333,9.600001 -23.33333,11.066668 -3.46667,4 -2.93334,8.266667 2.53333,22.933334 l 4.93334,13.199998 -14.26667,13.46667 c -7.86667,7.46667 -14.26667,14.4 -14.26667,15.6 0,4.4 17.6,19.06667 30.8,25.73334 14.53334,7.33333 16.8,7.33333 24.53334,0.53333 9.86666,-8.53333 12.13333,-18.13334 7.33333,-30.66667 -1.46667,-3.86667 -2.66667,-8.4 -2.66667,-10 0,-1.86667 5.86667,-8.53333 18.53334,-20.666667 10.13333,-9.733334 19.46667,-19.333335 20.8,-21.333335 4.4,-7.066667 0.53333,-15.333334 -19.86667,-42.266669 -14.93333,-19.600001 -12.4,-18.400001 -32.53333,-14.933334 l -16.93334,2.933334 -15.86667,-4.8 c -8.8,-2.533334 -17.46666,-4.666667 -19.33333,-4.533334 -1.86667,0 -10.4,2.133333 -18.8,4.666667 z"
               id="path1662" />
            <path
               style="fill:url(#linearGradient1674);fill-opacity:1;stroke:none;stroke-width:0.13333334"
               inkscape:connector-curvature="0"
               d="m 666.97247,157.84193 c -14.66667,6.66667 -27.86667,14.26667 -27.86667,16.26667 0,0.93333 4.93333,5.33333 11.06667,9.73333 6,4.4 14.8,11.33334 19.46666,15.46667 4.66667,4.13333 9.73334,7.73333 11.06667,8.26667 3.06667,0.93333 6.66667,-1.33334 18.4,-11.33334 4.8,-4.13333 12.8,-10.53333 17.73334,-14.13333 5.06666,-3.73333 8.8,-7.46667 8.53333,-8.66667 -0.13333,-1.06666 -8,-5.86666 -17.6,-10.53333 -21.86667,-10.93333 -26.4,-11.46667 -40.8,-5.06667 z"
               id="path1664" />
          </g>
        </g>
        <g
           id="g1718">
          <path
             style="color:#bebebe;fill:url(#linearGradient7772);fill-opacity:1;fill-rule:nonzero;stroke:none;stroke-width:2;marker:none;visibility:visible;display:inline;overflow:visible;enable-background:accumulate"
             d="M 302.5 142.5 C 295.84498 142.5 290.5 147.84498 290.5 154.5 L 290.5 189.5 C 290.5 196.15502 295.84498 201.5 302.5 201.5 L 337.5 201.5 C 344.15502 201.5 349.5 196.15502 349.5 189.5 L 349.5 154.5 C 349.5 147.84498 344.15502 142.5 337.5 142.5 L 302.5 142.5 z "
             id="path4212" />
          <g
             id="g1698"
             transform="matrix(0.21671623,0,0,0.2165916,172.11317,148.17458)"
             style="fill:url(#linearGradient1708);fill-opacity:1">
            <path
               id="path1694"
               d="m 663.1058,16.908592 -15.33333,4.666667 -15.73334,-2.8 c -8.53333,-1.466667 -16.66667,-2.666667 -18.13333,-2.666667 -1.6,0 -6.8,6 -15.06667,16.933334 -21.6,28.933335 -24.8,35.733335 -20.4,42.666669 1.33333,2.133333 10.66667,11.733334 20.8,21.466668 20.4,19.599997 20.4,19.599997 15.86667,30.933337 -3.33334,8.53333 -3.33334,14.66666 0,21.2 2.8,5.73333 10.93333,13.06667 15.46666,14.26667 3.33334,0.8 20.00001,-6.4 28.80001,-12.53334 8.4,-5.86667 18.4,-16 18.4,-18.66667 0,-1.2 -6.26667,-8.26666 -14,-15.6 l -14.13334,-13.33333 1.86667,-6.000001 c 1.06667,-3.333333 3.2,-9.2 4.8,-13.066667 3.33333,-8.266667 3.6,-13.333334 0.93333,-17.066668 -1.2,-1.6 -10.26666,-6 -23.46667,-11.2 -11.86666,-4.533334 -21.06666,-8.800001 -20.4,-9.466667 0.53334,-0.533334 7.06667,-1.333334 14.4,-1.866667 12.66667,-0.666667 13.86667,-0.533333 25.20001,3.733333 6.8,2.400001 12.53333,5.466667 13.46666,6.933334 1.46667,2.266667 0.93334,6 -2.8,22.533335 -3.06666,13.6 -4.13333,20.400001 -3.2,21.466667 1.6,2.000001 14.4,4.666671 22,4.666671 7.73334,0 20.4,-2.66667 22,-4.666671 0.93334,-1.2 0.13334,-7.466667 -3.2,-21.466667 -3.73333,-16.533335 -4.26666,-20.266668 -2.8,-22.533335 0.93334,-1.466667 6.66667,-4.533333 13.46667,-6.933334 11.33334,-4.266666 12.53334,-4.4 25.2,-3.733333 7.33334,0.533333 13.86667,1.333333 14.4,1.866667 0.53334,0.533333 -8.4,4.8 -20,9.333333 -11.6,4.533334 -22.13333,9.600001 -23.33333,11.066668 -3.46667,4 -2.93334,8.266667 2.53333,22.933334 l 4.93334,13.199998 -14.26667,13.46667 c -7.86667,7.46667 -14.26667,14.4 -14.26667,15.6 0,4.4 17.6,19.06667 30.8,25.73334 14.53334,7.33333 16.8,7.33333 24.53334,0.53333 9.86666,-8.53333 12.13333,-18.13334 7.33333,-30.66667 -1.46667,-3.86667 -2.66667,-8.4 -2.66667,-10 0,-1.86667 5.86667,-8.53333 18.53334,-20.666667 10.13333,-9.733334 19.46667,-19.333335 20.8,-21.333335 4.4,-7.066667 0.53333,-15.333334 -19.86667,-42.266669 -14.93333,-19.600001 -12.4,-18.400001 -32.53333,-14.933334 l -16.93334,2.933334 -15.86667,-4.8 c -8.8,-2.533334 -17.46666,-4.666667 -19.33333,-4.533334 -1.86667,0 -10.4,2.133333 -18.8,4.666667 z"
               inkscape:connector-curvature="0"
               style="fill:url(#linearGradient1704);fill-opacity:1;stroke:none;stroke-width:0.13333334" />
            <path
               id="path1696"
               d="m 666.97247,157.84193 c -14.66667,6.66667 -27.86667,14.26667 -27.86667,16.26667 0,0.93333 4.93333,5.33333 11.06667,9.73333 6,4.4 14.8,11.33334 19.46666,15.46667 4.66667,4.13333 9.73334,7.73333 11.06667,8.26667 3.06667,0.93333 6.66667,-1.33334 18.4,-11.33334 4.8,-4.13333 12.8,-10.53333 17.73334,-14.13333 5.06666,-3.73333 8.8,-7.46667 8.53333,-8.66667 -0.13333,-1.06666 -8,-5.86666 -17.6,-10.53333 -21.86667,-10.93333 -26.4,-11.46667 -40.8,-5.06667 z"
               inkscape:connector-curvature="0"
               style="fill:url(#linearGradient1706);fill-opacity:1;stroke:none;stroke-width:0.13333334" />
          </g>
        </g>
        <g
           id="g1746">
          <path
             style="color:#bebebe;fill:url(#linearGradient7768);fill-opacity:1;fill-rule:nonzero;stroke:none;stroke-width:2;marker:none;visibility:visible;display:inline;overflow:visible;enable-background:accumulate"
             d="M 300 223.5 C 295.28469 223.5 291.5 227.28469 291.5 232 L 291.5 256 C 291.5 260.71531 295.28469 264.5 300 264.5 L 324 264.5 C 328.71531 264.5 332.5 260.71531 332.5 256 L 332.5 232 C 332.5 227.28469 328.71531 223.5 324 223.5 L 300 223.5 z "
             id="path4208" />
          <g
             style="fill:url(#linearGradient1736);fill-opacity:1"
             transform="matrix(0.15059941,0,0,0.15051281,209.23119,227.44335)"
             id="g1726">
            <path
               style="fill:url(#linearGradient1732);fill-opacity:1;stroke:none;stroke-width:0.13333334"
               inkscape:connector-curvature="0"
               d="m 663.1058,16.908592 -15.33333,4.666667 -15.73334,-2.8 c -8.53333,-1.466667 -16.66667,-2.666667 -18.13333,-2.666667 -1.6,0 -6.8,6 -15.06667,16.933334 -21.6,28.933335 -24.8,35.733335 -20.4,42.666669 1.33333,2.133333 10.66667,11.733334 20.8,21.466668 20.4,19.599997 20.4,19.599997 15.86667,30.933337 -3.33334,8.53333 -3.33334,14.66666 0,21.2 2.8,5.73333 10.93333,13.06667 15.46666,14.26667 3.33334,0.8 20.00001,-6.4 28.80001,-12.53334 8.4,-5.86667 18.4,-16 18.4,-18.66667 0,-1.2 -6.26667,-8.26666 -14,-15.6 l -14.13334,-13.33333 1.86667,-6.000001 c 1.06667,-3.333333 3.2,-9.2 4.8,-13.066667 3.33333,-8.266667 3.6,-13.333334 0.93333,-17.066668 -1.2,-1.6 -10.26666,-6 -23.46667,-11.2 -11.86666,-4.533334 -21.06666,-8.800001 -20.4,-9.466667 0.53334,-0.533334 7.06667,-1.333334 14.4,-1.866667 12.66667,-0.666667 13.86667,-0.533333 25.20001,3.733333 6.8,2.400001 12.53333,5.466667 13.46666,6.933334 1.46667,2.266667 0.93334,6 -2.8,22.533335 -3.06666,13.6 -4.13333,20.400001 -3.2,21.466667 1.6,2.000001 14.4,4.666671 22,4.666671 7.73334,0 20.4,-2.66667 22,-4.666671 0.93334,-1.2 0.13334,-7.466667 -3.2,-21.466667 -3.73333,-16.533335 -4.26666,-20.266668 -2.8,-22.533335 0.93334,-1.466667 6.66667,-4.533333 13.46667,-6.933334 11.33334,-4.266666 12.53334,-4.4 25.2,-3.733333 7.33334,0.533333 13.86667,1.333333 14.4,1.866667 0.53334,0.533333 -8.4,4.8 -20,9.333333 -11.6,4.533334 -22.13333,9.600001 -23.33333,11.066668 -3.46667,4 -2.93334,8.266667 2.53333,22.933334 l 4.93334,13.199998 -14.26667,13.46667 c -7.86667,7.46667 -14.26667,14.4 -14.26667,15.6 0,4.4 17.6,19.06667 30.8,25.73334 14.53334,7.33333 16.8,7.33333 24.53334,0.53333 9.86666,-8.53333 12.13333,-18.13334 7.33333,-30.66667 -1.46667,-3.86667 -2.66667,-8.4 -2.66667,-10 0,-1.86667 5.86667,-8.53333 18.53334,-20.666667 10.13333,-9.733334 19.46667,-19.333335 20.8,-21.333335 4.4,-7.066667 0.53333,-15.333334 -19.86667,-42.266669 -14.93333,-19.600001 -12.4,-18.400001 -32.53333,-14.933334 l -16.93334,2.933334 -15.86667,-4.8 c -8.8,-2.533334 -17.46666,-4.666667 -19.33333,-4.533334 -1.86667,0 -10.4,2.133333 -18.8,4.666667 z"
               id="path1722" />
            <path
               style="fill:url(#linearGradient1734);fill-opacity:1;stroke:none;stroke-width:0.13333334"
               inkscape:connector-curvature="0"
               d="m 666.97247,157.84193 c -14.66667,6.66667 -27.86667,14.26667 -27.86667,16.26667 0,0.93333 4.93333,5.33333 11.06667,9.73333 6,4.4 14.8,11.33334 19.46666,15.46667 4.66667,4.13333 9.73334,7.73333 11.06667,8.26667 3.06667,0.93333 6.66667,-1.33334 18.4,-11.33334 4.8,-4.13333 12.8,-10.53333 17.73334,-14.13333 5.06666,-3.73333 8.8,-7.46667 8.53333,-8.66667 -0.13333,-1.06666 -8,-5.86666 -17.6,-10.53333 -21.86667,-10.93333 -26.4,-11.46667 -40.8,-5.06667 z"
               id="path1724" />
          </g>
        </g>
        <g
           id="g1774">
          <path
             style="color:#bebebe;fill:url(#linearGradient7766);fill-opacity:1;fill-rule:nonzero;stroke:none;stroke-width:2;marker:none;visibility:visible;display:inline;overflow:visible;enable-background:accumulate"
             d="M 424 53.5 C 420.39346 53.5 417.5 56.393464 417.5 60 L 417.5 76 C 417.5 79.606536 420.39346 82.5 424 82.5 L 440 82.5 C 443.60654 82.5 446.5 79.606536 446.5 76 L 446.5 60 C 446.5 56.393464 443.60654 53.5 440 53.5 L 424 53.5 z "
             id="path4206" />
          <g
             id="g1754"
             transform="matrix(0.10652153,0,0,0.10646028,359.30987,56.2892)"
             style="fill:url(#linearGradient1764);fill-opacity:1">
            <path
               id="path1750"
               d="m 663.1058,16.908592 -15.33333,4.666667 -15.73334,-2.8 c -8.53333,-1.466667 -16.66667,-2.666667 -18.13333,-2.666667 -1.6,0 -6.8,6 -15.06667,16.933334 -21.6,28.933335 -24.8,35.733335 -20.4,42.666669 1.33333,2.133333 10.66667,11.733334 20.8,21.466668 20.4,19.599997 20.4,19.599997 15.86667,30.933337 -3.33334,8.53333 -3.33334,14.66666 0,21.2 2.8,5.73333 10.93333,13.06667 15.46666,14.26667 3.33334,0.8 20.00001,-6.4 28.80001,-12.53334 8.4,-5.86667 18.4,-16 18.4,-18.66667 0,-1.2 -6.26667,-8.26666 -14,-15.6 l -14.13334,-13.33333 1.86667,-6.000001 c 1.06667,-3.333333 3.2,-9.2 4.8,-13.066667 3.33333,-8.266667 3.6,-13.333334 0.93333,-17.066668 -1.2,-1.6 -10.26666,-6 -23.46667,-11.2 -11.86666,-4.533334 -21.06666,-8.800001 -20.4,-9.466667 0.53334,-0.533334 7.06667,-1.333334 14.4,-1.866667 12.66667,-0.666667 13.86667,-0.533333 25.20001,3.733333 6.8,2.400001 12.53333,5.466667 13.46666,6.933334 1.46667,2.266667 0.93334,6 -2.8,22.533335 -3.06666,13.6 -4.13333,20.400001 -3.2,21.466667 1.6,2.000001 14.4,4.666671 22,4.666671 7.73334,0 20.4,-2.66667 22,-4.666671 0.93334,-1.2 0.13334,-7.466667 -3.2,-21.466667 -3.73333,-16.533335 -4.26666,-20.266668 -2.8,-22.533335 0.93334,-1.466667 6.66667,-4.533333 13.46667,-6.933334 11.33334,-4.266666 12.53334,-4.4 25.2,-3.733333 7.33334,0.533333 13.86667,1.333333 14.4,1.866667 0.53334,0.533333 -8.4,4.8 -20,9.333333 -11.6,4.533334 -22.13333,9.600001 -23.33333,11.066668 -3.46667,4 -2.93334,8.266667 2.53333,22.933334 l 4.93334,13.199998 -14.26667,13.46667 c -7.86667,7.46667 -14.26667,14.4 -14.26667,15.6 0,4.4 17.6,19.06667 30.8,25.73334 14.53334,7.33333 16.8,7.33333 24.53334,0.53333 9.86666,-8.53333 12.13333,-18.13334 7.33333,-30.66667 -1.46667,-3.86667 -2.66667,-8.4 -2.66667,-10 0,-1.86667 5.86667,-8.53333 18.53334,-20.666667 10.13333,-9.733334 19.46667,-19.333335 20.8,-21.333335 4.4,-7.066667 0.53333,-15.333334 -19.86667,-42.266669 -14.93333,-19.600001 -12.4,-18.400001 -32.53333,-14.933334 l -16.93334,2.933334 -15.86667,-4.8 c -8.8,-2.533334 -17.46666,-4.666667 -19.33333,-4.533334 -1.86667,0 -10.4,2.133333 -18.8,4.666667 z"
               inkscape:connector-curvature="0"
               style="fill:url(#linearGradient1760);fill-opacity:1;stroke:none;stroke-width:0.13333334" />
            <path
               id="path1752"
               d="m 666.97247,157.84193 c -14.66667,6.66667 -27.86667,14.26667 -27.86667,16.26667 0,0.93333 4.93333,5.33333 11.06667,9.73333 6,4.4 14.8,11.33334 19.46666,15.46667 4.66667,4.13333 9.73334,7.73333 11.06667,8.26667 3.06667,0.93333 6.66667,-1.33334 18.4,-11.33334 4.8,-4.13333 12.8,-10.53333 17.73334,-14.13333 5.06666,-3.73333 8.8,-7.46667 8.53333,-8.66667 -0.13333,-1.06666 -8,-5.86666 -17.6,-10.53333 -21.86667,-10.93333 -26.4,-11.46667 -40.8,-5.06667 z"
               inkscape:connector-curvature="0"
               style="fill:url(#linearGradient1762);fill-opacity:1;stroke:none;stroke-width:0.13333334" />
          </g>
        </g>
        <g
           id="g1830">
          <path
             style="color:#bebebe;fill:url(#linearGradient7764);fill-opacity:1;fill-rule:nonzero;stroke:none;stroke-width:2;marker:none;visibility:visible;display:inline;overflow:visible;enable-background:accumulate"
             d="M 422 101.5 C 419.50301 101.5 417.5 103.50301 417.5 106 L 417.5 118 C 417.5 120.49699 419.50301 122.5 422 122.5 L 434 122.5 C 436.49699 122.5 438.5 120.49699 438.5 118 L 438.5 106 C 438.5 103.50301 436.49699 101.5 434 101.5 L 422 101.5 z "
             id="path4204" />
          <g
             style="fill:url(#linearGradient1792);fill-opacity:1"
             transform="matrix(0.07713628,0,0,0.07709193,375.36232,103.51976)"
             id="g1782">
            <path
               style="fill:url(#linearGradient1788);fill-opacity:1;stroke:none;stroke-width:0.13333334"
               inkscape:connector-curvature="0"
               d="m 663.1058,16.908592 -15.33333,4.666667 -15.73334,-2.8 c -8.53333,-1.466667 -16.66667,-2.666667 -18.13333,-2.666667 -1.6,0 -6.8,6 -15.06667,16.933334 -21.6,28.933335 -24.8,35.733335 -20.4,42.666669 1.33333,2.133333 10.66667,11.733334 20.8,21.466668 20.4,19.599997 20.4,19.599997 15.86667,30.933337 -3.33334,8.53333 -3.33334,14.66666 0,21.2 2.8,5.73333 10.93333,13.06667 15.46666,14.26667 3.33334,0.8 20.00001,-6.4 28.80001,-12.53334 8.4,-5.86667 18.4,-16 18.4,-18.66667 0,-1.2 -6.26667,-8.26666 -14,-15.6 l -14.13334,-13.33333 1.86667,-6.000001 c 1.06667,-3.333333 3.2,-9.2 4.8,-13.066667 3.33333,-8.266667 3.6,-13.333334 0.93333,-17.066668 -1.2,-1.6 -10.26666,-6 -23.46667,-11.2 -11.86666,-4.533334 -21.06666,-8.800001 -20.4,-9.466667 0.53334,-0.533334 7.06667,-1.333334 14.4,-1.866667 12.66667,-0.666667 13.86667,-0.533333 25.20001,3.733333 6.8,2.400001 12.53333,5.466667 13.46666,6.933334 1.46667,2.266667 0.93334,6 -2.8,22.533335 -3.06666,13.6 -4.13333,20.400001 -3.2,21.466667 1.6,2.000001 14.4,4.666671 22,4.666671 7.73334,0 20.4,-2.66667 22,-4.666671 0.93334,-1.2 0.13334,-7.466667 -3.2,-21.466667 -3.73333,-16.533335 -4.26666,-20.266668 -2.8,-22.533335 0.93334,-1.466667 6.66667,-4.533333 13.46667,-6.933334 11.33334,-4.266666 12.53334,-4.4 25.2,-3.733333 7.33334,0.533333 13.86667,1.333333 14.4,1.866667 0.53334,0.533333 -8.4,4.8 -20,9.333333 -11.6,4.533334 -22.13333,9.600001 -23.33333,11.066668 -3.46667,4 -2.93334,8.266667 2.53333,22.933334 l 4.93334,13.199998 -14.26667,13.46667 c -7.86667,7.46667 -14.26667,14.4 -14.26667,15.6 0,4.4 17.6,19.06667 30.8,25.73334 14.53334,7.33333 16.8,7.33333 24.53334,0.53333 9.86666,-8.53333 12.13333,-18.13334 7.33333,-30.66667 -1.46667,-3.86667 -2.66667,-8.4 -2.66667,-10 0,-1.86667 5.86667,-8.53333 18.53334,-20.666667 10.13333,-9.733334 19.46667,-19.333335 20.8,-21.333335 4.4,-7.066667 0.53333,-15.333334 -19.86667,-42.266669 -14.93333,-19.600001 -12.4,-18.400001 -32.53333,-14.933334 l -16.93334,2.933334 -15.86667,-4.8 c -8.8,-2.533334 -17.46666,-4.666667 -19.33333,-4.533334 -1.86667,0 -10.4,2.133333 -18.8,4.666667 z"
               id="path1778" />
            <path
               style="fill:url(#linearGradient1790);fill-opacity:1;stroke:none;stroke-width:0.13333334"
               inkscape:connector-curvature="0"
               d="m 666.97247,157.84193 c -14.66667,6.66667 -27.86667,14.26667 -27.86667,16.26667 0,0.93333 4.93333,5.33333 11.06667,9.73333 6,4.4 14.8,11.33334 19.46666,15.46667 4.66667,4.13333 9.73334,7.73333 11.06667,8.26667 3.06667,0.93333 6.66667,-1.33334 18.4,-11.33334 4.8,-4.13333 12.8,-10.53333 17.73334,-14.13333 5.06666,-3.73333 8.8,-7.46667 8.53333,-8.66667 -0.13333,-1.06666 -8,-5.86666 -17.6,-10.53333 -21.86667,-10.93333 -26.4,-11.46667 -40.8,-5.06667 z"
               id="path1780" />
          </g>
        </g>
        <g
           id="g1824">
          <path
             style="color:#bebebe;fill:url(#linearGradient7762);fill-opacity:1;fill-rule:nonzero;stroke:none;stroke-width:2;marker:none;visibility:visible;display:inline;overflow:visible;enable-background:accumulate"
             d="M 419 140.5 C 417.6156 140.5 416.5 141.6156 416.5 143 L 416.5 153 C 416.5 154.3844 417.6156 155.5 419 155.5 L 429 155.5 C 430.3844 155.5 431.5 154.3844 431.5 153 L 431.5 143 C 431.5 141.6156 430.3844 140.5 429 140.5 L 419 140.5 z "
             id="path4202" />
          <g
             style="fill:url(#linearGradient1810);fill-opacity:1"
             transform="matrix(0.05509734,0,0,0.05506566,386.40166,141.94269)"
             id="g1800">
            <path
               style="fill:url(#linearGradient1806);fill-opacity:1;stroke:none;stroke-width:0.13333334"
               inkscape:connector-curvature="0"
               d="m 663.1058,16.908592 -15.33333,4.666667 -15.73334,-2.8 c -8.53333,-1.466667 -16.66667,-2.666667 -18.13333,-2.666667 -1.6,0 -6.8,6 -15.06667,16.933334 -21.6,28.933335 -24.8,35.733335 -20.4,42.666669 1.33333,2.133333 10.66667,11.733334 20.8,21.466668 20.4,19.599997 20.4,19.599997 15.86667,30.933337 -3.33334,8.53333 -3.33334,14.66666 0,21.2 2.8,5.73333 10.93333,13.06667 15.46666,14.26667 3.33334,0.8 20.00001,-6.4 28.80001,-12.53334 8.4,-5.86667 18.4,-16 18.4,-18.66667 0,-1.2 -6.26667,-8.26666 -14,-15.6 l -14.13334,-13.33333 1.86667,-6.000001 c 1.06667,-3.333333 3.2,-9.2 4.8,-13.066667 3.33333,-8.266667 3.6,-13.333334 0.93333,-17.066668 -1.2,-1.6 -10.26666,-6 -23.46667,-11.2 -11.86666,-4.533334 -21.06666,-8.800001 -20.4,-9.466667 0.53334,-0.533334 7.06667,-1.333334 14.4,-1.866667 12.66667,-0.666667 13.86667,-0.533333 25.20001,3.733333 6.8,2.400001 12.53333,5.466667 13.46666,6.933334 1.46667,2.266667 0.93334,6 -2.8,22.533335 -3.06666,13.6 -4.13333,20.400001 -3.2,21.466667 1.6,2.000001 14.4,4.666671 22,4.666671 7.73334,0 20.4,-2.66667 22,-4.666671 0.93334,-1.2 0.13334,-7.466667 -3.2,-21.466667 -3.73333,-16.533335 -4.26666,-20.266668 -2.8,-22.533335 0.93334,-1.466667 6.66667,-4.533333 13.46667,-6.933334 11.33334,-4.266666 12.53334,-4.4 25.2,-3.733333 7.33334,0.533333 13.86667,1.333333 14.4,1.866667 0.53334,0.533333 -8.4,4.8 -20,9.333333 -11.6,4.533334 -22.13333,9.600001 -23.33333,11.066668 -3.46667,4 -2.93334,8.266667 2.53333,22.933334 l 4.93334,13.199998 -14.26667,13.46667 c -7.86667,7.46667 -14.26667,14.4 -14.26667,15.6 0,4.4 17.6,19.06667 30.8,25.73334 14.53334,7.33333 16.8,7.33333 24.53334,0.53333 9.86666,-8.53333 12.13333,-18.13334 7.33333,-30.66667 -1.46667,-3.86667 -2.66667,-8.4 -2.66667,-10 0,-1.86667 5.86667,-8.53333 18.53334,-20.666667 10.13333,-9.733334 19.46667,-19.333335 20.8,-21.333335 4.4,-7.066667 0.53333,-15.333334 -19.86667,-42.266669 -14.93333,-19.600001 -12.4,-18.400001 -32.53333,-14.933334 l -16.93334,2.933334 -15.86667,-4.8 c -8.8,-2.533334 -17.46666,-4.666667 -19.33333,-4.533334 -1.86667,0 -10.4,2.133333 -18.8,4.666667 z"
               id="path1796" />
            <path
               style="fill:url(#linearGradient1808);fill-opacity:1;stroke:none;stroke-width:0.13333334"
               inkscape:connector-curvature="0"
               d="m 666.97247,157.84193 c -14.66667,6.66667 -27.86667,14.26667 -27.86667,16.26667 0,0.93333 4.93333,5.33333 11.06667,9.73333 6,4.4 14.8,11.33334 19.46666,15.46667 4.66667,4.13333 9.73334,7.73333 11.06667,8.26667 3.06667,0.93333 6.66667,-1.33334 18.4,-11.33334 4.8,-4.13333 12.8,-10.53333 17.73334,-14.13333 5.06666,-3.73333 8.8,-7.46667 8.53333,-8.66667 -0.13333,-1.06666 -8,-5.86666 -17.6,-10.53333 -21.86667,-10.93333 -26.4,-11.46667 -40.8,-5.06667 z"
               id="path1798" />
          </g>
        </g>
      </g>
    </g>
    <g
       inkscape:groupmode="layer"
       id="layer6"
       inkscape:label="Symbols"
       style="display:inline" />
    <g
       inkscape:groupmode="layer"
       id="layer5"
       inkscape:label="Highlights"
       style="display:inline"
       sodipodi:insensitive="true">
      <path
         style="opacity:0.12999998;color:#bebebe;fill:#ffffff;fill-opacity:1;fill-rule:nonzero;stroke:none;stroke-width:0;marker:none;visibility:visible;display:inline;overflow:visible;enable-background:accumulate"
         d="M 84,47 C 56.836703,47 35,68.836703 35,96 l 0,1 C 35,69.836703 56.836703,48 84,48 l 120,0 c 27.1633,0 49,21.836703 49,49 l 0,-1 C 253,68.836703 231.1633,47 204,47 L 84,47 z"
         id="rect3894"
         inkscape:connector-curvature="0" />
      <path
         style="opacity:0.12999998;color:#bebebe;fill:#ffffff;fill-opacity:1;fill-rule:nonzero;stroke:none;stroke-width:0;marker:none;visibility:visible;display:inline;overflow:visible;enable-background:accumulate"
         d="m 419,141 c -1.1253,0 -2,0.8747 -2,2 l 0,1 c 0,-1.1253 0.8747,-2 2,-2 l 10,0 c 1.1253,0 2,0.8747 2,2 l 0,-1 c 0,-1.1253 -0.8747,-2 -2,-2 l -10,0 z"
         id="rect3896"
         inkscape:connector-curvature="0" />
      <path
         style="opacity:0.12999998;color:#bebebe;fill:#ffffff;fill-opacity:1;fill-rule:nonzero;stroke:none;stroke-width:0;marker:none;visibility:visible;display:inline;overflow:visible;enable-background:accumulate"
         d="m 422,102 c -2.2333,0 -4,1.7667 -4,4 l 0,1 c 0,-2.2333 1.7667,-4 4,-4 l 12,0 c 2.2333,0 4,1.7667 4,4 l 0,-1 c 0,-2.2333 -1.7667,-4 -4,-4 l -12,0 z"
         id="rect3898"
         inkscape:connector-curvature="0" />
      <path
         style="opacity:0.12999998;color:#bebebe;fill:#ffffff;fill-opacity:1;fill-rule:nonzero;stroke:none;stroke-width:0;marker:none;visibility:visible;display:inline;overflow:visible;enable-background:accumulate"
         d="m 424,54 c -3.3413,0 -6,2.658703 -6,6 l 0,1 c 0,-3.341297 2.6587,-6 6,-6 l 16,0 c 3.3413,0 6,2.658703 6,6 l 0,-1 c 0,-3.341297 -2.6587,-6 -6,-6 l -16,0 z"
         id="rect3900"
         inkscape:connector-curvature="0" />
      <path
         style="opacity:0.12999998;color:#bebebe;fill:#ffffff;fill-opacity:1;fill-rule:nonzero;stroke:none;stroke-width:0;marker:none;visibility:visible;display:inline;overflow:visible;enable-background:accumulate"
         d="m 300,224 c -4.4493,0 -8,3.5507 -8,8 l 0,1 c 0,-4.4493 3.5507,-8 8,-8 l 24,0 c 4.4493,0 8,3.5507 8,8 l 0,-1 c 0,-4.4493 -3.5507,-8 -8,-8 l -24,0 z"
         id="rect3902"
         inkscape:connector-curvature="0" />
      <path
         style="opacity:0.12999998;color:#bebebe;fill:#ffffff;fill-opacity:1;fill-rule:nonzero;stroke:none;stroke-width:0;marker:none;visibility:visible;display:inline;overflow:visible;enable-background:accumulate"
         d="m 310,33 c -9.4353,0 -17,7.564703 -17,17 l 0,1 c 0,-9.435297 7.5647,-17 17,-17 l 52,0 c 9.4353,0 17,7.564703 17,17 l 0,-1 c 0,-9.435297 -7.5647,-17 -17,-17 l -52,0 z"
         id="rect3904"
         inkscape:connector-curvature="0" />
      <path
         style="opacity:0.12999998;color:#bebebe;fill:#ffffff;fill-opacity:1;fill-rule:nonzero;stroke:none;stroke-width:0;marker:none;visibility:visible;display:inline;overflow:visible;enable-background:accumulate"
         d="m 302.5,143 c -6.3883,0 -11.5,5.1117 -11.5,11.5 l 0,1 c 0,-6.3883 5.1117,-11.5 11.5,-11.5 l 35,0 c 6.3883,0 11.5,5.1117 11.5,11.5 l 0,-1 c 0,-6.3883 -5.1117,-11.5 -11.5,-11.5 l -35,0 z"
         id="rect3906"
         inkscape:connector-curvature="0" />
      <path
         id="path4085"
         d="m 204,266 c 27.1633,0 49,-21.8367 49,-49 l 0,-1 c 0,27.1633 -21.8367,49 -49,49 L 84,265 C 56.8367,265 35,243.1633 35,216 l 0,1 c 0,27.1633 21.8367,49 49,49 l 120,0 z"
         style="opacity:0.5;color:#bebebe;fill:#000000;fill-opacity:1;fill-rule:nonzero;stroke:none;stroke-width:0;marker:none;visibility:visible;display:inline;overflow:visible;enable-background:accumulate"
         inkscape:connector-curvature="0" />
      <path
         id="path4087"
         d="m 429,156 c 1.1253,0 2,-0.8747 2,-2 l 0,-1 c 0,1.1253 -0.8747,2 -2,2 l -10,0 c -1.1253,0 -2,-0.8747 -2,-2 l 0,1 c 0,1.1253 0.8747,2 2,2 l 10,0 z"
         style="opacity:0.3;color:#bebebe;fill:#000000;fill-opacity:1;fill-rule:nonzero;stroke:none;stroke-width:0;marker:none;visibility:visible;display:inline;overflow:visible;enable-background:accumulate"
         inkscape:connector-curvature="0" />
      <path
         id="path4089"
         d="m 434,123 c 2.2333,0 4,-1.7667 4,-4 l 0,-1 c 0,2.2333 -1.7667,4 -4,4 l -12,0 c -2.2333,0 -4,-1.7667 -4,-4 l 0,1 c 0,2.2333 1.7667,4 4,4 l 12,0 z"
         style="opacity:0.3;color:#bebebe;fill:#000000;fill-opacity:1;fill-rule:nonzero;stroke:none;stroke-width:0;marker:none;visibility:visible;display:inline;overflow:visible;enable-background:accumulate"
         inkscape:connector-curvature="0" />
      <path
         id="path4091"
         d="m 440,83 c 3.3413,0 6,-2.6587 6,-6 l 0,-1 c 0,3.3413 -2.6587,6 -6,6 l -16,0 c -3.3413,0 -6,-2.6587 -6,-6 l 0,1 c 0,3.3413 2.6587,6 6,6 l 16,0 z"
         style="opacity:0.5;color:#bebebe;fill:#000000;fill-opacity:1;fill-rule:nonzero;stroke:none;stroke-width:0;marker:none;visibility:visible;display:inline;overflow:visible;enable-background:accumulate"
         inkscape:connector-curvature="0" />
      <path
         id="path4093"
         d="m 324,265 c 4.4493,0 8,-3.5507 8,-8 l 0,-1 c 0,4.4493 -3.5507,8 -8,8 l -24,0 c -4.4493,0 -8,-3.5507 -8,-8 l 0,1 c 0,4.4493 3.5507,8 8,8 l 24,0 z"
         style="opacity:0.5;color:#bebebe;fill:#000000;fill-opacity:1;fill-rule:nonzero;stroke:none;stroke-width:0;marker:none;visibility:visible;display:inline;overflow:visible;enable-background:accumulate"
         inkscape:connector-curvature="0" />
      <path
         id="path4095"
         d="m 362,120 c 9.4353,0 17,-7.5647 17,-17 l 0,-1 c 0,9.4353 -7.5647,17 -17,17 l -52,0 c -9.4353,0 -17,-7.5647 -17,-17 l 0,1 c 0,9.4353 7.5647,17 17,17 l 52,0 z"
         style="opacity:0.5;color:#bebebe;fill:#000000;fill-opacity:1;fill-rule:nonzero;stroke:none;stroke-width:0;marker:none;visibility:visible;display:inline;overflow:visible;enable-background:accumulate"
         inkscape:connector-curvature="0" />
      <path
         id="path4097"
         d="m 337.5,202 c 6.3883,0 11.5,-5.1117 11.5,-11.5 l 0,-1 c 0,6.3883 -5.1117,11.5 -11.5,11.5 l -35,0 c -6.3883,0 -11.5,-5.1117 -11.5,-11.5 l 0,1 c 0,6.3883 5.1117,11.5 11.5,11.5 l 35,0 z"
         style="opacity:0.5;color:#bebebe;fill:#000000;fill-opacity:1;fill-rule:nonzero;stroke:none;stroke-width:0;marker:none;visibility:visible;display:inline;overflow:visible;enable-background:accumulate"
         inkscape:connector-curvature="0" />
      <path
         inkscape:connector-curvature="0"
         id="path4280"
         d="M 84,265 C 56.836703,265 35,243.1633 35,216 l 0,-1 c 0,27.1633 21.836703,49 49,49 l 120,0 c 27.1633,0 49,-21.8367 49,-49 l 0,1 c 0,27.1633 -21.8367,49 -49,49 l -120,0 z"
         style="opacity:0.1;color:#bebebe;fill:#ffffff;fill-opacity:1;fill-rule:nonzero;stroke:none;stroke-width:0;marker:none;visibility:visible;display:inline;overflow:visible;enable-background:accumulate" />
      <path
         style="opacity:0.1;color:#bebebe;fill:#ffffff;fill-opacity:1;fill-rule:nonzero;stroke:none;stroke-width:0;marker:none;visibility:visible;display:inline;overflow:visible;enable-background:accumulate"
         d="m 300,264 c -4.4493,0 -8,-3.5507 -8,-8 l 0,-1 c 0,4.4493 3.5507,8 8,8 l 24,0 c 4.4493,0 8,-3.5507 8,-8 l 0,1 c 0,4.4493 -3.5507,8 -8,8 l -24,0 z"
         id="path4294"
         inkscape:connector-curvature="0" />
      <path
         style="opacity:0.1;color:#bebebe;fill:#ffffff;fill-opacity:1;fill-rule:nonzero;stroke:none;stroke-width:0;marker:none;visibility:visible;display:inline;overflow:visible;enable-background:accumulate"
         d="m 302.5,201 c -6.3883,0 -11.5,-5.1117 -11.5,-11.5 l 0,-1 c 0,6.3883 5.1117,11.5 11.5,11.5 l 35,0 c 6.3883,0 11.5,-5.1117 11.5,-11.5 l 0,1 c 0,6.3883 -5.1117,11.5 -11.5,11.5 l -35,0 z"
         id="path4296"
         inkscape:connector-curvature="0" />
      <path
         style="opacity:0.1;color:#bebebe;fill:#ffffff;fill-opacity:1;fill-rule:nonzero;stroke:none;stroke-width:0;marker:none;visibility:visible;display:inline;overflow:visible;enable-background:accumulate"
         d="m 310,119 c -9.4353,0 -17,-7.5647 -17,-17 l 0,-1 c 0,9.4353 7.5647,17 17,17 l 52,0 c 9.4353,0 17,-7.5647 17,-17 l 0,1 c 0,9.4353 -7.5647,17 -17,17 l -52,0 z"
         id="path4298"
         inkscape:connector-curvature="0" />
      <path
         style="opacity:0.1;color:#bebebe;fill:#ffffff;fill-opacity:1;fill-rule:nonzero;stroke:none;stroke-width:0;marker:none;visibility:visible;display:inline;overflow:visible;enable-background:accumulate"
         d="m 424,82 c -3.3413,0 -6,-2.658703 -6,-6 l 0,-1 c 0,3.341297 2.6587,6 6,6 l 16,0 c 3.3413,0 6,-2.658703 6,-6 l 0,1 c 0,3.341297 -2.6587,6 -6,6 l -16,0 z"
         id="path4300"
         inkscape:connector-curvature="0" />
      <path
         style="opacity:0.1;color:#bebebe;fill:#ffffff;fill-opacity:1;fill-rule:nonzero;stroke:none;stroke-width:0;marker:none;visibility:visible;display:inline;overflow:visible;enable-background:accumulate"
         d="m 422,122 c -2.2333,0 -4,-1.7667 -4,-4 l 0,-1 c 0,2.2333 1.7667,4 4,4 l 12,0 c 2.2333,0 4,-1.7667 4,-4 l 0,1 c 0,2.2333 -1.7667,4 -4,4 l -12,0 z"
         id="path4302"
         inkscape:connector-curvature="0" />
      <path
         style="opacity:0.1;color:#bebebe;fill:#ffffff;fill-opacity:1;fill-rule:nonzero;stroke:none;stroke-width:0;marker:none;visibility:visible;display:inline;overflow:visible;enable-background:accumulate"
         d="m 419,154.5 c -1.1253,0 -2,-0.8747 -2,-2 l 0,-1 c 0,1.1253 0.8747,2 2,2 l 10,0 c 1.1253,0 2,-0.8747 2,-2 l 0,1 c 0,1.1253 -0.8747,2 -2,2 l -10,0 z"
         id="path4304"
         inkscape:connector-curvature="0" />
    </g>
    <g
       inkscape:groupmode="layer"
       id="layer3"
       inkscape:label="Border"
       style="display:inline"
       sodipodi:insensitive="true">
      <path
         style="opacity:0.41000001;color:#bebebe;fill:#000000;fill-opacity:1;fill-rule:nonzero;stroke:none;stroke-width:0;marker:none;visibility:visible;display:inline;overflow:visible;enable-background:accumulate"
         d="m 422,101 c -2.77,0 -5,2.23 -5,5 l 0,12 c 0,2.77 2.23,5 5,5 l 12,0 c 2.77,0 5,-2.23 5,-5 l 0,-12 c 0,-2.77 -2.23,-5 -5,-5 l -12,0 z m 0,1 12,0 c 2.2333,0 4,1.7667 4,4 l 0,12 c 0,2.2333 -1.7667,4 -4,4 l -12,0 c -2.2333,0 -4,-1.7667 -4,-4 l 0,-12 c 0,-2.2333 1.7667,-4 4,-4 z"
         id="rect4099"
         inkscape:connector-curvature="0" />
      <path
         style="opacity:0.41000001;color:#bebebe;fill:#000000;fill-opacity:1;fill-rule:nonzero;stroke:none;stroke-width:0;marker:none;visibility:visible;display:inline;overflow:visible;enable-background:accumulate"
         d="m 424,53 c -3.878,0 -7,3.122 -7,7 l 0,16 c 0,3.878 3.122,7 7,7 l 16,0 c 3.878,0 7,-3.122 7,-7 l 0,-16 c 0,-3.878 -3.122,-7 -7,-7 l -16,0 z m 0,1 16,0 c 3.3413,0 6,2.658703 6,6 l 0,16 c 0,3.341297 -2.6587,6 -6,6 l -16,0 c -3.3413,0 -6,-2.658703 -6,-6 l 0,-16 c 0,-3.341297 2.6587,-6 6,-6 z"
         id="rect4151"
         inkscape:connector-curvature="0" />
      <path
         style="opacity:0.41000001;color:#bebebe;fill:#000000;fill-opacity:1;fill-rule:nonzero;stroke:none;stroke-width:0;marker:none;visibility:visible;display:inline;overflow:visible;enable-background:accumulate"
         d="m 419,140 c -1.662,0 -3,1.338 -3,3 l 0,10 c 0,1.662 1.338,3 3,3 l 10,0 c 1.662,0 3,-1.338 3,-3 l 0,-10 c 0,-1.662 -1.338,-3 -3,-3 l -10,0 z m 0,1 10,0 c 1.1253,0 2,0.8747 2,2 l 0,10 c 0,1.1253 -0.8747,2 -2,2 l -10,0 c -1.1253,0 -2,-0.8747 -2,-2 l 0,-10 c 0,-1.1253 0.8747,-2 2,-2 z"
         id="rect4095"
         inkscape:connector-curvature="0" />
      <path
         style="opacity:0.41000001;color:#bebebe;fill:#000000;fill-opacity:1;fill-rule:nonzero;stroke:none;stroke-width:0;marker:none;visibility:visible;display:inline;overflow:visible;enable-background:accumulate"
         d="m 300,223 c -4.986,0 -9,4.014 -9,9 l 0,24 c 0,4.986 4.014,9 9,9 l 24,0 c 4.986,0 9,-4.014 9,-9 l 0,-24 c 0,-4.986 -4.014,-9 -9,-9 l -24,0 z m 0,1 24,0 c 4.4493,0 8,3.5507 8,8 l 0,24 c 0,4.4493 -3.5507,8 -8,8 l -24,0 c -4.4493,0 -8,-3.5507 -8,-8 l 0,-24 c 0,-4.4493 3.5507,-8 8,-8 z"
         id="rect4783"
         inkscape:connector-curvature="0" />
      <path
         style="opacity:0.41000001;color:#bebebe;fill:#000000;fill-opacity:1;fill-rule:nonzero;stroke:none;stroke-width:0;marker:none;visibility:visible;display:inline;overflow:visible;enable-background:accumulate"
         d="m 302.5,142 c -6.925,0 -12.5,5.575 -12.5,12.5 l 0,35 c 0,6.925 5.575,12.5 12.5,12.5 l 35,0 c 6.925,0 12.5,-5.575 12.5,-12.5 l 0,-35 c 0,-6.925 -5.575,-12.5 -12.5,-12.5 l -35,0 z m 0,1 35,0 c 6.3883,0 11.5,5.1117 11.5,11.5 l 0,35 c 0,6.3883 -5.1117,11.5 -11.5,11.5 l -35,0 c -6.3883,0 -11.5,-5.1117 -11.5,-11.5 l 0,-35 c 0,-6.3883 5.1117,-11.5 11.5,-11.5 z"
         id="rect4515"
         inkscape:connector-curvature="0" />
      <path
         style="opacity:0.41000001;color:#bebebe;fill:#000000;fill-opacity:1;fill-rule:nonzero;stroke:none;stroke-width:0;marker:none;visibility:visible;display:inline;overflow:visible;enable-background:accumulate"
         d="m 310,32 c -9.972,0 -18,8.028 -18,18 l 0,52 c 0,9.972 8.028,18 18,18 l 52,0 c 9.972,0 18,-8.028 18,-18 l 0,-52 c 0,-9.972 -8.028,-18 -18,-18 l -52,0 z m 0,1 52,0 c 9.4353,0 17,7.564703 17,17 l 0,52 c 0,9.4353 -7.5647,17 -17,17 l -52,0 c -9.4353,0 -17,-7.5647 -17,-17 l 0,-52 c 0,-9.435297 7.5647,-17 17,-17 z"
         id="rect4511"
         inkscape:connector-curvature="0" />
      <path
         style="opacity:0.41000001;color:#bebebe;fill:#000000;fill-opacity:1;fill-rule:nonzero;stroke:none;stroke-width:0;marker:none;visibility:visible;display:inline;overflow:visible;enable-background:accumulate"
         d="M 84,46 C 56.3,46 34,68.3 34,96 l 0,120 c 0,27.7 22.3,50 50,50 l 120,0 c 27.7,0 50,-22.3 50,-50 L 254,96 C 254,68.3 231.7,46 204,46 L 84,46 z m 0,1 120,0 c 27.1633,0 49,21.836703 49,49 l 0,120 c 0,27.1633 -21.8367,49 -49,49 L 84,265 C 56.836703,265 35,243.1633 35,216 L 35,96 C 35,68.836703 56.836703,47 84,47 z"
         id="rect4040"
         inkscape:connector-curvature="0" />
    </g>
  </g>
</svg>
