<?xml version="1.0" encoding="UTF-8" standalone="no"?>
<!-- Created with Inkscape (http://www.inkscape.org/) -->

<svg
   xmlns:dc="http://purl.org/dc/elements/1.1/"
   xmlns:cc="http://creativecommons.org/ns#"
   xmlns:rdf="http://www.w3.org/1999/02/22-rdf-syntax-ns#"
   xmlns:svg="http://www.w3.org/2000/svg"
   xmlns="http://www.w3.org/2000/svg"
   xmlns:sodipodi="http://sodipodi.sourceforge.net/DTD/sodipodi-0.dtd"
   xmlns:inkscape="http://www.inkscape.org/namespaces/inkscape"
   inkscape:export-ydpi="90.000000"
   inkscape:export-xdpi="90.000000"
   width="480"
   height="300"
   id="svg11300"
   sodipodi:version="0.32"
   inkscape:version="0.92.5 (2060ec1f9f, 2020-04-08)"
   sodipodi:docname="fedora-utils.svg"
   inkscape:output_extension="org.inkscape.output.svg.inkscape"
   version="1.0"
   style="display:inline;enable-background:new"
   inkscape:export-filename="/home/sam/moka-next-template.png">
  <sodipodi:namedview
     stroke="#ef2929"
     fill="#f57900"
     id="base"
     pagecolor="#777777"
     bordercolor="#666666"
     borderopacity="0.25490196"
     inkscape:pageopacity="0"
     inkscape:pageshadow="2"
     inkscape:zoom="1"
     inkscape:cx="431.97474"
     inkscape:cy="117.71239"
     inkscape:current-layer="layer6"
     showgrid="false"
     inkscape:grid-bbox="true"
     inkscape:document-units="px"
     inkscape:showpageshadow="false"
     inkscape:window-width="1366"
     inkscape:window-height="703"
     inkscape:window-x="0"
     inkscape:window-y="40"
     width="400px"
     height="300px"
     inkscape:snap-nodes="true"
     inkscape:snap-bbox="true"
     gridtolerance="10000"
     inkscape:object-nodes="true"
     inkscape:snap-grids="true"
     showguides="true"
     inkscape:guide-bbox="true"
     inkscape:window-maximized="1"
     inkscape:bbox-nodes="true"
     inkscape:bbox-paths="true"
     inkscape:snap-bbox-edge-midpoints="true"
     inkscape:snap-bbox-midpoints="true">
    <inkscape:grid
       spacingy="1"
       spacingx="1"
       id="grid5883"
       type="xygrid"
       enabled="true"
       visible="true"
       empspacing="4"
       snapvisiblegridlinesonly="true"
       dotted="false"
       color="#000000"
       opacity="0.1254902"
       empcolor="#203ef3"
       empopacity="0.36470588"
       originx="0"
       originy="0" />
    <inkscape:grid
       type="xygrid"
       id="grid11592"
       empspacing="8"
       visible="true"
       enabled="false"
       spacingx="0.5"
       spacingy="0.5"
       color="#ff0000"
       opacity="0.1254902"
       empcolor="#ff0000"
       empopacity="0.25098039"
       snapvisiblegridlinesonly="true"
       dotted="true"
       originx="0"
       originy="0" />
  </sodipodi:namedview>
  <defs
     id="defs3">
    <linearGradient
       id="outerBackgroundGradient-7">
      <stop
         style="stop-color:#535353;stop-opacity:1;"
         offset="0"
         id="stop3864-8-6-7" />
      <stop
         style="stop-color:#6e6e6e;stop-opacity:1;"
         offset="1"
         id="stop3866-9-1-6" />
    </linearGradient>
  </defs>
  <metadata
     id="metadata4">
    <rdf:RDF>
      <cc:Work
         rdf:about="">
        <dc:format>image/svg+xml</dc:format>
        <dc:type
           rdf:resource="http://purl.org/dc/dcmitype/StillImage" />
        <dc:creator>
          <cc:Agent>
            <dc:title></dc:title>
          </cc:Agent>
        </dc:creator>
        <dc:source />
        <cc:license
           rdf:resource="" />
        <dc:title></dc:title>
        <dc:subject>
          <rdf:Bag />
        </dc:subject>
        <dc:date />
        <dc:rights>
          <cc:Agent>
            <dc:title />
          </cc:Agent>
        </dc:rights>
        <dc:publisher>
          <cc:Agent>
            <dc:title />
          </cc:Agent>
        </dc:publisher>
        <dc:identifier />
        <dc:relation />
        <dc:language />
        <dc:coverage />
        <dc:description />
        <dc:contributor>
          <cc:Agent>
            <dc:title />
          </cc:Agent>
        </dc:contributor>
      </cc:Work>
      <cc:Work
         rdf:about="">
        <dc:format>image/svg+xml</dc:format>
        <dc:type
           rdf:resource="http://purl.org/dc/dcmitype/StillImage" />
      </cc:Work>
    </rdf:RDF>
  </metadata>
  <g
     style="display:inline"
     inkscape:groupmode="layer"
     inkscape:label="Icon"
     id="layer1">
    <g
       style="display:none"
       inkscape:label="Baseplate"
       id="layer7"
       inkscape:groupmode="layer">
      <text
         y="19.745117"
         xml:space="preserve"
         x="15.006836"
         style="font-style:normal;font-variant:normal;font-weight:normal;font-stretch:normal;line-height:0%;font-family:'DejaVu Sans';-inkscape-font-specification:'DejaVu Sans';display:inline;fill:#000000;fill-opacity:1;stroke:none;enable-background:new"
         inkscape:label="context"
         id="context"><tspan
           style="font-style:normal;font-variant:normal;font-weight:normal;font-stretch:normal;font-size:18px;line-height:1.25;font-family:'DejaVu Sans';-inkscape-font-specification:'DejaVu Sans'"
           y="19.745117"
           x="15.006836"
           sodipodi:role="line"
           id="tspan3933">apps</tspan></text>
      <text
         y="19.745117"
         xml:space="preserve"
         x="122.48828"
         style="font-style:normal;font-variant:normal;font-weight:bold;font-stretch:normal;line-height:0%;font-family:'DejaVu Sans';-inkscape-font-specification:'DejaVu Sans Bold';text-align:start;writing-mode:lr-tb;text-anchor:start;display:inline;fill:#000000;fill-opacity:1;stroke:none;enable-background:new"
         inkscape:label="icon-name"
         id="icon-name"><tspan
           style="font-style:normal;font-variant:normal;font-weight:bold;font-stretch:normal;font-size:18px;line-height:1.25;font-family:'DejaVu Sans';-inkscape-font-specification:'DejaVu Sans Bold'"
           y="19.745117"
           x="122.48828"
           sodipodi:role="line"
           id="tspan3937">fedora-utils</tspan></text>
      <rect
         style="fill:#eeeeec;fill-opacity:1;fill-rule:nonzero;stroke:none;stroke-width:2;marker:none;visibility:visible;display:inline;overflow:visible;enable-background:accumulate"
         id="rect16x16"
         width="16"
         height="16"
         x="416"
         y="140"
         inkscape:label="16x16" />
      <rect
         style="fill:#d4d4d4;fill-opacity:1;fill-rule:nonzero;stroke:none;stroke-width:2;marker:none;visibility:visible;display:inline;overflow:visible;enable-background:accumulate"
         id="rect24x24"
         width="24"
         height="24"
         x="416"
         y="100"
         inkscape:label="24x24" />
      <rect
         style="fill:#eeeeec;fill-opacity:1;fill-rule:nonzero;stroke:none;stroke-width:2;marker:none;visibility:visible;display:inline;overflow:visible;enable-background:accumulate"
         id="rect32x32"
         width="32"
         height="32"
         x="416"
         y="52"
         inkscape:label="32x32" />
      <rect
         inkscape:label="22x22"
         y="101"
         x="417"
         height="22"
         width="22"
         id="rect22x22"
         style="fill:#eeeeec;fill-opacity:1;fill-rule:nonzero;stroke:none;stroke-width:2;marker:none;visibility:visible;display:inline;overflow:visible;enable-background:accumulate" />
      <rect
         inkscape:label="48x48"
         y="220"
         x="288"
         height="48"
         width="48"
         id="rect48x48"
         style="fill:#eeeeec;fill-opacity:1;fill-rule:nonzero;stroke:none;stroke-width:2;marker:none;visibility:visible;display:inline;overflow:visible;enable-background:accumulate" />
      <rect
         style="fill:#eeeeec;fill-opacity:1;fill-rule:nonzero;stroke:none;stroke-width:2;marker:none;visibility:visible;display:inline;overflow:visible;enable-background:accumulate"
         id="rect256x256"
         width="256"
         height="256"
         x="16"
         y="28"
         inkscape:label="256x256" />
      <rect
         style="fill:#eeeeec;fill-opacity:1;fill-rule:nonzero;stroke:none;stroke-width:2;marker:none;visibility:visible;display:inline;overflow:visible;enable-background:accumulate"
         id="rect64x64"
         width="64"
         height="64"
         x="288"
         y="140"
         inkscape:label="64x64" />
      <rect
         style="fill:#eeeeec;fill-opacity:1;fill-rule:nonzero;stroke:none;stroke-width:2;marker:none;visibility:visible;display:inline;overflow:visible;enable-background:accumulate"
         id="rect96x96"
         width="96"
         height="96"
         x="288"
         y="28"
         inkscape:label="96x96" />
    </g>
    <g
       inkscape:groupmode="layer"
       id="layer4"
       inkscape:label="Shadow"
       style="display:inline"
       sodipodi:insensitive="true">
      <rect
         ry="50"
         y="47"
         x="34"
         height="220"
         width="220"
         id="rect4114"
         style="opacity:0.1;color:#bebebe;fill:#000000;fill-opacity:1;fill-rule:nonzero;stroke:none;stroke-width:0;marker:none;visibility:visible;display:inline;overflow:visible;enable-background:accumulate" />
      <rect
         style="opacity:0.1;color:#bebebe;fill:#000000;fill-opacity:1;fill-rule:nonzero;stroke:none;stroke-width:0;marker:none;visibility:visible;display:inline;overflow:visible;enable-background:accumulate"
         id="rect4120"
         width="30"
         height="30"
         x="417"
         y="54"
         ry="7" />
      <rect
         transform="scale(1,-1)"
         ry="9"
         y="-266"
         x="291"
         height="42"
         width="42"
         id="rect4122"
         style="opacity:0.1;color:#bebebe;fill:#000000;fill-opacity:1;fill-rule:nonzero;stroke:none;stroke-width:0;marker:none;visibility:visible;display:inline;overflow:visible;enable-background:accumulate" />
      <rect
         style="opacity:0.1;color:#bebebe;fill:#000000;fill-opacity:1;fill-rule:nonzero;stroke:none;stroke-width:0;marker:none;visibility:visible;display:inline;overflow:visible;enable-background:accumulate"
         id="rect4124"
         width="88"
         height="88"
         x="292"
         y="33"
         ry="18" />
      <rect
         ry="12.5"
         y="143"
         x="290"
         height="60"
         width="60"
         id="rect4126"
         style="opacity:0.1;color:#bebebe;fill:#000000;fill-opacity:1;fill-rule:nonzero;stroke:none;stroke-width:0;marker:none;visibility:visible;display:inline;overflow:visible;enable-background:accumulate" />
      <path
         id="path4268"
         d="m 422,101 c -2.77,0 -5,2.23 -5,5 l 0,12 c 0,2.77 2.23,5 5,5 l 12,0 c 2.77,0 5,-2.23 5,-5 l 0,-12 c 0,-2.77 -2.23,-5 -5,-5 z"
         style="opacity:0.1;color:#bebebe;fill:#000000;fill-opacity:1;fill-rule:nonzero;stroke:none;stroke-width:0;marker:none;visibility:visible;display:inline;overflow:visible;enable-background:accumulate"
         inkscape:connector-curvature="0"
         sodipodi:nodetypes="sssssssss" />
      <path
         id="path4270"
         d="m 419,140 c -1.662,0 -3,1.338 -3,3 l 0,10 c 0,1.662 1.338,3 3,3 l 10,0 c 1.662,0 3,-1.338 3,-3 l 0,-10 c 0,-1.662 -1.338,-3 -3,-3 z"
         style="opacity:0.1;color:#bebebe;fill:#000000;fill-opacity:1;fill-rule:nonzero;stroke:none;stroke-width:0;marker:none;visibility:visible;display:inline;overflow:visible;enable-background:accumulate"
         inkscape:connector-curvature="0"
         sodipodi:nodetypes="sssssssss" />
    </g>
    <g
       inkscape:groupmode="layer"
       id="layer2"
       inkscape:label="Background"
       style="display:inline" />
    <g
       inkscape:groupmode="layer"
       id="layer6"
       inkscape:label="Symbols"
       style="display:inline">
      <g
         id="g1216">
        <path
           inkscape:connector-curvature="0"
           id="path4200"
           d="M 84,46.5 C 56.56874,46.5 34.5,68.56873 34.5,96 v 120 c 0,27.43127 22.06874,49.5 49.5,49.5 h 120 c 27.43127,0 49.5,-22.06873 49.5,-49.5 V 96 C 253.5,68.56873 231.43127,46.5 204,46.5 Z"
           style="color:#bebebe;display:inline;overflow:visible;visibility:visible;fill:#294172;fill-opacity:1;fill-rule:nonzero;stroke:none;stroke-width:2;marker:none;enable-background:accumulate" />
        <g
           transform="translate(-0.4315115,0.01403)"
           id="g1170">
          <path
             inkscape:connector-curvature="0"
             id="path4056"
             style="display:inline;fill:#ffffff;stroke-width:1.35120523"
             d="m 133.72444,145.39106 v -24.00531 c 0,-0.0108 0,-0.0224 0,-0.0315 0,-25.048557 20.30439,-45.354264 45.35379,-45.354264 3.79984,0 6.49978,0.428174 10.01699,1.348858 5.12953,1.345037 9.31847,5.547123 9.32077,10.438567 0.003,5.913239 -4.29004,10.211828 -10.70482,10.211828 -3.05612,0 -4.1606,-0.585193 -8.63524,-0.585193 -13.20638,0 -23.91504,10.695924 -23.93725,23.901894 v 20.69406 7.7e-4 c 0,1.86895 1.51043,3.37942 3.37781,3.37942 0.003,0 0.008,0 0.0122,0 h 15.71864 c 5.85793,0 10.58839,4.69001 10.59299,10.56341 0,5.87572 -4.73735,10.555 -10.59299,10.555 h -19.10874 v 24.10412 c 0,0.0136 0,0.0224 0,0.0361 0,25.04624 -20.30515,45.35119 -45.35072,45.35119 -3.8006,0 -6.50055,-0.42818 -10.017773,-1.34962 -5.129512,-1.34427 -9.319991,-5.54866 -9.322288,-10.43857 0,-5.9117 4.28928,-10.21183 10.707111,-10.21183 3.05305,0 4.16061,0.58596 8.63295,0.58596 13.20639,0 23.9181,-10.69668 23.93879,-23.89808 0,0 0,-20.79898 0,-20.80281 0,-1.86513 -1.51427,-3.3756 -3.38165,-3.3756 -0.003,0 -0.004,0 -0.008,0 h -15.71792 c -5.85946,0 -10.59376,-4.67468 -10.59376,-10.55192 -10e-4,-5.91019 4.78332,-10.56571 10.70483,-10.56571 h 18.99461 v -7.7e-4 z" />
          <path
             inkscape:connector-curvature="0"
             style="display:inline;fill:#3c6eb4;fill-opacity:1;stroke-width:1.35120523"
             d="m 109.7881,145.39648 c -25.048641,0 -45.349617,20.21859 -45.349617,45.26563 0,24.1538 18.88549,43.88311 42.689457,45.26562 -2.52761,-0.16362 -4.7078,-0.5765 -7.345703,-1.26757 -5.12952,-1.34428 -9.329738,-5.53977 -9.332035,-10.42969 0,-5.9117 4.306773,-10.21875 10.724608,-10.21875 2.3821,0 3.62836,0.30806 6.16407,0.46484 -12.079726,-1.22636 -21.576178,-11.42092 -21.576178,-23.81445 0,-13.22437 10.805983,-24.1543 24.025398,-24.1543 h 0.043 4.77149 c -5.85946,0 -10.55664,-4.67745 -10.55664,-10.55469 -0.001,-5.91017 4.76208,-10.55664 10.68359,-10.55664 z"
             id="path4054" />
          <path
             id="path1154"
             d="m 179.07492,166.50318 c 25.04864,0 45.34962,-20.21859 45.34962,-45.26563 0,-24.1538 -18.88549,-43.88311 -42.68946,-45.26562 2.52761,0.16362 4.7078,0.5765 7.3457,1.26757 5.12952,1.34428 9.32974,5.53977 9.33204,10.42969 0,5.9117 -4.30677,10.21875 -10.72461,10.21875 -2.3821,0 -3.62836,-0.30806 -6.16407,-0.46484 12.07973,1.22636 21.57618,11.42092 21.57618,23.81445 0,13.22437 -10.80598,24.1543 -24.0254,24.1543 h -0.043 -4.77149 c 5.85946,0 10.55664,4.67745 10.55664,10.55469 0.001,5.91017 -4.76208,10.55664 -10.68359,10.55664 z"
             style="display:inline;fill:#3c6eb4;fill-opacity:1;stroke-width:1.35120523"
             inkscape:connector-curvature="0" />
        </g>
      </g>
      <g
         id="g1207">
        <path
           inkscape:connector-curvature="0"
           id="path4210"
           d="m 310,32.5 c -9.70255,0 -17.5,7.79745 -17.5,17.5 l 0,52 c 0,9.70255 7.79745,17.5 17.5,17.5 l 52,0 c 9.70255,0 17.5,-7.79745 17.5,-17.5 l 0,-52 c 0,-9.70255 -7.79745,-17.5 -17.5,-17.5 l -52,0 z"
           style="display:inline;enable-background:accumulate;color:#bebebe;fill:#294172;fill-opacity:1;fill-rule:nonzero;stroke:none;stroke-width:2;marker:none;visibility:visible;overflow:visible" />
        <g
           id="g1187"
           transform="matrix(0.39726027,0,0,0.39726027,278.6231,14.032971)">
          <path
             d="m 133.72444,145.39106 v -24.00531 c 0,-0.0108 0,-0.0224 0,-0.0315 0,-25.048557 20.30439,-45.354264 45.35379,-45.354264 3.79984,0 6.49978,0.428174 10.01699,1.348858 5.12953,1.345037 9.31847,5.547123 9.32077,10.438567 0.003,5.913239 -4.29004,10.211828 -10.70482,10.211828 -3.05612,0 -4.1606,-0.585193 -8.63524,-0.585193 -13.20638,0 -23.91504,10.695924 -23.93725,23.901894 v 20.69406 7.7e-4 c 0,1.86895 1.51043,3.37942 3.37781,3.37942 0.003,0 0.008,0 0.0122,0 h 15.71864 c 5.85793,0 10.58839,4.69001 10.59299,10.56341 0,5.87572 -4.73735,10.555 -10.59299,10.555 h -19.10874 v 24.10412 c 0,0.0136 0,0.0224 0,0.0361 0,25.04624 -20.30515,45.35119 -45.35072,45.35119 -3.8006,0 -6.50055,-0.42818 -10.017773,-1.34962 -5.129512,-1.34427 -9.319991,-5.54866 -9.322288,-10.43857 0,-5.9117 4.28928,-10.21183 10.707111,-10.21183 3.05305,0 4.16061,0.58596 8.63295,0.58596 13.20639,0 23.9181,-10.69668 23.93879,-23.89808 0,0 0,-20.79898 0,-20.80281 0,-1.86513 -1.51427,-3.3756 -3.38165,-3.3756 -0.003,0 -0.004,0 -0.008,0 h -15.71792 c -5.85946,0 -10.59376,-4.67468 -10.59376,-10.55192 -10e-4,-5.91019 4.78332,-10.56571 10.70483,-10.56571 h 18.99461 v -7.7e-4 z"
             style="display:inline;fill:#ffffff;stroke-width:1.35120523"
             id="path1181"
             inkscape:connector-curvature="0" />
          <path
             id="path1183"
             d="m 109.7881,145.39648 c -25.048641,0 -45.349617,20.21859 -45.349617,45.26563 0,24.1538 18.88549,43.88311 42.689457,45.26562 -2.52761,-0.16362 -4.7078,-0.5765 -7.345703,-1.26757 -5.12952,-1.34428 -9.329738,-5.53977 -9.332035,-10.42969 0,-5.9117 4.306773,-10.21875 10.724608,-10.21875 2.3821,0 3.62836,0.30806 6.16407,0.46484 -12.079726,-1.22636 -21.576178,-11.42092 -21.576178,-23.81445 0,-13.22437 10.805983,-24.1543 24.025398,-24.1543 h 0.043 4.77149 c -5.85946,0 -10.55664,-4.67745 -10.55664,-10.55469 -0.001,-5.91017 4.76208,-10.55664 10.68359,-10.55664 z"
             style="display:inline;fill:#3c6eb4;fill-opacity:1;stroke-width:1.35120523"
             inkscape:connector-curvature="0" />
          <path
             inkscape:connector-curvature="0"
             style="display:inline;fill:#3c6eb4;fill-opacity:1;stroke-width:1.35120523"
             d="m 179.07492,166.50318 c 25.04864,0 45.34962,-20.21859 45.34962,-45.26563 0,-24.1538 -18.88549,-43.88311 -42.68946,-45.26562 2.52761,0.16362 4.7078,0.5765 7.3457,1.26757 5.12952,1.34428 9.32974,5.53977 9.33204,10.42969 0,5.9117 -4.30677,10.21875 -10.72461,10.21875 -2.3821,0 -3.62836,-0.30806 -6.16407,-0.46484 12.07973,1.22636 21.57618,11.42092 21.57618,23.81445 0,13.22437 -10.80598,24.1543 -24.0254,24.1543 h -0.043 -4.77149 c 5.85946,0 10.55664,4.67745 10.55664,10.55469 0.001,5.91017 -4.76208,10.55664 -10.68359,10.55664 z"
             id="path1185" />
        </g>
      </g>
      <g
         id="g1241">
        <path
           inkscape:connector-curvature="0"
           id="path4212"
           d="m 302.5,142.5 c -6.65502,0 -12,5.34498 -12,12 l 0,35 c 0,6.65502 5.34498,12 12,12 l 35,0 c 6.65502,0 12,-5.34498 12,-12 l 0,-35 c 0,-6.65502 -5.34498,-12 -12,-12 l -35,0 z"
           style="display:inline;enable-background:accumulate;color:#bebebe;fill:#294172;fill-opacity:1;fill-rule:nonzero;stroke:none;stroke-width:2;marker:none;visibility:visible;overflow:visible" />
        <g
           id="g1226"
           transform="matrix(0.26940639,0,0,0.26940639,281.08923,129.97638)">
          <path
             d="m 133.72444,145.39106 v -24.00531 c 0,-0.0108 0,-0.0224 0,-0.0315 0,-25.048557 20.30439,-45.354264 45.35379,-45.354264 3.79984,0 6.49978,0.428174 10.01699,1.348858 5.12953,1.345037 9.31847,5.547123 9.32077,10.438567 0.003,5.913239 -4.29004,10.211828 -10.70482,10.211828 -3.05612,0 -4.1606,-0.585193 -8.63524,-0.585193 -13.20638,0 -23.91504,10.695924 -23.93725,23.901894 v 20.69406 7.7e-4 c 0,1.86895 1.51043,3.37942 3.37781,3.37942 0.003,0 0.008,0 0.0122,0 h 15.71864 c 5.85793,0 10.58839,4.69001 10.59299,10.56341 0,5.87572 -4.73735,10.555 -10.59299,10.555 h -19.10874 v 24.10412 c 0,0.0136 0,0.0224 0,0.0361 0,25.04624 -20.30515,45.35119 -45.35072,45.35119 -3.8006,0 -6.50055,-0.42818 -10.017773,-1.34962 -5.129512,-1.34427 -9.319991,-5.54866 -9.322288,-10.43857 0,-5.9117 4.28928,-10.21183 10.707111,-10.21183 3.05305,0 4.16061,0.58596 8.63295,0.58596 13.20639,0 23.9181,-10.69668 23.93879,-23.89808 0,0 0,-20.79898 0,-20.80281 0,-1.86513 -1.51427,-3.3756 -3.38165,-3.3756 -0.003,0 -0.004,0 -0.008,0 h -15.71792 c -5.85946,0 -10.59376,-4.67468 -10.59376,-10.55192 -10e-4,-5.91019 4.78332,-10.56571 10.70483,-10.56571 h 18.99461 v -7.7e-4 z"
             style="display:inline;fill:#ffffff;stroke-width:1.35120523"
             id="path1220"
             inkscape:connector-curvature="0" />
          <path
             id="path1222"
             d="m 109.7881,145.39648 c -25.048641,0 -45.349617,20.21859 -45.349617,45.26563 0,24.1538 18.88549,43.88311 42.689457,45.26562 -2.52761,-0.16362 -4.7078,-0.5765 -7.345703,-1.26757 -5.12952,-1.34428 -9.329738,-5.53977 -9.332035,-10.42969 0,-5.9117 4.306773,-10.21875 10.724608,-10.21875 2.3821,0 3.62836,0.30806 6.16407,0.46484 -12.079726,-1.22636 -21.576178,-11.42092 -21.576178,-23.81445 0,-13.22437 10.805983,-24.1543 24.025398,-24.1543 h 0.043 4.77149 c -5.85946,0 -10.55664,-4.67745 -10.55664,-10.55469 -0.001,-5.91017 4.76208,-10.55664 10.68359,-10.55664 z"
             style="display:inline;fill:#3c6eb4;fill-opacity:1;stroke-width:1.35120523"
             inkscape:connector-curvature="0" />
          <path
             inkscape:connector-curvature="0"
             style="display:inline;fill:#3c6eb4;fill-opacity:1;stroke-width:1.35120523"
             d="m 179.07492,166.50318 c 25.04864,0 45.34962,-20.21859 45.34962,-45.26563 0,-24.1538 -18.88549,-43.88311 -42.68946,-45.26562 2.52761,0.16362 4.7078,0.5765 7.3457,1.26757 5.12952,1.34428 9.32974,5.53977 9.33204,10.42969 0,5.9117 -4.30677,10.21875 -10.72461,10.21875 -2.3821,0 -3.62836,-0.30806 -6.16407,-0.46484 12.07973,1.22636 21.57618,11.42092 21.57618,23.81445 0,13.22437 -10.80598,24.1543 -24.0254,24.1543 h -0.043 -4.77149 c 5.85946,0 10.55664,4.67745 10.55664,10.55469 0.001,5.91017 -4.76208,10.55664 -10.68359,10.55664 z"
             id="path1224" />
        </g>
      </g>
      <g
         id="g1266">
        <path
           inkscape:connector-curvature="0"
           id="path4208"
           d="m 300,223.5 c -4.71531,0 -8.5,3.78469 -8.5,8.5 l 0,24 c 0,4.71531 3.78469,8.5 8.5,8.5 l 24,0 c 4.71531,0 8.5,-3.78469 8.5,-8.5 l 0,-24 c 0,-4.71531 -3.78469,-8.5 -8.5,-8.5 l -24,0 z"
           style="display:inline;enable-background:accumulate;color:#bebebe;fill:#294172;fill-opacity:1;fill-rule:nonzero;stroke:none;stroke-width:2;marker:none;visibility:visible;overflow:visible" />
        <g
           id="g1251"
           transform="matrix(0.18721461,0,0,0.18721461,284.96031,214.79715)">
          <path
             d="m 133.72444,145.39106 v -24.00531 c 0,-0.0108 0,-0.0224 0,-0.0315 0,-25.048557 20.30439,-45.354264 45.35379,-45.354264 3.79984,0 6.49978,0.428174 10.01699,1.348858 5.12953,1.345037 9.31847,5.547123 9.32077,10.438567 0.003,5.913239 -4.29004,10.211828 -10.70482,10.211828 -3.05612,0 -4.1606,-0.585193 -8.63524,-0.585193 -13.20638,0 -23.91504,10.695924 -23.93725,23.901894 v 20.69406 7.7e-4 c 0,1.86895 1.51043,3.37942 3.37781,3.37942 0.003,0 0.008,0 0.0122,0 h 15.71864 c 5.85793,0 10.58839,4.69001 10.59299,10.56341 0,5.87572 -4.73735,10.555 -10.59299,10.555 h -19.10874 v 24.10412 c 0,0.0136 0,0.0224 0,0.0361 0,25.04624 -20.30515,45.35119 -45.35072,45.35119 -3.8006,0 -6.50055,-0.42818 -10.017773,-1.34962 -5.129512,-1.34427 -9.319991,-5.54866 -9.322288,-10.43857 0,-5.9117 4.28928,-10.21183 10.707111,-10.21183 3.05305,0 4.16061,0.58596 8.63295,0.58596 13.20639,0 23.9181,-10.69668 23.93879,-23.89808 0,0 0,-20.79898 0,-20.80281 0,-1.86513 -1.51427,-3.3756 -3.38165,-3.3756 -0.003,0 -0.004,0 -0.008,0 h -15.71792 c -5.85946,0 -10.59376,-4.67468 -10.59376,-10.55192 -10e-4,-5.91019 4.78332,-10.56571 10.70483,-10.56571 h 18.99461 v -7.7e-4 z"
             style="display:inline;fill:#ffffff;stroke-width:1.35120523"
             id="path1245"
             inkscape:connector-curvature="0" />
          <path
             id="path1247"
             d="m 109.7881,145.39648 c -25.048641,0 -45.349617,20.21859 -45.349617,45.26563 0,24.1538 18.88549,43.88311 42.689457,45.26562 -2.52761,-0.16362 -4.7078,-0.5765 -7.345703,-1.26757 -5.12952,-1.34428 -9.329738,-5.53977 -9.332035,-10.42969 0,-5.9117 4.306773,-10.21875 10.724608,-10.21875 2.3821,0 3.62836,0.30806 6.16407,0.46484 -12.079726,-1.22636 -21.576178,-11.42092 -21.576178,-23.81445 0,-13.22437 10.805983,-24.1543 24.025398,-24.1543 h 0.043 4.77149 c -5.85946,0 -10.55664,-4.67745 -10.55664,-10.55469 -0.001,-5.91017 4.76208,-10.55664 10.68359,-10.55664 z"
             style="display:inline;fill:#3c6eb4;fill-opacity:1;stroke-width:1.35120523"
             inkscape:connector-curvature="0" />
          <path
             inkscape:connector-curvature="0"
             style="display:inline;fill:#3c6eb4;fill-opacity:1;stroke-width:1.35120523"
             d="m 179.07492,166.50318 c 25.04864,0 45.34962,-20.21859 45.34962,-45.26563 0,-24.1538 -18.88549,-43.88311 -42.68946,-45.26562 2.52761,0.16362 4.7078,0.5765 7.3457,1.26757 5.12952,1.34428 9.32974,5.53977 9.33204,10.42969 0,5.9117 -4.30677,10.21875 -10.72461,10.21875 -2.3821,0 -3.62836,-0.30806 -6.16407,-0.46484 12.07973,1.22636 21.57618,11.42092 21.57618,23.81445 0,13.22437 -10.80598,24.1543 -24.0254,24.1543 h -0.043 -4.77149 c 5.85946,0 10.55664,4.67745 10.55664,10.55469 0.001,5.91017 -4.76208,10.55664 -10.68359,10.55664 z"
             id="path1249" />
        </g>
      </g>
      <g
         id="g1291">
        <path
           inkscape:connector-curvature="0"
           id="path4206"
           d="m 424,53.5 c -3.60654,0 -6.5,2.89346 -6.5,6.5 l 0,16 c 0,3.60654 2.89346,6.5 6.5,6.5 l 16,0 c 3.60654,0 6.5,-2.89346 6.5,-6.5 l 0,-16 c 0,-3.60654 -2.89346,-6.5 -6.5,-6.5 l -16,0 z"
           style="display:inline;enable-background:accumulate;color:#bebebe;fill:#294172;fill-opacity:1;fill-rule:nonzero;stroke:none;stroke-width:2;marker:none;visibility:visible;overflow:visible" />
        <g
           id="g1276"
           transform="matrix(0.13242009,0,0,0.13242009,412.87437,47.344324)">
          <path
             d="m 133.72444,145.39106 v -24.00531 c 0,-0.0108 0,-0.0224 0,-0.0315 0,-25.048557 20.30439,-45.354264 45.35379,-45.354264 3.79984,0 6.49978,0.428174 10.01699,1.348858 5.12953,1.345037 9.31847,5.547123 9.32077,10.438567 0.003,5.913239 -4.29004,10.211828 -10.70482,10.211828 -3.05612,0 -4.1606,-0.585193 -8.63524,-0.585193 -13.20638,0 -23.91504,10.695924 -23.93725,23.901894 v 20.69406 7.7e-4 c 0,1.86895 1.51043,3.37942 3.37781,3.37942 0.003,0 0.008,0 0.0122,0 h 15.71864 c 5.85793,0 10.58839,4.69001 10.59299,10.56341 0,5.87572 -4.73735,10.555 -10.59299,10.555 h -19.10874 v 24.10412 c 0,0.0136 0,0.0224 0,0.0361 0,25.04624 -20.30515,45.35119 -45.35072,45.35119 -3.8006,0 -6.50055,-0.42818 -10.017773,-1.34962 -5.129512,-1.34427 -9.319991,-5.54866 -9.322288,-10.43857 0,-5.9117 4.28928,-10.21183 10.707111,-10.21183 3.05305,0 4.16061,0.58596 8.63295,0.58596 13.20639,0 23.9181,-10.69668 23.93879,-23.89808 0,0 0,-20.79898 0,-20.80281 0,-1.86513 -1.51427,-3.3756 -3.38165,-3.3756 -0.003,0 -0.004,0 -0.008,0 h -15.71792 c -5.85946,0 -10.59376,-4.67468 -10.59376,-10.55192 -10e-4,-5.91019 4.78332,-10.56571 10.70483,-10.56571 h 18.99461 v -7.7e-4 z"
             style="display:inline;fill:#ffffff;stroke-width:1.35120523"
             id="path1270"
             inkscape:connector-curvature="0" />
          <path
             id="path1272"
             d="m 109.7881,145.39648 c -25.048641,0 -45.349617,20.21859 -45.349617,45.26563 0,24.1538 18.88549,43.88311 42.689457,45.26562 -2.52761,-0.16362 -4.7078,-0.5765 -7.345703,-1.26757 -5.12952,-1.34428 -9.329738,-5.53977 -9.332035,-10.42969 0,-5.9117 4.306773,-10.21875 10.724608,-10.21875 2.3821,0 3.62836,0.30806 6.16407,0.46484 -12.079726,-1.22636 -21.576178,-11.42092 -21.576178,-23.81445 0,-13.22437 10.805983,-24.1543 24.025398,-24.1543 h 0.043 4.77149 c -5.85946,0 -10.55664,-4.67745 -10.55664,-10.55469 -0.001,-5.91017 4.76208,-10.55664 10.68359,-10.55664 z"
             style="display:inline;fill:#3c6eb4;fill-opacity:1;stroke-width:1.35120523"
             inkscape:connector-curvature="0" />
          <path
             inkscape:connector-curvature="0"
             style="display:inline;fill:#3c6eb4;fill-opacity:1;stroke-width:1.35120523"
             d="m 179.07492,166.50318 c 25.04864,0 45.34962,-20.21859 45.34962,-45.26563 0,-24.1538 -18.88549,-43.88311 -42.68946,-45.26562 2.52761,0.16362 4.7078,0.5765 7.3457,1.26757 5.12952,1.34428 9.32974,5.53977 9.33204,10.42969 0,5.9117 -4.30677,10.21875 -10.72461,10.21875 -2.3821,0 -3.62836,-0.30806 -6.16407,-0.46484 12.07973,1.22636 21.57618,11.42092 21.57618,23.81445 0,13.22437 -10.80598,24.1543 -24.0254,24.1543 h -0.043 -4.77149 c 5.85946,0 10.55664,4.67745 10.55664,10.55469 0.001,5.91017 -4.76208,10.55664 -10.68359,10.55664 z"
             id="path1274" />
        </g>
      </g>
      <g
         id="g1316">
        <path
           inkscape:connector-curvature="0"
           id="path4204"
           d="m 422,101.5 c -2.49699,0 -4.5,2.00301 -4.5,4.5 l 0,12 c 0,2.49699 2.00301,4.5 4.5,4.5 l 12,0 c 2.49699,0 4.5,-2.00301 4.5,-4.5 l 0,-12 c 0,-2.49699 -2.00301,-4.5 -4.5,-4.5 l -12,0 z"
           style="display:inline;enable-background:accumulate;color:#bebebe;fill:#294172;fill-opacity:1;fill-rule:nonzero;stroke:none;stroke-width:2;marker:none;visibility:visible;overflow:visible" />
        <g
           id="g1301"
           transform="matrix(0.09589041,0,0,0.09589041,414.1504,97.042441)">
          <path
             d="m 133.72444,145.39106 v -24.00531 c 0,-0.0108 0,-0.0224 0,-0.0315 0,-25.048557 20.30439,-45.354264 45.35379,-45.354264 3.79984,0 6.49978,0.428174 10.01699,1.348858 5.12953,1.345037 9.31847,5.547123 9.32077,10.438567 0.003,5.913239 -4.29004,10.211828 -10.70482,10.211828 -3.05612,0 -4.1606,-0.585193 -8.63524,-0.585193 -13.20638,0 -23.91504,10.695924 -23.93725,23.901894 v 20.69406 7.7e-4 c 0,1.86895 1.51043,3.37942 3.37781,3.37942 0.003,0 0.008,0 0.0122,0 h 15.71864 c 5.85793,0 10.58839,4.69001 10.59299,10.56341 0,5.87572 -4.73735,10.555 -10.59299,10.555 h -19.10874 v 24.10412 c 0,0.0136 0,0.0224 0,0.0361 0,25.04624 -20.30515,45.35119 -45.35072,45.35119 -3.8006,0 -6.50055,-0.42818 -10.017773,-1.34962 -5.129512,-1.34427 -9.319991,-5.54866 -9.322288,-10.43857 0,-5.9117 4.28928,-10.21183 10.707111,-10.21183 3.05305,0 4.16061,0.58596 8.63295,0.58596 13.20639,0 23.9181,-10.69668 23.93879,-23.89808 0,0 0,-20.79898 0,-20.80281 0,-1.86513 -1.51427,-3.3756 -3.38165,-3.3756 -0.003,0 -0.004,0 -0.008,0 h -15.71792 c -5.85946,0 -10.59376,-4.67468 -10.59376,-10.55192 -10e-4,-5.91019 4.78332,-10.56571 10.70483,-10.56571 h 18.99461 v -7.7e-4 z"
             style="display:inline;fill:#ffffff;stroke-width:1.35120523"
             id="path1295"
             inkscape:connector-curvature="0" />
          <path
             id="path1297"
             d="m 109.7881,145.39648 c -25.048641,0 -45.349617,20.21859 -45.349617,45.26563 0,24.1538 18.88549,43.88311 42.689457,45.26562 -2.52761,-0.16362 -4.7078,-0.5765 -7.345703,-1.26757 -5.12952,-1.34428 -9.329738,-5.53977 -9.332035,-10.42969 0,-5.9117 4.306773,-10.21875 10.724608,-10.21875 2.3821,0 3.62836,0.30806 6.16407,0.46484 -12.079726,-1.22636 -21.576178,-11.42092 -21.576178,-23.81445 0,-13.22437 10.805983,-24.1543 24.025398,-24.1543 h 0.043 4.77149 c -5.85946,0 -10.55664,-4.67745 -10.55664,-10.55469 -0.001,-5.91017 4.76208,-10.55664 10.68359,-10.55664 z"
             style="display:inline;fill:#3c6eb4;fill-opacity:1;stroke-width:1.35120523"
             inkscape:connector-curvature="0" />
          <path
             inkscape:connector-curvature="0"
             style="display:inline;fill:#3c6eb4;fill-opacity:1;stroke-width:1.35120523"
             d="m 179.07492,166.50318 c 25.04864,0 45.34962,-20.21859 45.34962,-45.26563 0,-24.1538 -18.88549,-43.88311 -42.68946,-45.26562 2.52761,0.16362 4.7078,0.5765 7.3457,1.26757 5.12952,1.34428 9.32974,5.53977 9.33204,10.42969 0,5.9117 -4.30677,10.21875 -10.72461,10.21875 -2.3821,0 -3.62836,-0.30806 -6.16407,-0.46484 12.07973,1.22636 21.57618,11.42092 21.57618,23.81445 0,13.22437 -10.80598,24.1543 -24.0254,24.1543 h -0.043 -4.77149 c 5.85946,0 10.55664,4.67745 10.55664,10.55469 0.001,5.91017 -4.76208,10.55664 -10.68359,10.55664 z"
             id="path1299" />
        </g>
      </g>
      <g
         id="g1341">
        <path
           inkscape:connector-curvature="0"
           id="path4202"
           d="m 419,140.5 c -1.3844,0 -2.5,1.1156 -2.5,2.5 l 0,10 c 0,1.3844 1.1156,2.5 2.5,2.5 l 10,0 c 1.3844,0 2.5,-1.1156 2.5,-2.5 l 0,-10 c 0,-1.3844 -1.1156,-2.5 -2.5,-2.5 l -10,0 z"
           style="display:inline;enable-background:accumulate;color:#bebebe;fill:#294172;fill-opacity:1;fill-rule:nonzero;stroke:none;stroke-width:2;marker:none;visibility:visible;overflow:visible" />
        <g
           id="g1326"
           transform="matrix(0.06849315,0,0,0.06849315,414.10743,137.31603)">
          <path
             d="m 133.72444,145.39106 v -24.00531 c 0,-0.0108 0,-0.0224 0,-0.0315 0,-25.048557 20.30439,-45.354264 45.35379,-45.354264 3.79984,0 6.49978,0.428174 10.01699,1.348858 5.12953,1.345037 9.31847,5.547123 9.32077,10.438567 0.003,5.913239 -4.29004,10.211828 -10.70482,10.211828 -3.05612,0 -4.1606,-0.585193 -8.63524,-0.585193 -13.20638,0 -23.91504,10.695924 -23.93725,23.901894 v 20.69406 7.7e-4 c 0,1.86895 1.51043,3.37942 3.37781,3.37942 0.003,0 0.008,0 0.0122,0 h 15.71864 c 5.85793,0 10.58839,4.69001 10.59299,10.56341 0,5.87572 -4.73735,10.555 -10.59299,10.555 h -19.10874 v 24.10412 c 0,0.0136 0,0.0224 0,0.0361 0,25.04624 -20.30515,45.35119 -45.35072,45.35119 -3.8006,0 -6.50055,-0.42818 -10.017773,-1.34962 -5.129512,-1.34427 -9.319991,-5.54866 -9.322288,-10.43857 0,-5.9117 4.28928,-10.21183 10.707111,-10.21183 3.05305,0 4.16061,0.58596 8.63295,0.58596 13.20639,0 23.9181,-10.69668 23.93879,-23.89808 0,0 0,-20.79898 0,-20.80281 0,-1.86513 -1.51427,-3.3756 -3.38165,-3.3756 -0.003,0 -0.004,0 -0.008,0 h -15.71792 c -5.85946,0 -10.59376,-4.67468 -10.59376,-10.55192 -10e-4,-5.91019 4.78332,-10.56571 10.70483,-10.56571 h 18.99461 v -7.7e-4 z"
             style="display:inline;fill:#ffffff;stroke-width:1.35120523"
             id="path1320"
             inkscape:connector-curvature="0" />
          <path
             id="path1322"
             d="m 109.7881,145.39648 c -25.048641,0 -45.349617,20.21859 -45.349617,45.26563 0,24.1538 18.88549,43.88311 42.689457,45.26562 -2.52761,-0.16362 -4.7078,-0.5765 -7.345703,-1.26757 -5.12952,-1.34428 -9.329738,-5.53977 -9.332035,-10.42969 0,-5.9117 4.306773,-10.21875 10.724608,-10.21875 2.3821,0 3.62836,0.30806 6.16407,0.46484 -12.079726,-1.22636 -21.576178,-11.42092 -21.576178,-23.81445 0,-13.22437 10.805983,-24.1543 24.025398,-24.1543 h 0.043 4.77149 c -5.85946,0 -10.55664,-4.67745 -10.55664,-10.55469 -0.001,-5.91017 4.76208,-10.55664 10.68359,-10.55664 z"
             style="display:inline;fill:#3c6eb4;fill-opacity:1;stroke-width:1.35120523"
             inkscape:connector-curvature="0" />
          <path
             inkscape:connector-curvature="0"
             style="display:inline;fill:#3c6eb4;fill-opacity:1;stroke-width:1.35120523"
             d="m 179.07492,166.50318 c 25.04864,0 45.34962,-20.21859 45.34962,-45.26563 0,-24.1538 -18.88549,-43.88311 -42.68946,-45.26562 2.52761,0.16362 4.7078,0.5765 7.3457,1.26757 5.12952,1.34428 9.32974,5.53977 9.33204,10.42969 0,5.9117 -4.30677,10.21875 -10.72461,10.21875 -2.3821,0 -3.62836,-0.30806 -6.16407,-0.46484 12.07973,1.22636 21.57618,11.42092 21.57618,23.81445 0,13.22437 -10.80598,24.1543 -24.0254,24.1543 h -0.043 -4.77149 c 5.85946,0 10.55664,4.67745 10.55664,10.55469 0.001,5.91017 -4.76208,10.55664 -10.68359,10.55664 z"
             id="path1324" />
        </g>
      </g>
    </g>
    <g
       inkscape:groupmode="layer"
       id="layer5"
       inkscape:label="Highlights"
       style="display:inline"
       sodipodi:insensitive="true">
      <path
         style="opacity:0.12999998;color:#bebebe;fill:#ffffff;fill-opacity:1;fill-rule:nonzero;stroke:none;stroke-width:0;marker:none;visibility:visible;display:inline;overflow:visible;enable-background:accumulate"
         d="M 84,47 C 56.836703,47 35,68.836703 35,96 l 0,1 C 35,69.836703 56.836703,48 84,48 l 120,0 c 27.1633,0 49,21.836703 49,49 l 0,-1 C 253,68.836703 231.1633,47 204,47 L 84,47 z"
         id="rect3894"
         inkscape:connector-curvature="0" />
      <path
         style="opacity:0.12999998;color:#bebebe;fill:#ffffff;fill-opacity:1;fill-rule:nonzero;stroke:none;stroke-width:0;marker:none;visibility:visible;display:inline;overflow:visible;enable-background:accumulate"
         d="m 419,141 c -1.1253,0 -2,0.8747 -2,2 l 0,1 c 0,-1.1253 0.8747,-2 2,-2 l 10,0 c 1.1253,0 2,0.8747 2,2 l 0,-1 c 0,-1.1253 -0.8747,-2 -2,-2 l -10,0 z"
         id="rect3896"
         inkscape:connector-curvature="0" />
      <path
         style="opacity:0.12999998;color:#bebebe;fill:#ffffff;fill-opacity:1;fill-rule:nonzero;stroke:none;stroke-width:0;marker:none;visibility:visible;display:inline;overflow:visible;enable-background:accumulate"
         d="m 422,102 c -2.2333,0 -4,1.7667 -4,4 l 0,1 c 0,-2.2333 1.7667,-4 4,-4 l 12,0 c 2.2333,0 4,1.7667 4,4 l 0,-1 c 0,-2.2333 -1.7667,-4 -4,-4 l -12,0 z"
         id="rect3898"
         inkscape:connector-curvature="0" />
      <path
         style="opacity:0.12999998;color:#bebebe;fill:#ffffff;fill-opacity:1;fill-rule:nonzero;stroke:none;stroke-width:0;marker:none;visibility:visible;display:inline;overflow:visible;enable-background:accumulate"
         d="m 424,54 c -3.3413,0 -6,2.658703 -6,6 l 0,1 c 0,-3.341297 2.6587,-6 6,-6 l 16,0 c 3.3413,0 6,2.658703 6,6 l 0,-1 c 0,-3.341297 -2.6587,-6 -6,-6 l -16,0 z"
         id="rect3900"
         inkscape:connector-curvature="0" />
      <path
         style="opacity:0.12999998;color:#bebebe;fill:#ffffff;fill-opacity:1;fill-rule:nonzero;stroke:none;stroke-width:0;marker:none;visibility:visible;display:inline;overflow:visible;enable-background:accumulate"
         d="m 300,224 c -4.4493,0 -8,3.5507 -8,8 l 0,1 c 0,-4.4493 3.5507,-8 8,-8 l 24,0 c 4.4493,0 8,3.5507 8,8 l 0,-1 c 0,-4.4493 -3.5507,-8 -8,-8 l -24,0 z"
         id="rect3902"
         inkscape:connector-curvature="0" />
      <path
         style="opacity:0.12999998;color:#bebebe;fill:#ffffff;fill-opacity:1;fill-rule:nonzero;stroke:none;stroke-width:0;marker:none;visibility:visible;display:inline;overflow:visible;enable-background:accumulate"
         d="m 310,33 c -9.4353,0 -17,7.564703 -17,17 l 0,1 c 0,-9.435297 7.5647,-17 17,-17 l 52,0 c 9.4353,0 17,7.564703 17,17 l 0,-1 c 0,-9.435297 -7.5647,-17 -17,-17 l -52,0 z"
         id="rect3904"
         inkscape:connector-curvature="0" />
      <path
         style="opacity:0.12999998;color:#bebebe;fill:#ffffff;fill-opacity:1;fill-rule:nonzero;stroke:none;stroke-width:0;marker:none;visibility:visible;display:inline;overflow:visible;enable-background:accumulate"
         d="m 302.5,143 c -6.3883,0 -11.5,5.1117 -11.5,11.5 l 0,1 c 0,-6.3883 5.1117,-11.5 11.5,-11.5 l 35,0 c 6.3883,0 11.5,5.1117 11.5,11.5 l 0,-1 c 0,-6.3883 -5.1117,-11.5 -11.5,-11.5 l -35,0 z"
         id="rect3906"
         inkscape:connector-curvature="0" />
      <path
         id="path4085"
         d="m 204,266 c 27.1633,0 49,-21.8367 49,-49 l 0,-1 c 0,27.1633 -21.8367,49 -49,49 L 84,265 C 56.8367,265 35,243.1633 35,216 l 0,1 c 0,27.1633 21.8367,49 49,49 l 120,0 z"
         style="opacity:0.41;color:#bebebe;fill:#000000;fill-opacity:1;fill-rule:nonzero;stroke:none;stroke-width:0;marker:none;visibility:visible;display:inline;overflow:visible;enable-background:accumulate"
         inkscape:connector-curvature="0" />
      <path
         id="path4087"
         d="m 429,156 c 1.1253,0 2,-0.8747 2,-2 l 0,-1 c 0,1.1253 -0.8747,2 -2,2 l -10,0 c -1.1253,0 -2,-0.8747 -2,-2 l 0,1 c 0,1.1253 0.8747,2 2,2 l 10,0 z"
         style="opacity:0.3;color:#bebebe;fill:#000000;fill-opacity:1;fill-rule:nonzero;stroke:none;stroke-width:0;marker:none;visibility:visible;display:inline;overflow:visible;enable-background:accumulate"
         inkscape:connector-curvature="0" />
      <path
         id="path4089"
         d="m 434,123 c 2.2333,0 4,-1.7667 4,-4 l 0,-1 c 0,2.2333 -1.7667,4 -4,4 l -12,0 c -2.2333,0 -4,-1.7667 -4,-4 l 0,1 c 0,2.2333 1.7667,4 4,4 l 12,0 z"
         style="opacity:0.3;color:#bebebe;fill:#000000;fill-opacity:1;fill-rule:nonzero;stroke:none;stroke-width:0;marker:none;visibility:visible;display:inline;overflow:visible;enable-background:accumulate"
         inkscape:connector-curvature="0" />
      <path
         id="path4091"
         d="m 440,83 c 3.3413,0 6,-2.6587 6,-6 l 0,-1 c 0,3.3413 -2.6587,6 -6,6 l -16,0 c -3.3413,0 -6,-2.6587 -6,-6 l 0,1 c 0,3.3413 2.6587,6 6,6 l 16,0 z"
         style="opacity:0.41;color:#bebebe;fill:#000000;fill-opacity:1;fill-rule:nonzero;stroke:none;stroke-width:0;marker:none;visibility:visible;display:inline;overflow:visible;enable-background:accumulate"
         inkscape:connector-curvature="0" />
      <path
         id="path4093"
         d="m 324,265 c 4.4493,0 8,-3.5507 8,-8 l 0,-1 c 0,4.4493 -3.5507,8 -8,8 l -24,0 c -4.4493,0 -8,-3.5507 -8,-8 l 0,1 c 0,4.4493 3.5507,8 8,8 l 24,0 z"
         style="opacity:0.41;color:#bebebe;fill:#000000;fill-opacity:1;fill-rule:nonzero;stroke:none;stroke-width:0;marker:none;visibility:visible;display:inline;overflow:visible;enable-background:accumulate"
         inkscape:connector-curvature="0" />
      <path
         id="path4095"
         d="m 362,120 c 9.4353,0 17,-7.5647 17,-17 l 0,-1 c 0,9.4353 -7.5647,17 -17,17 l -52,0 c -9.4353,0 -17,-7.5647 -17,-17 l 0,1 c 0,9.4353 7.5647,17 17,17 l 52,0 z"
         style="opacity:0.41;color:#bebebe;fill:#000000;fill-opacity:1;fill-rule:nonzero;stroke:none;stroke-width:0;marker:none;visibility:visible;display:inline;overflow:visible;enable-background:accumulate"
         inkscape:connector-curvature="0" />
      <path
         id="path4097"
         d="m 337.5,202 c 6.3883,0 11.5,-5.1117 11.5,-11.5 l 0,-1 c 0,6.3883 -5.1117,11.5 -11.5,11.5 l -35,0 c -6.3883,0 -11.5,-5.1117 -11.5,-11.5 l 0,1 c 0,6.3883 5.1117,11.5 11.5,11.5 l 35,0 z"
         style="opacity:0.41;color:#bebebe;fill:#000000;fill-opacity:1;fill-rule:nonzero;stroke:none;stroke-width:0;marker:none;visibility:visible;display:inline;overflow:visible;enable-background:accumulate"
         inkscape:connector-curvature="0" />
      <path
         inkscape:connector-curvature="0"
         id="path4280"
         d="M 84,265 C 56.836703,265 35,243.1633 35,216 l 0,-1 c 0,27.1633 21.836703,49 49,49 l 120,0 c 27.1633,0 49,-21.8367 49,-49 l 0,1 c 0,27.1633 -21.8367,49 -49,49 l -120,0 z"
         style="opacity:0.1;color:#bebebe;fill:#ffffff;fill-opacity:1;fill-rule:nonzero;stroke:none;stroke-width:0;marker:none;visibility:visible;display:inline;overflow:visible;enable-background:accumulate" />
      <path
         style="opacity:0.1;color:#bebebe;fill:#ffffff;fill-opacity:1;fill-rule:nonzero;stroke:none;stroke-width:0;marker:none;visibility:visible;display:inline;overflow:visible;enable-background:accumulate"
         d="m 300,264 c -4.4493,0 -8,-3.5507 -8,-8 l 0,-1 c 0,4.4493 3.5507,8 8,8 l 24,0 c 4.4493,0 8,-3.5507 8,-8 l 0,1 c 0,4.4493 -3.5507,8 -8,8 l -24,0 z"
         id="path4294"
         inkscape:connector-curvature="0" />
      <path
         style="opacity:0.1;color:#bebebe;fill:#ffffff;fill-opacity:1;fill-rule:nonzero;stroke:none;stroke-width:0;marker:none;visibility:visible;display:inline;overflow:visible;enable-background:accumulate"
         d="m 302.5,201 c -6.3883,0 -11.5,-5.1117 -11.5,-11.5 l 0,-1 c 0,6.3883 5.1117,11.5 11.5,11.5 l 35,0 c 6.3883,0 11.5,-5.1117 11.5,-11.5 l 0,1 c 0,6.3883 -5.1117,11.5 -11.5,11.5 l -35,0 z"
         id="path4296"
         inkscape:connector-curvature="0" />
      <path
         style="opacity:0.1;color:#bebebe;fill:#ffffff;fill-opacity:1;fill-rule:nonzero;stroke:none;stroke-width:0;marker:none;visibility:visible;display:inline;overflow:visible;enable-background:accumulate"
         d="m 310,119 c -9.4353,0 -17,-7.5647 -17,-17 l 0,-1 c 0,9.4353 7.5647,17 17,17 l 52,0 c 9.4353,0 17,-7.5647 17,-17 l 0,1 c 0,9.4353 -7.5647,17 -17,17 l -52,0 z"
         id="path4298"
         inkscape:connector-curvature="0" />
      <path
         style="opacity:0.1;color:#bebebe;fill:#ffffff;fill-opacity:1;fill-rule:nonzero;stroke:none;stroke-width:0;marker:none;visibility:visible;display:inline;overflow:visible;enable-background:accumulate"
         d="m 424,82 c -3.3413,0 -6,-2.658703 -6,-6 l 0,-1 c 0,3.341297 2.6587,6 6,6 l 16,0 c 3.3413,0 6,-2.658703 6,-6 l 0,1 c 0,3.341297 -2.6587,6 -6,6 l -16,0 z"
         id="path4300"
         inkscape:connector-curvature="0" />
      <path
         style="opacity:0.1;color:#bebebe;fill:#ffffff;fill-opacity:1;fill-rule:nonzero;stroke:none;stroke-width:0;marker:none;visibility:visible;display:inline;overflow:visible;enable-background:accumulate"
         d="m 422,122 c -2.2333,0 -4,-1.7667 -4,-4 l 0,-1 c 0,2.2333 1.7667,4 4,4 l 12,0 c 2.2333,0 4,-1.7667 4,-4 l 0,1 c 0,2.2333 -1.7667,4 -4,4 l -12,0 z"
         id="path4302"
         inkscape:connector-curvature="0" />
      <path
         style="opacity:0.1;color:#bebebe;fill:#ffffff;fill-opacity:1;fill-rule:nonzero;stroke:none;stroke-width:0;marker:none;visibility:visible;display:inline;overflow:visible;enable-background:accumulate"
         d="m 419,154.5 c -1.1253,0 -2,-0.8747 -2,-2 l 0,-1 c 0,1.1253 0.8747,2 2,2 l 10,0 c 1.1253,0 2,-0.8747 2,-2 l 0,1 c 0,1.1253 -0.8747,2 -2,2 l -10,0 z"
         id="path4304"
         inkscape:connector-curvature="0" />
    </g>
    <g
       inkscape:groupmode="layer"
       id="layer3"
       inkscape:label="Border"
       style="display:inline"
       sodipodi:insensitive="true">
      <path
         style="opacity:0.41;color:#bebebe;fill:#000000;fill-opacity:1;fill-rule:nonzero;stroke:none;stroke-width:0;marker:none;visibility:visible;display:inline;overflow:visible;enable-background:accumulate"
         d="m 422,101 c -2.77,0 -5,2.23 -5,5 l 0,12 c 0,2.77 2.23,5 5,5 l 12,0 c 2.77,0 5,-2.23 5,-5 l 0,-12 c 0,-2.77 -2.23,-5 -5,-5 l -12,0 z m 0,1 12,0 c 2.2333,0 4,1.7667 4,4 l 0,12 c 0,2.2333 -1.7667,4 -4,4 l -12,0 c -2.2333,0 -4,-1.7667 -4,-4 l 0,-12 c 0,-2.2333 1.7667,-4 4,-4 z"
         id="rect4099"
         inkscape:connector-curvature="0" />
      <path
         style="opacity:0.41;color:#bebebe;fill:#000000;fill-opacity:1;fill-rule:nonzero;stroke:none;stroke-width:0;marker:none;visibility:visible;display:inline;overflow:visible;enable-background:accumulate"
         d="m 424,53 c -3.878,0 -7,3.122 -7,7 l 0,16 c 0,3.878 3.122,7 7,7 l 16,0 c 3.878,0 7,-3.122 7,-7 l 0,-16 c 0,-3.878 -3.122,-7 -7,-7 l -16,0 z m 0,1 16,0 c 3.3413,0 6,2.658703 6,6 l 0,16 c 0,3.341297 -2.6587,6 -6,6 l -16,0 c -3.3413,0 -6,-2.658703 -6,-6 l 0,-16 c 0,-3.341297 2.6587,-6 6,-6 z"
         id="rect4151"
         inkscape:connector-curvature="0" />
      <path
         style="opacity:0.41;color:#bebebe;fill:#000000;fill-opacity:1;fill-rule:nonzero;stroke:none;stroke-width:0;marker:none;visibility:visible;display:inline;overflow:visible;enable-background:accumulate"
         d="m 419,140 c -1.662,0 -3,1.338 -3,3 l 0,10 c 0,1.662 1.338,3 3,3 l 10,0 c 1.662,0 3,-1.338 3,-3 l 0,-10 c 0,-1.662 -1.338,-3 -3,-3 l -10,0 z m 0,1 10,0 c 1.1253,0 2,0.8747 2,2 l 0,10 c 0,1.1253 -0.8747,2 -2,2 l -10,0 c -1.1253,0 -2,-0.8747 -2,-2 l 0,-10 c 0,-1.1253 0.8747,-2 2,-2 z"
         id="rect4095"
         inkscape:connector-curvature="0" />
      <path
         style="opacity:0.41;color:#bebebe;fill:#000000;fill-opacity:1;fill-rule:nonzero;stroke:none;stroke-width:0;marker:none;visibility:visible;display:inline;overflow:visible;enable-background:accumulate"
         d="m 300,223 c -4.986,0 -9,4.014 -9,9 l 0,24 c 0,4.986 4.014,9 9,9 l 24,0 c 4.986,0 9,-4.014 9,-9 l 0,-24 c 0,-4.986 -4.014,-9 -9,-9 l -24,0 z m 0,1 24,0 c 4.4493,0 8,3.5507 8,8 l 0,24 c 0,4.4493 -3.5507,8 -8,8 l -24,0 c -4.4493,0 -8,-3.5507 -8,-8 l 0,-24 c 0,-4.4493 3.5507,-8 8,-8 z"
         id="rect4783"
         inkscape:connector-curvature="0" />
      <path
         style="opacity:0.41;color:#bebebe;fill:#000000;fill-opacity:1;fill-rule:nonzero;stroke:none;stroke-width:0;marker:none;visibility:visible;display:inline;overflow:visible;enable-background:accumulate"
         d="m 302.5,142 c -6.925,0 -12.5,5.575 -12.5,12.5 l 0,35 c 0,6.925 5.575,12.5 12.5,12.5 l 35,0 c 6.925,0 12.5,-5.575 12.5,-12.5 l 0,-35 c 0,-6.925 -5.575,-12.5 -12.5,-12.5 l -35,0 z m 0,1 35,0 c 6.3883,0 11.5,5.1117 11.5,11.5 l 0,35 c 0,6.3883 -5.1117,11.5 -11.5,11.5 l -35,0 c -6.3883,0 -11.5,-5.1117 -11.5,-11.5 l 0,-35 c 0,-6.3883 5.1117,-11.5 11.5,-11.5 z"
         id="rect4515"
         inkscape:connector-curvature="0" />
      <path
         style="opacity:0.41;color:#bebebe;fill:#000000;fill-opacity:1;fill-rule:nonzero;stroke:none;stroke-width:0;marker:none;visibility:visible;display:inline;overflow:visible;enable-background:accumulate"
         d="m 310,32 c -9.972,0 -18,8.028 -18,18 l 0,52 c 0,9.972 8.028,18 18,18 l 52,0 c 9.972,0 18,-8.028 18,-18 l 0,-52 c 0,-9.972 -8.028,-18 -18,-18 l -52,0 z m 0,1 52,0 c 9.4353,0 17,7.564703 17,17 l 0,52 c 0,9.4353 -7.5647,17 -17,17 l -52,0 c -9.4353,0 -17,-7.5647 -17,-17 l 0,-52 c 0,-9.435297 7.5647,-17 17,-17 z"
         id="rect4511"
         inkscape:connector-curvature="0" />
      <path
         style="opacity:0.41;color:#bebebe;fill:#000000;fill-opacity:1;fill-rule:nonzero;stroke:none;stroke-width:0;marker:none;visibility:visible;display:inline;overflow:visible;enable-background:accumulate"
         d="M 84,46 C 56.3,46 34,68.3 34,96 l 0,120 c 0,27.7 22.3,50 50,50 l 120,0 c 27.7,0 50,-22.3 50,-50 L 254,96 C 254,68.3 231.7,46 204,46 L 84,46 z m 0,1 120,0 c 27.1633,0 49,21.836703 49,49 l 0,120 c 0,27.1633 -21.8367,49 -49,49 L 84,265 C 56.836703,265 35,243.1633 35,216 L 35,96 C 35,68.836703 56.836703,47 84,47 z"
         id="rect4040"
         inkscape:connector-curvature="0" />
    </g>
  </g>
</svg>
