<?xml version="1.0" encoding="UTF-8" standalone="no"?>
<svg
   xmlns:dc="http://purl.org/dc/elements/1.1/"
   xmlns:cc="http://creativecommons.org/ns#"
   xmlns:rdf="http://www.w3.org/1999/02/22-rdf-syntax-ns#"
   xmlns:svg="http://www.w3.org/2000/svg"
   xmlns="http://www.w3.org/2000/svg"
   xmlns:xlink="http://www.w3.org/1999/xlink"
   xmlns:sodipodi="http://sodipodi.sourceforge.net/DTD/sodipodi-0.dtd"
   xmlns:inkscape="http://www.inkscape.org/namespaces/inkscape"
   height="300"
   viewBox="78.7 70 73.444781 44.076"
   width="480"
   version="1.1"
   id="svg9"
   sodipodi:docname="firefox-preview.svg"
   inkscape:version="0.92.5 (2060ec1f9f, 2020-04-08)">
  <metadata
     id="metadata15">
    <rdf:RDF>
      <cc:Work
         rdf:about="">
        <dc:format>image/svg+xml</dc:format>
        <dc:type
           rdf:resource="http://purl.org/dc/dcmitype/StillImage" />
        <dc:title></dc:title>
      </cc:Work>
    </rdf:RDF>
  </metadata>
  <defs
     id="defs13">
    <linearGradient
       id="outerBackgroundGradient">
      <stop
         id="stop3864-8-6"
         offset="0"
         style="stop-color:#fd5d38;stop-opacity:1" />
      <stop
         id="stop3866-9-1"
         offset="1"
         style="stop-color:#f69d31;stop-opacity:1" />
    </linearGradient>
    <linearGradient
       gradientTransform="rotate(-90,144.25,156.24999)"
       gradientUnits="userSpaceOnUse"
       y2="156"
       x2="253"
       y1="156"
       x1="35"
       id="linearGradient4254"
       xlink:href="#outerBackgroundGradient"
       inkscape:collect="always" />
    <linearGradient
       gradientTransform="matrix(0,-0.15235607,0.15133873,0,119.42295,155.68552)"
       gradientUnits="userSpaceOnUse"
       y2="148"
       x2="431"
       y1="148"
       x1="417"
       id="linearGradient4256"
       xlink:href="#outerBackgroundGradient"
       inkscape:collect="always" />
    <linearGradient
       gradientTransform="matrix(0,-0.15235607,0.15133873,0,132.74075,144.70133)"
       gradientUnits="userSpaceOnUse"
       y2="68"
       x2="446"
       y1="68"
       x1="418"
       id="linearGradient4260"
       xlink:href="#outerBackgroundGradient"
       inkscape:collect="always" />
    <linearGradient
       gradientTransform="matrix(0,-0.15235607,0.15133873,0,87.944491,153.01929)"
       gradientUnits="userSpaceOnUse"
       y2="244"
       x2="332"
       y1="244"
       x1="292"
       id="linearGradient4262"
       xlink:href="#outerBackgroundGradient"
       inkscape:collect="always" />
    <linearGradient
       gradientTransform="rotate(-90,335.75,75.750001)"
       gradientUnits="userSpaceOnUse"
       y2="76"
       x2="379"
       y1="76"
       x1="293"
       id="linearGradient4264"
       xlink:href="#outerBackgroundGradient"
       inkscape:collect="always" />
    <linearGradient
       gradientTransform="matrix(0,-0.15235607,0.15133873,0,100.05159,143.34468)"
       gradientUnits="userSpaceOnUse"
       y2="172"
       x2="349"
       y1="172"
       x1="291"
       id="linearGradient4266"
       xlink:href="#outerBackgroundGradient"
       inkscape:collect="always" />
    <linearGradient
       y2="112"
       x2="438"
       y1="112"
       x1="418"
       gradientTransform="rotate(-90,427.75,111.75)"
       gradientUnits="userSpaceOnUse"
       id="linearGradient3870"
       xlink:href="#outerBackgroundGradient"
       inkscape:collect="always" />
    <linearGradient
       inkscape:collect="always"
       xlink:href="#outerBackgroundGradient"
       id="linearGradient4195"
       gradientUnits="userSpaceOnUse"
       gradientTransform="matrix(0,-0.15235607,0.15133873,0,75.837391,114.24466)"
       x1="35"
       y1="156"
       x2="253"
       y2="156" />
    <linearGradient
       inkscape:collect="always"
       xlink:href="#outerBackgroundGradient"
       id="linearGradient4444"
       gradientUnits="userSpaceOnUse"
       gradientTransform="matrix(0,-0.15235607,0.15133873,0,117.00153,131.15619)"
       x1="293"
       y1="76"
       x2="379"
       y2="76" />
    <linearGradient
       inkscape:collect="always"
       xlink:href="#outerBackgroundGradient"
       id="linearGradient4446"
       gradientUnits="userSpaceOnUse"
       gradientTransform="matrix(0,-0.15235607,0.15133873,0,125.4765,150.65777)"
       x1="418"
       y1="112"
       x2="438"
       y2="112" />
  </defs>
  <sodipodi:namedview
     pagecolor="#ffffff"
     bordercolor="#666666"
     borderopacity="1"
     objecttolerance="10"
     gridtolerance="10"
     guidetolerance="10"
     inkscape:pageopacity="0"
     inkscape:pageshadow="2"
     inkscape:window-width="1366"
     inkscape:window-height="741"
     id="namedview11"
     showgrid="false"
     inkscape:snap-bbox="true"
     showguides="false"
     inkscape:zoom="1.5104"
     inkscape:cx="244.4425"
     inkscape:cy="123.52947"
     inkscape:window-x="0"
     inkscape:window-y="0"
     inkscape:window-maximized="1"
     inkscape:current-layer="svg9" />
  <linearGradient
     id="a"
     gradientUnits="userSpaceOnUse"
     x1="132.685"
     x2="377.492"
     y1="383.414"
     y2="138.60699"
     gradientTransform="matrix(0.07392393,0,0,0.06676041,497.53143,167.92699)">
    <stop
       offset="0"
       stop-color="#e71c7e"
       id="stop2" />
    <stop
       offset="1"
       stop-color="#ff8d42"
       id="stop4" />
  </linearGradient>
  <g
     style="display:inline"
     inkscape:label="Background"
     id="layer2"
     inkscape:groupmode="layer"
     transform="matrix(0.15300996,0,0,0.15300996,494.36692,-175.1748)" />
  <g
     inkscape:groupmode="layer"
     id="layer7"
     inkscape:label="Baseplate"
     style="display:none"
     transform="matrix(0.15300996,0,0,0.15300996,494.36692,-175.1748)">
    <text
       id="context"
       inkscape:label="context"
       style="font-style:normal;font-variant:normal;font-weight:normal;font-stretch:normal;line-height:0%;font-family:'DejaVu Sans';-inkscape-font-specification:'DejaVu Sans';display:inline;fill:#000000;fill-opacity:1;stroke:none;enable-background:new"
       x="15.006836"
       xml:space="preserve"
       y="19.745117"><tspan
         id="tspan3933"
         sodipodi:role="line"
         x="15.006836"
         y="19.745117"
         style="font-style:normal;font-variant:normal;font-weight:normal;font-stretch:normal;font-size:18px;line-height:1.25;font-family:'DejaVu Sans';-inkscape-font-specification:'DejaVu Sans'">apps</tspan></text>
    <text
       id="icon-name"
       inkscape:label="icon-name"
       style="font-style:normal;font-variant:normal;font-weight:bold;font-stretch:normal;line-height:0%;font-family:'DejaVu Sans';-inkscape-font-specification:'DejaVu Sans Bold';text-align:start;writing-mode:lr-tb;text-anchor:start;display:inline;fill:#000000;fill-opacity:1;stroke:none;enable-background:new"
       x="122.48828"
       xml:space="preserve"
       y="19.745117"><tspan
         id="tspan3937"
         sodipodi:role="line"
         x="122.48828"
         y="19.745117"
         style="font-style:normal;font-variant:normal;font-weight:bold;font-stretch:normal;font-size:18px;line-height:1.25;font-family:'DejaVu Sans';-inkscape-font-specification:'DejaVu Sans Bold'">brave</tspan></text>
    <rect
       inkscape:label="16x16"
       y="140"
       x="416"
       height="16"
       width="16"
       id="rect16x16"
       style="display:inline;overflow:visible;visibility:visible;fill:#eeeeec;fill-opacity:1;fill-rule:nonzero;stroke:none;stroke-width:2;marker:none;enable-background:accumulate" />
    <rect
       inkscape:label="24x24"
       y="100"
       x="416"
       height="24"
       width="24"
       id="rect24x24"
       style="display:inline;overflow:visible;visibility:visible;fill:#d4d4d4;fill-opacity:1;fill-rule:nonzero;stroke:none;stroke-width:2;marker:none;enable-background:accumulate" />
    <rect
       inkscape:label="32x32"
       y="52"
       x="416"
       height="32"
       width="32"
       id="rect32x32"
       style="display:inline;overflow:visible;visibility:visible;fill:#eeeeec;fill-opacity:1;fill-rule:nonzero;stroke:none;stroke-width:2;marker:none;enable-background:accumulate" />
    <rect
       style="display:inline;overflow:visible;visibility:visible;fill:#eeeeec;fill-opacity:1;fill-rule:nonzero;stroke:none;stroke-width:2;marker:none;enable-background:accumulate"
       id="rect22x22"
       width="22"
       height="22"
       x="417"
       y="101"
       inkscape:label="22x22" />
    <rect
       style="display:inline;overflow:visible;visibility:visible;fill:#eeeeec;fill-opacity:1;fill-rule:nonzero;stroke:none;stroke-width:2;marker:none;enable-background:accumulate"
       id="rect48x48"
       width="48"
       height="48"
       x="288"
       y="220"
       inkscape:label="48x48" />
    <rect
       inkscape:label="256x256"
       y="28"
       x="16"
       height="256"
       width="256"
       id="rect256x256"
       style="display:inline;overflow:visible;visibility:visible;fill:#eeeeec;fill-opacity:1;fill-rule:nonzero;stroke:none;stroke-width:2;marker:none;enable-background:accumulate" />
    <rect
       inkscape:label="64x64"
       y="140"
       x="288"
       height="64"
       width="64"
       id="rect64x64"
       style="display:inline;overflow:visible;visibility:visible;fill:#eeeeec;fill-opacity:1;fill-rule:nonzero;stroke:none;stroke-width:2;marker:none;enable-background:accumulate" />
    <rect
       inkscape:label="96x96"
       y="28"
       x="288"
       height="96"
       width="96"
       id="rect96x96"
       style="display:inline;overflow:visible;visibility:visible;fill:#eeeeec;fill-opacity:1;fill-rule:nonzero;stroke:none;stroke-width:2;marker:none;enable-background:accumulate" />
  </g>
  <g
     sodipodi:insensitive="true"
     style="display:inline"
     inkscape:label="Shadow"
     id="layer4"
     inkscape:groupmode="layer"
     transform="matrix(0.15300996,0,0,0.15300996,494.36692,-175.1748)">
    <rect
       style="color:#bebebe;display:inline;overflow:visible;visibility:visible;opacity:0.1;fill:#000000;fill-opacity:1;fill-rule:nonzero;stroke:none;stroke-width:0;marker:none;enable-background:accumulate"
       id="rect4114"
       width="220"
       height="220"
       x="34"
       y="47"
       ry="50" />
    <rect
       ry="7"
       y="54"
       x="417"
       height="30"
       width="30"
       id="rect4120"
       style="color:#bebebe;display:inline;overflow:visible;visibility:visible;opacity:0.1;fill:#000000;fill-opacity:1;fill-rule:nonzero;stroke:none;stroke-width:0;marker:none;enable-background:accumulate" />
    <rect
       style="color:#bebebe;display:inline;overflow:visible;visibility:visible;opacity:0.1;fill:#000000;fill-opacity:1;fill-rule:nonzero;stroke:none;stroke-width:0;marker:none;enable-background:accumulate"
       id="rect4122"
       width="42"
       height="42"
       x="291"
       y="-266"
       ry="9"
       transform="scale(1,-1)" />
    <rect
       ry="18"
       y="33"
       x="292"
       height="88"
       width="88"
       id="rect4124"
       style="color:#bebebe;display:inline;overflow:visible;visibility:visible;opacity:0.1;fill:#000000;fill-opacity:1;fill-rule:nonzero;stroke:none;stroke-width:0;marker:none;enable-background:accumulate" />
    <rect
       style="color:#bebebe;display:inline;overflow:visible;visibility:visible;opacity:0.1;fill:#000000;fill-opacity:1;fill-rule:nonzero;stroke:none;stroke-width:0;marker:none;enable-background:accumulate"
       id="rect4126"
       width="60"
       height="60"
       x="290"
       y="143"
       ry="12.5" />
    <path
       sodipodi:nodetypes="sssssssss"
       inkscape:connector-curvature="0"
       style="color:#bebebe;display:inline;overflow:visible;visibility:visible;opacity:0.1;fill:#000000;fill-opacity:1;fill-rule:nonzero;stroke:none;stroke-width:0;marker:none;enable-background:accumulate"
       d="m 422,101 c -2.77,0 -5,2.23 -5,5 v 12 c 0,2.77 2.23,5 5,5 h 12 c 2.77,0 5,-2.23 5,-5 v -12 c 0,-2.77 -2.23,-5 -5,-5 z"
       id="path4268" />
    <path
       sodipodi:nodetypes="sssssssss"
       inkscape:connector-curvature="0"
       style="color:#bebebe;display:inline;overflow:visible;visibility:visible;opacity:0.1;fill:#000000;fill-opacity:1;fill-rule:nonzero;stroke:none;stroke-width:0;marker:none;enable-background:accumulate"
       d="m 419,140 c -1.662,0 -3,1.338 -3,3 v 10 c 0,1.662 1.338,3 3,3 h 10 c 1.662,0 3,-1.338 3,-3 v -10 c 0,-1.662 -1.338,-3 -3,-3 z"
       id="path4270" />
  </g>
  <g
     style="display:inline"
     inkscape:label="Symbols"
     id="layer6"
     inkscape:groupmode="layer"
     transform="matrix(0.15300996,0,0,0.15300996,494.36692,-175.1748)" />
  <g
     sodipodi:insensitive="true"
     style="display:inline"
     inkscape:label="Highlights"
     id="layer5"
     inkscape:groupmode="layer"
     transform="matrix(0.15300996,0,0,0.15300996,494.36692,-175.1748)">
    <path
       inkscape:connector-curvature="0"
       id="rect3894"
       d="M 84,47 C 56.836703,47 35,68.836703 35,96 v 1 C 35,69.836703 56.836703,48 84,48 h 120 c 27.1633,0 49,21.836703 49,49 V 96 C 253,68.836703 231.1633,47 204,47 Z"
       style="color:#bebebe;display:inline;overflow:visible;visibility:visible;opacity:0.12999998;fill:#ffffff;fill-opacity:1;fill-rule:nonzero;stroke:none;stroke-width:0;marker:none;enable-background:accumulate" />
    <path
       inkscape:connector-curvature="0"
       id="rect3896"
       d="m 419,141 c -1.1253,0 -2,0.8747 -2,2 v 1 c 0,-1.1253 0.8747,-2 2,-2 h 10 c 1.1253,0 2,0.8747 2,2 v -1 c 0,-1.1253 -0.8747,-2 -2,-2 z"
       style="color:#bebebe;display:inline;overflow:visible;visibility:visible;opacity:0.12999998;fill:#ffffff;fill-opacity:1;fill-rule:nonzero;stroke:none;stroke-width:0;marker:none;enable-background:accumulate" />
    <path
       inkscape:connector-curvature="0"
       id="rect3898"
       d="m 422,102 c -2.2333,0 -4,1.7667 -4,4 v 1 c 0,-2.2333 1.7667,-4 4,-4 h 12 c 2.2333,0 4,1.7667 4,4 v -1 c 0,-2.2333 -1.7667,-4 -4,-4 z"
       style="color:#bebebe;display:inline;overflow:visible;visibility:visible;opacity:0.12999998;fill:#ffffff;fill-opacity:1;fill-rule:nonzero;stroke:none;stroke-width:0;marker:none;enable-background:accumulate" />
    <path
       inkscape:connector-curvature="0"
       id="rect3900"
       d="m 424,54 c -3.3413,0 -6,2.658703 -6,6 v 1 c 0,-3.341297 2.6587,-6 6,-6 h 16 c 3.3413,0 6,2.658703 6,6 v -1 c 0,-3.341297 -2.6587,-6 -6,-6 z"
       style="color:#bebebe;display:inline;overflow:visible;visibility:visible;opacity:0.12999998;fill:#ffffff;fill-opacity:1;fill-rule:nonzero;stroke:none;stroke-width:0;marker:none;enable-background:accumulate" />
    <path
       inkscape:connector-curvature="0"
       id="rect3902"
       d="m 300,224 c -4.4493,0 -8,3.5507 -8,8 v 1 c 0,-4.4493 3.5507,-8 8,-8 h 24 c 4.4493,0 8,3.5507 8,8 v -1 c 0,-4.4493 -3.5507,-8 -8,-8 z"
       style="color:#bebebe;display:inline;overflow:visible;visibility:visible;opacity:0.12999998;fill:#ffffff;fill-opacity:1;fill-rule:nonzero;stroke:none;stroke-width:0;marker:none;enable-background:accumulate" />
    <path
       inkscape:connector-curvature="0"
       id="rect3904"
       d="m 310,33 c -9.4353,0 -17,7.564703 -17,17 v 1 c 0,-9.435297 7.5647,-17 17,-17 h 52 c 9.4353,0 17,7.564703 17,17 v -1 c 0,-9.435297 -7.5647,-17 -17,-17 z"
       style="color:#bebebe;display:inline;overflow:visible;visibility:visible;opacity:0.12999998;fill:#ffffff;fill-opacity:1;fill-rule:nonzero;stroke:none;stroke-width:0;marker:none;enable-background:accumulate" />
    <path
       inkscape:connector-curvature="0"
       id="rect3906"
       d="m 302.5,143 c -6.3883,0 -11.5,5.1117 -11.5,11.5 v 1 c 0,-6.3883 5.1117,-11.5 11.5,-11.5 h 35 c 6.3883,0 11.5,5.1117 11.5,11.5 v -1 c 0,-6.3883 -5.1117,-11.5 -11.5,-11.5 z"
       style="color:#bebebe;display:inline;overflow:visible;visibility:visible;opacity:0.12999998;fill:#ffffff;fill-opacity:1;fill-rule:nonzero;stroke:none;stroke-width:0;marker:none;enable-background:accumulate" />
    <path
       inkscape:connector-curvature="0"
       style="color:#bebebe;display:inline;overflow:visible;visibility:visible;opacity:0.5;fill:#000000;fill-opacity:1;fill-rule:nonzero;stroke:none;stroke-width:0;marker:none;enable-background:accumulate"
       d="m 204,266 c 27.1633,0 49,-21.8367 49,-49 v -1 c 0,27.1633 -21.8367,49 -49,49 H 84 C 56.8367,265 35,243.1633 35,216 v 1 c 0,27.1633 21.8367,49 49,49 z"
       id="path4085" />
    <path
       inkscape:connector-curvature="0"
       style="color:#bebebe;display:inline;overflow:visible;visibility:visible;opacity:0.3;fill:#000000;fill-opacity:1;fill-rule:nonzero;stroke:none;stroke-width:0;marker:none;enable-background:accumulate"
       d="m 429,156 c 1.1253,0 2,-0.8747 2,-2 v -1 c 0,1.1253 -0.8747,2 -2,2 h -10 c -1.1253,0 -2,-0.8747 -2,-2 v 1 c 0,1.1253 0.8747,2 2,2 z"
       id="path4087" />
    <path
       inkscape:connector-curvature="0"
       style="color:#bebebe;display:inline;overflow:visible;visibility:visible;opacity:0.3;fill:#000000;fill-opacity:1;fill-rule:nonzero;stroke:none;stroke-width:0;marker:none;enable-background:accumulate"
       d="m 434,123 c 2.2333,0 4,-1.7667 4,-4 v -1 c 0,2.2333 -1.7667,4 -4,4 h -12 c -2.2333,0 -4,-1.7667 -4,-4 v 1 c 0,2.2333 1.7667,4 4,4 z"
       id="path4089" />
    <path
       inkscape:connector-curvature="0"
       style="color:#bebebe;display:inline;overflow:visible;visibility:visible;opacity:0.5;fill:#000000;fill-opacity:1;fill-rule:nonzero;stroke:none;stroke-width:0;marker:none;enable-background:accumulate"
       d="m 440,83 c 3.3413,0 6,-2.6587 6,-6 v -1 c 0,3.3413 -2.6587,6 -6,6 h -16 c -3.3413,0 -6,-2.6587 -6,-6 v 1 c 0,3.3413 2.6587,6 6,6 z"
       id="path4091" />
    <path
       inkscape:connector-curvature="0"
       style="color:#bebebe;display:inline;overflow:visible;visibility:visible;opacity:0.5;fill:#000000;fill-opacity:1;fill-rule:nonzero;stroke:none;stroke-width:0;marker:none;enable-background:accumulate"
       d="m 324,265 c 4.4493,0 8,-3.5507 8,-8 v -1 c 0,4.4493 -3.5507,8 -8,8 h -24 c -4.4493,0 -8,-3.5507 -8,-8 v 1 c 0,4.4493 3.5507,8 8,8 z"
       id="path4093" />
    <path
       inkscape:connector-curvature="0"
       style="color:#bebebe;display:inline;overflow:visible;visibility:visible;opacity:0.5;fill:#000000;fill-opacity:1;fill-rule:nonzero;stroke:none;stroke-width:0;marker:none;enable-background:accumulate"
       d="m 362,120 c 9.4353,0 17,-7.5647 17,-17 v -1 c 0,9.4353 -7.5647,17 -17,17 h -52 c -9.4353,0 -17,-7.5647 -17,-17 v 1 c 0,9.4353 7.5647,17 17,17 z"
       id="path4095" />
    <path
       inkscape:connector-curvature="0"
       style="color:#bebebe;display:inline;overflow:visible;visibility:visible;opacity:0.5;fill:#000000;fill-opacity:1;fill-rule:nonzero;stroke:none;stroke-width:0;marker:none;enable-background:accumulate"
       d="m 337.5,202 c 6.3883,0 11.5,-5.1117 11.5,-11.5 v -1 c 0,6.3883 -5.1117,11.5 -11.5,11.5 h -35 c -6.3883,0 -11.5,-5.1117 -11.5,-11.5 v 1 c 0,6.3883 5.1117,11.5 11.5,11.5 z"
       id="path4097" />
    <path
       style="color:#bebebe;display:inline;overflow:visible;visibility:visible;opacity:0.1;fill:#ffffff;fill-opacity:1;fill-rule:nonzero;stroke:none;stroke-width:0;marker:none;enable-background:accumulate"
       d="M 84,265 C 56.836703,265 35,243.1633 35,216 v -1 c 0,27.1633 21.836703,49 49,49 h 120 c 27.1633,0 49,-21.8367 49,-49 v 1 c 0,27.1633 -21.8367,49 -49,49 z"
       id="path4280"
       inkscape:connector-curvature="0" />
    <path
       inkscape:connector-curvature="0"
       id="path4294"
       d="m 300,264 c -4.4493,0 -8,-3.5507 -8,-8 v -1 c 0,4.4493 3.5507,8 8,8 h 24 c 4.4493,0 8,-3.5507 8,-8 v 1 c 0,4.4493 -3.5507,8 -8,8 z"
       style="color:#bebebe;display:inline;overflow:visible;visibility:visible;opacity:0.1;fill:#ffffff;fill-opacity:1;fill-rule:nonzero;stroke:none;stroke-width:0;marker:none;enable-background:accumulate" />
    <path
       inkscape:connector-curvature="0"
       id="path4296"
       d="m 302.5,201 c -6.3883,0 -11.5,-5.1117 -11.5,-11.5 v -1 c 0,6.3883 5.1117,11.5 11.5,11.5 h 35 c 6.3883,0 11.5,-5.1117 11.5,-11.5 v 1 c 0,6.3883 -5.1117,11.5 -11.5,11.5 z"
       style="color:#bebebe;display:inline;overflow:visible;visibility:visible;opacity:0.1;fill:#ffffff;fill-opacity:1;fill-rule:nonzero;stroke:none;stroke-width:0;marker:none;enable-background:accumulate" />
    <path
       inkscape:connector-curvature="0"
       id="path4298"
       d="m 310,119 c -9.4353,0 -17,-7.5647 -17,-17 v -1 c 0,9.4353 7.5647,17 17,17 h 52 c 9.4353,0 17,-7.5647 17,-17 v 1 c 0,9.4353 -7.5647,17 -17,17 z"
       style="color:#bebebe;display:inline;overflow:visible;visibility:visible;opacity:0.1;fill:#ffffff;fill-opacity:1;fill-rule:nonzero;stroke:none;stroke-width:0;marker:none;enable-background:accumulate" />
    <path
       inkscape:connector-curvature="0"
       id="path4300"
       d="m 424,82 c -3.3413,0 -6,-2.658703 -6,-6 v -1 c 0,3.341297 2.6587,6 6,6 h 16 c 3.3413,0 6,-2.658703 6,-6 v 1 c 0,3.341297 -2.6587,6 -6,6 z"
       style="color:#bebebe;display:inline;overflow:visible;visibility:visible;opacity:0.1;fill:#ffffff;fill-opacity:1;fill-rule:nonzero;stroke:none;stroke-width:0;marker:none;enable-background:accumulate" />
    <path
       inkscape:connector-curvature="0"
       id="path4302"
       d="m 422,122 c -2.2333,0 -4,-1.7667 -4,-4 v -1 c 0,2.2333 1.7667,4 4,4 h 12 c 2.2333,0 4,-1.7667 4,-4 v 1 c 0,2.2333 -1.7667,4 -4,4 z"
       style="color:#bebebe;display:inline;overflow:visible;visibility:visible;opacity:0.1;fill:#ffffff;fill-opacity:1;fill-rule:nonzero;stroke:none;stroke-width:0;marker:none;enable-background:accumulate" />
    <path
       inkscape:connector-curvature="0"
       id="path4304"
       d="m 419,154.5 c -1.1253,0 -2,-0.8747 -2,-2 v -1 c 0,1.1253 0.8747,2 2,2 h 10 c 1.1253,0 2,-0.8747 2,-2 v 1 c 0,1.1253 -0.8747,2 -2,2 z"
       style="color:#bebebe;display:inline;overflow:visible;visibility:visible;opacity:0.1;fill:#ffffff;fill-opacity:1;fill-rule:nonzero;stroke:none;stroke-width:0;marker:none;enable-background:accumulate" />
  </g>
  <g
     sodipodi:insensitive="true"
     style="display:inline"
     inkscape:label="Border"
     id="layer3"
     inkscape:groupmode="layer"
     transform="matrix(0.15300996,0,0,0.15300996,494.36692,-175.1748)">
    <path
       inkscape:connector-curvature="0"
       id="rect4099"
       d="m 422,101 c -2.77,0 -5,2.23 -5,5 v 12 c 0,2.77 2.23,5 5,5 h 12 c 2.77,0 5,-2.23 5,-5 v -12 c 0,-2.77 -2.23,-5 -5,-5 z m 0,1 h 12 c 2.2333,0 4,1.7667 4,4 v 12 c 0,2.2333 -1.7667,4 -4,4 h -12 c -2.2333,0 -4,-1.7667 -4,-4 v -12 c 0,-2.2333 1.7667,-4 4,-4 z"
       style="color:#bebebe;display:inline;overflow:visible;visibility:visible;opacity:0.41000001;fill:#000000;fill-opacity:1;fill-rule:nonzero;stroke:none;stroke-width:0;marker:none;enable-background:accumulate" />
    <path
       inkscape:connector-curvature="0"
       id="rect4151"
       d="m 424,53 c -3.878,0 -7,3.122 -7,7 v 16 c 0,3.878 3.122,7 7,7 h 16 c 3.878,0 7,-3.122 7,-7 V 60 c 0,-3.878 -3.122,-7 -7,-7 z m 0,1 h 16 c 3.3413,0 6,2.658703 6,6 v 16 c 0,3.341297 -2.6587,6 -6,6 h -16 c -3.3413,0 -6,-2.658703 -6,-6 V 60 c 0,-3.341297 2.6587,-6 6,-6 z"
       style="color:#bebebe;display:inline;overflow:visible;visibility:visible;opacity:0.41000001;fill:#000000;fill-opacity:1;fill-rule:nonzero;stroke:none;stroke-width:0;marker:none;enable-background:accumulate" />
    <path
       inkscape:connector-curvature="0"
       id="rect4095"
       d="m 419,140 c -1.662,0 -3,1.338 -3,3 v 10 c 0,1.662 1.338,3 3,3 h 10 c 1.662,0 3,-1.338 3,-3 v -10 c 0,-1.662 -1.338,-3 -3,-3 z m 0,1 h 10 c 1.1253,0 2,0.8747 2,2 v 10 c 0,1.1253 -0.8747,2 -2,2 h -10 c -1.1253,0 -2,-0.8747 -2,-2 v -10 c 0,-1.1253 0.8747,-2 2,-2 z"
       style="color:#bebebe;display:inline;overflow:visible;visibility:visible;opacity:0.41000001;fill:#000000;fill-opacity:1;fill-rule:nonzero;stroke:none;stroke-width:0;marker:none;enable-background:accumulate" />
    <path
       inkscape:connector-curvature="0"
       id="rect4783"
       d="m 300,223 c -4.986,0 -9,4.014 -9,9 v 24 c 0,4.986 4.014,9 9,9 h 24 c 4.986,0 9,-4.014 9,-9 v -24 c 0,-4.986 -4.014,-9 -9,-9 z m 0,1 h 24 c 4.4493,0 8,3.5507 8,8 v 24 c 0,4.4493 -3.5507,8 -8,8 h -24 c -4.4493,0 -8,-3.5507 -8,-8 v -24 c 0,-4.4493 3.5507,-8 8,-8 z"
       style="color:#bebebe;display:inline;overflow:visible;visibility:visible;opacity:0.41000001;fill:#000000;fill-opacity:1;fill-rule:nonzero;stroke:none;stroke-width:0;marker:none;enable-background:accumulate" />
    <path
       inkscape:connector-curvature="0"
       id="rect4515"
       d="m 302.5,142 c -6.925,0 -12.5,5.575 -12.5,12.5 v 35 c 0,6.925 5.575,12.5 12.5,12.5 h 35 c 6.925,0 12.5,-5.575 12.5,-12.5 v -35 c 0,-6.925 -5.575,-12.5 -12.5,-12.5 z m 0,1 h 35 c 6.3883,0 11.5,5.1117 11.5,11.5 v 35 c 0,6.3883 -5.1117,11.5 -11.5,11.5 h -35 c -6.3883,0 -11.5,-5.1117 -11.5,-11.5 v -35 c 0,-6.3883 5.1117,-11.5 11.5,-11.5 z"
       style="color:#bebebe;display:inline;overflow:visible;visibility:visible;opacity:0.41000001;fill:#000000;fill-opacity:1;fill-rule:nonzero;stroke:none;stroke-width:0;marker:none;enable-background:accumulate" />
    <path
       inkscape:connector-curvature="0"
       id="rect4511"
       d="m 310,32 c -9.972,0 -18,8.028 -18,18 v 52 c 0,9.972 8.028,18 18,18 h 52 c 9.972,0 18,-8.028 18,-18 V 50 c 0,-9.972 -8.028,-18 -18,-18 z m 0,1 h 52 c 9.4353,0 17,7.564703 17,17 v 52 c 0,9.4353 -7.5647,17 -17,17 h -52 c -9.4353,0 -17,-7.5647 -17,-17 V 50 c 0,-9.435297 7.5647,-17 17,-17 z"
       style="color:#bebebe;display:inline;overflow:visible;visibility:visible;opacity:0.41000001;fill:#000000;fill-opacity:1;fill-rule:nonzero;stroke:none;stroke-width:0;marker:none;enable-background:accumulate" />
    <path
       inkscape:connector-curvature="0"
       id="rect4040"
       d="M 84,46 C 56.3,46 34,68.3 34,96 v 120 c 0,27.7 22.3,50 50,50 h 120 c 27.7,0 50,-22.3 50,-50 V 96 C 254,68.3 231.7,46 204,46 Z m 0,1 h 120 c 27.1633,0 49,21.836703 49,49 v 120 c 0,27.1633 -21.8367,49 -49,49 H 84 C 56.836703,265 35,243.1633 35,216 V 96 C 35,68.836703 56.836703,47 84,47 Z"
       style="color:#bebebe;display:inline;overflow:visible;visibility:visible;opacity:0.41000001;fill:#000000;fill-opacity:1;fill-rule:nonzero;stroke:none;stroke-width:0;marker:none;enable-background:accumulate" />
  </g>
  <path
     id="path4202"
     d="m 141.06438,89.943874 c -0.20951,0 -0.37834,0.169968 -0.37834,0.38089 v 1.523561 c 0,0.210921 0.16883,0.38089 0.37834,0.38089 h 1.51339 c 0.20952,0 0.37835,-0.169969 0.37835,-0.38089 v -1.523561 c 0,-0.210922 -0.16883,-0.38089 -0.37835,-0.38089 z"
     style="color:#bebebe;display:inline;overflow:visible;visibility:visible;fill:url(#linearGradient4256);fill-opacity:1;fill-rule:nonzero;stroke:none;stroke-width:0.30369309;marker:none;enable-background:accumulate"
     inkscape:connector-curvature="0" />
  <path
     id="path4200"
     d="m 90.365913,75.622405 c -4.151416,0 -7.491274,3.362299 -7.491274,7.541622 v 18.282733 c 0,4.17931 3.339858,7.54162 7.491274,7.54162 h 18.160647 c 4.15141,0 7.49126,-3.36231 7.49126,-7.54162 V 83.164027 c 0,-4.179323 -3.33985,-7.541622 -7.49126,-7.541622 z"
     style="color:#bebebe;display:inline;overflow:visible;visibility:visible;fill:url(#linearGradient4195);fill-opacity:1;fill-rule:nonzero;stroke:none;stroke-width:0.30369312;marker:none;enable-background:accumulate"
     inkscape:connector-curvature="0" />
  <path
     d="m 111.33557,87.630478 c -0.54838,-1.116787 -1.27955,-2.107276 -2.39091,-2.825205 -0.48257,-0.312449 -0.6873,-0.265899 -1.00171,0.192783 -0.84815,-0.897419 -1.71824,-1.788196 -2.53713,-2.698897 -0.59225,-0.658125 -1.16256,-1.336165 -1.52815,-2.133862 -0.22665,-0.505231 -0.47525,-0.598292 -0.99438,-0.305787 -0.9432,0.525146 -1.74748,1.189903 -2.40552,2.007543 -0.957835,1.183272 -1.608579,2.48618 -1.827926,3.955295 -0.02928,0.126298 -0.146226,0.119597 -0.255904,0.146242 -0.292461,0.07309 -0.577622,0.152884 -0.862773,0.245965 -0.270542,0.08643 -0.380211,0.279181 -0.29246,0.525146 0.08773,0.259257 0.329016,0.352318 0.577611,0.259257 0.78965,-0.312439 1.77674,-0.312439 2.434782,-0.239313 0.0804,0.01991 0.16085,0.0465 0.24129,0.05984 1.0675,0.192773 2.02532,0.58499 2.8296,1.26304 l -0.008,0.006 c -0.11704,0.05984 -0.26323,0.0931 -0.3729,0.05317 -0.29977,-0.106394 -0.59954,-0.05317 -0.89933,-0.0465 -0.24859,0.006 -0.48987,0.06651 -0.55569,0.332364 -0.0658,0.279202 0.10969,0.412151 0.35828,0.538459 1.51351,0.77111 2.22274,1.967675 2.28855,3.523189 0.0293,0.664757 -0.16087,1.289625 -0.38752,1.907842 -0.29978,0.452039 -0.57031,0.924024 -1.01632,1.276332 -1.30147,1.030368 -2.836926,1.329504 -4.46742,1.030368 -1.937584,-0.35897 -3.246371,-1.435868 -3.831301,-3.184174 -0.109689,-0.332374 -0.02928,-0.598263 0.204729,-0.85752 0.365583,-0.412161 0.826216,-0.684711 1.367271,-0.85754 0.643425,-0.159545 1.301478,-0.279201 1.97414,-0.259257 0.146235,0.006 0.285161,-0.0465 0.416767,-0.112995 0.59224,-0.285843 1.067502,-0.697994 1.418456,-1.216499 0.241288,-0.352318 0.168173,-0.565045 -0.219348,-0.77112 -0.05123,-0.02649 -0.102329,-0.05984 -0.160853,-0.07976 -1.418456,-0.545101 -2.668749,-1.302918 -3.707014,-2.339937 -0.05845,-0.05984 -0.06577,-0.106394 -0.08041,-0.172839 -0.138916,-0.691332 -0.146235,-1.382675 0.0365,-2.074018 0.05124,-0.192783 0.06577,-0.378924 -0.117037,-0.518515 -0.190101,-0.152904 -0.409449,-0.112995 -0.614168,-0.02649 -0.563013,0.245944 -1.089439,0.538449 -1.57201,0.897418 -0.307089,0.22602 -0.606869,0.465323 -0.913957,0.697995 -0.10233,-0.119597 -0.09515,-0.245965 -0.109689,-0.365621 -0.06577,-0.505202 -0.08041,-1.017085 -0.06577,-1.522287 0.01454,-0.445388 -0.29246,-0.618216 -0.745794,-0.438737 -0.06577,0.02649 -0.131607,0.05317 -0.19741,0.0931 -1.367281,0.837585 -2.442082,1.914493 -3.239061,3.224052 -0.07319,0.09967 -0.146235,0.199435 -0.212048,0.305788 -0.98706,1.715069 -1.345324,3.556446 -1.308768,5.477581 0.0365,0.864181 0.175472,1.708408 0.438696,2.539361 0.796959,2.512766 2.332413,4.593436 4.62827,6.142325 2.902735,1.95437 6.178352,2.6989 9.768369,2.22028 1.70362,-0.22602 3.29025,-0.74453 4.75258,-1.56883 1.8206,-0.97718 3.25368,-2.2934 4.3358,-3.941984 0.93589,-1.369393 1.5135,-2.858442 1.70361,-4.460496 0.0293,-0.232672 0.0658,-0.458682 0.0804,-0.691353 0.0877,-1.801478 -0.14624,-3.549785 -0.95782,-5.211662 z M 99.739283,85.895464 c -0.270542,-0.01991 -0.153544,-0.186121 -0.124268,-0.292485 0.255904,-1.169978 0.796955,-2.233573 1.579315,-3.190815 0.13892,-0.172838 0.21935,-0.392217 0.52643,-0.558403 -0.50449,1.555533 -0.43137,3.024628 0.32172,4.500385 -0.79697,-0.285844 -1.54275,-0.4055 -2.303167,-0.458682 z m 2.566377,-2.187033 c 0.0145,-0.990479 0.31441,-1.914494 0.89203,-2.811902 0.39482,0.571676 0.77504,1.110125 1.20642,1.621998 0.90665,1.08354 1.95953,2.054075 2.91004,3.104387 0.57763,0.644812 1.0602,1.342807 1.52814,2.060755 0.50451,0.771101 0.54836,1.58209 0.446,2.432998 -0.022,0.186121 -0.0658,0.372243 -0.0952,0.551732 -0.3144,1.169969 -0.92858,2.193685 -1.83522,3.1177 0.17547,-1.947731 -0.40946,-3.622901 -2.06188,-4.912536 -0.31441,-0.558394 -0.78966,-1.003772 -1.26493,-1.449151 -1.11868,-1.030378 -1.74748,-2.253528 -1.72555,-3.715981 z m 2.23738,11.014965 c 0.92127,-1.548873 0.62148,-3.908754 -0.66537,-5.304733 -0.0804,-0.08643 -0.14622,-0.172838 -0.21204,-0.265909 l 0.0439,-0.03983 c 1.01632,0.259258 1.66706,0.910712 2.14231,1.721711 0.75311,1.276332 0.67267,2.599194 0.27053,3.941981 -0.0658,0.126328 -0.13161,0.252626 -0.26321,0.345687 -0.76773,0.525146 -1.57933,0.970544 -2.47866,1.296266 -0.0512,0.01991 -0.10969,0.02659 -0.27052,0.06641 0.67266,-0.538439 1.14793,-1.090181 1.43307,-1.761589 z m -9.271183,-3.523199 c -0.665353,0.22602 -1.147924,0.658115 -1.630495,1.256388 0,-0.299136 -0.0079,-0.505212 0,-0.704636 0.02196,-0.478626 -0.09515,-0.591631 -0.599549,-0.624868 -0.78967,-0.03983 -1.447713,-0.325732 -1.981459,-0.864171 -0.226657,-0.232672 -0.08773,-0.312439 0.131607,-0.372263 l 0.877391,-0.192782 c 0.928586,-0.08643 1.813296,0.07309 2.66145,0.432095 0.935895,0.392187 1.930274,0.525146 2.9539,0.485268 0.109688,-0.006 0.219347,0 0.336345,0.03326 -0.943214,0.09967 -1.901036,0.106393 -2.74919,0.551742 z m -0.650724,-5.829879 v 0.977176 c 0,0.119597 -0.05124,0.152904 -0.175492,0.126318 -0.350955,-0.07319 -0.709218,-0.139611 -1.133295,-0.22602 0.431376,-0.319091 0.804278,-0.618227 1.308787,-0.877474 z m -6.836406,7.677907 c -0.285141,-0.897438 -0.241285,-1.794846 -0.08773,-2.712199 0.19011,-1.103504 0.614187,-2.107266 1.162562,-3.091114 -0.0079,-0.01334 -0.02196,-0.03326 -0.02928,-0.0465 0.0079,0.01334 0.02196,0.02659 0.02928,0.0465 0.614177,-0.870822 1.27223,-1.701766 2.149621,-2.373164 0.08773,-0.06651 0.153545,-0.172838 0.321718,-0.17949 0.04392,0.372272 0.08773,0.737883 0.138916,1.110146 0.02196,0.1396 0.05123,0.285833 0.08773,0.425444 0.212038,0.731221 0.343645,0.830933 1.17717,0.844226 1.228356,0.01991 2.281239,0.365631 3.114774,1.223161 0.606858,0.624868 1.411137,1.010413 2.215425,1.389317 -0.350954,0.139621 -0.972451,0.159555 -1.659741,0.03983 -0.504509,-0.08643 -0.98708,-0.22601 -1.455023,-0.418793 -1.184489,-0.485267 -2.434782,-0.611565 -3.699694,-0.299146 -0.365583,0.06651 -0.804288,0.27256 -1.133315,0.445389 -0.365573,0.192782 -0.431376,0.385565 -0.233966,0.717938 0.511818,0.870823 1.286849,1.469105 2.36167,1.681822 0.343645,0.06651 0.453314,0.159545 0.475252,0.491919 0.124268,1.881256 1.206417,3.2573 2.902725,4.247779 2.705305,1.58212 5.534929,1.575468 8.423029,0.465323 0.87739,-0.339025 1.7036,-0.777762 2.4494,-1.329504 0.1901,-0.139591 0.37289,-0.299136 0.55568,-0.45202 0.71655,-0.49859 1.26492,-1.13009 1.76211,-1.794847 0.42408,-0.565035 0.77504,-1.169968 1.04557,-1.914483 0.0804,0.571676 0,1.043661 -0.0658,1.508984 -0.2486,1.728362 -0.97976,3.270583 -2.17888,4.633344 l -0.5703,0.545091 c -0.88471,0.830933 -1.93758,1.44916 -3.08552,1.954382 -1.57201,0.59826 -3.2025,0.87082 -4.906118,0.81764 -5.279013,-0.16619 -9.892655,-3.470017 -11.230699,-7.883973 -0.0079,-0.03326 -0.02196,-0.05984 -0.0365,-0.0931 z M 111.3575,92.828847 c -0.008,0.119597 0,0.239313 -0.008,0.365621 -0.16817,1.209847 -0.50451,2.373165 -1.09676,3.470007 -0.15353,0.285853 -0.32171,0.565035 -0.48257,0.850898 -1.09674,1.641933 -2.5737,2.924907 -4.38698,3.902087 -1.14062,0.5318 -2.31779,0.9639 -3.58272,1.18327 -4.906112,0.85754 -9.797595,-1.03702 -12.473663,-4.839412 -0.05123,-0.07309 -0.08773,-0.146243 -0.160854,-0.265889 0.19741,0.01991 0.248585,0.132949 0.329017,0.212717 1.922955,1.994251 4.299243,3.290514 7.143484,3.875504 2.493267,0.51186 4.942666,0.35232 7.326276,-0.48526 0.23397,-0.0798 0.36558,-0.12631 0.65804,-0.25926 0.14624,-0.0665 0.14624,-0.0731 0.21205,-0.0997 1.42577,-0.64482 2.62488,-1.548887 3.61195,-2.685618 1.01631,-1.076908 1.63781,-2.339937 2.0107,-3.702679 0.27053,-0.990489 0.41676,-1.994251 0.35097,-3.017987 -0.022,-0.717929 -0.13162,-1.422564 -0.35097,-2.113917 -0.22667,-0.717929 -0.40946,-1.455802 -0.57762,-2.193695 0.40215,0.471994 0.67267,1.003792 0.8774,1.562175 0.52644,1.376054 0.68729,2.791967 0.59955,4.241138 z"
     id="path7"
     style="fill:#ffffff;stroke-width:0.06971692"
     inkscape:connector-curvature="0" />
  <path
     id="path4210"
     d="m 124.56846,73.337062 c -1.46837,0 -2.64842,1.187989 -2.64842,2.666231 v 7.922516 c 0,1.478242 1.18005,2.666231 2.64842,2.666231 h 7.86962 c 1.46837,0 2.64843,-1.187989 2.64843,-2.666231 v -7.922516 c 0,-1.478242 -1.18006,-2.666231 -2.64843,-2.666231 z"
     style="color:#bebebe;display:inline;overflow:visible;visibility:visible;fill:url(#linearGradient4444);fill-opacity:1;fill-rule:nonzero;stroke:none;stroke-width:0.30369309;marker:none;enable-background:accumulate"
     inkscape:connector-curvature="0" />
  <path
     d="m 133.2263,78.288452 c -0.21785,-0.443656 -0.50831,-0.837137 -0.94982,-1.122333 -0.1917,-0.124127 -0.27303,-0.105636 -0.39793,0.07657 -0.33694,-0.35651 -0.68259,-0.710382 -1.0079,-1.072169 -0.23528,-0.261448 -0.46184,-0.530802 -0.60708,-0.847692 -0.09,-0.200708 -0.18879,-0.23768 -0.39502,-0.121478 -0.3747,0.208614 -0.69421,0.472701 -0.95562,0.797517 -0.38051,0.470062 -0.63902,0.987661 -0.72616,1.571276 -0.0117,0.05018 -0.0581,0.0475 -0.10167,0.05805 -0.11618,0.02907 -0.22947,0.06074 -0.34274,0.09768 -0.10748,0.03435 -0.15105,0.110904 -0.11618,0.208614 0.0348,0.102998 0.1307,0.13997 0.22945,0.102998 0.31371,-0.124117 0.70584,-0.124117 0.96725,-0.09509 0.0319,0.008 0.0639,0.01842 0.0958,0.0238 0.42408,0.07657 0.80459,0.232393 1.12409,0.501757 l -0.003,0.002 c -0.0465,0.0238 -0.10456,0.03694 -0.14813,0.02111 -0.11909,-0.04222 -0.23817,-0.02111 -0.35726,-0.01852 -0.0987,0.002 -0.19462,0.02639 -0.22076,0.132034 -0.0261,0.110914 0.0435,0.163737 0.14233,0.213912 0.60126,0.306335 0.88301,0.781675 0.90915,1.399623 0.0117,0.264076 -0.0639,0.512311 -0.15395,0.757907 -0.11908,0.179579 -0.22656,0.367084 -0.40374,0.507034 -0.51702,0.409323 -1.12699,0.528163 -1.77473,0.409323 -0.76972,-0.142598 -1.28965,-0.570412 -1.52202,-1.264941 -0.0435,-0.132043 -0.0117,-0.23767 0.0813,-0.340658 0.14523,-0.163737 0.32822,-0.272013 0.54316,-0.340668 0.25561,-0.06343 0.51703,-0.110914 0.78425,-0.102988 0.0581,0.002 0.11328,-0.01852 0.16556,-0.04491 0.23527,-0.113563 0.42408,-0.27729 0.5635,-0.483276 0.0958,-0.139959 0.0668,-0.224467 -0.0871,-0.306335 -0.0204,-0.01055 -0.0406,-0.0238 -0.0639,-0.03166 -0.56349,-0.216541 -1.06019,-0.517599 -1.47265,-0.929561 -0.0232,-0.0238 -0.0261,-0.04232 -0.032,-0.0687 -0.0552,-0.274631 -0.0581,-0.549283 0.0145,-0.823924 0.0204,-0.07657 0.0261,-0.150534 -0.0465,-0.205986 -0.0756,-0.06074 -0.16266,-0.04491 -0.24398,-0.01055 -0.22366,0.09768 -0.43279,0.213902 -0.6245,0.3565 -0.122,0.08982 -0.24108,0.184857 -0.36308,0.27729 -0.0406,-0.0475 -0.0378,-0.09768 -0.0436,-0.145246 -0.0261,-0.200699 -0.0319,-0.404046 -0.0261,-0.604745 0.006,-0.17693 -0.11617,-0.245596 -0.29626,-0.174292 -0.0261,0.01055 -0.0523,0.02111 -0.0784,0.03694 -0.54317,0.332742 -0.97014,0.760555 -1.28675,1.280793 -0.0291,0.03963 -0.0581,0.07926 -0.0843,0.121478 -0.39212,0.681326 -0.53445,1.412837 -0.51992,2.176021 0.0145,0.343307 0.0697,0.678687 0.17428,1.008791 0.31659,0.998215 0.92657,1.824788 1.83863,2.440097 1.15313,0.776398 2.45441,1.072168 3.88058,0.882034 0.67678,-0.08981 1.30708,-0.29577 1.88801,-0.623235 0.72326,-0.388204 1.29256,-0.91108 1.72244,-1.565999 0.3718,-0.544005 0.60125,-1.135546 0.67678,-1.771975 0.0117,-0.0924 0.0261,-0.182218 0.0319,-0.274641 0.0348,-0.715658 -0.0581,-1.410198 -0.38051,-2.070394 z m -4.60674,-0.689251 c -0.10747,-0.008 -0.061,-0.07398 -0.0494,-0.116192 0.10166,-0.464785 0.3166,-0.887312 0.6274,-1.26758 0.0552,-0.0687 0.0871,-0.155811 0.20913,-0.221837 -0.20041,0.617957 -0.17137,1.201573 0.1278,1.787826 -0.3166,-0.113552 -0.61287,-0.161088 -0.91495,-0.182217 z m 1.01952,-0.868822 c 0.006,-0.393471 0.1249,-0.760545 0.35437,-1.117055 0.15684,0.227105 0.30789,0.441007 0.47925,0.644354 0.36019,0.430453 0.77845,0.816008 1.15605,1.233257 0.22946,0.256151 0.42118,0.533441 0.60707,0.818657 0.20042,0.306325 0.21784,0.628492 0.17718,0.966531 -0.009,0.07398 -0.0261,0.147876 -0.0378,0.21918 -0.12491,0.464785 -0.36889,0.87146 -0.72906,1.238534 0.0697,-0.773749 -0.16267,-1.439233 -0.81911,-1.951554 -0.1249,-0.221828 -0.31369,-0.398759 -0.5025,-0.575689 -0.44441,-0.409324 -0.6942,-0.895238 -0.68549,-1.476215 z m 0.88881,4.37581 c 0.36599,-0.615299 0.2469,-1.552796 -0.26432,-2.107356 -0.0319,-0.03435 -0.0581,-0.06871 -0.0843,-0.105636 l 0.0174,-0.01583 c 0.40375,0.102988 0.66226,0.361787 0.85106,0.683964 0.29918,0.507034 0.26723,1.032559 0.10748,1.565999 -0.0261,0.05018 -0.0523,0.10035 -0.10457,0.137321 -0.30499,0.208625 -0.62741,0.385565 -0.98467,0.51496 -0.0204,0.008 -0.0435,0.01055 -0.10747,0.02639 0.26722,-0.213892 0.45603,-0.433082 0.5693,-0.699807 z m -3.68306,-1.399623 c -0.26432,0.08982 -0.45603,0.261438 -0.64773,0.499108 0,-0.11883 -0.003,-0.200699 0,-0.279919 0.009,-0.190144 -0.0378,-0.235031 -0.23818,-0.248234 -0.31371,-0.01583 -0.57512,-0.129405 -0.78716,-0.343307 -0.09,-0.0924 -0.0348,-0.124117 0.0523,-0.147885 l 0.34856,-0.07657 c 0.36889,-0.03435 0.72035,0.02908 1.05729,0.171654 0.37179,0.155801 0.76681,0.208624 1.17346,0.192782 0.0436,-0.002 0.0871,0 0.13362,0.01324 -0.37471,0.03963 -0.7552,0.04232 -1.09214,0.21919 z m -0.25851,-2.31598 v 0.388194 c 0,0.0475 -0.0204,0.06074 -0.0697,0.05018 -0.13942,-0.02908 -0.28174,-0.05546 -0.45021,-0.08981 0.17137,-0.126766 0.3195,-0.245596 0.51993,-0.348584 z m -2.71584,3.050129 c -0.11327,-0.35652 -0.0958,-0.71302 -0.0348,-1.077456 0.0756,-0.438378 0.24398,-0.837127 0.46184,-1.227969 -0.003,-0.005 -0.009,-0.01324 -0.0117,-0.01852 0.003,0.005 0.009,0.01055 0.0117,0.01852 0.24398,-0.345946 0.5054,-0.676049 0.85396,-0.942764 0.0348,-0.02639 0.061,-0.0687 0.1278,-0.07129 0.0174,0.147885 0.0348,0.293132 0.0552,0.441017 0.009,0.05546 0.0204,0.113543 0.0348,0.169005 0.0843,0.290483 0.13651,0.330103 0.46764,0.33538 0.48798,0.008 0.90625,0.145247 1.23737,0.485915 0.24109,0.248234 0.56059,0.401397 0.8801,0.551921 -0.13942,0.05546 -0.38631,0.06333 -0.65935,0.01583 -0.20041,-0.03435 -0.39212,-0.08981 -0.57801,-0.166376 -0.47056,-0.192772 -0.96725,-0.242947 -1.46975,-0.11883 -0.14523,0.02639 -0.31951,0.108276 -0.45022,0.176931 -0.14523,0.07657 -0.17137,0.153172 -0.093,0.285206 0.20332,0.345945 0.51121,0.583615 0.9382,0.668122 0.13651,0.02639 0.18008,0.06333 0.18879,0.195422 0.0494,0.747352 0.47927,1.293996 1.15314,1.687477 1.07471,0.628513 2.19881,0.625864 3.34614,0.184847 0.34855,-0.134682 0.67677,-0.308974 0.97304,-0.528153 0.0756,-0.05546 0.14813,-0.11884 0.22075,-0.17957 0.28466,-0.19807 0.5025,-0.448943 0.70002,-0.71302 0.16847,-0.224466 0.30789,-0.464785 0.41537,-0.760555 0.0319,0.227105 0,0.41461 -0.0261,0.599467 -0.0987,0.686603 -0.38922,1.299264 -0.86558,1.84064 l -0.22656,0.216541 c -0.35145,0.330103 -0.76973,0.575699 -1.22575,0.776398 -0.6245,0.237669 -1.27223,0.345945 -1.94901,0.324815 -2.09714,-0.06602 -3.92996,-1.378493 -4.46151,-3.131987 -0.003,-0.01324 -0.009,-0.0238 -0.0145,-0.03694 z m 9.36453,-0.08713 c -0.003,0.0475 0,0.09509 -0.003,0.145247 -0.0668,0.480627 -0.20042,0.942763 -0.4357,1.378493 -0.061,0.113563 -0.1278,0.224467 -0.19171,0.33803 -0.43569,0.65228 -1.02243,1.161953 -1.74277,1.550147 -0.45312,0.211263 -0.92077,0.382916 -1.42328,0.470062 -1.94899,0.340668 -3.89218,-0.411962 -4.95529,-1.922499 -0.0204,-0.02907 -0.0348,-0.05805 -0.0639,-0.105626 0.0784,0.008 0.0987,0.05277 0.1307,0.08454 0.76391,0.79224 1.70792,1.307199 2.83783,1.539592 0.99047,0.203337 1.96352,0.139959 2.91043,-0.192783 0.093,-0.03166 0.14524,-0.05018 0.26141,-0.102988 0.0581,-0.02639 0.0581,-0.02908 0.0843,-0.03963 0.56641,-0.256151 1.04277,-0.61531 1.43489,-1.066882 0.40374,-0.427813 0.65063,-0.92957 0.79877,-1.470927 0.10747,-0.393481 0.16556,-0.792239 0.13943,-1.198924 -0.009,-0.285206 -0.0523,-0.565134 -0.13943,-0.839776 -0.09,-0.285206 -0.16266,-0.578338 -0.22947,-0.871469 0.15977,0.187505 0.26723,0.398768 0.34856,0.620586 0.20913,0.546654 0.27304,1.10914 0.23818,1.684839 z"
     id="path7-3"
     style="fill:#ffffff;stroke-width:0.02769576"
     inkscape:connector-curvature="0" />
  <path
     id="path4212"
     d="m 123.43342,90.09623 c -1.00716,0 -1.81606,0.81434 -1.81606,1.828273 v 5.332462 c 0,1.013933 0.8089,1.828273 1.81606,1.828273 h 5.29686 c 1.00716,0 1.81606,-0.81434 1.81606,-1.828273 v -5.332462 c 0,-1.013933 -0.8089,-1.828273 -1.81606,-1.828273 z"
     style="color:#bebebe;display:inline;overflow:visible;visibility:visible;fill:url(#linearGradient4266);fill-opacity:1;fill-rule:nonzero;stroke:none;stroke-width:0.30369309;marker:none;enable-background:accumulate"
     inkscape:connector-curvature="0" />
  <path
     d="m 129.28493,93.658352 c -0.14773,-0.300869 -0.34471,-0.567714 -0.64412,-0.761124 -0.13,-0.08414 -0.18516,-0.07159 -0.26987,0.05198 -0.22849,-0.241772 -0.4629,-0.481762 -0.68351,-0.727109 -0.15957,-0.177299 -0.31321,-0.359965 -0.4117,-0.574873 -0.061,-0.136106 -0.12803,-0.161178 -0.26789,-0.08235 -0.2541,0.141473 -0.47078,0.320564 -0.64807,0.540839 -0.25804,0.318781 -0.43335,0.669795 -0.49245,1.065586 -0.008,0.03405 -0.0394,0.03216 -0.0689,0.03933 -0.0788,0.01972 -0.15561,0.04122 -0.23243,0.06622 -0.0729,0.0233 -0.10243,0.07518 -0.0788,0.141473 0.0236,0.0699 0.0886,0.09489 0.15561,0.0699 0.21274,-0.08414 0.47868,-0.08414 0.65595,-0.06452 0.0217,0.005 0.0433,0.01245 0.065,0.01613 0.28759,0.05198 0.54563,0.157603 0.76231,0.340279 l -0.002,9.96e-4 c -0.0316,0.01613 -0.0709,0.02509 -0.10045,0.01434 -0.0807,-0.02868 -0.16152,-0.01434 -0.24228,-0.01255 -0.067,9.96e-4 -0.13198,0.01792 -0.14971,0.08952 -0.0177,0.07518 0.0295,0.111044 0.0965,0.145067 0.40774,0.207739 0.59881,0.530105 0.61654,0.949167 0.008,0.179091 -0.0433,0.347429 -0.1044,0.513984 -0.0807,0.121787 -0.15364,0.248941 -0.27381,0.343854 -0.35061,0.277589 -0.76428,0.358173 -1.20355,0.277589 -0.52199,-0.09669 -0.87459,-0.38684 -1.03218,-0.857839 -0.0295,-0.08952 -0.008,-0.161178 0.0551,-0.231018 0.0985,-0.111043 0.2226,-0.184468 0.36836,-0.231029 0.17334,-0.04302 0.35062,-0.07518 0.53184,-0.0698 0.0394,9.96e-4 0.0768,-0.01255 0.11228,-0.03047 0.15955,-0.07697 0.28759,-0.188043 0.38214,-0.327734 0.065,-0.09489 0.0453,-0.152226 -0.0591,-0.207748 -0.0139,-0.007 -0.0276,-0.01613 -0.0433,-0.02151 -0.38213,-0.146849 -0.71898,-0.351013 -0.9987,-0.630384 -0.0157,-0.01613 -0.0177,-0.02868 -0.0217,-0.0466 -0.0374,-0.186241 -0.0394,-0.372501 0.01,-0.558752 0.0139,-0.05188 0.0177,-0.102082 -0.0315,-0.139691 -0.0512,-0.04122 -0.11031,-0.03047 -0.16546,-0.007 -0.15168,0.06622 -0.2935,0.145068 -0.42351,0.241773 -0.0827,0.06094 -0.16349,0.125362 -0.24622,0.188043 -0.0276,-0.03226 -0.0256,-0.06622 -0.0296,-0.09848 -0.0177,-0.136106 -0.0217,-0.274014 -0.0177,-0.410119 0.004,-0.119986 -0.0788,-0.166556 -0.20091,-0.118193 -0.0177,0.007 -0.0355,0.01434 -0.0532,0.02509 -0.36836,0.225652 -0.65791,0.515776 -0.87262,0.868582 -0.0197,0.02688 -0.0394,0.05377 -0.0572,0.08235 -0.26592,0.462057 -0.36244,0.958138 -0.35258,1.475696 0.01,0.232821 0.0473,0.460255 0.11818,0.684124 0.2147,0.676945 0.62836,1.237499 1.24688,1.654778 0.78201,0.52652 1.66449,0.727099 2.63167,0.598163 0.45896,-0.06094 0.8864,-0.200579 1.28037,-0.422656 0.49048,-0.26326 0.87656,-0.617858 1.16809,-1.062002 0.25214,-0.368917 0.40775,-0.770085 0.45896,-1.201683 0.008,-0.06263 0.0177,-0.123569 0.0217,-0.18625 0.0236,-0.485327 -0.0394,-0.956336 -0.25805,-1.404064 z m -3.1241,-0.467424 c -0.0729,-0.005 -0.0413,-0.05018 -0.0335,-0.07876 0.0689,-0.315197 0.21471,-0.601737 0.42548,-0.859621 0.0374,-0.0466 0.0592,-0.105666 0.14183,-0.150444 -0.13591,0.419071 -0.11622,0.814863 0.0866,1.212436 -0.21471,-0.07697 -0.41563,-0.109251 -0.62049,-0.123579 z m 0.69139,-0.589201 c 0.004,-0.266835 0.0847,-0.515767 0.24032,-0.757539 0.10637,0.154009 0.20881,0.299076 0.32501,0.436975 0.24426,0.291917 0.52791,0.553384 0.78399,0.83635 0.15562,0.173705 0.28563,0.361757 0.4117,0.555177 0.13591,0.207739 0.14773,0.426221 0.12015,0.655467 -0.006,0.05018 -0.0177,0.10028 -0.0256,0.148642 -0.0847,0.315197 -0.25016,0.590984 -0.49443,0.839925 0.0473,-0.524728 -0.11031,-0.976041 -0.55547,-1.32347 -0.0847,-0.150434 -0.21274,-0.270429 -0.34078,-0.390414 -0.30139,-0.277589 -0.47079,-0.607114 -0.46488,-1.001113 z m 0.60277,2.967504 c 0.2482,-0.41727 0.16743,-1.053041 -0.17926,-1.429127 -0.0217,-0.0233 -0.0394,-0.0466 -0.0572,-0.07159 l 0.0118,-0.01075 c 0.27381,0.0698 0.44912,0.245347 0.57716,0.463829 0.20289,0.343854 0.18122,0.700245 0.0729,1.062002 -0.0177,0.03405 -0.0355,0.06811 -0.0709,0.0931 -0.20682,0.141473 -0.42548,0.261468 -0.66776,0.349222 -0.0139,0.005 -0.0295,0.007 -0.0729,0.01792 0.18122,-0.145048 0.30926,-0.2937 0.38608,-0.474583 z m -2.49772,-0.949167 c -0.17925,0.06094 -0.30925,0.177299 -0.43926,0.338478 0,-0.08055 -0.002,-0.136106 0,-0.189836 0.006,-0.128946 -0.0256,-0.159386 -0.16152,-0.168337 -0.21275,-0.01075 -0.39003,-0.08772 -0.53383,-0.232821 -0.061,-0.06263 -0.0236,-0.08414 0.0355,-0.10029 l 0.23637,-0.05198 c 0.25018,-0.0233 0.48851,0.01972 0.71702,0.11641 0.25214,0.105656 0.52002,0.141483 0.79579,0.130739 0.0296,-9.96e-4 0.0592,0 0.0906,0.009 -0.2541,0.02689 -0.51214,0.02868 -0.74064,0.148642 z m -0.1753,-1.570609 v 0.26326 c 0,0.03216 -0.0139,0.04122 -0.0473,0.03405 -0.0946,-0.01971 -0.19107,-0.03764 -0.30532,-0.06094 0.11622,-0.08593 0.21668,-0.166556 0.3526,-0.236396 z m -1.84178,2.068482 c -0.0769,-0.241782 -0.065,-0.483544 -0.0236,-0.730693 0.0512,-0.297285 0.16546,-0.567704 0.3132,-0.832756 -0.002,-0.003 -0.006,-0.009 -0.008,-0.01255 0.002,0.003 0.006,0.007 0.008,0.01255 0.16546,-0.234604 0.34274,-0.458473 0.57912,-0.639346 0.0236,-0.01792 0.0413,-0.0466 0.0867,-0.04839 0.0118,0.10029 0.0236,0.198797 0.0374,0.299087 0.006,0.03764 0.0138,0.07697 0.0236,0.114608 0.0572,0.196994 0.0926,0.223869 0.31713,0.227444 0.33093,0.005 0.61458,0.09848 0.83914,0.329525 0.1635,0.168348 0.38017,0.272212 0.59685,0.374294 -0.0945,0.03764 -0.26198,0.04292 -0.44714,0.01075 -0.13592,-0.0233 -0.26593,-0.06094 -0.39199,-0.112826 -0.31912,-0.130729 -0.65596,-0.164763 -0.99672,-0.08055 -0.0985,0.01792 -0.21669,0.07339 -0.30533,0.119985 -0.0985,0.05198 -0.11622,0.103874 -0.063,0.19342 0.13789,0.234603 0.34668,0.395781 0.63625,0.453085 0.0926,0.01792 0.12212,0.04292 0.12803,0.132531 0.0334,0.506825 0.32502,0.877534 0.78202,1.144379 0.72882,0.42624 1.49114,0.424438 2.26922,0.125362 0.23637,-0.09131 0.45896,-0.209541 0.65987,-0.358173 0.0512,-0.03764 0.10046,-0.08055 0.14971,-0.121777 0.19305,-0.134324 0.34077,-0.304464 0.47473,-0.483545 0.11424,-0.152227 0.2088,-0.315197 0.28169,-0.515776 0.0217,0.154009 0,0.281173 -0.0177,0.406535 -0.067,0.465621 -0.26395,0.881108 -0.587,1.248242 l -0.15364,0.14685 c -0.23835,0.223869 -0.52201,0.390425 -0.83126,0.52653 -0.42351,0.161179 -0.86278,0.234603 -1.32174,0.220275 -1.4222,-0.04481 -2.66515,-0.934838 -3.02562,-2.123994 -0.002,-0.009 -0.006,-0.01613 -0.01,-0.02509 z m 6.35066,-0.05905 c -0.002,0.03226 0,0.06452 -0.002,0.09848 -0.0453,0.325941 -0.13592,0.639346 -0.29547,0.934848 -0.0413,0.07697 -0.0866,0.152217 -0.13001,0.229236 -0.29547,0.442352 -0.69338,0.787988 -1.18188,1.051248 -0.30729,0.143265 -0.62443,0.259676 -0.96521,0.318772 -1.32174,0.231029 -2.63954,-0.279371 -3.36048,-1.303754 -0.0138,-0.01972 -0.0236,-0.03933 -0.0433,-0.07159 0.0532,0.005 0.067,0.03575 0.0886,0.05735 0.51805,0.537264 1.15824,0.886495 1.9245,1.044089 0.67171,0.137898 1.33158,0.09489 1.97374,-0.130729 0.0631,-0.02151 0.0985,-0.03405 0.17728,-0.0698 0.0394,-0.01792 0.0394,-0.01972 0.0572,-0.02688 0.38412,-0.173705 0.70716,-0.417279 0.97308,-0.723515 0.27381,-0.290125 0.44124,-0.630394 0.5417,-0.997529 0.0729,-0.266834 0.11227,-0.537264 0.0946,-0.81306 -0.006,-0.19341 -0.0355,-0.383255 -0.0946,-0.569506 -0.061,-0.19341 -0.11031,-0.392207 -0.15562,-0.590993 0.10835,0.127154 0.18123,0.270429 0.23638,0.420853 0.14182,0.370719 0.18516,0.752182 0.16152,1.142596 z"
     id="path7-3-1"
     style="fill:#ffffff;stroke-width:0.01878219"
     inkscape:connector-curvature="0" />
  <path
     id="path4208"
     d="m 123.05508,102.36089 c -0.71361,0 -1.28638,0.57662 -1.28638,1.29503 v 3.65655 c 0,0.7184 0.57277,1.29502 1.28638,1.29502 h 3.63213 c 0.7136,0 1.28637,-0.57662 1.28637,-1.29502 v -3.65655 c 0,-0.71841 -0.57277,-1.29503 -1.28637,-1.29503 z"
     style="color:#bebebe;display:inline;overflow:visible;visibility:visible;fill:url(#linearGradient4262);fill-opacity:1;fill-rule:nonzero;stroke:none;stroke-width:0.30369309;marker:none;enable-background:accumulate"
     inkscape:connector-curvature="0" />
  <path
     d="m 127.09667,105.01022 c -0.10266,-0.20909 -0.23955,-0.39452 -0.44761,-0.52892 -0.0903,-0.0585 -0.12867,-0.0498 -0.18753,0.0361 -0.15879,-0.16802 -0.32169,-0.33478 -0.47499,-0.50528 -0.11088,-0.12321 -0.21765,-0.25015 -0.2861,-0.39949 -0.0424,-0.0946 -0.089,-0.112 -0.18616,-0.0572 -0.17657,0.0983 -0.32715,0.22276 -0.45035,0.37584 -0.17932,0.22152 -0.30114,0.46545 -0.34221,0.74049 -0.006,0.0237 -0.0274,0.0223 -0.0479,0.0273 -0.0548,0.0137 -0.10814,0.0287 -0.16152,0.046 -0.0506,0.0162 -0.0712,0.0523 -0.0548,0.0983 0.0164,0.0486 0.0616,0.0659 0.10814,0.0486 0.14783,-0.0585 0.33263,-0.0585 0.45582,-0.0448 0.015,0.003 0.0301,0.009 0.0452,0.0113 0.19986,0.0361 0.37918,0.10952 0.52974,0.23646 l -9.9e-4,7e-4 c -0.022,0.0112 -0.0493,0.0174 -0.0698,0.01 -0.0561,-0.0199 -0.11225,-0.01 -0.16837,-0.009 -0.0466,6.8e-4 -0.0917,0.0124 -0.10403,0.0622 -0.0123,0.0523 0.0205,0.0772 0.0671,0.10081 0.28335,0.14436 0.41613,0.36838 0.42845,0.6596 0.006,0.12444 -0.0301,0.24142 -0.0726,0.35716 -0.0561,0.0846 -0.10677,0.173 -0.19027,0.23896 -0.24366,0.1929 -0.53111,0.2489 -0.83637,0.1929 -0.36273,-0.0672 -0.60776,-0.26883 -0.71728,-0.59613 -0.0205,-0.0622 -0.006,-0.112 0.0383,-0.16053 0.0684,-0.0772 0.15468,-0.12819 0.25597,-0.16055 0.12046,-0.0299 0.24366,-0.0523 0.36959,-0.0485 0.0274,6.9e-4 0.0534,-0.009 0.078,-0.0212 0.11087,-0.0535 0.19984,-0.13066 0.26556,-0.22774 0.0452,-0.0659 0.0315,-0.10578 -0.0412,-0.14437 -0.01,-0.005 -0.0192,-0.0113 -0.0301,-0.0149 -0.26555,-0.10205 -0.49962,-0.24393 -0.694,-0.43806 -0.011,-0.0113 -0.0123,-0.0199 -0.015,-0.0324 -0.026,-0.12942 -0.0273,-0.25885 0.007,-0.38829 0.01,-0.036 0.0123,-0.0709 -0.022,-0.0971 -0.0356,-0.0287 -0.0767,-0.0212 -0.11499,-0.005 -0.1054,0.046 -0.20396,0.10081 -0.2943,0.16801 -0.0575,0.0423 -0.11362,0.0871 -0.1711,0.13068 -0.0192,-0.0224 -0.0178,-0.046 -0.0206,-0.0684 -0.0123,-0.0946 -0.015,-0.19041 -0.0123,-0.285 0.003,-0.0833 -0.0548,-0.11574 -0.13962,-0.0821 -0.0123,0.005 -0.0246,0.01 -0.037,0.0174 -0.25597,0.15682 -0.45719,0.35842 -0.60639,0.6036 -0.0136,0.0187 -0.0274,0.0373 -0.0398,0.0573 -0.18479,0.32108 -0.25186,0.66582 -0.24502,1.02547 0.007,0.1618 0.0328,0.31984 0.0821,0.47541 0.14921,0.47042 0.43666,0.85996 0.86649,1.14993 0.54342,0.36589 1.15667,0.50528 1.82878,0.41567 0.31894,-0.0423 0.61598,-0.13938 0.88976,-0.2937 0.34083,-0.18295 0.60913,-0.42936 0.81171,-0.73801 0.17522,-0.25636 0.28335,-0.53514 0.31894,-0.83506 0.006,-0.0435 0.0123,-0.0858 0.015,-0.12943 0.0164,-0.33726 -0.0274,-0.66458 -0.17932,-0.97571 z m -2.17099,-0.32483 c -0.0506,-0.003 -0.0287,-0.0348 -0.0233,-0.0548 0.0479,-0.21904 0.1492,-0.41816 0.29566,-0.59737 0.026,-0.0324 0.0412,-0.0734 0.0985,-0.10454 -0.0944,0.29121 -0.0808,0.56626 0.0602,0.84253 -0.1492,-0.0535 -0.28882,-0.0759 -0.43119,-0.0858 z m 0.48046,-0.40944 c 0.003,-0.18543 0.0589,-0.35841 0.167,-0.52642 0.0739,0.10702 0.14511,0.20782 0.22586,0.30365 0.16974,0.20286 0.36685,0.38456 0.54481,0.5812 0.10814,0.12071 0.19849,0.25139 0.28609,0.3858 0.0945,0.14436 0.10266,0.29618 0.0835,0.45549 -0.004,0.0349 -0.0123,0.0697 -0.0178,0.1033 -0.0589,0.21904 -0.17385,0.41068 -0.34358,0.58367 0.0328,-0.36463 -0.0767,-0.67826 -0.38601,-0.91969 -0.0589,-0.10454 -0.14784,-0.18794 -0.23681,-0.27131 -0.20944,-0.1929 -0.32716,-0.4219 -0.32306,-0.69569 z m 0.41888,2.06217 c 0.17247,-0.28997 0.11634,-0.73178 -0.12458,-0.99313 -0.015,-0.0162 -0.0274,-0.0324 -0.0398,-0.0498 l 0.008,-0.008 c 0.19027,0.0485 0.3121,0.1705 0.40108,0.32232 0.14098,0.23895 0.12594,0.48662 0.0506,0.73801 -0.0123,0.0237 -0.0246,0.0473 -0.0493,0.0647 -0.14373,0.0983 -0.29567,0.1817 -0.46404,0.24268 -0.01,0.003 -0.0205,0.005 -0.0507,0.0124 0.12593,-0.10079 0.21491,-0.20409 0.26829,-0.32979 z m -1.7357,-0.65959 c -0.12457,0.0423 -0.21491,0.1232 -0.30525,0.23521 0,-0.056 -9.9e-4,-0.0946 0,-0.13193 0.004,-0.0896 -0.0178,-0.11075 -0.11225,-0.11697 -0.14784,-0.007 -0.27104,-0.0609 -0.37097,-0.16179 -0.0424,-0.0435 -0.0164,-0.0585 0.0246,-0.0697 l 0.16426,-0.0361 c 0.17385,-0.0162 0.33947,0.0137 0.49826,0.0808 0.17522,0.0734 0.36137,0.0983 0.55302,0.0908 0.0206,-6.9e-4 0.0411,0 0.063,0.006 -0.17658,0.0187 -0.3559,0.0199 -0.51468,0.1033 z m -0.12183,-1.09145 v 0.18295 c 0,0.0224 -0.01,0.0287 -0.0328,0.0237 -0.0657,-0.0138 -0.13277,-0.0262 -0.21216,-0.0423 0.0807,-0.0598 0.15056,-0.11575 0.24502,-0.16428 z m -1.27989,1.43742 c -0.0534,-0.16802 -0.0452,-0.33601 -0.0164,-0.50777 0.0356,-0.20658 0.11498,-0.3945 0.21764,-0.57869 -9.9e-4,-0.002 -0.004,-0.006 -0.006,-0.009 9.9e-4,0.002 0.004,0.005 0.006,0.009 0.11498,-0.16303 0.23818,-0.3186 0.40244,-0.4443 0.0164,-0.0124 0.0287,-0.0324 0.0602,-0.0337 0.008,0.0697 0.0164,0.13814 0.026,0.20784 0.004,0.0262 0.01,0.0535 0.0164,0.0797 0.0398,0.1369 0.0644,0.15558 0.22039,0.15806 0.22996,0.003 0.42707,0.0684 0.58313,0.22899 0.11362,0.11698 0.26418,0.18916 0.41476,0.2601 -0.0657,0.0262 -0.18206,0.0299 -0.31073,0.008 -0.0944,-0.0162 -0.1848,-0.0423 -0.2724,-0.0784 -0.22176,-0.0908 -0.45584,-0.1145 -0.69264,-0.056 -0.0684,0.0124 -0.15058,0.051 -0.21218,0.0833 -0.0684,0.0362 -0.0807,0.0722 -0.0438,0.1344 0.0958,0.16303 0.24091,0.27504 0.44213,0.31486 0.0643,0.0124 0.0849,0.0298 0.0889,0.0921 0.0232,0.35221 0.22587,0.60981 0.54344,0.79524 0.50647,0.29621 1.03622,0.29496 1.57692,0.0871 0.16425,-0.0634 0.31894,-0.1456 0.45855,-0.24889 0.0356,-0.0262 0.0698,-0.056 0.10403,-0.0846 0.13415,-0.0933 0.23682,-0.21158 0.3299,-0.33603 0.0794,-0.10578 0.1451,-0.21903 0.19575,-0.35842 0.015,0.10703 0,0.19539 -0.0123,0.28251 -0.0465,0.32357 -0.18343,0.6123 -0.40792,0.86743 l -0.10676,0.10205 c -0.16564,0.15556 -0.36276,0.2713 -0.57766,0.36589 -0.2943,0.11201 -0.59956,0.16303 -0.9185,0.15307 -0.98831,-0.0312 -1.85206,-0.64963 -2.10255,-1.47599 -9.9e-4,-0.006 -0.004,-0.0113 -0.007,-0.0174 z m 4.41318,-0.041 c -9.9e-4,0.0224 0,0.0448 -9.9e-4,0.0684 -0.0314,0.22649 -0.0945,0.44429 -0.20532,0.64964 -0.0287,0.0535 -0.0602,0.10577 -0.0904,0.15929 -0.20533,0.3074 -0.48184,0.54759 -0.8213,0.73053 -0.21355,0.0996 -0.43393,0.18045 -0.67075,0.22152 -0.91849,0.16055 -1.83425,-0.19414 -2.33525,-0.90599 -0.01,-0.0137 -0.0164,-0.0273 -0.0301,-0.0498 0.037,0.003 0.0466,0.0249 0.0616,0.0398 0.36001,0.37336 0.80487,0.61603 1.33737,0.72555 0.46678,0.0958 0.92534,0.0659 1.37158,-0.0908 0.0438,-0.0149 0.0684,-0.0237 0.1232,-0.0485 0.0273,-0.0124 0.0273,-0.0137 0.0398,-0.0187 0.26693,-0.12071 0.49142,-0.28997 0.67621,-0.50278 0.19028,-0.20161 0.30663,-0.43807 0.37643,-0.6932 0.0507,-0.18543 0.078,-0.37335 0.0657,-0.56501 -0.004,-0.1344 -0.0246,-0.26633 -0.0657,-0.39576 -0.0424,-0.1344 -0.0767,-0.27255 -0.10813,-0.41069 0.0753,0.0883 0.12593,0.18793 0.16425,0.29246 0.0985,0.25762 0.12868,0.5227 0.11225,0.79401 z"
     id="path7-3-1-3"
     style="fill:#ffffff;stroke-width:0.01305203"
     inkscape:connector-curvature="0" />
  <path
     id="path4206"
     d="m 141.82108,76.674342 c -0.54581,0 -0.9837,0.440836 -0.9837,0.990314 v 2.437697 c 0,0.549478 0.43789,0.990315 0.9837,0.990315 h 2.42142 c 0.54581,0 0.9837,-0.440837 0.9837,-0.990315 v -2.437697 c 0,-0.549478 -0.43789,-0.990314 -0.9837,-0.990314 z"
     style="color:#bebebe;display:inline;overflow:visible;visibility:visible;fill:url(#linearGradient4260);fill-opacity:1;fill-rule:nonzero;stroke:none;stroke-width:0.30369309;marker:none;enable-background:accumulate"
     inkscape:connector-curvature="0" />
  <path
     d="m 144.60598,78.317894 c -0.0726,-0.147885 -0.16944,-0.279052 -0.3166,-0.374114 -0.0639,-0.04132 -0.091,-0.03525 -0.13265,0.02559 -0.11231,-0.11884 -0.22753,-0.236794 -0.33596,-0.357386 -0.0784,-0.08713 -0.15395,-0.176941 -0.20236,-0.282567 -0.03,-0.06691 -0.063,-0.07926 -0.13168,-0.04053 -0.12489,0.0695 -0.23139,0.157563 -0.31854,0.265839 -0.12683,0.156677 -0.213,0.329217 -0.24205,0.523762 -0.004,0.01673 -0.0194,0.01573 -0.0338,0.01932 -0.0388,0.01 -0.0765,0.02031 -0.11424,0.03256 -0.0358,0.01145 -0.0504,0.03694 -0.0388,0.0695 0.0116,0.03435 0.0436,0.0466 0.0765,0.03435 0.10456,-0.04132 0.23527,-0.04132 0.32241,-0.03166 0.0106,0.002 0.0213,0.006 0.0319,0.008 0.14137,0.02559 0.26819,0.07747 0.3747,0.167252 l -7e-4,4.98e-4 c -0.0155,0.008 -0.0348,0.01235 -0.0494,0.007 -0.0397,-0.01414 -0.0794,-0.007 -0.11908,-0.006 -0.0329,4.88e-4 -0.0649,0.009 -0.0736,0.04401 -0.009,0.03694 0.0144,0.05457 0.0475,0.07129 0.20042,0.102112 0.29433,0.260562 0.30305,0.466548 0.004,0.08802 -0.0213,0.170757 -0.0513,0.252625 -0.0397,0.05984 -0.0756,0.122365 -0.13459,0.169015 -0.17235,0.136444 -0.37567,0.176054 -0.59159,0.136444 -0.25656,-0.0475 -0.42987,-0.190143 -0.50733,-0.42165 -0.0144,-0.04401 -0.004,-0.07926 0.0271,-0.113543 0.0484,-0.05456 0.10941,-0.09071 0.18105,-0.113562 0.0852,-0.02111 0.17235,-0.03694 0.26142,-0.03425 0.0194,4.88e-4 0.0378,-0.006 0.0552,-0.01504 0.0784,-0.03784 0.14135,-0.0924 0.18783,-0.161088 0.0319,-0.0466 0.0222,-0.07488 -0.0291,-0.102122 -0.007,-0.004 -0.0135,-0.008 -0.0213,-0.01055 -0.18782,-0.07219 -0.35339,-0.172529 -0.49089,-0.30984 -0.008,-0.008 -0.009,-0.01414 -0.0107,-0.0229 -0.0184,-0.09151 -0.0193,-0.183094 0.005,-0.274651 0.007,-0.02549 0.009,-0.05018 -0.0155,-0.0687 -0.0252,-0.02031 -0.0542,-0.01503 -0.0813,-0.004 -0.0746,0.03256 -0.14427,0.07129 -0.20816,0.11884 -0.0407,0.02997 -0.0803,0.06164 -0.12103,0.0924 -0.0136,-0.01583 -0.0126,-0.03256 -0.0145,-0.04839 -0.009,-0.06691 -0.0107,-0.134682 -0.009,-0.201585 0.002,-0.05895 -0.0388,-0.08185 -0.0987,-0.05815 -0.009,0.004 -0.0174,0.007 -0.0262,0.01235 -0.18106,0.110924 -0.32338,0.253522 -0.42891,0.426938 -0.01,0.01324 -0.0194,0.02639 -0.0281,0.04053 -0.13071,0.227105 -0.17815,0.470948 -0.1733,0.725337 0.005,0.114439 0.0232,0.226229 0.0581,0.336266 0.10553,0.332742 0.30886,0.60827 0.61288,0.81336 0.38438,0.258799 0.81814,0.357396 1.29353,0.294018 0.22559,-0.02997 0.4357,-0.09858 0.62934,-0.207749 0.24108,-0.129394 0.43085,-0.303686 0.57414,-0.521999 0.12393,-0.181332 0.20041,-0.378516 0.22559,-0.590655 0.004,-0.03077 0.009,-0.06074 0.0107,-0.09151 0.0116,-0.238546 -0.0194,-0.470062 -0.12684,-0.690138 z m -1.53557,-0.229754 c -0.0358,-0.002 -0.0203,-0.02469 -0.0165,-0.03873 0.0338,-0.154925 0.10553,-0.295761 0.20913,-0.422527 0.0184,-0.0229 0.0291,-0.05188 0.0696,-0.07398 -0.0668,0.205976 -0.0572,0.400531 0.0426,0.595942 -0.10553,-0.03784 -0.20429,-0.05367 -0.30499,-0.06074 z m 0.33983,-0.289607 c 0.002,-0.131157 0.0416,-0.253512 0.11812,-0.372352 0.0522,0.07568 0.10264,0.147 0.15976,0.214789 0.12006,0.143484 0.25948,0.272002 0.38535,0.411085 0.0765,0.08533 0.14039,0.177817 0.20236,0.272889 0.0669,0.102102 0.0726,0.209491 0.059,0.322167 -0.003,0.02469 -0.009,0.04929 -0.0126,0.07309 -0.0416,0.154935 -0.12297,0.290483 -0.24302,0.412848 0.0232,-0.257913 -0.0542,-0.479751 -0.27304,-0.650518 -0.0416,-0.07398 -0.10456,-0.13293 -0.1675,-0.191897 -0.14813,-0.136444 -0.2314,-0.298419 -0.2285,-0.492078 z m 0.29628,1.45861 c 0.122,-0.2051 0.0823,-0.517608 -0.0881,-0.702465 -0.0106,-0.01145 -0.0194,-0.0229 -0.0281,-0.03525 l 0.006,-0.006 c 0.13458,0.03435 0.22075,0.120592 0.28369,0.227992 0.0997,0.169004 0.0891,0.344182 0.0358,0.521999 -0.009,0.01673 -0.0174,0.03346 -0.0348,0.0458 -0.10167,0.0695 -0.20914,0.128528 -0.32823,0.171653 -0.007,0.002 -0.0144,0.004 -0.0358,0.009 0.0891,-0.07129 0.15201,-0.14436 0.18976,-0.233268 z m -1.22769,-0.466547 c -0.0881,0.02997 -0.15201,0.08713 -0.21591,0.166376 0,-0.03953 -7e-4,-0.06691 0,-0.0933 0.003,-0.06333 -0.0126,-0.07836 -0.0794,-0.08274 -0.10456,-0.005 -0.1917,-0.04312 -0.26238,-0.114439 -0.03,-0.03077 -0.0117,-0.04132 0.0174,-0.04929 l 0.11617,-0.02559 c 0.12298,-0.01145 0.24012,0.01 0.35244,0.05715 0.12393,0.05188 0.2556,0.0695 0.39115,0.06422 0.0145,-4.88e-4 0.0291,0 0.0446,0.004 -0.1249,0.01324 -0.25173,0.01414 -0.36405,0.07309 z m -0.0861,-0.771997 v 0.129405 c 0,0.01583 -0.007,0.02031 -0.0232,0.01673 -0.0465,-0.01 -0.094,-0.01852 -0.15007,-0.02997 0.0571,-0.04222 0.10649,-0.08185 0.1733,-0.116191 z m -0.90528,1.016716 c -0.0378,-0.11884 -0.0319,-0.23767 -0.0117,-0.359158 0.0252,-0.146113 0.0813,-0.279043 0.15395,-0.409323 -7e-4,-9.96e-4 -0.003,-0.004 -0.004,-0.006 6.9e-4,9.96e-4 0.003,0.004 0.004,0.006 0.0813,-0.115306 0.16847,-0.225343 0.28464,-0.314252 0.0116,-0.009 0.0203,-0.0229 0.0426,-0.0238 0.006,0.04929 0.0116,0.09768 0.0184,0.147009 0.003,0.01852 0.007,0.03784 0.0116,0.05636 0.0281,0.09678 0.0456,0.110037 0.15589,0.11179 0.16265,0.002 0.30208,0.04839 0.41246,0.161975 0.0804,0.08274 0.18685,0.133795 0.29337,0.18397 -0.0465,0.01852 -0.12878,0.02111 -0.2198,0.006 -0.0668,-0.01145 -0.1307,-0.02997 -0.19267,-0.05546 -0.15685,-0.06422 -0.32242,-0.08095 -0.48991,-0.03953 -0.0484,0.009 -0.10651,0.03605 -0.15008,0.05895 -0.0484,0.02559 -0.0571,0.05108 -0.031,0.09509 0.0677,0.115315 0.1704,0.194545 0.31273,0.222704 0.0455,0.009 0.06,0.02111 0.0629,0.06512 0.0164,0.24912 0.15976,0.431328 0.38439,0.562495 0.35823,0.209511 0.73293,0.208625 1.11538,0.06164 0.11618,-0.04491 0.22559,-0.102988 0.32434,-0.176044 0.0252,-0.01852 0.0494,-0.03963 0.0736,-0.05984 0.0949,-0.06602 0.1675,-0.149647 0.23334,-0.23767 0.0562,-0.07488 0.10263,-0.154925 0.13845,-0.253522 0.0107,0.07568 0,0.138207 -0.009,0.199823 -0.0328,0.228868 -0.12974,0.433091 -0.28852,0.613547 l -0.0756,0.07219 c -0.11716,0.110038 -0.25658,0.191896 -0.40859,0.258799 -0.20816,0.07926 -0.42408,0.115315 -0.64966,0.108275 -0.69905,-0.022 -1.31,-0.459498 -1.48718,-1.043999 -6.9e-4,-0.004 -0.003,-0.008 -0.005,-0.01235 z m 3.12151,-0.02898 c -7e-4,0.01583 0,0.03166 -7e-4,0.04839 -0.0223,0.160202 -0.0668,0.314261 -0.14523,0.459508 -0.0203,0.03784 -0.0426,0.07478 -0.064,0.112666 -0.14523,0.217427 -0.34081,0.387318 -0.58092,0.516713 -0.15104,0.0704 -0.30693,0.127642 -0.47443,0.156687 -0.64967,0.113563 -1.2974,-0.137321 -1.65176,-0.64082 -0.007,-0.01 -0.0116,-0.01932 -0.0213,-0.03525 0.0262,0.002 0.0329,0.01762 0.0436,0.02818 0.25464,0.264086 0.56931,0.43574 0.94595,0.513197 0.33016,0.06771 0.6545,0.0466 0.97013,-0.06422 0.031,-0.01055 0.0485,-0.01673 0.0871,-0.03435 0.0193,-0.009 0.0193,-0.01 0.0281,-0.01324 0.18881,-0.08533 0.34759,-0.2051 0.4783,-0.355624 0.13458,-0.142608 0.21688,-0.30986 0.26626,-0.490315 0.0358,-0.131157 0.0552,-0.264077 0.0465,-0.399635 -0.003,-0.09509 -0.0174,-0.188382 -0.0465,-0.279929 -0.03,-0.09509 -0.0542,-0.192782 -0.0765,-0.290493 0.0532,0.06243 0.0891,0.13292 0.11618,0.206862 0.0697,0.182218 0.091,0.369723 0.0794,0.56162 z"
     id="path7-3-1-3-6"
     style="fill:#ffffff;stroke-width:0.00923193"
     inkscape:connector-curvature="0" />
  <path
     id="path4204"
     d="m 141.5184,83.849631 c -0.37789,0 -0.68102,0.305171 -0.68102,0.685602 v 1.828273 c 0,0.380432 0.30313,0.685603 0.68102,0.685603 h 1.81607 c 0.37789,0 0.68102,-0.305171 0.68102,-0.685603 v -1.828273 c 0,-0.380431 -0.30313,-0.685602 -0.68102,-0.685602 z"
     style="color:#bebebe;display:inline;overflow:visible;visibility:visible;fill:url(#linearGradient4446);fill-opacity:1;fill-rule:nonzero;stroke:none;stroke-width:0.30369309;marker:none;enable-background:accumulate"
     inkscape:connector-curvature="0" />
  <path
     d="m 143.56665,85.06229 c -0.0525,-0.10709 -0.1227,-0.202073 -0.22926,-0.270917 -0.0463,-0.02987 -0.0659,-0.02549 -0.096,0.01852 -0.0813,-0.08603 -0.16476,-0.171464 -0.24328,-0.258789 -0.0568,-0.06313 -0.11148,-0.12813 -0.14655,-0.204622 -0.0217,-0.04849 -0.0456,-0.05735 -0.0953,-0.02937 -0.0904,0.05028 -0.16756,0.1141 -0.23068,0.192504 -0.0918,0.113453 -0.15423,0.238397 -0.17527,0.379272 -0.003,0.01215 -0.014,0.01135 -0.0245,0.01394 -0.0281,0.007 -0.0554,0.01474 -0.0827,0.0236 -0.0259,0.008 -0.0365,0.02679 -0.0281,0.05028 0.008,0.02489 0.0316,0.03375 0.0554,0.02489 0.0758,-0.02987 0.17037,-0.02987 0.23347,-0.0229 0.008,9.95e-4 0.0154,0.004 0.0231,0.006 0.10237,0.01852 0.19421,0.05606 0.27133,0.12112 l -5e-4,3.59e-4 c -0.0113,0.006 -0.0252,0.009 -0.0357,0.005 -0.0287,-0.01026 -0.0575,-0.005 -0.0862,-0.004 -0.0238,3.59e-4 -0.047,0.007 -0.0533,0.03186 -0.007,0.02679 0.0105,0.03953 0.0344,0.05168 0.14513,0.07398 0.21314,0.18868 0.21945,0.33784 0.003,0.06373 -0.0154,0.123649 -0.0372,0.182935 -0.0287,0.04331 -0.0547,0.08862 -0.0974,0.122395 -0.1248,0.09878 -0.27204,0.127482 -0.42839,0.09878 -0.18579,-0.03435 -0.31128,-0.137689 -0.36739,-0.30534 -0.0105,-0.03186 -0.003,-0.05735 0.0196,-0.08225 0.035,-0.03953 0.0792,-0.06572 0.13111,-0.08225 0.0616,-0.01533 0.1248,-0.02679 0.1893,-0.02479 0.014,3.59e-4 0.0274,-0.004 0.04,-0.01085 0.0568,-0.02738 0.10236,-0.06691 0.13601,-0.116649 0.0231,-0.03375 0.0161,-0.05427 -0.0211,-0.07398 -0.005,-0.003 -0.01,-0.006 -0.0154,-0.008 -0.13601,-0.05227 -0.2559,-0.124933 -0.35546,-0.224367 -0.006,-0.006 -0.007,-0.01026 -0.008,-0.01653 -0.0134,-0.06632 -0.0139,-0.132591 0.004,-0.198886 0.005,-0.01842 0.007,-0.03634 -0.0113,-0.04979 -0.0183,-0.01474 -0.0393,-0.01085 -0.0589,-0.003 -0.054,0.0236 -0.10446,0.05168 -0.15073,0.08603 -0.0295,0.02171 -0.0582,0.04461 -0.0876,0.06691 -0.01,-0.01145 -0.009,-0.0236 -0.0105,-0.03505 -0.007,-0.04849 -0.008,-0.09748 -0.007,-0.145973 9.9e-4,-0.04272 -0.0281,-0.05925 -0.0715,-0.04212 -0.007,0.003 -0.0126,0.005 -0.019,0.009 -0.13111,0.08035 -0.23418,0.183582 -0.3106,0.309163 -0.007,0.01 -0.014,0.01912 -0.0204,0.02937 -0.0947,0.164454 -0.129,0.341027 -0.12549,0.525246 0.004,0.08284 0.0168,0.163817 0.042,0.243505 0.0765,0.240946 0.22366,0.440469 0.44381,0.588982 0.27835,0.187406 0.59245,0.258799 0.9367,0.212906 0.16336,-0.02171 0.3155,-0.07139 0.45573,-0.150434 0.17457,-0.0937 0.31199,-0.219916 0.41576,-0.378008 0.0897,-0.131306 0.14512,-0.274093 0.16335,-0.427714 0.003,-0.0223 0.007,-0.04401 0.008,-0.06622 0.008,-0.172748 -0.014,-0.340399 -0.0919,-0.499755 z m -1.11196,-0.166376 c -0.0259,-9.96e-4 -0.0147,-0.01792 -0.012,-0.02808 0.0245,-0.112189 0.0764,-0.214171 0.15144,-0.305967 0.0134,-0.01663 0.0211,-0.03754 0.0504,-0.05357 -0.0484,0.14915 -0.0414,0.290035 0.0309,0.431538 -0.0765,-0.02738 -0.14794,-0.03883 -0.22085,-0.04401 z m 0.24608,-0.20972 c 9.9e-4,-0.09499 0.0302,-0.183572 0.0855,-0.269633 0.0378,0.05477 0.0743,0.106453 0.11569,0.155543 0.0869,0.103894 0.1879,0.196964 0.27905,0.297682 0.0554,0.06173 0.10166,0.128758 0.14653,0.197602 0.0485,0.07398 0.0526,0.151699 0.0427,0.233299 -0.002,0.01792 -0.007,0.03565 -0.009,0.05287 -0.0302,0.112198 -0.089,0.210347 -0.17598,0.298957 0.0168,-0.186759 -0.0393,-0.347399 -0.19772,-0.471058 -0.0302,-0.05357 -0.0757,-0.09629 -0.12129,-0.138964 -0.10727,-0.09878 -0.16757,-0.216093 -0.16546,-0.356331 z m 0.21455,1.056237 c 0.0883,-0.148523 0.0595,-0.374821 -0.0638,-0.508677 -0.008,-0.008 -0.014,-0.01663 -0.0204,-0.02549 l 0.004,-0.004 c 0.0974,0.02489 0.15985,0.08733 0.20542,0.165091 0.0722,0.122385 0.0645,0.24924 0.0259,0.378008 -0.007,0.01215 -0.0126,0.0242 -0.0252,0.03316 -0.0736,0.05029 -0.15145,0.0931 -0.23769,0.124297 -0.005,9.96e-4 -0.0105,0.003 -0.0259,0.007 0.0645,-0.05168 0.11008,-0.104541 0.13741,-0.168925 z m -0.88902,-0.33784 c -0.0638,0.02171 -0.11008,0.06313 -0.15635,0.120473 0,-0.02868 -5e-4,-0.04849 0,-0.06751 0.002,-0.0459 -0.009,-0.05676 -0.0576,-0.05994 -0.0757,-0.004 -0.13882,-0.03127 -0.19,-0.08284 -0.0217,-0.0223 -0.009,-0.02997 0.0126,-0.03565 l 0.0842,-0.01852 c 0.089,-0.008 0.17388,0.007 0.25522,0.04142 0.0897,0.03754 0.18509,0.05038 0.28324,0.0465 0.0106,-3.59e-4 0.0211,0 0.0324,0.003 -0.0904,0.01 -0.18229,0.01026 -0.26362,0.05297 z m -0.0624,-0.559031 v 0.0937 c 0,0.01145 -0.005,0.01474 -0.0168,0.01215 -0.0336,-0.007 -0.068,-0.01344 -0.10867,-0.02171 0.0413,-0.03057 0.0771,-0.05925 0.1255,-0.08414 z m -0.65555,0.73624 c -0.0274,-0.08603 -0.0231,-0.172111 -0.009,-0.260083 0.0183,-0.105806 0.0589,-0.202063 0.11148,-0.296408 -5.1e-4,-7.17e-4 -0.002,-0.003 -0.003,-0.004 5e-4,7.17e-4 0.002,0.003 0.003,0.004 0.0589,-0.08344 0.122,-0.16318 0.20613,-0.227564 0.008,-0.007 0.0146,-0.01653 0.0309,-0.01723 0.004,0.03565 0.008,0.0707 0.0134,0.106453 0.002,0.01344 0.005,0.02738 0.008,0.04082 0.0204,0.0701 0.033,0.07966 0.11288,0.08095 0.11778,9.95e-4 0.21875,0.03505 0.29868,0.117296 0.0582,0.05994 0.13531,0.09689 0.21244,0.133219 -0.0336,0.01344 -0.0933,0.01523 -0.15916,0.004 -0.0484,-0.008 -0.0947,-0.02171 -0.13952,-0.04013 -0.11358,-0.0465 -0.23347,-0.05865 -0.35476,-0.02868 -0.035,0.007 -0.0772,0.02609 -0.10868,0.04272 -0.035,0.01852 -0.0413,0.03694 -0.0225,0.06891 0.0491,0.08354 0.1234,0.140875 0.22646,0.161268 0.0329,0.007 0.0435,0.01523 0.0456,0.0472 0.0119,0.180396 0.11568,0.31234 0.27835,0.407322 0.2594,0.151719 0.53075,0.151071 0.80769,0.04461 0.0842,-0.03256 0.16335,-0.07458 0.23486,-0.127472 0.0183,-0.01344 0.0357,-0.02868 0.0533,-0.04332 0.0686,-0.04779 0.12131,-0.108365 0.16898,-0.172111 0.0406,-0.05427 0.0743,-0.112188 0.10026,-0.183582 0.008,0.05477 0,0.10008 -0.007,0.144699 -0.0237,0.165729 -0.094,0.313614 -0.20893,0.444293 l -0.0547,0.05228 c -0.0849,0.07966 -0.1858,0.138953 -0.29587,0.187405 -0.15075,0.05735 -0.3071,0.08354 -0.47046,0.07836 -0.50621,-0.01593 -0.94861,-0.332742 -1.07692,-0.755995 -5e-4,-0.003 -0.002,-0.006 -0.004,-0.009 z m 2.2604,-0.02101 c -5.1e-4,0.01145 0,0.0229 -5.1e-4,0.03505 -0.0161,0.116012 -0.0484,0.227563 -0.10516,0.332742 -0.0147,0.02738 -0.0309,0.05417 -0.0464,0.08155 -0.10516,0.157444 -0.24678,0.280476 -0.42065,0.374174 -0.10938,0.05098 -0.22227,0.0924 -0.34356,0.113463 -0.47044,0.08225 -0.93949,-0.09947 -1.1961,-0.464048 -0.005,-0.007 -0.008,-0.01394 -0.0154,-0.02549 0.019,9.96e-4 0.0238,0.01275 0.0315,0.02041 0.1844,0.191239 0.41226,0.315535 0.685,0.371625 0.23909,0.04899 0.47395,0.03375 0.70251,-0.0465 0.0224,-0.008 0.0351,-0.01215 0.0631,-0.02489 0.0139,-0.007 0.0139,-0.007 0.0204,-0.01 0.13672,-0.06184 0.2517,-0.148523 0.34634,-0.257515 0.0974,-0.103267 0.15706,-0.224387 0.19282,-0.355056 0.0259,-0.09499 0.04,-0.191229 0.0336,-0.289398 -0.002,-0.06881 -0.0126,-0.136415 -0.0336,-0.2027 -0.0217,-0.0689 -0.0393,-0.139601 -0.0554,-0.210357 0.0385,0.04521 0.0645,0.09629 0.0842,0.149797 0.0504,0.131943 0.0659,0.267731 0.0575,0.406684 z"
     id="path7-3-1-3-6-5"
     style="fill:#ffffff;stroke-width:0.00668519"
     inkscape:connector-curvature="0" />
  <path
     d="m 142.63578,90.737144 c -0.0376,-0.07647 -0.0876,-0.14434 -0.16376,-0.193509 -0.033,-0.02141 -0.0471,-0.01822 -0.0686,0.01324 -0.0581,-0.06144 -0.11768,-0.122484 -0.17377,-0.184857 -0.0405,-0.04511 -0.0796,-0.09151 -0.10467,-0.146152 -0.0155,-0.03465 -0.0326,-0.04102 -0.0682,-0.02101 -0.0646,0.03595 -0.11969,0.08145 -0.16476,0.13751 -0.0656,0.08105 -0.11017,0.170279 -0.1252,0.270907 -0.002,0.009 -0.01,0.008 -0.0175,0.01 -0.0201,0.005 -0.0396,0.01046 -0.0592,0.01683 -0.0185,0.006 -0.026,0.01912 -0.0201,0.03595 0.006,0.01772 0.0226,0.0241 0.0396,0.01772 0.0541,-0.02141 0.1217,-0.02141 0.16677,-0.01633 0.006,9.95e-4 0.011,0.003 0.0165,0.004 0.0731,0.01324 0.13873,0.04003 0.19381,0.08653 l -3.6e-4,2.59e-4 c -0.008,0.004 -0.018,0.006 -0.0255,0.004 -0.0205,-0.007 -0.041,-0.004 -0.0616,-0.003 -0.017,2.59e-4 -0.0335,0.005 -0.0381,0.0228 -0.005,0.01912 0.008,0.02818 0.0245,0.03684 0.10365,0.05277 0.15223,0.134771 0.15674,0.241314 0.002,0.0455 -0.011,0.08832 -0.0265,0.130669 -0.0205,0.03097 -0.0391,0.06333 -0.0696,0.08742 -0.0891,0.0706 -0.19432,0.09111 -0.30599,0.0706 -0.13272,-0.02459 -0.22236,-0.09838 -0.26243,-0.218094 -0.008,-0.0228 -0.002,-0.04102 0.014,-0.05875 0.025,-0.02818 0.0566,-0.0469 0.0937,-0.05875 0.044,-0.01095 0.0891,-0.01912 0.13522,-0.01772 0.01,2.48e-4 0.0196,-0.003 0.0286,-0.008 0.0405,-0.01952 0.0731,-0.04779 0.0971,-0.08334 0.0165,-0.0241 0.0115,-0.03873 -0.015,-0.05287 -0.004,-0.002 -0.007,-0.004 -0.011,-0.005 -0.0971,-0.03734 -0.18279,-0.08922 -0.25392,-0.160262 -0.004,-0.004 -0.005,-0.007 -0.006,-0.01185 -0.01,-0.0473 -0.01,-0.09469 0.003,-0.14206 0.004,-0.01314 0.005,-0.02599 -0.008,-0.03555 -0.0131,-0.01046 -0.028,-0.008 -0.042,-0.002 -0.0386,0.01683 -0.0747,0.03684 -0.10767,0.06144 -0.0211,0.01553 -0.0415,0.03186 -0.0626,0.04779 -0.007,-0.008 -0.007,-0.01683 -0.008,-0.02499 -0.005,-0.03465 -0.006,-0.0697 -0.005,-0.104273 9.9e-4,-0.03047 -0.0201,-0.04232 -0.051,-0.03007 -0.005,0.002 -0.009,0.004 -0.0135,0.006 -0.0937,0.05735 -0.16726,0.131137 -0.22185,0.220832 -0.005,0.007 -0.01,0.01364 -0.0145,0.02101 -0.0677,0.117466 -0.0922,0.243594 -0.0896,0.375169 0.003,0.05925 0.0121,0.117018 0.0301,0.173934 0.0546,0.172111 0.15976,0.31462 0.317,0.420704 0.19883,0.133866 0.42318,0.184857 0.66907,0.152078 0.11668,-0.01553 0.22536,-0.05098 0.32552,-0.107459 0.1247,-0.06691 0.22286,-0.157076 0.29697,-0.269991 0.0641,-0.0938 0.10366,-0.19579 0.11668,-0.305519 0.002,-0.01593 0.005,-0.03137 0.006,-0.0473 0.006,-0.123391 -0.01,-0.243137 -0.0656,-0.356968 z m -0.79426,-0.11884 c -0.0185,-9.95e-4 -0.0105,-0.01274 -0.009,-0.02001 0.0175,-0.08016 0.0546,-0.152973 0.10816,-0.218542 0.01,-0.01185 0.015,-0.02679 0.036,-0.03824 -0.0345,0.106533 -0.0296,0.207171 0.0221,0.308237 -0.0546,-0.01962 -0.10567,-0.02778 -0.15776,-0.03146 z m 0.17577,-0.149797 c 9.9e-4,-0.06781 0.0216,-0.131127 0.0611,-0.192593 0.027,0.03913 0.0531,0.07607 0.0827,0.111103 0.0621,0.07418 0.13422,0.140686 0.19932,0.212627 0.0396,0.04411 0.0726,0.09201 0.10466,0.141145 0.0346,0.05277 0.0376,0.108365 0.0306,0.166644 -0.002,0.01275 -0.005,0.02549 -0.007,0.03784 -0.0216,0.08016 -0.0636,0.150255 -0.1257,0.213544 0.0121,-0.133398 -0.028,-0.248145 -0.14122,-0.336476 -0.0216,-0.03824 -0.0541,-0.0688 -0.0866,-0.09927 -0.0767,-0.0706 -0.11969,-0.154358 -0.11819,-0.254528 z m 0.15324,0.754452 c 0.0631,-0.106084 0.0425,-0.267721 -0.0456,-0.36334 -0.006,-0.006 -0.01,-0.01185 -0.0145,-0.01822 l 0.003,-0.003 c 0.0696,0.01772 0.11418,0.06233 0.14674,0.117924 0.0515,0.08742 0.0461,0.178025 0.0185,0.270001 -0.005,0.009 -0.009,0.01732 -0.018,0.0237 -0.0526,0.03595 -0.10818,0.06651 -0.16977,0.08882 -0.004,9.96e-4 -0.008,0.002 -0.0185,0.005 0.0461,-0.03684 0.0786,-0.07468 0.0981,-0.120652 z m -0.635,-0.241314 c -0.0456,0.01553 -0.0786,0.04511 -0.11168,0.08603 0,-0.02041 -3.7e-4,-0.03465 0,-0.04829 0.002,-0.03276 -0.007,-0.04053 -0.041,-0.04282 -0.0541,-0.003 -0.0992,-0.02231 -0.13571,-0.05915 -0.0155,-0.01593 -0.006,-0.02141 0.009,-0.02549 l 0.0601,-0.01324 c 0.0636,-0.006 0.1242,0.005 0.1823,0.02957 0.0641,0.02679 0.1322,0.03595 0.20231,0.03326 0.008,-2.59e-4 0.015,0 0.0231,0.002 -0.0646,0.007 -0.1302,0.007 -0.1883,0.03784 z m -0.0446,-0.399306 v 0.06691 c 0,0.008 -0.004,0.01055 -0.0121,0.009 -0.024,-0.005 -0.0486,-0.01 -0.0776,-0.01553 0.0295,-0.02181 0.0551,-0.04232 0.0896,-0.06014 z m -0.46825,0.525883 c -0.0196,-0.06144 -0.0165,-0.122933 -0.006,-0.185763 0.013,-0.07558 0.042,-0.144341 0.0796,-0.211721 -3.7e-4,-5.18e-4 -0.002,-0.002 -0.002,-0.003 3.5e-4,5.18e-4 0.002,0.002 0.002,0.003 0.042,-0.05964 0.0871,-0.11656 0.14723,-0.162543 0.006,-0.005 0.0105,-0.01185 0.0221,-0.01235 0.003,0.02549 0.006,0.05058 0.01,0.07607 0.002,0.01 0.004,0.01962 0.006,0.02917 0.0145,0.05008 0.0235,0.05696 0.0806,0.05785 0.0842,9.96e-4 0.15625,0.02499 0.21334,0.08374 0.0416,0.04282 0.0966,0.0692 0.15174,0.09519 -0.024,0.01 -0.0666,0.01095 -0.11368,0.003 -0.0345,-0.006 -0.0677,-0.01553 -0.0997,-0.02868 -0.0811,-0.03326 -0.16677,-0.04182 -0.2534,-0.02041 -0.025,0.005 -0.0551,0.01862 -0.0777,0.03047 -0.025,0.01324 -0.0295,0.02639 -0.016,0.04919 0.035,0.05964 0.0881,0.100628 0.16175,0.115186 0.0235,0.005 0.0311,0.01095 0.0325,0.03365 0.009,0.128857 0.0827,0.223103 0.19883,0.290952 0.18529,0.108365 0.3791,0.107907 0.57692,0.03186 0.0601,-0.0232 0.11668,-0.05327 0.16775,-0.09101 0.0131,-0.01 0.0255,-0.02051 0.0381,-0.03097 0.0491,-0.03415 0.0866,-0.07737 0.12069,-0.122932 0.0291,-0.03873 0.0531,-0.08016 0.0716,-0.131137 0.006,0.03913 0,0.07149 -0.005,0.103356 -0.017,0.118382 -0.0671,0.224019 -0.14924,0.317358 l -0.0391,0.03734 c -0.0606,0.05696 -0.13271,0.09927 -0.21133,0.133856 -0.10767,0.04102 -0.21935,0.05964 -0.33604,0.05606 -0.36158,-0.01135 -0.67758,-0.23767 -0.76923,-0.540002 -3.5e-4,-0.002 -0.002,-0.004 -0.003,-0.006 z m 1.61457,-0.01504 c -3.6e-4,0.008 0,0.01633 -3.6e-4,0.02499 -0.0115,0.08284 -0.0345,0.162552 -0.0752,0.23768 -0.0105,0.01962 -0.0221,0.03863 -0.0331,0.05825 -0.0752,0.112467 -0.17628,0.20034 -0.30047,0.267263 -0.0781,0.03644 -0.15876,0.06602 -0.2454,0.08105 -0.33603,0.05875 -0.67107,-0.07099 -0.85436,-0.331458 -0.004,-0.005 -0.006,-0.01 -0.011,-0.01822 0.0136,9.95e-4 0.017,0.009 0.0226,0.01454 0.1317,0.136604 0.29446,0.225383 0.48927,0.265451 0.17078,0.03505 0.33854,0.0241 0.5018,-0.03326 0.016,-0.005 0.0251,-0.009 0.0451,-0.01772 0.01,-0.005 0.01,-0.005 0.0145,-0.007 0.0976,-0.04411 0.17979,-0.106085 0.2474,-0.183941 0.0696,-0.07378 0.11217,-0.160272 0.13772,-0.253611 0.0185,-0.06781 0.0286,-0.136594 0.024,-0.206703 -0.002,-0.04919 -0.009,-0.09748 -0.024,-0.144799 -0.0155,-0.04919 -0.0281,-0.09971 -0.0396,-0.150255 0.0275,0.03226 0.0461,0.0687 0.0601,0.107001 0.0361,0.0943 0.0471,0.191239 0.0411,0.290493 z"
     id="path7-3-1-3-6-9"
     style="fill:#ffffff;stroke-width:0.00477513"
     inkscape:connector-curvature="0" />
</svg>
