<?xml version="1.0" encoding="UTF-8" standalone="no"?>
<svg
   xmlns:dc="http://purl.org/dc/elements/1.1/"
   xmlns:cc="http://creativecommons.org/ns#"
   xmlns:rdf="http://www.w3.org/1999/02/22-rdf-syntax-ns#"
   xmlns:svg="http://www.w3.org/2000/svg"
   xmlns="http://www.w3.org/2000/svg"
   xmlns:sodipodi="http://sodipodi.sourceforge.net/DTD/sodipodi-0.dtd"
   xmlns:inkscape="http://www.inkscape.org/namespaces/inkscape"
   inkscape:export-ydpi="90.000000"
   inkscape:export-xdpi="90.000000"
   width="480"
   height="300"
   id="svg11300"
   sodipodi:version="0.32"
   inkscape:version="0.92.5 (2060ec1f9f, 2020-04-08)"
   sodipodi:docname="mint-y-model (copy).svg"
   inkscape:output_extension="org.inkscape.output.svg.inkscape"
   version="1.0"
   style="display:inline;enable-background:new"
   inkscape:export-filename="/home/sam/moka-next-template.png">
  <sodipodi:namedview
     stroke="#ef2929"
     fill="#f57900"
     id="base"
     pagecolor="#777777"
     bordercolor="#666666"
     borderopacity="0.25490196"
     inkscape:pageopacity="0"
     inkscape:pageshadow="2"
     inkscape:zoom="1.4142136"
     inkscape:cx="410.89352"
     inkscape:cy="179.25156"
     inkscape:current-layer="layer3"
     showgrid="false"
     inkscape:grid-bbox="true"
     inkscape:document-units="px"
     inkscape:showpageshadow="false"
     inkscape:window-width="1366"
     inkscape:window-height="741"
     inkscape:window-x="0"
     inkscape:window-y="0"
     width="400px"
     height="300px"
     inkscape:snap-nodes="true"
     inkscape:snap-bbox="true"
     gridtolerance="10000"
     inkscape:object-nodes="true"
     inkscape:snap-grids="true"
     showguides="false"
     inkscape:guide-bbox="true"
     inkscape:window-maximized="1"
     inkscape:bbox-nodes="true"
     inkscape:bbox-paths="true"
     inkscape:snap-bbox-edge-midpoints="true"
     inkscape:snap-bbox-midpoints="true"
     inkscape:document-rotation="0">
    <inkscape:grid
       spacingy="1"
       spacingx="1"
       id="grid5883"
       type="xygrid"
       enabled="true"
       visible="true"
       empspacing="4"
       snapvisiblegridlinesonly="true"
       dotted="false"
       color="#000000"
       opacity="0.1254902"
       empcolor="#203ef3"
       empopacity="0.36470588"
       originx="0"
       originy="0" />
    <inkscape:grid
       type="xygrid"
       id="grid11592"
       empspacing="8"
       visible="true"
       enabled="false"
       spacingx="0.5"
       spacingy="0.5"
       color="#ff0000"
       opacity="0.1254902"
       empcolor="#ff0000"
       empopacity="0.25098039"
       snapvisiblegridlinesonly="true"
       dotted="true"
       originx="0"
       originy="0" />
  </sodipodi:namedview>
  <defs
     id="defs3">
    <linearGradient
       id="outerBackgroundGradient-2">
      <stop
         style="stop-color:#207487;stop-opacity:1"
         offset="0"
         id="stop3864-8-6-8" />
      <stop
         style="stop-color:#3495a4;stop-opacity:1"
         offset="1"
         id="stop3866-9-1-5" />
    </linearGradient>
  </defs>
  <metadata
     id="metadata4">
    <rdf:RDF>
      <cc:Work
         rdf:about="">
        <dc:format>image/svg+xml</dc:format>
        <dc:type
           rdf:resource="http://purl.org/dc/dcmitype/StillImage" />
        <dc:creator>
          <cc:Agent>
            <dc:title>Sam Hewitt</dc:title>
          </cc:Agent>
        </dc:creator>
        <dc:source />
        <cc:license
           rdf:resource="" />
        <dc:title />
        <dc:subject>
          <rdf:Bag />
        </dc:subject>
        <dc:date />
        <dc:rights>
          <cc:Agent>
            <dc:title />
          </cc:Agent>
        </dc:rights>
        <dc:publisher>
          <cc:Agent>
            <dc:title />
          </cc:Agent>
        </dc:publisher>
        <dc:identifier />
        <dc:relation />
        <dc:language />
        <dc:coverage />
        <dc:description />
        <dc:contributor>
          <cc:Agent>
            <dc:title />
          </cc:Agent>
        </dc:contributor>
      </cc:Work>
      <cc:Work
         rdf:about="">
        <dc:format>image/svg+xml</dc:format>
        <dc:type
           rdf:resource="http://purl.org/dc/dcmitype/StillImage" />
      </cc:Work>
    </rdf:RDF>
  </metadata>
  <g
     style="display:inline"
     inkscape:groupmode="layer"
     inkscape:label="Icon"
     id="layer1">
    <g
       style="display:none"
       inkscape:label="Baseplate"
       id="layer7"
       inkscape:groupmode="layer">
      <text
         y="19.745117"
         xml:space="preserve"
         x="15.006836"
         style="font-style:normal;font-variant:normal;font-weight:normal;font-stretch:normal;line-height:0%;font-family:'DejaVu Sans';-inkscape-font-specification:'DejaVu Sans';display:inline;fill:#000000;fill-opacity:1;stroke:none;enable-background:new"
         inkscape:label="context"
         id="context"><tspan
           style="font-style:normal;font-variant:normal;font-weight:normal;font-stretch:normal;font-size:18px;line-height:1.25;font-family:'DejaVu Sans';-inkscape-font-specification:'DejaVu Sans'"
           y="19.745117"
           x="15.006836"
           sodipodi:role="line"
           id="tspan3933">apps</tspan></text>
      <text
         y="19.745117"
         xml:space="preserve"
         x="122.48828"
         style="font-style:normal;font-variant:normal;font-weight:bold;font-stretch:normal;line-height:0%;font-family:'DejaVu Sans';-inkscape-font-specification:'DejaVu Sans Bold';text-align:start;writing-mode:lr-tb;text-anchor:start;display:inline;fill:#000000;fill-opacity:1;stroke:none;enable-background:new"
         inkscape:label="icon-name"
         id="icon-name"><tspan
           style="font-style:normal;font-variant:normal;font-weight:bold;font-stretch:normal;font-size:18px;line-height:1.25;font-family:'DejaVu Sans';-inkscape-font-specification:'DejaVu Sans Bold'"
           y="19.745117"
           x="122.48828"
           sodipodi:role="line"
           id="tspan3937">preferences-desktop-user</tspan></text>
      <rect
         style="fill:#eeeeec;fill-opacity:1;fill-rule:nonzero;stroke:none;stroke-width:2;marker:none;visibility:visible;display:inline;overflow:visible;enable-background:accumulate"
         id="rect16x16"
         width="16"
         height="16"
         x="416"
         y="140"
         inkscape:label="16x16" />
      <rect
         style="fill:#d4d4d4;fill-opacity:1;fill-rule:nonzero;stroke:none;stroke-width:2;marker:none;visibility:visible;display:inline;overflow:visible;enable-background:accumulate"
         id="rect24x24"
         width="24"
         height="24"
         x="416"
         y="100"
         inkscape:label="24x24" />
      <rect
         style="fill:#eeeeec;fill-opacity:1;fill-rule:nonzero;stroke:none;stroke-width:2;marker:none;visibility:visible;display:inline;overflow:visible;enable-background:accumulate"
         id="rect32x32"
         width="32"
         height="32"
         x="416"
         y="52"
         inkscape:label="32x32" />
      <rect
         inkscape:label="22x22"
         y="101"
         x="417"
         height="22"
         width="22"
         id="rect22x22"
         style="fill:#eeeeec;fill-opacity:1;fill-rule:nonzero;stroke:none;stroke-width:2;marker:none;visibility:visible;display:inline;overflow:visible;enable-background:accumulate" />
      <rect
         inkscape:label="48x48"
         y="220"
         x="288"
         height="48"
         width="48"
         id="rect48x48"
         style="fill:#eeeeec;fill-opacity:1;fill-rule:nonzero;stroke:none;stroke-width:2;marker:none;visibility:visible;display:inline;overflow:visible;enable-background:accumulate" />
      <rect
         style="fill:#eeeeec;fill-opacity:1;fill-rule:nonzero;stroke:none;stroke-width:2;marker:none;visibility:visible;display:inline;overflow:visible;enable-background:accumulate"
         id="rect256x256"
         width="256"
         height="256"
         x="16"
         y="28"
         inkscape:label="256x256" />
      <rect
         style="fill:#eeeeec;fill-opacity:1;fill-rule:nonzero;stroke:none;stroke-width:2;marker:none;visibility:visible;display:inline;overflow:visible;enable-background:accumulate"
         id="rect64x64"
         width="64"
         height="64"
         x="288"
         y="140"
         inkscape:label="64x64" />
      <rect
         style="fill:#eeeeec;fill-opacity:1;fill-rule:nonzero;stroke:none;stroke-width:2;marker:none;visibility:visible;display:inline;overflow:visible;enable-background:accumulate"
         id="rect96x96"
         width="96"
         height="96"
         x="288"
         y="28"
         inkscape:label="96x96" />
    </g>
    <g
       inkscape:groupmode="layer"
       id="layer4"
       inkscape:label="Shadow"
       style="display:inline"
       sodipodi:insensitive="true">
      <rect
         ry="50"
         y="47"
         x="34"
         height="220"
         width="220"
         id="rect4114"
         style="opacity:0.1;color:#bebebe;fill:#000000;fill-opacity:1;fill-rule:nonzero;stroke:none;stroke-width:0;marker:none;visibility:visible;display:inline;overflow:visible;enable-background:accumulate" />
      <rect
         style="opacity:0.1;color:#bebebe;fill:#000000;fill-opacity:1;fill-rule:nonzero;stroke:none;stroke-width:0;marker:none;visibility:visible;display:inline;overflow:visible;enable-background:accumulate"
         id="rect4120"
         width="30"
         height="30"
         x="417"
         y="54"
         ry="7" />
      <rect
         transform="scale(1,-1)"
         ry="9"
         y="-266"
         x="291"
         height="42"
         width="42"
         id="rect4122"
         style="opacity:0.1;color:#bebebe;fill:#000000;fill-opacity:1;fill-rule:nonzero;stroke:none;stroke-width:0;marker:none;visibility:visible;display:inline;overflow:visible;enable-background:accumulate" />
      <rect
         style="opacity:0.1;color:#bebebe;fill:#000000;fill-opacity:1;fill-rule:nonzero;stroke:none;stroke-width:0;marker:none;visibility:visible;display:inline;overflow:visible;enable-background:accumulate"
         id="rect4124"
         width="88"
         height="88"
         x="292"
         y="33"
         ry="18" />
      <rect
         ry="12.5"
         y="143"
         x="290"
         height="60"
         width="60"
         id="rect4126"
         style="opacity:0.1;color:#bebebe;fill:#000000;fill-opacity:1;fill-rule:nonzero;stroke:none;stroke-width:0;marker:none;visibility:visible;display:inline;overflow:visible;enable-background:accumulate" />
      <path
         id="path4268"
         d="m 422,101 c -2.77,0 -5,2.23 -5,5 l 0,12 c 0,2.77 2.23,5 5,5 l 12,0 c 2.77,0 5,-2.23 5,-5 l 0,-12 c 0,-2.77 -2.23,-5 -5,-5 z"
         style="opacity:0.1;color:#bebebe;fill:#000000;fill-opacity:1;fill-rule:nonzero;stroke:none;stroke-width:0;marker:none;visibility:visible;display:inline;overflow:visible;enable-background:accumulate"
         inkscape:connector-curvature="0"
         sodipodi:nodetypes="sssssssss" />
      <path
         id="path4270"
         d="m 419,140 c -1.662,0 -3,1.338 -3,3 l 0,10 c 0,1.662 1.338,3 3,3 l 10,0 c 1.662,0 3,-1.338 3,-3 l 0,-10 c 0,-1.662 -1.338,-3 -3,-3 z"
         style="opacity:0.1;color:#bebebe;fill:#000000;fill-opacity:1;fill-rule:nonzero;stroke:none;stroke-width:0;marker:none;visibility:visible;display:inline;overflow:visible;enable-background:accumulate"
         inkscape:connector-curvature="0"
         sodipodi:nodetypes="sssssssss" />
    </g>
    <g
       inkscape:groupmode="layer"
       id="layer2"
       inkscape:label="Background"
       style="display:inline">
      <g
         id="g1820"
         transform="matrix(1.0022779,0,0,1.0045662,-0.57858707,-0.7123283)">
        <g
           id="g1809">
          <path
             style="color:#bebebe;display:inline;overflow:visible;visibility:visible;fill:#1e88e5;fill-opacity:1;fill-rule:nonzero;stroke:none;stroke-width:2;marker:none;enable-background:accumulate"
             d="M 253.5,95.570312 192.91406,151.43359 103.01172,261.06055 108.17773,265 H 204 c 27.43127,0 49.5,-22.06873 49.5,-49.5 z"
             id="path1799"
             inkscape:connector-curvature="0" />
          <path
             style="color:#bebebe;display:inline;overflow:visible;visibility:visible;fill:#ab47bc;fill-opacity:1;fill-rule:nonzero;stroke:none;stroke-width:2;marker:none;enable-background:accumulate"
             d="M 142.00586,265.5 125.16016,160.71094 38.044922,136.39453 34.5,135.44727 V 216 c 0,27.43127 22.06874,49.5 49.5,49.5 z"
             id="path1802"
             inkscape:connector-curvature="0" />
          <path
             style="color:#bebebe;display:inline;overflow:visible;visibility:visible;fill:#2962ff;fill-opacity:1;fill-rule:nonzero;stroke:none;stroke-width:2;marker:none;enable-background:accumulate"
             d="M 156.01367,46.5 153.78906,49.638672 190.83008,191.08008 254,103.47266 V 96 C 254,68.568732 231.93127,46.5 204.5,46.5 Z"
             id="path527"
             inkscape:connector-curvature="0" />
          <path
             style="color:#bebebe;display:inline;overflow:visible;visibility:visible;opacity:1;fill:#e91e63;fill-opacity:1;fill-rule:nonzero;stroke:none;stroke-width:2;marker:none;enable-background:accumulate"
             d="M 34.5,130.04492 66.384766,142.625 209.98242,117.17578 157.32227,46.5 H 84 C 56.56873,46.5 34.5,68.56874 34.5,96 Z"
             id="path1335"
             inkscape:connector-curvature="0" />
          <path
             style="color:#bebebe;display:inline;overflow:visible;visibility:visible;fill:#f57c00;fill-opacity:1;fill-rule:nonzero;stroke:none;stroke-width:2;marker:none;enable-background:accumulate"
             d="M 34.683594,206.30859 65.5,234.5 125.01562,147.90625 78.875,127.03711 66.384766,129.25 34.5,116.66992 V 202.625 c 0,1.24411 0.09436,2.46311 0.183594,3.68359 z"
             id="path1794"
             inkscape:connector-curvature="0" />
        </g>
        <g
           transform="matrix(0.933829,0,0,0.933829,12.668624,12.528847)"
           id="g360">
          <path
             style="fill:#000001;stroke-width:6.7249999"
             inkscape:connector-curvature="0"
             d="M 56.575,69.575 H 224.7 V 237.7 H 56.575 Z"
             id="path314" />
          <path
             style="fill:#ffffff;stroke-width:6.7249999"
             inkscape:connector-curvature="0"
             d="m 76.75,207.4375 h 60.525 V 217.525 H 76.75 Z M 120.4625,102.35937 V 89.75 h -33.625 v 12.60937 H 96.925 v 43.7125 H 86.8375 v 12.60938 h 33.625 v -12.60938 h -9.01823 v -43.7125 z m 32.78437,58.00313 c -12.60937,0 -19.30747,-7.38405 -21.85625,-10.4103 l 9.48898,-10.79363 c 1.71487,1.89645 6.4829,6.9133 12.36727,6.9133 7.56563,0 9.24688,-7.56562 9.24688,-11.76875 V 89.75 H 177.625 v 44.55312 c 0,4.1964 0,10.92813 -5.04375,17.65313 -3.53063,4.7075 -11.76875,8.40625 -19.33438,8.40625 z"
             id="path316" />
        </g>
      </g>
      <g
         id="g1975"
         transform="matrix(0.19134396,0,0,0.19178082,284.39863,214.08219)">
        <g
           id="g1967">
          <path
             id="path1957"
             d="M 253.5,95.570312 192.91406,151.43359 103.01172,261.06055 108.17773,265 H 204 c 27.43127,0 49.5,-22.06873 49.5,-49.5 z"
             style="color:#bebebe;display:inline;overflow:visible;visibility:visible;fill:#1e88e5;fill-opacity:1;fill-rule:nonzero;stroke:none;stroke-width:2;marker:none;enable-background:accumulate"
             inkscape:connector-curvature="0" />
          <path
             id="path1959"
             d="M 142.00586,265.5 125.16016,160.71094 38.044922,136.39453 34.5,135.44727 V 216 c 0,27.43127 22.06874,49.5 49.5,49.5 z"
             style="color:#bebebe;display:inline;overflow:visible;visibility:visible;fill:#ab47bc;fill-opacity:1;fill-rule:nonzero;stroke:none;stroke-width:2;marker:none;enable-background:accumulate"
             inkscape:connector-curvature="0" />
          <path
             id="path1961"
             d="M 156.01367,46.5 153.78906,49.638672 190.83008,191.08008 254,103.47266 V 96 C 254,68.568732 231.93127,46.5 204.5,46.5 Z"
             style="color:#bebebe;display:inline;overflow:visible;visibility:visible;fill:#2962ff;fill-opacity:1;fill-rule:nonzero;stroke:none;stroke-width:2;marker:none;enable-background:accumulate"
             inkscape:connector-curvature="0" />
          <path
             id="path1963"
             d="M 34.5,130.04492 66.384766,142.625 209.98242,117.17578 157.32227,46.5 H 84 C 56.56873,46.5 34.5,68.56874 34.5,96 Z"
             style="color:#bebebe;display:inline;overflow:visible;visibility:visible;opacity:1;fill:#e91e63;fill-opacity:1;fill-rule:nonzero;stroke:none;stroke-width:2;marker:none;enable-background:accumulate"
             inkscape:connector-curvature="0" />
          <path
             id="path1965"
             d="M 34.683594,206.30859 65.5,234.5 125.01562,147.90625 78.875,127.03711 66.384766,129.25 34.5,116.66992 V 202.625 c 0,1.24411 0.09436,2.46311 0.183594,3.68359 z"
             style="color:#bebebe;display:inline;overflow:visible;visibility:visible;fill:#f57c00;fill-opacity:1;fill-rule:nonzero;stroke:none;stroke-width:2;marker:none;enable-background:accumulate"
             inkscape:connector-curvature="0" />
        </g>
        <g
           id="g1973"
           transform="matrix(0.933829,0,0,0.933829,12.668624,12.528847)">
          <path
             id="path1969"
             d="M 56.575,69.575 H 224.7 V 237.7 H 56.575 Z"
             inkscape:connector-curvature="0"
             style="fill:#000001;stroke-width:6.7249999" />
          <path
             id="path1971"
             d="m 76.75,207.4375 h 60.525 V 217.525 H 76.75 Z M 120.4625,102.35937 V 89.75 h -33.625 v 12.60937 H 96.925 v 43.7125 H 86.8375 v 12.60938 h 33.625 v -12.60938 h -9.01823 v -43.7125 z m 32.78437,58.00313 c -12.60937,0 -19.30747,-7.38405 -21.85625,-10.4103 l 9.48898,-10.79363 c 1.71487,1.89645 6.4829,6.9133 12.36727,6.9133 7.56563,0 9.24688,-7.56562 9.24688,-11.76875 V 89.75 H 177.625 v 44.55312 c 0,4.1964 0,10.92813 -5.04375,17.65313 -3.53063,4.7075 -11.76875,8.40625 -19.33438,8.40625 z"
             inkscape:connector-curvature="0"
             style="fill:#ffffff;stroke-width:6.7249999" />
        </g>
      </g>
      <g
         id="g1933"
         transform="matrix(0.40091116,0,0,0.40182648,278.16857,13.315069)">
        <g
           id="g1925">
          <path
             id="path1915"
             d="M 253.5,95.570312 192.91406,151.43359 103.01172,261.06055 108.17773,265 H 204 c 27.43127,0 49.5,-22.06873 49.5,-49.5 z"
             style="color:#bebebe;display:inline;overflow:visible;visibility:visible;fill:#1e88e5;fill-opacity:1;fill-rule:nonzero;stroke:none;stroke-width:2;marker:none;enable-background:accumulate"
             inkscape:connector-curvature="0" />
          <path
             id="path1917"
             d="M 142.00586,265.5 125.16016,160.71094 38.044922,136.39453 34.5,135.44727 V 216 c 0,27.43127 22.06874,49.5 49.5,49.5 z"
             style="color:#bebebe;display:inline;overflow:visible;visibility:visible;fill:#ab47bc;fill-opacity:1;fill-rule:nonzero;stroke:none;stroke-width:2;marker:none;enable-background:accumulate"
             inkscape:connector-curvature="0" />
          <path
             id="path1919"
             d="M 156.01367,46.5 153.78906,49.638672 190.83008,191.08008 254,103.47266 V 96 C 254,68.568732 231.93127,46.5 204.5,46.5 Z"
             style="color:#bebebe;display:inline;overflow:visible;visibility:visible;fill:#2962ff;fill-opacity:1;fill-rule:nonzero;stroke:none;stroke-width:2;marker:none;enable-background:accumulate"
             inkscape:connector-curvature="0" />
          <path
             id="path1921"
             d="M 34.5,130.04492 66.384766,142.625 209.98242,117.17578 157.32227,46.5 H 84 C 56.56873,46.5 34.5,68.56874 34.5,96 Z"
             style="color:#bebebe;display:inline;overflow:visible;visibility:visible;opacity:1;fill:#e91e63;fill-opacity:1;fill-rule:nonzero;stroke:none;stroke-width:2;marker:none;enable-background:accumulate"
             inkscape:connector-curvature="0" />
          <path
             id="path1923"
             d="M 34.683594,206.30859 65.5,234.5 125.01562,147.90625 78.875,127.03711 66.384766,129.25 34.5,116.66992 V 202.625 c 0,1.24411 0.09436,2.46311 0.183594,3.68359 z"
             style="color:#bebebe;display:inline;overflow:visible;visibility:visible;fill:#f57c00;fill-opacity:1;fill-rule:nonzero;stroke:none;stroke-width:2;marker:none;enable-background:accumulate"
             inkscape:connector-curvature="0" />
        </g>
        <g
           id="g1931"
           transform="matrix(0.933829,0,0,0.933829,12.668624,12.528847)">
          <path
             id="path1927"
             d="M 56.575,69.575 H 224.7 V 237.7 H 56.575 Z"
             inkscape:connector-curvature="0"
             style="fill:#000001;stroke-width:6.7249999" />
          <path
             id="path1929"
             d="m 76.75,207.4375 h 60.525 V 217.525 H 76.75 Z M 120.4625,102.35937 V 89.75 h -33.625 v 12.60937 H 96.925 v 43.7125 H 86.8375 v 12.60938 h 33.625 v -12.60938 h -9.01823 v -43.7125 z m 32.78437,58.00313 c -12.60937,0 -19.30747,-7.38405 -21.85625,-10.4103 l 9.48898,-10.79363 c 1.71487,1.89645 6.4829,6.9133 12.36727,6.9133 7.56563,0 9.24688,-7.56562 9.24688,-11.76875 V 89.75 H 177.625 v 44.55312 c 0,4.1964 0,10.92813 -5.04375,17.65313 -3.53063,4.7075 -11.76875,8.40625 -19.33438,8.40625 z"
             inkscape:connector-curvature="0"
             style="fill:#ffffff;stroke-width:6.7249999" />
        </g>
      </g>
      <g
         transform="matrix(0.27334852,0,0,0.2739726,280.56948,129.26027)"
         id="g1953">
        <g
           id="g1945">
          <path
             inkscape:connector-curvature="0"
             style="color:#bebebe;display:inline;overflow:visible;visibility:visible;fill:#1e88e5;fill-opacity:1;fill-rule:nonzero;stroke:none;stroke-width:2;marker:none;enable-background:accumulate"
             d="M 253.5,95.570312 192.91406,151.43359 103.01172,261.06055 108.17773,265 H 204 c 27.43127,0 49.5,-22.06873 49.5,-49.5 z"
             id="path1935" />
          <path
             inkscape:connector-curvature="0"
             style="color:#bebebe;display:inline;overflow:visible;visibility:visible;fill:#ab47bc;fill-opacity:1;fill-rule:nonzero;stroke:none;stroke-width:2;marker:none;enable-background:accumulate"
             d="M 142.00586,265.5 125.16016,160.71094 38.044922,136.39453 34.5,135.44727 V 216 c 0,27.43127 22.06874,49.5 49.5,49.5 z"
             id="path1937" />
          <path
             inkscape:connector-curvature="0"
             style="color:#bebebe;display:inline;overflow:visible;visibility:visible;fill:#2962ff;fill-opacity:1;fill-rule:nonzero;stroke:none;stroke-width:2;marker:none;enable-background:accumulate"
             d="M 156.01367,46.5 153.78906,49.638672 190.83008,191.08008 254,103.47266 V 96 C 254,68.568732 231.93127,46.5 204.5,46.5 Z"
             id="path1939" />
          <path
             inkscape:connector-curvature="0"
             style="color:#bebebe;display:inline;overflow:visible;visibility:visible;opacity:1;fill:#e91e63;fill-opacity:1;fill-rule:nonzero;stroke:none;stroke-width:2;marker:none;enable-background:accumulate"
             d="M 34.5,130.04492 66.384766,142.625 209.98242,117.17578 157.32227,46.5 H 84 C 56.56873,46.5 34.5,68.56874 34.5,96 Z"
             id="path1941" />
          <path
             inkscape:connector-curvature="0"
             style="color:#bebebe;display:inline;overflow:visible;visibility:visible;fill:#f57c00;fill-opacity:1;fill-rule:nonzero;stroke:none;stroke-width:2;marker:none;enable-background:accumulate"
             d="M 34.683594,206.30859 65.5,234.5 125.01562,147.90625 78.875,127.03711 66.384766,129.25 34.5,116.66992 V 202.625 c 0,1.24411 0.09436,2.46311 0.183594,3.68359 z"
             id="path1943" />
        </g>
        <g
           transform="matrix(0.933829,0,0,0.933829,12.668624,12.528847)"
           id="g1951">
          <path
             style="fill:#000001;stroke-width:6.7249999"
             inkscape:connector-curvature="0"
             d="M 56.575,69.575 H 224.7 V 237.7 H 56.575 Z"
             id="path1947" />
          <path
             style="fill:#ffffff;stroke-width:6.7249999"
             inkscape:connector-curvature="0"
             d="m 76.75,207.4375 h 60.525 V 217.525 H 76.75 Z M 120.4625,102.35937 V 89.75 h -33.625 v 12.60937 H 96.925 v 43.7125 H 86.8375 v 12.60938 h 33.625 v -12.60938 h -9.01823 v -43.7125 z m 32.78437,58.00313 c -12.60937,0 -19.30747,-7.38405 -21.85625,-10.4103 l 9.48898,-10.79363 c 1.71487,1.89645 6.4829,6.9133 12.36727,6.9133 7.56563,0 9.24688,-7.56562 9.24688,-11.76875 V 89.75 H 177.625 v 44.55312 c 0,4.1964 0,10.92813 -5.04375,17.65313 -3.53063,4.7075 -11.76875,8.40625 -19.33438,8.40625 z"
             id="path1949" />
        </g>
      </g>
      <g
         transform="matrix(0.13667426,0,0,0.1369863,412.28474,46.630137)"
         id="g1995">
        <g
           id="g1987">
          <path
             inkscape:connector-curvature="0"
             style="color:#bebebe;display:inline;overflow:visible;visibility:visible;fill:#1e88e5;fill-opacity:1;fill-rule:nonzero;stroke:none;stroke-width:2;marker:none;enable-background:accumulate"
             d="M 253.5,95.570312 192.91406,151.43359 103.01172,261.06055 108.17773,265 H 204 c 27.43127,0 49.5,-22.06873 49.5,-49.5 z"
             id="path1977" />
          <path
             inkscape:connector-curvature="0"
             style="color:#bebebe;display:inline;overflow:visible;visibility:visible;fill:#ab47bc;fill-opacity:1;fill-rule:nonzero;stroke:none;stroke-width:2;marker:none;enable-background:accumulate"
             d="M 142.00586,265.5 125.16016,160.71094 38.044922,136.39453 34.5,135.44727 V 216 c 0,27.43127 22.06874,49.5 49.5,49.5 z"
             id="path1979" />
          <path
             inkscape:connector-curvature="0"
             style="color:#bebebe;display:inline;overflow:visible;visibility:visible;fill:#2962ff;fill-opacity:1;fill-rule:nonzero;stroke:none;stroke-width:2;marker:none;enable-background:accumulate"
             d="M 156.01367,46.5 153.78906,49.638672 190.83008,191.08008 254,103.47266 V 96 C 254,68.568732 231.93127,46.5 204.5,46.5 Z"
             id="path1981" />
          <path
             inkscape:connector-curvature="0"
             style="color:#bebebe;display:inline;overflow:visible;visibility:visible;opacity:1;fill:#e91e63;fill-opacity:1;fill-rule:nonzero;stroke:none;stroke-width:2;marker:none;enable-background:accumulate"
             d="M 34.5,130.04492 66.384766,142.625 209.98242,117.17578 157.32227,46.5 H 84 C 56.56873,46.5 34.5,68.56874 34.5,96 Z"
             id="path1983" />
          <path
             inkscape:connector-curvature="0"
             style="color:#bebebe;display:inline;overflow:visible;visibility:visible;fill:#f57c00;fill-opacity:1;fill-rule:nonzero;stroke:none;stroke-width:2;marker:none;enable-background:accumulate"
             d="M 34.683594,206.30859 65.5,234.5 125.01562,147.90625 78.875,127.03711 66.384766,129.25 34.5,116.66992 V 202.625 c 0,1.24411 0.09436,2.46311 0.183594,3.68359 z"
             id="path1985" />
        </g>
        <g
           transform="matrix(0.933829,0,0,0.933829,12.668624,12.528847)"
           id="g1993">
          <path
             style="fill:#000001;stroke-width:6.7249999"
             inkscape:connector-curvature="0"
             d="M 56.575,69.575 H 224.7 V 237.7 H 56.575 Z"
             id="path1989" />
          <path
             style="fill:#ffffff;stroke-width:6.7249999"
             inkscape:connector-curvature="0"
             d="m 76.75,207.4375 h 60.525 V 217.525 H 76.75 Z M 120.4625,102.35937 V 89.75 h -33.625 v 12.60937 H 96.925 v 43.7125 H 86.8375 v 12.60938 h 33.625 v -12.60938 h -9.01823 v -43.7125 z m 32.78437,58.00313 c -12.60937,0 -19.30747,-7.38405 -21.85625,-10.4103 l 9.48898,-10.79363 c 1.71487,1.89645 6.4829,6.9133 12.36727,6.9133 7.56563,0 9.24688,-7.56562 9.24688,-11.76875 V 89.75 H 177.625 v 44.55312 c 0,4.1964 0,10.92813 -5.04375,17.65313 -3.53063,4.7075 -11.76875,8.40625 -19.33438,8.40625 z"
             id="path1991" />
        </g>
      </g>
      <g
         transform="matrix(0.10022779,0,0,0.10045662,413.54214,96.328767)"
         id="g2015">
        <g
           id="g2007">
          <path
             inkscape:connector-curvature="0"
             style="color:#bebebe;display:inline;overflow:visible;visibility:visible;fill:#1e88e5;fill-opacity:1;fill-rule:nonzero;stroke:none;stroke-width:2;marker:none;enable-background:accumulate"
             d="M 253.5,95.570312 192.91406,151.43359 103.01172,261.06055 108.17773,265 H 204 c 27.43127,0 49.5,-22.06873 49.5,-49.5 z"
             id="path1997" />
          <path
             inkscape:connector-curvature="0"
             style="color:#bebebe;display:inline;overflow:visible;visibility:visible;fill:#ab47bc;fill-opacity:1;fill-rule:nonzero;stroke:none;stroke-width:2;marker:none;enable-background:accumulate"
             d="M 142.00586,265.5 125.16016,160.71094 38.044922,136.39453 34.5,135.44727 V 216 c 0,27.43127 22.06874,49.5 49.5,49.5 z"
             id="path1999" />
          <path
             inkscape:connector-curvature="0"
             style="color:#bebebe;display:inline;overflow:visible;visibility:visible;fill:#2962ff;fill-opacity:1;fill-rule:nonzero;stroke:none;stroke-width:2;marker:none;enable-background:accumulate"
             d="M 156.01367,46.5 153.78906,49.638672 190.83008,191.08008 254,103.47266 V 96 C 254,68.568732 231.93127,46.5 204.5,46.5 Z"
             id="path2001" />
          <path
             inkscape:connector-curvature="0"
             style="color:#bebebe;display:inline;overflow:visible;visibility:visible;opacity:1;fill:#e91e63;fill-opacity:1;fill-rule:nonzero;stroke:none;stroke-width:2;marker:none;enable-background:accumulate"
             d="M 34.5,130.04492 66.384766,142.625 209.98242,117.17578 157.32227,46.5 H 84 C 56.56873,46.5 34.5,68.56874 34.5,96 Z"
             id="path2003" />
          <path
             inkscape:connector-curvature="0"
             style="color:#bebebe;display:inline;overflow:visible;visibility:visible;fill:#f57c00;fill-opacity:1;fill-rule:nonzero;stroke:none;stroke-width:2;marker:none;enable-background:accumulate"
             d="M 34.683594,206.30859 65.5,234.5 125.01562,147.90625 78.875,127.03711 66.384766,129.25 34.5,116.66992 V 202.625 c 0,1.24411 0.09436,2.46311 0.183594,3.68359 z"
             id="path2005" />
        </g>
        <g
           transform="matrix(0.933829,0,0,0.933829,12.668624,12.528847)"
           id="g2013">
          <path
             style="fill:#000001;stroke-width:6.7249999"
             inkscape:connector-curvature="0"
             d="M 56.575,69.575 H 224.7 V 237.7 H 56.575 Z"
             id="path2009" />
          <path
             style="fill:#ffffff;stroke-width:6.7249999"
             inkscape:connector-curvature="0"
             d="m 76.75,207.4375 h 60.525 V 217.525 H 76.75 Z M 120.4625,102.35937 V 89.75 h -33.625 v 12.60937 H 96.925 v 43.7125 H 86.8375 v 12.60938 h 33.625 v -12.60938 h -9.01823 v -43.7125 z m 32.78437,58.00313 c -12.60937,0 -19.30747,-7.38405 -21.85625,-10.4103 l 9.48898,-10.79363 c 1.71487,1.89645 6.4829,6.9133 12.36727,6.9133 7.56563,0 9.24688,-7.56562 9.24688,-11.76875 V 89.75 H 177.625 v 44.55312 c 0,4.1964 0,10.92813 -5.04375,17.65313 -3.53063,4.7075 -11.76875,8.40625 -19.33438,8.40625 z"
             id="path2011" />
        </g>
      </g>
      <g
         id="g2035"
         transform="matrix(0.07289294,0,0,0.07077626,413.48519,136.9589)">
        <g
           id="g2027">
          <path
             id="path2017"
             d="M 253.5,95.570312 192.91406,151.43359 103.01172,261.06055 108.17773,265 H 204 c 27.43127,0 49.5,-22.06873 49.5,-49.5 z"
             style="color:#bebebe;display:inline;overflow:visible;visibility:visible;fill:#1e88e5;fill-opacity:1;fill-rule:nonzero;stroke:none;stroke-width:2;marker:none;enable-background:accumulate"
             inkscape:connector-curvature="0" />
          <path
             id="path2019"
             d="M 142.00586,265.5 125.16016,160.71094 38.044922,136.39453 34.5,135.44727 V 216 c 0,27.43127 22.06874,49.5 49.5,49.5 z"
             style="color:#bebebe;display:inline;overflow:visible;visibility:visible;fill:#ab47bc;fill-opacity:1;fill-rule:nonzero;stroke:none;stroke-width:2;marker:none;enable-background:accumulate"
             inkscape:connector-curvature="0" />
          <path
             id="path2021"
             d="M 156.01367,46.5 153.78906,49.638672 190.83008,191.08008 254,103.47266 V 96 C 254,68.568732 231.93127,46.5 204.5,46.5 Z"
             style="color:#bebebe;display:inline;overflow:visible;visibility:visible;fill:#2962ff;fill-opacity:1;fill-rule:nonzero;stroke:none;stroke-width:2;marker:none;enable-background:accumulate"
             inkscape:connector-curvature="0" />
          <path
             id="path2023"
             d="M 34.5,130.04492 66.384766,142.625 209.98242,117.17578 157.32227,46.5 H 84 C 56.56873,46.5 34.5,68.56874 34.5,96 Z"
             style="color:#bebebe;display:inline;overflow:visible;visibility:visible;opacity:1;fill:#e91e63;fill-opacity:1;fill-rule:nonzero;stroke:none;stroke-width:2;marker:none;enable-background:accumulate"
             inkscape:connector-curvature="0" />
          <path
             id="path2025"
             d="M 34.683594,206.30859 65.5,234.5 125.01562,147.90625 78.875,127.03711 66.384766,129.25 34.5,116.66992 V 202.625 c 0,1.24411 0.09436,2.46311 0.183594,3.68359 z"
             style="color:#bebebe;display:inline;overflow:visible;visibility:visible;fill:#f57c00;fill-opacity:1;fill-rule:nonzero;stroke:none;stroke-width:2;marker:none;enable-background:accumulate"
             inkscape:connector-curvature="0" />
        </g>
        <g
           id="g2033"
           transform="matrix(0.933829,0,0,0.933829,12.668624,12.528847)">
          <path
             id="path2029"
             d="M 56.575,69.575 H 224.7 V 237.7 H 56.575 Z"
             inkscape:connector-curvature="0"
             style="fill:#000001;stroke-width:6.7249999" />
          <path
             id="path2031"
             d="m 76.75,207.4375 h 60.525 V 217.525 H 76.75 Z M 120.4625,102.35937 V 89.75 h -33.625 v 12.60937 H 96.925 v 43.7125 H 86.8375 v 12.60938 h 33.625 v -12.60938 h -9.01823 v -43.7125 z m 32.78437,58.00313 c -12.60937,0 -19.30747,-7.38405 -21.85625,-10.4103 l 9.48898,-10.79363 c 1.71487,1.89645 6.4829,6.9133 12.36727,6.9133 7.56563,0 9.24688,-7.56562 9.24688,-11.76875 V 89.75 H 177.625 v 44.55312 c 0,4.1964 0,10.92813 -5.04375,17.65313 -3.53063,4.7075 -11.76875,8.40625 -19.33438,8.40625 z"
             inkscape:connector-curvature="0"
             style="fill:#ffffff;stroke-width:6.7249999" />
        </g>
      </g>
    </g>
    <g
       inkscape:groupmode="layer"
       id="layer6"
       inkscape:label="Symbols"
       style="display:inline" />
    <g
       inkscape:groupmode="layer"
       id="layer5"
       inkscape:label="Highlights"
       style="display:inline"
       sodipodi:insensitive="true">
      <path
         style="opacity:0.13000004;color:#bebebe;fill:#ffffff;fill-opacity:1;fill-rule:nonzero;stroke:none;stroke-width:0;marker:none;visibility:visible;display:inline;overflow:visible;enable-background:accumulate"
         d="M 84,47 C 56.836703,47 35,68.836703 35,96 l 0,1 C 35,69.836703 56.836703,48 84,48 l 120,0 c 27.1633,0 49,21.836703 49,49 l 0,-1 C 253,68.836703 231.1633,47 204,47 L 84,47 z"
         id="rect3894"
         inkscape:connector-curvature="0" />
      <path
         style="opacity:0.13000004;color:#bebebe;fill:#ffffff;fill-opacity:1;fill-rule:nonzero;stroke:none;stroke-width:0;marker:none;visibility:visible;display:inline;overflow:visible;enable-background:accumulate"
         d="m 419,141 c -1.1253,0 -2,0.8747 -2,2 l 0,1 c 0,-1.1253 0.8747,-2 2,-2 l 10,0 c 1.1253,0 2,0.8747 2,2 l 0,-1 c 0,-1.1253 -0.8747,-2 -2,-2 l -10,0 z"
         id="rect3896"
         inkscape:connector-curvature="0" />
      <path
         style="opacity:0.13000004;color:#bebebe;fill:#ffffff;fill-opacity:1;fill-rule:nonzero;stroke:none;stroke-width:0;marker:none;visibility:visible;display:inline;overflow:visible;enable-background:accumulate"
         d="m 422,102 c -2.2333,0 -4,1.7667 -4,4 l 0,1 c 0,-2.2333 1.7667,-4 4,-4 l 12,0 c 2.2333,0 4,1.7667 4,4 l 0,-1 c 0,-2.2333 -1.7667,-4 -4,-4 l -12,0 z"
         id="rect3898"
         inkscape:connector-curvature="0" />
      <path
         style="opacity:0.13000004;color:#bebebe;fill:#ffffff;fill-opacity:1;fill-rule:nonzero;stroke:none;stroke-width:0;marker:none;visibility:visible;display:inline;overflow:visible;enable-background:accumulate"
         d="m 424,54 c -3.3413,0 -6,2.658703 -6,6 l 0,1 c 0,-3.341297 2.6587,-6 6,-6 l 16,0 c 3.3413,0 6,2.658703 6,6 l 0,-1 c 0,-3.341297 -2.6587,-6 -6,-6 l -16,0 z"
         id="rect3900"
         inkscape:connector-curvature="0" />
      <path
         style="opacity:0.13000004;color:#bebebe;fill:#ffffff;fill-opacity:1;fill-rule:nonzero;stroke:none;stroke-width:0;marker:none;visibility:visible;display:inline;overflow:visible;enable-background:accumulate"
         d="m 300,224 c -4.4493,0 -8,3.5507 -8,8 l 0,1 c 0,-4.4493 3.5507,-8 8,-8 l 24,0 c 4.4493,0 8,3.5507 8,8 l 0,-1 c 0,-4.4493 -3.5507,-8 -8,-8 l -24,0 z"
         id="rect3902"
         inkscape:connector-curvature="0" />
      <path
         style="opacity:0.13000004;color:#bebebe;fill:#ffffff;fill-opacity:1;fill-rule:nonzero;stroke:none;stroke-width:0;marker:none;visibility:visible;display:inline;overflow:visible;enable-background:accumulate"
         d="m 310,33 c -9.4353,0 -17,7.564703 -17,17 l 0,1 c 0,-9.435297 7.5647,-17 17,-17 l 52,0 c 9.4353,0 17,7.564703 17,17 l 0,-1 c 0,-9.435297 -7.5647,-17 -17,-17 l -52,0 z"
         id="rect3904"
         inkscape:connector-curvature="0" />
      <path
         style="opacity:0.13000004;color:#bebebe;fill:#ffffff;fill-opacity:1;fill-rule:nonzero;stroke:none;stroke-width:0;marker:none;visibility:visible;display:inline;overflow:visible;enable-background:accumulate"
         d="m 302.5,143 c -6.3883,0 -11.5,5.1117 -11.5,11.5 l 0,1 c 0,-6.3883 5.1117,-11.5 11.5,-11.5 l 35,0 c 6.3883,0 11.5,5.1117 11.5,11.5 l 0,-1 c 0,-6.3883 -5.1117,-11.5 -11.5,-11.5 l -35,0 z"
         id="rect3906"
         inkscape:connector-curvature="0" />
      <path
         id="path4085"
         d="m 204,266 c 27.1633,0 49,-21.8367 49,-49 l 0,-1 c 0,27.1633 -21.8367,49 -49,49 L 84,265 C 56.8367,265 35,243.1633 35,216 l 0,1 c 0,27.1633 21.8367,49 49,49 l 120,0 z"
         style="opacity:0.41;color:#bebebe;fill:#000000;fill-opacity:1;fill-rule:nonzero;stroke:none;stroke-width:0;marker:none;visibility:visible;display:inline;overflow:visible;enable-background:accumulate"
         inkscape:connector-curvature="0" />
      <path
         id="path4087"
         d="m 429,156 c 1.1253,0 2,-0.8747 2,-2 l 0,-1 c 0,1.1253 -0.8747,2 -2,2 l -10,0 c -1.1253,0 -2,-0.8747 -2,-2 l 0,1 c 0,1.1253 0.8747,2 2,2 l 10,0 z"
         style="opacity:0.3;color:#bebebe;fill:#000000;fill-opacity:1;fill-rule:nonzero;stroke:none;stroke-width:0;marker:none;visibility:visible;display:inline;overflow:visible;enable-background:accumulate"
         inkscape:connector-curvature="0" />
      <path
         id="path4089"
         d="m 434,123 c 2.2333,0 4,-1.7667 4,-4 l 0,-1 c 0,2.2333 -1.7667,4 -4,4 l -12,0 c -2.2333,0 -4,-1.7667 -4,-4 l 0,1 c 0,2.2333 1.7667,4 4,4 l 12,0 z"
         style="opacity:0.3;color:#bebebe;fill:#000000;fill-opacity:1;fill-rule:nonzero;stroke:none;stroke-width:0;marker:none;visibility:visible;display:inline;overflow:visible;enable-background:accumulate"
         inkscape:connector-curvature="0" />
      <path
         id="path4091"
         d="m 440,83 c 3.3413,0 6,-2.6587 6,-6 l 0,-1 c 0,3.3413 -2.6587,6 -6,6 l -16,0 c -3.3413,0 -6,-2.6587 -6,-6 l 0,1 c 0,3.3413 2.6587,6 6,6 l 16,0 z"
         style="opacity:0.41;color:#bebebe;fill:#000000;fill-opacity:1;fill-rule:nonzero;stroke:none;stroke-width:0;marker:none;visibility:visible;display:inline;overflow:visible;enable-background:accumulate"
         inkscape:connector-curvature="0" />
      <path
         id="path4093"
         d="m 324,265 c 4.4493,0 8,-3.5507 8,-8 l 0,-1 c 0,4.4493 -3.5507,8 -8,8 l -24,0 c -4.4493,0 -8,-3.5507 -8,-8 l 0,1 c 0,4.4493 3.5507,8 8,8 l 24,0 z"
         style="opacity:0.41;color:#bebebe;fill:#000000;fill-opacity:1;fill-rule:nonzero;stroke:none;stroke-width:0;marker:none;visibility:visible;display:inline;overflow:visible;enable-background:accumulate"
         inkscape:connector-curvature="0" />
      <path
         id="path4095"
         d="m 362,120 c 9.4353,0 17,-7.5647 17,-17 l 0,-1 c 0,9.4353 -7.5647,17 -17,17 l -52,0 c -9.4353,0 -17,-7.5647 -17,-17 l 0,1 c 0,9.4353 7.5647,17 17,17 l 52,0 z"
         style="opacity:0.41;color:#bebebe;fill:#000000;fill-opacity:1;fill-rule:nonzero;stroke:none;stroke-width:0;marker:none;visibility:visible;display:inline;overflow:visible;enable-background:accumulate"
         inkscape:connector-curvature="0" />
      <path
         id="path4097"
         d="m 337.5,202 c 6.3883,0 11.5,-5.1117 11.5,-11.5 l 0,-1 c 0,6.3883 -5.1117,11.5 -11.5,11.5 l -35,0 c -6.3883,0 -11.5,-5.1117 -11.5,-11.5 l 0,1 c 0,6.3883 5.1117,11.5 11.5,11.5 l 35,0 z"
         style="opacity:0.41;color:#bebebe;fill:#000000;fill-opacity:1;fill-rule:nonzero;stroke:none;stroke-width:0;marker:none;visibility:visible;display:inline;overflow:visible;enable-background:accumulate"
         inkscape:connector-curvature="0" />
      <path
         inkscape:connector-curvature="0"
         id="path4280"
         d="M 84,265 C 56.836703,265 35,243.1633 35,216 l 0,-1 c 0,27.1633 21.836703,49 49,49 l 120,0 c 27.1633,0 49,-21.8367 49,-49 l 0,1 c 0,27.1633 -21.8367,49 -49,49 l -120,0 z"
         style="opacity:0.1;color:#bebebe;fill:#ffffff;fill-opacity:1;fill-rule:nonzero;stroke:none;stroke-width:0;marker:none;visibility:visible;display:inline;overflow:visible;enable-background:accumulate" />
      <path
         style="opacity:0.1;color:#bebebe;fill:#ffffff;fill-opacity:1;fill-rule:nonzero;stroke:none;stroke-width:0;marker:none;visibility:visible;display:inline;overflow:visible;enable-background:accumulate"
         d="m 300,264 c -4.4493,0 -8,-3.5507 -8,-8 l 0,-1 c 0,4.4493 3.5507,8 8,8 l 24,0 c 4.4493,0 8,-3.5507 8,-8 l 0,1 c 0,4.4493 -3.5507,8 -8,8 l -24,0 z"
         id="path4294"
         inkscape:connector-curvature="0" />
      <path
         style="opacity:0.1;color:#bebebe;fill:#ffffff;fill-opacity:1;fill-rule:nonzero;stroke:none;stroke-width:0;marker:none;visibility:visible;display:inline;overflow:visible;enable-background:accumulate"
         d="m 302.5,201 c -6.3883,0 -11.5,-5.1117 -11.5,-11.5 l 0,-1 c 0,6.3883 5.1117,11.5 11.5,11.5 l 35,0 c 6.3883,0 11.5,-5.1117 11.5,-11.5 l 0,1 c 0,6.3883 -5.1117,11.5 -11.5,11.5 l -35,0 z"
         id="path4296"
         inkscape:connector-curvature="0" />
      <path
         style="opacity:0.1;color:#bebebe;fill:#ffffff;fill-opacity:1;fill-rule:nonzero;stroke:none;stroke-width:0;marker:none;visibility:visible;display:inline;overflow:visible;enable-background:accumulate"
         d="m 310,119 c -9.4353,0 -17,-7.5647 -17,-17 l 0,-1 c 0,9.4353 7.5647,17 17,17 l 52,0 c 9.4353,0 17,-7.5647 17,-17 l 0,1 c 0,9.4353 -7.5647,17 -17,17 l -52,0 z"
         id="path4298"
         inkscape:connector-curvature="0" />
      <path
         style="opacity:0.1;color:#bebebe;fill:#ffffff;fill-opacity:1;fill-rule:nonzero;stroke:none;stroke-width:0;marker:none;visibility:visible;display:inline;overflow:visible;enable-background:accumulate"
         d="m 424,82 c -3.3413,0 -6,-2.658703 -6,-6 l 0,-1 c 0,3.341297 2.6587,6 6,6 l 16,0 c 3.3413,0 6,-2.658703 6,-6 l 0,1 c 0,3.341297 -2.6587,6 -6,6 l -16,0 z"
         id="path4300"
         inkscape:connector-curvature="0" />
      <path
         style="opacity:0.1;color:#bebebe;fill:#ffffff;fill-opacity:1;fill-rule:nonzero;stroke:none;stroke-width:0;marker:none;visibility:visible;display:inline;overflow:visible;enable-background:accumulate"
         d="m 422,122 c -2.2333,0 -4,-1.7667 -4,-4 l 0,-1 c 0,2.2333 1.7667,4 4,4 l 12,0 c 2.2333,0 4,-1.7667 4,-4 l 0,1 c 0,2.2333 -1.7667,4 -4,4 l -12,0 z"
         id="path4302"
         inkscape:connector-curvature="0" />
      <path
         style="opacity:0.1;color:#bebebe;fill:#ffffff;fill-opacity:1;fill-rule:nonzero;stroke:none;stroke-width:0;marker:none;visibility:visible;display:inline;overflow:visible;enable-background:accumulate"
         d="m 419,154.5 c -1.1253,0 -2,-0.8747 -2,-2 l 0,-1 c 0,1.1253 0.8747,2 2,2 l 10,0 c 1.1253,0 2,-0.8747 2,-2 l 0,1 c 0,1.1253 -0.8747,2 -2,2 l -10,0 z"
         id="path4304"
         inkscape:connector-curvature="0" />
    </g>
    <g
       inkscape:groupmode="layer"
       id="layer3"
       inkscape:label="Border"
       style="display:inline">
      <path
         style="color:#bebebe;display:inline;overflow:visible;visibility:visible;opacity:0.41000001;fill:#000000;fill-opacity:1;fill-rule:nonzero;stroke:none;stroke-width:0;marker:none;enable-background:accumulate"
         d="m 422,101 c -2.77,0 -5,2.23 -5,5 v 12 c 0,2.77 2.23,5 5,5 h 12 c 2.77,0 5,-2.23 5,-5 v -12 c 0,-2.77 -2.23,-5 -5,-5 z m 0,1 h 12 c 2.2333,0 4,1.7667 4,4 v 12 c 0,2.2333 -1.7667,4 -4,4 h -12 c -2.2333,0 -4,-1.7667 -4,-4 v -12 c 0,-2.2333 1.7667,-4 4,-4 z"
         id="rect4099"
         inkscape:connector-curvature="0" />
      <path
         style="color:#bebebe;display:inline;overflow:visible;visibility:visible;opacity:0.41000001;fill:#000000;fill-opacity:1;fill-rule:nonzero;stroke:none;stroke-width:0;marker:none;enable-background:accumulate"
         d="m 424,53 c -3.878,0 -7,3.122 -7,7 v 16 c 0,3.878 3.122,7 7,7 h 16 c 3.878,0 7,-3.122 7,-7 V 60 c 0,-3.878 -3.122,-7 -7,-7 z m 0,1 h 16 c 3.3413,0 6,2.658703 6,6 v 16 c 0,3.341297 -2.6587,6 -6,6 h -16 c -3.3413,0 -6,-2.658703 -6,-6 V 60 c 0,-3.341297 2.6587,-6 6,-6 z"
         id="rect4151"
         inkscape:connector-curvature="0" />
      <path
         style="color:#bebebe;display:inline;overflow:visible;visibility:visible;opacity:0.41000001;fill:#000000;fill-opacity:1;fill-rule:nonzero;stroke:none;stroke-width:0;marker:none;enable-background:accumulate"
         d="m 302.5,142 c -6.925,0 -12.5,5.575 -12.5,12.5 v 35 c 0,6.925 5.575,12.5 12.5,12.5 h 35 c 6.925,0 12.5,-5.575 12.5,-12.5 v -35 c 0,-6.925 -5.575,-12.5 -12.5,-12.5 z m 0,1 h 35 c 6.3883,0 11.5,5.1117 11.5,11.5 v 35 c 0,6.3883 -5.1117,11.5 -11.5,11.5 h -35 c -6.3883,0 -11.5,-5.1117 -11.5,-11.5 v -35 c 0,-6.3883 5.1117,-11.5 11.5,-11.5 z"
         id="rect4515"
         inkscape:connector-curvature="0" />
      <path
         style="color:#bebebe;display:inline;overflow:visible;visibility:visible;opacity:0.41000001;fill:#000000;fill-opacity:1;fill-rule:nonzero;stroke:none;stroke-width:0;marker:none;enable-background:accumulate"
         d="m 310,32 c -9.972,0 -18,8.028 -18,18 v 52 c 0,9.972 8.028,18 18,18 h 52 c 9.972,0 18,-8.028 18,-18 V 50 c 0,-9.972 -8.028,-18 -18,-18 z m 0,1 h 52 c 9.4353,0 17,7.564703 17,17 v 52 c 0,9.4353 -7.5647,17 -17,17 h -52 c -9.4353,0 -17,-7.5647 -17,-17 V 50 c 0,-9.435297 7.5647,-17 17,-17 z"
         id="rect4511"
         inkscape:connector-curvature="0" />
      <path
         style="color:#bebebe;display:inline;overflow:visible;visibility:visible;opacity:0.41000001;fill:#000000;fill-opacity:1;fill-rule:nonzero;stroke:none;stroke-width:0;marker:none;enable-background:accumulate"
         d="M 84,46 C 56.3,46 34,68.3 34,96 v 120 c 0,27.7 22.3,50 50,50 h 120 c 27.7,0 50,-22.3 50,-50 V 96 C 254,68.3 231.7,46 204,46 Z m 0,1 h 120 c 27.1633,0 49,21.836703 49,49 v 120 c 0,27.1633 -21.8367,49 -49,49 H 84 C 56.836703,265 35,243.1633 35,216 V 96 C 35,68.836703 56.836703,47 84,47 Z"
         id="rect4040"
         inkscape:connector-curvature="0" />
      <path
         inkscape:connector-curvature="0"
         id="path1955"
         d="m 302.5,142 c -6.925,0 -12.5,5.575 -12.5,12.5 v 35 c 0,6.925 5.575,12.5 12.5,12.5 h 35 c 6.925,0 12.5,-5.575 12.5,-12.5 v -35 c 0,-6.925 -5.575,-12.5 -12.5,-12.5 z m 0,1 h 35 c 6.3883,0 11.5,5.1117 11.5,11.5 v 35 c 0,6.3883 -5.1117,11.5 -11.5,11.5 h -35 c -6.3883,0 -11.5,-5.1117 -11.5,-11.5 v -35 c 0,-6.3883 5.1117,-11.5 11.5,-11.5 z"
         style="color:#bebebe;display:inline;overflow:visible;visibility:visible;opacity:0.41000001;fill:#000000;fill-opacity:1;fill-rule:nonzero;stroke:none;stroke-width:0;marker:none;enable-background:accumulate" />
      <path
         style="color:#bebebe;display:inline;overflow:visible;visibility:visible;opacity:0.41000001;fill:#000000;fill-opacity:1;fill-rule:nonzero;stroke:none;stroke-width:0;marker:none;enable-background:accumulate"
         d="m 300,223 c -4.986,0 -9,4.014 -9,9 v 24 c 0,4.986 4.014,9 9,9 h 24 c 4.986,0 9,-4.014 9,-9 v -24 c 0,-4.986 -4.014,-9 -9,-9 z m 0,1 h 24 c 4.4493,0 8,3.5507 8,8 v 24 c 0,4.4493 -3.5507,8 -8,8 h -24 c -4.4493,0 -8,-3.5507 -8,-8 v -24 c 0,-4.4493 3.5507,-8 8,-8 z"
         id="rect4783"
         inkscape:connector-curvature="0" />
      <path
         style="color:#bebebe;display:inline;overflow:visible;visibility:visible;opacity:0.41000001;fill:#000000;fill-opacity:1;fill-rule:nonzero;stroke:none;stroke-width:0;marker:none;enable-background:accumulate"
         d="m 419,140 c -1.662,0 -3,1.338 -3,3 v 10 c 0,1.662 1.338,3 3,3 h 10 c 1.662,0 3,-1.338 3,-3 v -10 c 0,-1.662 -1.338,-3 -3,-3 z m 0,1 h 10 c 1.1253,0 2,0.8747 2,2 v 10 c 0,1.1253 -0.8747,2 -2,2 h -10 c -1.1253,0 -2,-0.8747 -2,-2 v -10 c 0,-1.1253 0.8747,-2 2,-2 z"
         id="rect4095"
         inkscape:connector-curvature="0" />
    </g>
  </g>
</svg>
