<?xml version="1.0" encoding="UTF-8" standalone="no"?>
<!-- Created with Inkscape (http://www.inkscape.org/) -->

<svg
   xmlns:dc="http://purl.org/dc/elements/1.1/"
   xmlns:cc="http://creativecommons.org/ns#"
   xmlns:rdf="http://www.w3.org/1999/02/22-rdf-syntax-ns#"
   xmlns:svg="http://www.w3.org/2000/svg"
   xmlns="http://www.w3.org/2000/svg"
   xmlns:sodipodi="http://sodipodi.sourceforge.net/DTD/sodipodi-0.dtd"
   xmlns:inkscape="http://www.inkscape.org/namespaces/inkscape"
   inkscape:export-ydpi="90.000000"
   inkscape:export-xdpi="90.000000"
   width="480"
   height="300"
   id="svg11300"
   sodipodi:version="0.32"
   inkscape:version="0.92.5 (2060ec1f9f, 2020-04-08)"
   sodipodi:docname="openvpn_assets.svg"
   inkscape:output_extension="org.inkscape.output.svg.inkscape"
   version="1.0"
   style="display:inline;enable-background:new"
   inkscape:export-filename="/home/sam/moka-next-template.png">
  <sodipodi:namedview
     stroke="#ef2929"
     fill="#f57900"
     id="base"
     pagecolor="#777777"
     bordercolor="#666666"
     borderopacity="0.25490196"
     inkscape:pageopacity="0"
     inkscape:pageshadow="2"
     inkscape:zoom="22.627417"
     inkscape:cx="429.74864"
     inkscape:cy="154.41455"
     inkscape:current-layer="layer1"
     showgrid="false"
     inkscape:grid-bbox="true"
     inkscape:document-units="px"
     inkscape:showpageshadow="false"
     inkscape:window-width="1366"
     inkscape:window-height="741"
     inkscape:window-x="0"
     inkscape:window-y="0"
     width="400px"
     height="300px"
     inkscape:snap-nodes="false"
     inkscape:snap-bbox="true"
     gridtolerance="10000"
     inkscape:object-nodes="true"
     inkscape:snap-grids="true"
     showguides="true"
     inkscape:guide-bbox="true"
     inkscape:window-maximized="1"
     inkscape:bbox-nodes="true"
     inkscape:bbox-paths="true"
     inkscape:snap-bbox-edge-midpoints="true"
     inkscape:snap-bbox-midpoints="true"
     inkscape:snap-global="true">
    <inkscape:grid
       spacingy="1"
       spacingx="1"
       id="grid5883"
       type="xygrid"
       enabled="true"
       visible="true"
       empspacing="4"
       snapvisiblegridlinesonly="true"
       dotted="false"
       color="#000000"
       opacity="0.1254902"
       empcolor="#203ef3"
       empopacity="0.36470588"
       originx="0"
       originy="0" />
    <inkscape:grid
       type="xygrid"
       id="grid11592"
       empspacing="8"
       visible="true"
       enabled="false"
       spacingx="0.5"
       spacingy="0.5"
       color="#ff0000"
       opacity="0.1254902"
       empcolor="#ff0000"
       empopacity="0.25098039"
       snapvisiblegridlinesonly="true"
       dotted="true"
       originx="0"
       originy="0" />
  </sodipodi:namedview>
  <defs
     id="defs3">
    <linearGradient
       id="outerBackgroundGradient-1">
      <stop
         style="stop-color:#ea6218;stop-opacity:1"
         offset="0"
         id="stop3864-8-6-9" />
      <stop
         style="stop-color:#ea8718;stop-opacity:1"
         offset="1"
         id="stop3866-9-1-9" />
    </linearGradient>
  </defs>
  <metadata
     id="metadata4">
    <rdf:RDF>
      <cc:Work
         rdf:about="">
        <dc:format>image/svg+xml</dc:format>
        <dc:type
           rdf:resource="http://purl.org/dc/dcmitype/StillImage" />
        <dc:creator>
          <cc:Agent>
            <dc:title>Sam Hewitt</dc:title>
          </cc:Agent>
        </dc:creator>
        <dc:source />
        <cc:license
           rdf:resource="" />
        <dc:title />
        <dc:subject>
          <rdf:Bag />
        </dc:subject>
        <dc:date />
        <dc:rights>
          <cc:Agent>
            <dc:title />
          </cc:Agent>
        </dc:rights>
        <dc:publisher>
          <cc:Agent>
            <dc:title />
          </cc:Agent>
        </dc:publisher>
        <dc:identifier />
        <dc:relation />
        <dc:language />
        <dc:coverage />
        <dc:description />
        <dc:contributor>
          <cc:Agent>
            <dc:title />
          </cc:Agent>
        </dc:contributor>
      </cc:Work>
      <cc:Work
         rdf:about="">
        <dc:format>image/svg+xml</dc:format>
        <dc:type
           rdf:resource="http://purl.org/dc/dcmitype/StillImage" />
      </cc:Work>
    </rdf:RDF>
  </metadata>
  <g
     style="display:inline"
     inkscape:groupmode="layer"
     inkscape:label="Icon"
     id="layer1">
    <g
       style="display:none"
       inkscape:label="Baseplate"
       id="layer7"
       inkscape:groupmode="layer">
      <text
         y="19.745117"
         xml:space="preserve"
         x="15.006836"
         style="font-style:normal;font-variant:normal;font-weight:normal;font-stretch:normal;line-height:0%;font-family:'DejaVu Sans';-inkscape-font-specification:'DejaVu Sans';display:inline;fill:#000000;fill-opacity:1;stroke:none;enable-background:new"
         inkscape:label="context"
         id="context"><tspan
           style="font-style:normal;font-variant:normal;font-weight:normal;font-stretch:normal;font-size:18px;line-height:1.25;font-family:'DejaVu Sans';-inkscape-font-specification:'DejaVu Sans'"
           y="19.745117"
           x="15.006836"
           sodipodi:role="line"
           id="tspan3933">apps</tspan></text>
      <text
         y="19.745117"
         xml:space="preserve"
         x="122.48828"
         style="font-style:normal;font-variant:normal;font-weight:bold;font-stretch:normal;line-height:0%;font-family:'DejaVu Sans';-inkscape-font-specification:'DejaVu Sans Bold';text-align:start;writing-mode:lr-tb;text-anchor:start;display:inline;fill:#000000;fill-opacity:1;stroke:none;enable-background:new"
         inkscape:label="icon-name"
         id="icon-name"><tspan
           style="font-style:normal;font-variant:normal;font-weight:bold;font-stretch:normal;font-size:18px;line-height:1.25;font-family:'DejaVu Sans';-inkscape-font-specification:'DejaVu Sans Bold'"
           y="19.745117"
           x="122.48828"
           sodipodi:role="line"
           id="tspan3937">vlc</tspan></text>
      <rect
         style="fill:#eeeeec;fill-opacity:1;fill-rule:nonzero;stroke:none;stroke-width:2;marker:none;visibility:visible;display:inline;overflow:visible;enable-background:accumulate"
         id="rect16x16"
         width="16"
         height="16"
         x="416"
         y="140"
         inkscape:label="16x16" />
      <rect
         style="fill:#d4d4d4;fill-opacity:1;fill-rule:nonzero;stroke:none;stroke-width:2;marker:none;visibility:visible;display:inline;overflow:visible;enable-background:accumulate"
         id="rect24x24"
         width="24"
         height="24"
         x="416"
         y="100"
         inkscape:label="24x24" />
      <rect
         style="fill:#eeeeec;fill-opacity:1;fill-rule:nonzero;stroke:none;stroke-width:2;marker:none;visibility:visible;display:inline;overflow:visible;enable-background:accumulate"
         id="rect32x32"
         width="32"
         height="32"
         x="416"
         y="52"
         inkscape:label="32x32" />
      <rect
         inkscape:label="22x22"
         y="101"
         x="417"
         height="22"
         width="22"
         id="rect22x22"
         style="fill:#eeeeec;fill-opacity:1;fill-rule:nonzero;stroke:none;stroke-width:2;marker:none;visibility:visible;display:inline;overflow:visible;enable-background:accumulate" />
      <rect
         inkscape:label="48x48"
         y="220"
         x="288"
         height="48"
         width="48"
         id="rect48x48"
         style="fill:#eeeeec;fill-opacity:1;fill-rule:nonzero;stroke:none;stroke-width:2;marker:none;visibility:visible;display:inline;overflow:visible;enable-background:accumulate" />
      <rect
         style="fill:#eeeeec;fill-opacity:1;fill-rule:nonzero;stroke:none;stroke-width:2;marker:none;visibility:visible;display:inline;overflow:visible;enable-background:accumulate"
         id="rect256x256"
         width="256"
         height="256"
         x="16"
         y="28"
         inkscape:label="256x256" />
      <rect
         style="fill:#eeeeec;fill-opacity:1;fill-rule:nonzero;stroke:none;stroke-width:2;marker:none;visibility:visible;display:inline;overflow:visible;enable-background:accumulate"
         id="rect64x64"
         width="64"
         height="64"
         x="288"
         y="140"
         inkscape:label="64x64" />
      <rect
         style="fill:#eeeeec;fill-opacity:1;fill-rule:nonzero;stroke:none;stroke-width:2;marker:none;visibility:visible;display:inline;overflow:visible;enable-background:accumulate"
         id="rect96x96"
         width="96"
         height="96"
         x="288"
         y="28"
         inkscape:label="96x96" />
    </g>
    <g
       inkscape:groupmode="layer"
       id="layer4"
       inkscape:label="Shadow"
       style="display:inline"
       sodipodi:insensitive="true">
      <rect
         ry="50"
         y="47"
         x="34"
         height="220"
         width="220"
         id="rect4114"
         style="opacity:0.15;color:#bebebe;fill:#000000;fill-opacity:1;fill-rule:nonzero;stroke:none;stroke-width:0;marker:none;visibility:visible;display:inline;overflow:visible;enable-background:accumulate" />
      <rect
         style="opacity:0.15;color:#bebebe;fill:#000000;fill-opacity:1;fill-rule:nonzero;stroke:none;stroke-width:0;marker:none;visibility:visible;display:inline;overflow:visible;enable-background:accumulate"
         id="rect4120"
         width="30"
         height="30"
         x="417"
         y="54"
         ry="7" />
      <rect
         transform="scale(1,-1)"
         ry="9"
         y="-266"
         x="291"
         height="42"
         width="42"
         id="rect4122"
         style="opacity:0.15;color:#bebebe;fill:#000000;fill-opacity:1;fill-rule:nonzero;stroke:none;stroke-width:0;marker:none;visibility:visible;display:inline;overflow:visible;enable-background:accumulate" />
      <rect
         style="opacity:0.15;color:#bebebe;fill:#000000;fill-opacity:1;fill-rule:nonzero;stroke:none;stroke-width:0;marker:none;visibility:visible;display:inline;overflow:visible;enable-background:accumulate"
         id="rect4124"
         width="88"
         height="88"
         x="292"
         y="33"
         ry="18" />
      <rect
         ry="12.5"
         y="143"
         x="290"
         height="60"
         width="60"
         id="rect4126"
         style="opacity:0.15;color:#bebebe;fill:#000000;fill-opacity:1;fill-rule:nonzero;stroke:none;stroke-width:0;marker:none;visibility:visible;display:inline;overflow:visible;enable-background:accumulate" />
      <path
         id="path4268"
         d="m 422,101 c -2.77,0 -5,2.23 -5,5 l 0,12 c 0,2.77 2.23,5 5,5 l 12,0 c 2.77,0 5,-2.23 5,-5 l 0,-12 c 0,-2.77 -2.23,-5 -5,-5 z"
         style="opacity:0.15;color:#bebebe;fill:#000000;fill-opacity:1;fill-rule:nonzero;stroke:none;stroke-width:0;marker:none;visibility:visible;display:inline;overflow:visible;enable-background:accumulate"
         inkscape:connector-curvature="0"
         sodipodi:nodetypes="sssssssss" />
      <path
         id="path4270"
         d="m 419,140 c -1.662,0 -3,1.338 -3,3 l 0,10 c 0,1.662 1.338,3 3,3 l 10,0 c 1.662,0 3,-1.338 3,-3 l 0,-10 c 0,-1.662 -1.338,-3 -3,-3 z"
         style="opacity:0.15;color:#bebebe;fill:#000000;fill-opacity:1;fill-rule:nonzero;stroke:none;stroke-width:0;marker:none;visibility:visible;display:inline;overflow:visible;enable-background:accumulate"
         inkscape:connector-curvature="0"
         sodipodi:nodetypes="sssssssss" />
    </g>
    <g
       inkscape:groupmode="layer"
       id="layer2"
       inkscape:label="Background"
       style="display:inline" />
    <g
       inkscape:groupmode="layer"
       id="layer6"
       inkscape:label="Symbols"
       style="display:inline">
      <g
         id="g4628"
         transform="matrix(1,0,0,1.0017123,0.5,0.23287754)">
        <g
           id="g75">
          <g
             id="g4600">
            <path
               inkscape:connector-curvature="0"
               style="color:#bebebe;display:inline;overflow:visible;visibility:visible;fill:#ffffff;fill-opacity:1;fill-rule:nonzero;stroke:none;stroke-width:1.99828982;marker:none;enable-background:accumulate"
               d="M 83.5,46.68718 C 56.068735,46.68718 34,68.718188 34,96.102565 V 215.89744 c 0,27.38438 22.068735,49.41538 49.5,49.41538 h 120 c 27.43127,0 49.5,-22.031 49.5,-49.41538 V 96.102565 C 253,68.718188 230.93127,46.68718 203.5,46.68718 Z"
               id="path4580" />
            <path
               inkscape:connector-curvature="0"
               id="path4"
               d="M 143.99609,118.5 C 116.06269,118.5 94,140.91108 94,168.74414 c 0,10.282 3.122147,20.31075 8.93555,28.66797 a 47.746195,48.290046 0 0 0 23.48437,17.91211 l -9.52148,49.98828 h 53.86133 l -9.18946,-49.98828 c 18.95881,-7.46365 32.41992,-24.89892 32.41992,-46.58984 l 0.01,0.01 C 194,140.99833 171.91983,118.5 143.99609,118.5 Z"
               style="fill:#1a3967;stroke-width:9.66340351" />
          </g>
          <path
             id="path4622"
             d="M 83.5,46.68718 C 56.068735,46.68718 34,68.718819 34,96.103196 V 215.89812 c 0,22.01836 14.272549,40.5649 34.123047,46.99218 L 72,236.3532 A 93.488867,95.387829 0 0 1 47.488281,172.59343 c 0,-52.84588 42.722537,-95.830078 95.228519,-95.830078 52.49612,0 95.23633,42.983788 95.23632,95.839848 a 93.947005,95.855914 0 0 1 -24.41601,64.51953 l 3.86328,26.21679 C 238.01574,257.37128 253,238.45846 253,215.89812 V 96.103196 C 253,68.718819 230.93127,46.68718 203.5,46.68718 Z"
             style="color:#bebebe;display:inline;overflow:visible;visibility:visible;fill:#ea6218;fill-opacity:1;fill-rule:nonzero;stroke:none;stroke-width:1.99828982;marker:none;enable-background:accumulate"
             inkscape:connector-curvature="0" />
        </g>
      </g>
      <g
         transform="matrix(0.40182648,0,0,0.40251454,278.3379,13.207732)"
         id="g78">
        <g
           id="g76">
          <g
             id="g71">
            <path
               id="path67"
               d="M 83.5,46.68718 C 56.068735,46.68718 34,68.718188 34,96.102565 V 215.89744 c 0,27.38438 22.068735,49.41538 49.5,49.41538 h 120 c 27.43127,0 49.5,-22.031 49.5,-49.41538 V 96.102565 C 253,68.718188 230.93127,46.68718 203.5,46.68718 Z"
               style="color:#bebebe;display:inline;overflow:visible;visibility:visible;fill:#ffffff;fill-opacity:1;fill-rule:nonzero;stroke:none;stroke-width:1.99828982;marker:none;enable-background:accumulate"
               inkscape:connector-curvature="0" />
            <path
               style="fill:#1a3967;stroke-width:9.66340351"
               d="M 143.99609,118.5 C 116.06269,118.5 94,140.91108 94,168.74414 c 0,10.282 3.122147,20.31075 8.93555,28.66797 a 47.746195,48.290046 0 0 0 23.48437,17.91211 l -9.52148,49.98828 h 53.86133 l -9.18946,-49.98828 c 18.95881,-7.46365 32.41992,-24.89892 32.41992,-46.58984 l 0.01,0.01 C 194,140.99833 171.91983,118.5 143.99609,118.5 Z"
               id="path69"
               inkscape:connector-curvature="0" />
          </g>
          <path
             inkscape:connector-curvature="0"
             style="color:#bebebe;display:inline;overflow:visible;visibility:visible;fill:#ea6218;fill-opacity:1;fill-rule:nonzero;stroke:none;stroke-width:1.99828982;marker:none;enable-background:accumulate"
             d="M 83.5,46.68718 C 56.068735,46.68718 34,68.718819 34,96.103196 V 215.89812 c 0,22.01836 14.272549,40.5649 34.123047,46.99218 L 72,236.3532 A 93.488867,95.387829 0 0 1 47.488281,172.59343 c 0,-52.84588 42.722537,-95.830078 95.228519,-95.830078 52.49612,0 95.23633,42.983788 95.23632,95.839848 a 93.947005,95.855914 0 0 1 -24.41601,64.51953 l 3.86328,26.21679 C 238.01574,257.37128 253,238.45846 253,215.89812 V 96.103196 C 253,68.718819 230.93127,46.68718 203.5,46.68718 Z"
             id="path73" />
        </g>
      </g>
      <g
         id="g90"
         transform="matrix(0.2739726,0,0,0.27444174,280.68493,129.18709)">
        <g
           id="g88">
          <g
             id="g84">
            <path
               inkscape:connector-curvature="0"
               style="color:#bebebe;display:inline;overflow:visible;visibility:visible;fill:#ffffff;fill-opacity:1;fill-rule:nonzero;stroke:none;stroke-width:1.99828982;marker:none;enable-background:accumulate"
               d="M 83.5,46.68718 C 56.068735,46.68718 34,68.718188 34,96.102565 V 215.89744 c 0,27.38438 22.068735,49.41538 49.5,49.41538 h 120 c 27.43127,0 49.5,-22.031 49.5,-49.41538 V 96.102565 C 253,68.718188 230.93127,46.68718 203.5,46.68718 Z"
               id="path80" />
            <path
               inkscape:connector-curvature="0"
               id="path82"
               d="M 143.99609,118.5 C 116.06269,118.5 94,140.91108 94,168.74414 c 0,10.282 3.122147,20.31075 8.93555,28.66797 a 47.746195,48.290046 0 0 0 23.48437,17.91211 l -9.52148,49.98828 h 53.86133 l -9.18946,-49.98828 c 18.95881,-7.46365 32.41992,-24.89892 32.41992,-46.58984 l 0.01,0.01 C 194,140.99833 171.91983,118.5 143.99609,118.5 Z"
               style="fill:#1a3967;stroke-width:9.66340351" />
          </g>
          <path
             id="path86"
             d="M 83.5,46.68718 C 56.068735,46.68718 34,68.718819 34,96.103196 V 215.89812 c 0,22.01836 14.272549,40.5649 34.123047,46.99218 L 72,236.3532 A 93.488867,95.387829 0 0 1 47.488281,172.59343 c 0,-52.84588 42.722537,-95.830078 95.228519,-95.830078 52.49612,0 95.23633,42.983788 95.23632,95.839848 a 93.947005,95.855914 0 0 1 -24.41601,64.51953 l 3.86328,26.21679 C 238.01574,257.37128 253,238.45846 253,215.89812 V 96.103196 C 253,68.718819 230.93127,46.68718 203.5,46.68718 Z"
             style="color:#bebebe;display:inline;overflow:visible;visibility:visible;fill:#ea6218;fill-opacity:1;fill-rule:nonzero;stroke:none;stroke-width:1.99828982;marker:none;enable-background:accumulate"
             inkscape:connector-curvature="0" />
        </g>
      </g>
      <g
         transform="matrix(0.19178082,0,0,0.19210921,284.47945,214.03096)"
         id="g102">
        <g
           id="g100">
          <g
             id="g96">
            <path
               id="path92"
               d="M 83.5,46.68718 C 56.068735,46.68718 34,68.718188 34,96.102565 V 215.89744 c 0,27.38438 22.068735,49.41538 49.5,49.41538 h 120 c 27.43127,0 49.5,-22.031 49.5,-49.41538 V 96.102565 C 253,68.718188 230.93127,46.68718 203.5,46.68718 Z"
               style="color:#bebebe;display:inline;overflow:visible;visibility:visible;fill:#ffffff;fill-opacity:1;fill-rule:nonzero;stroke:none;stroke-width:1.99828982;marker:none;enable-background:accumulate"
               inkscape:connector-curvature="0" />
            <path
               style="fill:#1a3967;stroke-width:9.66340351"
               d="M 143.99609,118.5 C 116.06269,118.5 94,140.91108 94,168.74414 c 0,10.282 3.122147,20.31075 8.93555,28.66797 a 47.746195,48.290046 0 0 0 23.48437,17.91211 l -9.52148,49.98828 h 53.86133 l -9.18946,-49.98828 c 18.95881,-7.46365 32.41992,-24.89892 32.41992,-46.58984 l 0.01,0.01 C 194,140.99833 171.91983,118.5 143.99609,118.5 Z"
               id="path94"
               inkscape:connector-curvature="0" />
          </g>
          <path
             inkscape:connector-curvature="0"
             style="color:#bebebe;display:inline;overflow:visible;visibility:visible;fill:#ea6218;fill-opacity:1;fill-rule:nonzero;stroke:none;stroke-width:1.99828982;marker:none;enable-background:accumulate"
             d="M 83.5,46.68718 C 56.068735,46.68718 34,68.718819 34,96.103196 V 215.89812 c 0,22.01836 14.272549,40.5649 34.123047,46.99218 L 72,236.3532 A 93.488867,95.387829 0 0 1 47.488281,172.59343 c 0,-52.84588 42.722537,-95.830078 95.228519,-95.830078 52.49612,0 95.23633,42.983788 95.23632,95.839848 a 93.947005,95.855914 0 0 1 -24.41601,64.51953 l 3.86328,26.21679 C 238.01574,257.37128 253,238.45846 253,215.89812 V 96.103196 C 253,68.718819 230.93127,46.68718 203.5,46.68718 Z"
             id="path98" />
        </g>
      </g>
      <g
         transform="matrix(0.13242009,0,0,0.13264684,412.99772,47.307093)"
         id="g114">
        <g
           id="g112">
          <g
             id="g108">
            <path
               id="path104"
               d="M 83.5,46.68718 C 56.068735,46.68718 34,68.718188 34,96.102565 V 215.89744 c 0,27.38438 22.068735,49.41538 49.5,49.41538 h 120 c 27.43127,0 49.5,-22.031 49.5,-49.41538 V 96.102565 C 253,68.718188 230.93127,46.68718 203.5,46.68718 Z"
               style="color:#bebebe;display:inline;overflow:visible;visibility:visible;fill:#ffffff;fill-opacity:1;fill-rule:nonzero;stroke:none;stroke-width:1.99828982;marker:none;enable-background:accumulate"
               inkscape:connector-curvature="0" />
            <path
               style="fill:#1a3967;stroke-width:9.66340351"
               d="M 143.99609,118.5 C 116.06269,118.5 94,140.91108 94,168.74414 c 0,10.282 3.122147,20.31075 8.93555,28.66797 a 47.746195,48.290046 0 0 0 23.48437,17.91211 l -9.52148,49.98828 h 53.86133 l -9.18946,-49.98828 c 18.95881,-7.46365 32.41992,-24.89892 32.41992,-46.58984 l 0.01,0.01 C 194,140.99833 171.91983,118.5 143.99609,118.5 Z"
               id="path106"
               inkscape:connector-curvature="0" />
          </g>
          <path
             inkscape:connector-curvature="0"
             style="color:#bebebe;display:inline;overflow:visible;visibility:visible;fill:#ea6218;fill-opacity:1;fill-rule:nonzero;stroke:none;stroke-width:1.99828982;marker:none;enable-background:accumulate"
             d="M 83.5,46.68718 C 56.068735,46.68718 34,68.718819 34,96.103196 V 215.89812 c 0,22.01836 14.272549,40.5649 34.123047,46.99218 L 72,236.3532 A 93.488867,95.387829 0 0 1 47.488281,172.59343 c 0,-52.84588 42.722537,-95.830078 95.228519,-95.830078 52.49612,0 95.23633,42.983788 95.23632,95.839848 a 93.947005,95.855914 0 0 1 -24.41601,64.51953 l 3.86328,26.21679 C 238.01574,257.37128 253,238.45846 253,215.89812 V 96.103196 C 253,68.718819 230.93127,46.68718 203.5,46.68718 Z"
             id="path110" />
        </g>
      </g>
      <g
         transform="matrix(0.10045662,0,0,0.10062864,413.58448,96.301932)"
         id="g126">
        <g
           id="g124">
          <g
             id="g120">
            <path
               id="path116"
               d="M 83.5,46.68718 C 56.068735,46.68718 34,68.718188 34,96.102565 V 215.89744 c 0,27.38438 22.068735,49.41538 49.5,49.41538 h 120 c 27.43127,0 49.5,-22.031 49.5,-49.41538 V 96.102565 C 253,68.718188 230.93127,46.68718 203.5,46.68718 Z"
               style="color:#bebebe;display:inline;overflow:visible;visibility:visible;fill:#ffffff;fill-opacity:1;fill-rule:nonzero;stroke:none;stroke-width:1.99828982;marker:none;enable-background:accumulate"
               inkscape:connector-curvature="0" />
            <path
               style="fill:#1a3967;stroke-width:9.66340351"
               d="M 143.99609,118.5 C 116.06269,118.5 94,140.91108 94,168.74414 c 0,10.282 3.122147,20.31075 8.93555,28.66797 a 47.746195,48.290046 0 0 0 23.48437,17.91211 l -9.52148,49.98828 h 53.86133 l -9.18946,-49.98828 c 18.95881,-7.46365 32.41992,-24.89892 32.41992,-46.58984 l 0.01,0.01 C 194,140.99833 171.91983,118.5 143.99609,118.5 Z"
               id="path118"
               inkscape:connector-curvature="0" />
          </g>
          <path
             inkscape:connector-curvature="0"
             style="color:#bebebe;display:inline;overflow:visible;visibility:visible;fill:#ea6218;fill-opacity:1;fill-rule:nonzero;stroke:none;stroke-width:1.99828982;marker:none;enable-background:accumulate"
             d="M 83.5,46.68718 C 56.068735,46.68718 34,68.718819 34,96.103196 V 215.89812 c 0,22.01836 14.272549,40.5649 34.123047,46.99218 L 72,236.3532 A 93.488867,95.387829 0 0 1 47.488281,172.59343 c 0,-52.84588 42.722537,-95.830078 95.228519,-95.830078 52.49612,0 95.23633,42.983788 95.23632,95.839848 a 93.947005,95.855914 0 0 1 -24.41601,64.51953 l 3.86328,26.21679 C 238.01574,257.37128 253,238.45846 253,215.89812 V 96.103196 C 253,68.718819 230.93127,46.68718 203.5,46.68718 Z"
             id="path122" />
        </g>
      </g>
      <g
         id="g138"
         transform="matrix(0.06849315,0,0,0.06861043,414.17123,137.29677)">
        <g
           id="g136">
          <g
             id="g132">
            <path
               inkscape:connector-curvature="0"
               style="color:#bebebe;display:inline;overflow:visible;visibility:visible;fill:#ffffff;fill-opacity:1;fill-rule:nonzero;stroke:none;stroke-width:1.99828982;marker:none;enable-background:accumulate"
               d="M 83.5,46.68718 C 56.068735,46.68718 34,68.718188 34,96.102565 V 215.89744 c 0,27.38438 22.068735,49.41538 49.5,49.41538 h 120 c 27.43127,0 49.5,-22.031 49.5,-49.41538 V 96.102565 C 253,68.718188 230.93127,46.68718 203.5,46.68718 Z"
               id="path128" />
            <path
               inkscape:connector-curvature="0"
               id="path130"
               d="M 143.99609,118.5 C 116.06269,118.5 94,140.91108 94,168.74414 c 0,10.282 3.122147,20.31075 8.93555,28.66797 a 47.746195,48.290046 0 0 0 23.48437,17.91211 l -9.52148,49.98828 h 53.86133 l -9.18946,-49.98828 c 18.95881,-7.46365 32.41992,-24.89892 32.41992,-46.58984 l 0.01,0.01 C 194,140.99833 171.91983,118.5 143.99609,118.5 Z"
               style="fill:#1a3967;stroke-width:9.66340351" />
          </g>
          <path
             id="path134"
             d="M 83.5,46.68718 C 56.068735,46.68718 34,68.718819 34,96.103196 V 215.89812 c 0,22.01836 14.272549,40.5649 34.123047,46.99218 L 72,236.3532 A 93.488867,95.387829 0 0 1 47.488281,172.59343 c 0,-52.84588 42.722537,-95.830078 95.228519,-95.830078 52.49612,0 95.23633,42.983788 95.23632,95.839848 a 93.947005,95.855914 0 0 1 -24.41601,64.51953 l 3.86328,26.21679 C 238.01574,257.37128 253,238.45846 253,215.89812 V 96.103196 C 253,68.718819 230.93127,46.68718 203.5,46.68718 Z"
             style="color:#bebebe;display:inline;overflow:visible;visibility:visible;fill:#ea6218;fill-opacity:1;fill-rule:nonzero;stroke:none;stroke-width:1.99828982;marker:none;enable-background:accumulate"
             inkscape:connector-curvature="0" />
        </g>
      </g>
    </g>
    <g
       inkscape:groupmode="layer"
       id="layer5"
       inkscape:label="Highlights"
       style="display:inline">
      <path
         id="path4093"
         d="m 324,265 c 4.4493,0 8,-3.5507 8,-8 l 0,-1 c 0,4.4493 -3.5507,8 -8,8 l -24,0 c -4.4493,0 -8,-3.5507 -8,-8 l 0,1 c 0,4.4493 3.5507,8 8,8 l 24,0 z"
         style="opacity:0.13;color:#bebebe;fill:#000000;fill-opacity:1;fill-rule:nonzero;stroke:none;stroke-width:0;marker:none;visibility:visible;display:inline;overflow:visible;enable-background:accumulate"
         inkscape:connector-curvature="0" />
    </g>
    <g
       inkscape:groupmode="layer"
       id="layer3"
       inkscape:label="Border"
       style="display:inline"
       sodipodi:insensitive="true">
      <path
         style="opacity:0.41000001;color:#bebebe;fill:#000000;fill-opacity:1;fill-rule:nonzero;stroke:none;stroke-width:0;marker:none;visibility:visible;display:inline;overflow:visible;enable-background:accumulate"
         d="m 422,101 c -2.77,0 -5,2.23 -5,5 l 0,12 c 0,2.77 2.23,5 5,5 l 12,0 c 2.77,0 5,-2.23 5,-5 l 0,-12 c 0,-2.77 -2.23,-5 -5,-5 l -12,0 z m 0,1 12,0 c 2.2333,0 4,1.7667 4,4 l 0,12 c 0,2.2333 -1.7667,4 -4,4 l -12,0 c -2.2333,0 -4,-1.7667 -4,-4 l 0,-12 c 0,-2.2333 1.7667,-4 4,-4 z"
         id="rect4099"
         inkscape:connector-curvature="0" />
      <path
         style="opacity:0.41000001;color:#bebebe;fill:#000000;fill-opacity:1;fill-rule:nonzero;stroke:none;stroke-width:0;marker:none;visibility:visible;display:inline;overflow:visible;enable-background:accumulate"
         d="m 424,53 c -3.878,0 -7,3.122 -7,7 l 0,16 c 0,3.878 3.122,7 7,7 l 16,0 c 3.878,0 7,-3.122 7,-7 l 0,-16 c 0,-3.878 -3.122,-7 -7,-7 l -16,0 z m 0,1 16,0 c 3.3413,0 6,2.658703 6,6 l 0,16 c 0,3.341297 -2.6587,6 -6,6 l -16,0 c -3.3413,0 -6,-2.658703 -6,-6 l 0,-16 c 0,-3.341297 2.6587,-6 6,-6 z"
         id="rect4151"
         inkscape:connector-curvature="0" />
      <path
         style="opacity:0.41000001;color:#bebebe;fill:#000000;fill-opacity:1;fill-rule:nonzero;stroke:none;stroke-width:0;marker:none;visibility:visible;display:inline;overflow:visible;enable-background:accumulate"
         d="m 419,140 c -1.662,0 -3,1.338 -3,3 l 0,10 c 0,1.662 1.338,3 3,3 l 10,0 c 1.662,0 3,-1.338 3,-3 l 0,-10 c 0,-1.662 -1.338,-3 -3,-3 l -10,0 z m 0,1 10,0 c 1.1253,0 2,0.8747 2,2 l 0,10 c 0,1.1253 -0.8747,2 -2,2 l -10,0 c -1.1253,0 -2,-0.8747 -2,-2 l 0,-10 c 0,-1.1253 0.8747,-2 2,-2 z"
         id="rect4095"
         inkscape:connector-curvature="0" />
      <path
         style="opacity:0.41000001;color:#bebebe;fill:#000000;fill-opacity:1;fill-rule:nonzero;stroke:none;stroke-width:0;marker:none;visibility:visible;display:inline;overflow:visible;enable-background:accumulate"
         d="m 300,223 c -4.986,0 -9,4.014 -9,9 l 0,24 c 0,4.986 4.014,9 9,9 l 24,0 c 4.986,0 9,-4.014 9,-9 l 0,-24 c 0,-4.986 -4.014,-9 -9,-9 l -24,0 z m 0,1 24,0 c 4.4493,0 8,3.5507 8,8 l 0,24 c 0,4.4493 -3.5507,8 -8,8 l -24,0 c -4.4493,0 -8,-3.5507 -8,-8 l 0,-24 c 0,-4.4493 3.5507,-8 8,-8 z"
         id="rect4783"
         inkscape:connector-curvature="0" />
      <path
         style="opacity:0.41000001;color:#bebebe;fill:#000000;fill-opacity:1;fill-rule:nonzero;stroke:none;stroke-width:0;marker:none;visibility:visible;display:inline;overflow:visible;enable-background:accumulate"
         d="m 302.5,142 c -6.925,0 -12.5,5.575 -12.5,12.5 l 0,35 c 0,6.925 5.575,12.5 12.5,12.5 l 35,0 c 6.925,0 12.5,-5.575 12.5,-12.5 l 0,-35 c 0,-6.925 -5.575,-12.5 -12.5,-12.5 l -35,0 z m 0,1 35,0 c 6.3883,0 11.5,5.1117 11.5,11.5 l 0,35 c 0,6.3883 -5.1117,11.5 -11.5,11.5 l -35,0 c -6.3883,0 -11.5,-5.1117 -11.5,-11.5 l 0,-35 c 0,-6.3883 5.1117,-11.5 11.5,-11.5 z"
         id="rect4515"
         inkscape:connector-curvature="0" />
      <path
         style="opacity:0.41000001;color:#bebebe;fill:#000000;fill-opacity:1;fill-rule:nonzero;stroke:none;stroke-width:0;marker:none;visibility:visible;display:inline;overflow:visible;enable-background:accumulate"
         d="m 310,32 c -9.972,0 -18,8.028 -18,18 l 0,52 c 0,9.972 8.028,18 18,18 l 52,0 c 9.972,0 18,-8.028 18,-18 l 0,-52 c 0,-9.972 -8.028,-18 -18,-18 l -52,0 z m 0,1 52,0 c 9.4353,0 17,7.564703 17,17 l 0,52 c 0,9.4353 -7.5647,17 -17,17 l -52,0 c -9.4353,0 -17,-7.5647 -17,-17 l 0,-52 c 0,-9.435297 7.5647,-17 17,-17 z"
         id="rect4511"
         inkscape:connector-curvature="0" />
      <path
         style="opacity:0.41000001;color:#bebebe;fill:#000000;fill-opacity:1;fill-rule:nonzero;stroke:none;stroke-width:0;marker:none;visibility:visible;display:inline;overflow:visible;enable-background:accumulate"
         d="M 84,46 C 56.3,46 34,68.3 34,96 l 0,120 c 0,27.7 22.3,50 50,50 l 120,0 c 27.7,0 50,-22.3 50,-50 L 254,96 C 254,68.3 231.7,46 204,46 L 84,46 z m 0,1 120,0 c 27.1633,0 49,21.836703 49,49 l 0,120 c 0,27.1633 -21.8367,49 -49,49 L 84,265 C 56.836703,265 35,243.1633 35,216 L 35,96 C 35,68.836703 56.836703,47 84,47 z"
         id="rect4040"
         inkscape:connector-curvature="0" />
    </g>
  </g>
</svg>
