<?xml version="1.0" encoding="UTF-8" standalone="no"?>
<!-- Created with Inkscape (http://www.inkscape.org/) -->

<svg
   xmlns:dc="http://purl.org/dc/elements/1.1/"
   xmlns:cc="http://creativecommons.org/ns#"
   xmlns:rdf="http://www.w3.org/1999/02/22-rdf-syntax-ns#"
   xmlns:svg="http://www.w3.org/2000/svg"
   xmlns="http://www.w3.org/2000/svg"
   xmlns:xlink="http://www.w3.org/1999/xlink"
   xmlns:sodipodi="http://sodipodi.sourceforge.net/DTD/sodipodi-0.dtd"
   xmlns:inkscape="http://www.inkscape.org/namespaces/inkscape"
   inkscape:export-ydpi="90.000000"
   inkscape:export-xdpi="90.000000"
   width="480"
   height="300"
   id="svg11300"
   sodipodi:version="0.32"
   inkscape:version="0.92.5 (2060ec1f9f, 2020-04-08)"
   sodipodi:docname="proton_mail_assets.svg"
   inkscape:output_extension="org.inkscape.output.svg.inkscape"
   version="1.0"
   style="display:inline;enable-background:new"
   inkscape:export-filename="/home/sam/moka-next-template.png">
  <sodipodi:namedview
     stroke="#ef2929"
     fill="#f57900"
     id="base"
     pagecolor="#777777"
     bordercolor="#666666"
     borderopacity="0.25490196"
     inkscape:pageopacity="0"
     inkscape:pageshadow="2"
     inkscape:zoom="1.4142136"
     inkscape:cx="427.65754"
     inkscape:cy="153.01748"
     inkscape:current-layer="layer6"
     showgrid="false"
     inkscape:grid-bbox="true"
     inkscape:document-units="px"
     inkscape:showpageshadow="false"
     inkscape:window-width="1366"
     inkscape:window-height="741"
     inkscape:window-x="0"
     inkscape:window-y="0"
     width="400px"
     height="300px"
     inkscape:snap-nodes="true"
     inkscape:snap-bbox="true"
     gridtolerance="10000"
     inkscape:object-nodes="true"
     inkscape:snap-grids="true"
     showguides="true"
     inkscape:guide-bbox="true"
     inkscape:window-maximized="1"
     inkscape:bbox-nodes="true"
     inkscape:bbox-paths="true"
     inkscape:snap-bbox-edge-midpoints="true"
     inkscape:snap-bbox-midpoints="true">
    <inkscape:grid
       spacingy="1"
       spacingx="1"
       id="grid5883"
       type="xygrid"
       enabled="true"
       visible="true"
       empspacing="4"
       snapvisiblegridlinesonly="true"
       dotted="false"
       color="#000000"
       opacity="0.1254902"
       empcolor="#203ef3"
       empopacity="0.36470588"
       originx="0"
       originy="0" />
    <inkscape:grid
       type="xygrid"
       id="grid11592"
       empspacing="8"
       visible="true"
       enabled="false"
       spacingx="0.5"
       spacingy="0.5"
       color="#ff0000"
       opacity="0.1254902"
       empcolor="#ff0000"
       empopacity="0.25098039"
       snapvisiblegridlinesonly="true"
       dotted="true"
       originx="0"
       originy="0" />
  </sodipodi:namedview>
  <defs
     id="defs3">
    <linearGradient
       inkscape:collect="always"
       xlink:href="#outerBackgroundGradient-8"
       id="linearGradient4254"
       x1="35"
       y1="156"
       x2="253"
       y2="156"
       gradientUnits="userSpaceOnUse"
       gradientTransform="rotate(-90,144,156)" />
    <linearGradient
       inkscape:collect="always"
       xlink:href="#outerBackgroundGradient-8"
       id="linearGradient4256"
       x1="417"
       y1="148"
       x2="431"
       y2="148"
       gradientUnits="userSpaceOnUse"
       gradientTransform="rotate(-90,424,148)" />
    <linearGradient
       inkscape:collect="always"
       xlink:href="#outerBackgroundGradient-8"
       id="linearGradient4260"
       x1="418"
       y1="68"
       x2="446"
       y2="68"
       gradientUnits="userSpaceOnUse"
       gradientTransform="rotate(-90,432,68)" />
    <linearGradient
       inkscape:collect="always"
       xlink:href="#outerBackgroundGradient-8"
       id="linearGradient4262"
       x1="292"
       y1="244"
       x2="332"
       y2="244"
       gradientUnits="userSpaceOnUse"
       gradientTransform="rotate(-90,312,244)" />
    <linearGradient
       inkscape:collect="always"
       xlink:href="#outerBackgroundGradient-8"
       id="linearGradient4264"
       x1="293"
       y1="76"
       x2="379"
       y2="76"
       gradientUnits="userSpaceOnUse"
       gradientTransform="rotate(-90,336,76)" />
    <linearGradient
       inkscape:collect="always"
       xlink:href="#outerBackgroundGradient-8"
       id="linearGradient4266"
       x1="291"
       y1="172"
       x2="349"
       y2="172"
       gradientUnits="userSpaceOnUse"
       gradientTransform="rotate(-90,320,172)" />
    <linearGradient
       inkscape:collect="always"
       xlink:href="#outerBackgroundGradient-8"
       id="linearGradient3870"
       gradientUnits="userSpaceOnUse"
       gradientTransform="rotate(-90,428,112)"
       x1="418"
       y1="112"
       x2="438"
       y2="112" />
    <linearGradient
       id="linearGradient3962">
      <stop
         style="stop-color:#ffffff;stop-opacity:1;"
         offset="0"
         id="stop3964" />
      <stop
         id="stop3966"
         offset="0.5"
         style="stop-color:#e0e0e0;stop-opacity:1;" />
      <stop
         id="stop3968"
         offset="0.5"
         style="stop-color:#ffffff;stop-opacity:1;" />
      <stop
         style="stop-color:#e0e0e0;stop-opacity:1;"
         offset="1"
         id="stop3970" />
    </linearGradient>
    <linearGradient
       id="linearGradient4222">
      <stop
         id="stop4224"
         offset="0"
         style="stop-color:#ffdc8f;stop-opacity:1;" />
      <stop
         style="stop-color:#efba44;stop-opacity:1;"
         offset="0.5"
         id="stop4026" />
      <stop
         style="stop-color:#ffdc8f;stop-opacity:1;"
         offset="0.5"
         id="stop4024" />
      <stop
         id="stop4226"
         offset="1"
         style="stop-color:#efba44;stop-opacity:1;" />
    </linearGradient>
    <linearGradient
       id="outerBackgroundGradient-8">
      <stop
         style="stop-color:#212121;stop-opacity:1"
         offset="0"
         id="stop3864-8-6-8" />
      <stop
         style="stop-color:#313131;stop-opacity:1"
         offset="1"
         id="stop3866-9-1-4" />
    </linearGradient>
  </defs>
  <metadata
     id="metadata4">
    <rdf:RDF>
      <cc:Work
         rdf:about="">
        <dc:format>image/svg+xml</dc:format>
        <dc:type
           rdf:resource="http://purl.org/dc/dcmitype/StillImage" />
        <dc:creator>
          <cc:Agent>
            <dc:title>Sam Hewitt</dc:title>
          </cc:Agent>
        </dc:creator>
        <dc:source />
        <cc:license
           rdf:resource="" />
        <dc:title />
        <dc:subject>
          <rdf:Bag />
        </dc:subject>
        <dc:date />
        <dc:rights>
          <cc:Agent>
            <dc:title />
          </cc:Agent>
        </dc:rights>
        <dc:publisher>
          <cc:Agent>
            <dc:title />
          </cc:Agent>
        </dc:publisher>
        <dc:identifier />
        <dc:relation />
        <dc:language />
        <dc:coverage />
        <dc:description />
        <dc:contributor>
          <cc:Agent>
            <dc:title />
          </cc:Agent>
        </dc:contributor>
      </cc:Work>
      <cc:Work
         rdf:about="">
        <dc:format>image/svg+xml</dc:format>
        <dc:type
           rdf:resource="http://purl.org/dc/dcmitype/StillImage" />
      </cc:Work>
    </rdf:RDF>
  </metadata>
  <g
     style="display:inline"
     inkscape:groupmode="layer"
     inkscape:label="Icon"
     id="layer1">
    <g
       style="display:none"
       inkscape:label="Baseplate"
       id="layer7"
       inkscape:groupmode="layer">
      <text
         y="19.745117"
         xml:space="preserve"
         x="15.006836"
         style="font-style:normal;font-variant:normal;font-weight:normal;font-stretch:normal;line-height:0%;font-family:'DejaVu Sans';-inkscape-font-specification:'DejaVu Sans';display:inline;fill:#000000;fill-opacity:1;stroke:none;enable-background:new"
         inkscape:label="context"
         id="context"><tspan
           style="font-style:normal;font-variant:normal;font-weight:normal;font-stretch:normal;font-size:18px;line-height:1.25;font-family:'DejaVu Sans';-inkscape-font-specification:'DejaVu Sans'"
           y="19.745117"
           x="15.006836"
           sodipodi:role="line"
           id="tspan3933">apps</tspan></text>
      <text
         y="19.745117"
         xml:space="preserve"
         x="122.48828"
         style="font-style:normal;font-variant:normal;font-weight:bold;font-stretch:normal;line-height:0%;font-family:'DejaVu Sans';-inkscape-font-specification:'DejaVu Sans Bold';text-align:start;writing-mode:lr-tb;text-anchor:start;display:inline;fill:#000000;fill-opacity:1;stroke:none;enable-background:new"
         inkscape:label="icon-name"
         id="icon-name"><tspan
           style="font-style:normal;font-variant:normal;font-weight:bold;font-stretch:normal;font-size:18px;line-height:1.25;font-family:'DejaVu Sans';-inkscape-font-specification:'DejaVu Sans Bold'"
           y="19.745117"
           x="122.48828"
           sodipodi:role="line"
           id="tspan3937">iagno</tspan></text>
      <rect
         style="fill:#eeeeec;fill-opacity:1;fill-rule:nonzero;stroke:none;stroke-width:2;marker:none;visibility:visible;display:inline;overflow:visible;enable-background:accumulate"
         id="rect16x16"
         width="16"
         height="16"
         x="416"
         y="140"
         inkscape:label="16x16" />
      <rect
         style="fill:#d4d4d4;fill-opacity:1;fill-rule:nonzero;stroke:none;stroke-width:2;marker:none;visibility:visible;display:inline;overflow:visible;enable-background:accumulate"
         id="rect24x24"
         width="24"
         height="24"
         x="416"
         y="100"
         inkscape:label="24x24" />
      <rect
         style="fill:#eeeeec;fill-opacity:1;fill-rule:nonzero;stroke:none;stroke-width:2;marker:none;visibility:visible;display:inline;overflow:visible;enable-background:accumulate"
         id="rect32x32"
         width="32"
         height="32"
         x="416"
         y="52"
         inkscape:label="32x32" />
      <rect
         inkscape:label="22x22"
         y="101"
         x="417"
         height="22"
         width="22"
         id="rect22x22"
         style="fill:#eeeeec;fill-opacity:1;fill-rule:nonzero;stroke:none;stroke-width:2;marker:none;visibility:visible;display:inline;overflow:visible;enable-background:accumulate" />
      <rect
         inkscape:label="48x48"
         y="220"
         x="288"
         height="48"
         width="48"
         id="rect48x48"
         style="fill:#eeeeec;fill-opacity:1;fill-rule:nonzero;stroke:none;stroke-width:2;marker:none;visibility:visible;display:inline;overflow:visible;enable-background:accumulate" />
      <rect
         style="fill:#eeeeec;fill-opacity:1;fill-rule:nonzero;stroke:none;stroke-width:2;marker:none;visibility:visible;display:inline;overflow:visible;enable-background:accumulate"
         id="rect256x256"
         width="256"
         height="256"
         x="16"
         y="28"
         inkscape:label="256x256" />
      <rect
         style="fill:#eeeeec;fill-opacity:1;fill-rule:nonzero;stroke:none;stroke-width:2;marker:none;visibility:visible;display:inline;overflow:visible;enable-background:accumulate"
         id="rect64x64"
         width="64"
         height="64"
         x="288"
         y="140"
         inkscape:label="64x64" />
      <rect
         style="fill:#eeeeec;fill-opacity:1;fill-rule:nonzero;stroke:none;stroke-width:2;marker:none;visibility:visible;display:inline;overflow:visible;enable-background:accumulate"
         id="rect96x96"
         width="96"
         height="96"
         x="288"
         y="28"
         inkscape:label="96x96" />
    </g>
    <g
       inkscape:groupmode="layer"
       id="layer4"
       inkscape:label="Shadow"
       style="display:inline"
       sodipodi:insensitive="true">
      <rect
         ry="50"
         y="47"
         x="34"
         height="220"
         width="220"
         id="rect4114"
         style="opacity:0.1;color:#bebebe;fill:#000000;fill-opacity:1;fill-rule:nonzero;stroke:none;stroke-width:0;marker:none;visibility:visible;display:inline;overflow:visible;enable-background:accumulate" />
      <rect
         style="opacity:0.1;color:#bebebe;fill:#000000;fill-opacity:1;fill-rule:nonzero;stroke:none;stroke-width:0;marker:none;visibility:visible;display:inline;overflow:visible;enable-background:accumulate"
         id="rect4120"
         width="30"
         height="30"
         x="417"
         y="54"
         ry="7" />
      <rect
         transform="scale(1,-1)"
         ry="9"
         y="-266"
         x="291"
         height="42"
         width="42"
         id="rect4122"
         style="opacity:0.1;color:#bebebe;fill:#000000;fill-opacity:1;fill-rule:nonzero;stroke:none;stroke-width:0;marker:none;visibility:visible;display:inline;overflow:visible;enable-background:accumulate" />
      <rect
         style="opacity:0.1;color:#bebebe;fill:#000000;fill-opacity:1;fill-rule:nonzero;stroke:none;stroke-width:0;marker:none;visibility:visible;display:inline;overflow:visible;enable-background:accumulate"
         id="rect4124"
         width="88"
         height="88"
         x="292"
         y="33"
         ry="18" />
      <rect
         ry="12.5"
         y="143"
         x="290"
         height="60"
         width="60"
         id="rect4126"
         style="opacity:0.1;color:#bebebe;fill:#000000;fill-opacity:1;fill-rule:nonzero;stroke:none;stroke-width:0;marker:none;visibility:visible;display:inline;overflow:visible;enable-background:accumulate" />
      <path
         id="path4268"
         d="m 422,101 c -2.77,0 -5,2.23 -5,5 l 0,12 c 0,2.77 2.23,5 5,5 l 12,0 c 2.77,0 5,-2.23 5,-5 l 0,-12 c 0,-2.77 -2.23,-5 -5,-5 z"
         style="opacity:0.1;color:#bebebe;fill:#000000;fill-opacity:1;fill-rule:nonzero;stroke:none;stroke-width:0;marker:none;visibility:visible;display:inline;overflow:visible;enable-background:accumulate"
         inkscape:connector-curvature="0"
         sodipodi:nodetypes="sssssssss" />
      <path
         id="path4270"
         d="m 419,140 c -1.662,0 -3,1.338 -3,3 l 0,10 c 0,1.662 1.338,3 3,3 l 10,0 c 1.662,0 3,-1.338 3,-3 l 0,-10 c 0,-1.662 -1.338,-3 -3,-3 z"
         style="opacity:0.1;color:#bebebe;fill:#000000;fill-opacity:1;fill-rule:nonzero;stroke:none;stroke-width:0;marker:none;visibility:visible;display:inline;overflow:visible;enable-background:accumulate"
         inkscape:connector-curvature="0"
         sodipodi:nodetypes="sssssssss" />
    </g>
    <g
       inkscape:groupmode="layer"
       id="layer2"
       inkscape:label="Background"
       style="display:inline" />
    <g
       inkscape:groupmode="layer"
       id="layer6"
       inkscape:label="Symbols"
       style="display:inline">
      <g
         id="g432">
        <g
           id="g325">
          <path
             style="color:#bebebe;display:inline;overflow:visible;visibility:visible;fill:url(#linearGradient4254);fill-opacity:1;fill-rule:nonzero;stroke:none;stroke-width:2;marker:none;enable-background:accumulate"
             d="M 84,46.5 C 56.568735,46.5 34.5,68.568732 34.5,96 v 120 c 0,27.43127 22.068735,49.5 49.5,49.5 h 120 c 27.43127,0 49.5,-22.06873 49.5,-49.5 V 96 C 253.5,68.568732 231.43127,46.5 204,46.5 Z"
             id="path4200"
             inkscape:connector-curvature="0" />
          <path
             inkscape:connector-curvature="0"
             style="fill:#ffffff;stroke-width:5.66043425"
             d="m 144.00022,58.999999 c -4.57959,0 -9.16983,0.21112 -12.08616,0.63523 -35.201495,5.11387 -56.002536,22.42675 -60.167775,50.071211 -0.4599,3.05435 -0.595119,8.47446 -0.669017,29.25373 l -0.07693,24.68453 1.009028,1.63822 c 2.521196,4.0659 6.019496,6.92329 22.593079,18.52181 27.708215,19.39089 39.093355,26.46341 46.107335,28.61847 1.10696,0.34007 2.62772,0.62536 3.38899,0.63523 4.65502,0.0633 18.26093,-7.63592 38.86883,-21.9988 25.69953,-17.91158 30.46382,-21.62717 32.96834,-25.68753 l 1.06384,-1.7274 v -20.36058 c 0,-26.55118 -0.18363,-31.25305 -1.4148,-36.94327 -2.19556,-10.147511 -6.18919,-18.169561 -12.5578,-25.152611 -10.22227,-11.20855 -26.20571,-18.53913 -46.95191,-21.55301 -2.91644,-0.42394 -7.49562,-0.63523 -12.07521,-0.63523 z m 0,34.23521 c 22.46146,0 33.33183,13.452931 38.39725,29.933481 0.89178,2.90156 0.91031,3.01973 0.91031,14.82194 0,6.54376 -0.1022,12.0153 -0.23023,12.14728 -0.1286,0.1318 -17.6368,0.18373 -39.07721,0.13352 -21.44041,0.0513 -38.94884,-0.003 -39.07727,-0.13352 -0.12803,-0.13181 -0.23023,-5.60352 -0.23023,-12.14728 0,-11.80221 0.0168,-11.92038 0.91031,-14.82194 5.06547,-16.48055 15.93579,-29.933481 38.39724,-29.933481 z m 72.99972,87.527111 -1.06383,1.7274 c -2.50452,4.06033 -7.26881,7.77594 -32.96835,25.6875 -20.6079,14.36288 -34.2138,22.06202 -38.86882,21.9988 -0.76127,-0.0114 -2.28203,-0.29499 -3.38899,-0.63523 -7.01398,-2.15503 -18.39912,-9.22758 -46.107337,-28.61845 C 78.02903,189.32379 74.530729,186.46641 72.009534,182.40054 l -0.987072,-1.60478 c 3.36e-4,0.81234 0.0019,4.2557 0,4.59144 C 71.021526,185.48933 71,185.57435 71,185.67705 v 37.66763 c 0,0.35206 0.08535,0.64739 0.09883,0.99186 l 0.07693,22.14367 1.09674,2.05058 c 0.843263,1.56281 1.523454,2.27166 2.895377,3.07579 l 1.787714,1.05872 29.085839,0.17803 c 15.99649,0.0959 45.94716,0.16547 66.55082,0.15577 l 37.46503,-0.0228 1.80961,-0.76892 c 2.32778,-0.99653 3.01184,-1.59371 4.09089,-3.61071 l 0.86646,-1.6494 0.0337,-22.08793 C 216.88601,224.34011 217,223.8813 217,223.34369 v -37.66763 c 0,-0.0713 -0.0225,-0.12953 -0.0225,-0.20085 z"
             id="path299" />
        </g>
        <g
           id="g339">
          <path
             style="color:#bebebe;display:inline;overflow:visible;visibility:visible;fill:url(#linearGradient4264);fill-opacity:1;fill-rule:nonzero;stroke:none;stroke-width:2;marker:none;enable-background:accumulate"
             d="m 310,32.5 c -9.70255,0 -17.5,7.797452 -17.5,17.5 v 52 c 0,9.70255 7.79745,17.5 17.5,17.5 h 52 c 9.70255,0 17.5,-7.79745 17.5,-17.5 V 50 c 0,-9.702548 -7.79745,-17.5 -17.5,-17.5 z"
             id="path4210"
             inkscape:connector-curvature="0" />
          <path
             id="path329"
             d="m 336.00014,37.46576 c -1.81929,0 -3.64281,0.0839 -4.80135,0.25235 -13.98416,2.03153 -22.24759,8.90925 -23.90227,19.8913 -0.1827,1.21337 -0.23642,3.36657 -0.26578,11.62134 l -0.0306,9.80619 0.40085,0.6508 c 1.00157,1.61522 2.39131,2.75035 8.97533,7.35798 11.00738,7.70323 15.53024,10.51286 18.31662,11.36898 0.43975,0.13509 1.04388,0.24843 1.34631,0.25235 1.84925,0.0251 7.25434,-3.03345 15.44104,-8.73925 10.2094,-7.11556 12.10206,-8.59162 13.09701,-10.20463 l 0.42262,-0.68623 v -8.08845 c 0,-10.54773 -0.0729,-12.4156 -0.56204,-14.6761 -0.87221,-4.0312 -2.45872,-7.21804 -4.98872,-9.99213 -4.0609,-4.45271 -10.41049,-7.36486 -18.65213,-8.56215 -1.15858,-0.16842 -2.97771,-0.25235 -4.797,-0.25235 z m 0,13.60028 c 8.92304,0 13.24141,5.34432 15.2537,11.89139 0.35427,1.15267 0.36163,1.19962 0.36163,5.88816 0,2.59958 -0.0406,4.77321 -0.0915,4.82564 -0.0511,0.0524 -7.0064,0.073 -15.52383,0.053 -8.51742,0.0204 -15.47282,-0.001 -15.52384,-0.053 -0.0509,-0.0524 -0.0915,-2.22606 -0.0915,-4.82564 0,-4.68854 0.007,-4.73549 0.36163,-5.88816 2.01231,-6.54707 6.33065,-11.89139 15.25369,-11.89139 z m 28.99988,34.77105 -0.42261,0.68623 c -0.99495,1.613 -2.88761,3.08907 -13.09702,10.20462 -8.1867,5.7058 -13.59178,8.76436 -15.44104,8.73925 -0.30242,-0.005 -0.90656,-0.11719 -1.34631,-0.25235 -2.78637,-0.85611 -7.30924,-3.66575 -18.31661,-11.36898 -6.58403,-4.60764 -7.97376,-5.74276 -8.97533,-7.35797 l -0.39213,-0.63752 c 1.4e-4,0.32271 7.6e-4,1.69062 0,1.824 -3.7e-4,0.0406 -0.009,0.0744 -0.009,0.11515 v 14.96385 c 0,0.13986 0.0339,0.25718 0.0393,0.39402 l 0.0306,8.7968 0.43569,0.81462 c 0.335,0.62084 0.60521,0.90244 1.15022,1.22189 l 0.71019,0.42059 11.55465,0.0707 c 6.35477,0.0381 18.25298,0.0657 26.43799,0.0619 l 14.88337,-0.009 0.71889,-0.30546 c 0.92473,-0.39588 1.19648,-0.63312 1.62515,-1.43439 l 0.34421,-0.65524 0.0134,-8.77466 c 0.0112,-0.20627 0.0564,-0.38853 0.0564,-0.60211 V 87.78918 c 0,-0.0283 -0.009,-0.0515 -0.009,-0.0798 z"
             style="fill:#ffffff;stroke-width:2.24866557"
             inkscape:connector-curvature="0" />
        </g>
        <g
           id="g363">
          <path
             style="color:#bebebe;display:inline;overflow:visible;visibility:visible;fill:url(#linearGradient4266);fill-opacity:1;fill-rule:nonzero;stroke:none;stroke-width:2;marker:none;enable-background:accumulate"
             d="m 302.5,142.5 c -6.65502,0 -12,5.34498 -12,12 v 35 c 0,6.65502 5.34498,12 12,12 h 35 c 6.65502,0 12,-5.34498 12,-12 v -35 c 0,-6.65502 -5.34498,-12 -12,-12 z"
             id="path4212"
             inkscape:connector-curvature="0" />
          <path
             inkscape:connector-curvature="0"
             style="fill:#ffffff;stroke-width:1.52495706"
             d="m 320.00003,145.86754 c -1.23377,0 -2.47041,0.0569 -3.25608,0.17114 -9.48351,1.3777 -15.08745,6.0419 -16.20959,13.4895 -0.1239,0.82286 -0.16033,2.28308 -0.18024,7.88114 l -0.0208,6.65017 0.27184,0.44135 c 0.67921,1.09538 1.62169,1.86518 6.08672,4.9899 7.46477,5.22403 10.532,7.12941 12.42161,7.70999 0.29822,0.0916 0.70792,0.16848 0.91302,0.17114 1.25409,0.017 4.91961,-2.05717 10.47151,-5.92662 6.92361,-4.8255 8.20714,-5.8265 8.88188,-6.92038 l 0.2866,-0.46538 v -5.48527 c 0,-7.15306 -0.0494,-8.41977 -0.38115,-9.95275 -0.5915,-2.73381 -1.66741,-4.895 -3.38316,-6.77628 -2.75394,-3.01965 -7.05998,-4.99456 -12.64914,-5.80651 -0.78571,-0.11422 -2.01937,-0.17114 -3.25314,-0.17114 z m 0,9.22318 c 6.05126,0 8.97981,3.62431 10.34447,8.06428 0.24025,0.78169 0.24524,0.81353 0.24524,3.99312 0,1.76293 -0.0275,3.237 -0.062,3.27256 -0.0347,0.0355 -4.75147,0.0495 -10.52766,0.0359 -5.77618,0.0138 -10.49306,-6.8e-4 -10.52767,-0.0359 -0.0345,-0.0355 -0.062,-1.50963 -0.062,-3.27256 0,-3.17959 0.005,-3.21143 0.24525,-3.99312 1.36467,-4.43997 4.2932,-8.06428 10.34446,-8.06428 z m 19.66659,23.58037 -0.2866,0.46537 c -0.67474,1.09388 -1.95826,2.09489 -8.88189,6.92038 -5.5519,3.86945 -9.21741,5.94365 -10.47152,5.92662 -0.20508,-0.003 -0.61479,-0.0795 -0.91301,-0.17114 -1.88961,-0.58058 -4.95684,-2.48597 -12.4216,-7.71 -4.46504,-3.12472 -5.40749,-3.89451 -6.08673,-4.98988 l -0.26592,-0.43234 c 9e-5,0.21885 5.2e-4,1.14651 0,1.23696 -2.6e-4,0.0275 -0.006,0.0505 -0.006,0.0781 v 10.1479 c 0,0.0949 0.023,0.17441 0.0266,0.26721 l 0.0208,5.96564 0.29546,0.55245 c 0.22719,0.42103 0.41043,0.612 0.78003,0.82864 l 0.48163,0.28522 7.83591,0.048 c 4.30955,0.0258 12.37846,0.0446 17.92921,0.042 l 10.09332,-0.006 0.48753,-0.20715 c 0.62711,-0.26847 0.8114,-0.42935 1.10211,-0.97274 l 0.23343,-0.44436 0.009,-5.95063 c 0.008,-0.13989 0.0383,-0.26349 0.0383,-0.40833 v -10.1479 c 0,-0.0192 -0.006,-0.0349 -0.006,-0.0541 z"
             id="path343" />
        </g>
        <g
           id="g367">
          <path
             style="color:#bebebe;display:inline;overflow:visible;visibility:visible;fill:url(#linearGradient4262);fill-opacity:1;fill-rule:nonzero;stroke:none;stroke-width:2;marker:none;enable-background:accumulate"
             d="m 300,223.5 c -4.71531,0 -8.5,3.78469 -8.5,8.5 v 24 c 0,4.71531 3.78469,8.5 8.5,8.5 h 24 c 4.71531,0 8.5,-3.78469 8.5,-8.5 v -24 c 0,-4.71531 -3.78469,-8.5 -8.5,-8.5 z"
             id="path4208"
             inkscape:connector-curvature="0" />
          <path
             id="path351"
             d="m 312.00002,225.84016 c -0.85737,0 -1.71673,0.0395 -2.2627,0.11892 -6.59024,0.95739 -10.48451,4.19861 -11.2643,9.37406 -0.0861,0.57182 -0.11142,1.58655 -0.12524,5.47673 l -0.0144,4.6213 0.1889,0.3067 c 0.47201,0.7612 1.12694,1.29614 4.22976,3.46756 5.18738,3.63025 7.31885,4.95433 8.63197,5.35779 0.20725,0.0637 0.49194,0.11708 0.63448,0.11893 0.87148,0.0118 3.4187,-1.42956 7.27681,-4.1185 4.81132,-3.35331 5.70326,-4.04893 6.17215,-4.80908 l 0.19916,-0.3234 v -3.81179 c 0,-4.97077 -0.0344,-5.85103 -0.26486,-6.91633 -0.41104,-1.89976 -1.15871,-3.4016 -2.35101,-4.70893 -1.91376,-2.09841 -4.90609,-3.4708 -8.79008,-4.03504 -0.546,-0.0794 -1.40329,-0.11892 -2.26066,-0.11892 z m 0,6.40933 c 4.20512,0 6.2402,2.51858 7.18853,5.60398 0.16695,0.54322 0.17041,0.56534 0.17041,2.77488 0,1.22509 -0.0191,2.24945 -0.0431,2.27416 -0.0241,0.0247 -3.30186,0.0344 -7.31583,0.025 -4.01396,0.01 -7.29179,-4.7e-4 -7.31583,-0.025 -0.024,-0.0247 -0.0431,-1.04907 -0.0431,-2.27416 0,-2.20954 0.003,-2.23166 0.17042,-2.77488 0.94833,-3.0854 2.9834,-5.60398 7.18851,-5.60398 z m 13.6666,16.38635 -0.19916,0.3234 c -0.46888,0.76015 -1.36081,1.45577 -6.17216,4.80907 -3.8581,2.68894 -6.40532,4.13033 -7.27681,4.1185 -0.14252,-0.002 -0.42723,-0.0552 -0.63447,-0.11892 -1.31311,-0.40346 -3.44458,-1.72754 -8.63196,-5.3578 -3.10282,-2.17142 -3.75775,-2.70636 -4.22975,-3.46755 l -0.1848,-0.30044 c 6e-5,0.15208 3.6e-4,0.79673 0,0.85959 -1.8e-4,0.0191 -0.004,0.0351 -0.004,0.0543 v 7.05193 c 0,0.0659 0.016,0.1212 0.0185,0.18569 l 0.0144,4.14562 0.20532,0.3839 c 0.15788,0.29258 0.28522,0.42529 0.54206,0.57583 l 0.33469,0.19821 5.44529,0.0333 c 2.99478,0.018 8.60198,0.031 12.45929,0.0292 l 7.014,-0.004 0.33879,-0.14395 c 0.43579,-0.18657 0.56385,-0.29837 0.76587,-0.67598 l 0.16221,-0.30879 0.006,-4.13519 c 0.005,-0.0972 0.0266,-0.1831 0.0266,-0.28375 v -7.05193 c 0,-0.0133 -0.004,-0.0243 -0.004,-0.0376 z"
             style="fill:#ffffff;stroke-width:1.05971599"
             inkscape:connector-curvature="0" />
        </g>
        <g
           id="g401">
          <path
             style="color:#bebebe;display:inline;overflow:visible;visibility:visible;fill:url(#linearGradient4260);fill-opacity:1;fill-rule:nonzero;stroke:none;stroke-width:2;marker:none;enable-background:accumulate"
             d="m 424,53.5 c -3.60654,0 -6.5,2.893464 -6.5,6.5 v 16 c 0,3.606536 2.89346,6.5 6.5,6.5 h 16 c 3.60654,0 6.5,-2.893464 6.5,-6.5 V 60 c 0,-3.606536 -2.89346,-6.5 -6.5,-6.5 z"
             id="path4206"
             inkscape:connector-curvature="0" />
          <path
             inkscape:connector-curvature="0"
             style="fill:#ffffff;stroke-width:0.74955523"
             d="m 432.00005,55.155237 c -0.60643,0 -1.21427,0.02794 -1.60045,0.08411 -4.66139,0.677179 -7.41587,2.969749 -7.96743,6.630433 -0.0609,0.404458 -0.0788,1.122194 -0.0886,3.873785 l -0.0102,3.268724 0.13361,0.216934 c 0.33387,0.53841 0.79711,0.916782 2.99179,2.452665 3.66912,2.567737 5.17674,3.504282 6.10554,3.789656 0.14659,0.04506 0.34795,0.08281 0.44877,0.08412 0.61642,0.0083 2.41811,-1.011152 5.14702,-2.913085 3.40312,-2.371854 4.03401,-2.863878 4.36566,-3.401545 l 0.14087,-0.228746 v -2.696144 c 0,-3.515911 -0.0243,-4.138533 -0.18734,-4.892038 -0.29073,-1.343733 -0.81957,-2.40601 -1.66291,-3.330707 -1.35363,-1.484241 -3.47016,-2.454956 -6.21737,-2.854053 -0.3862,-0.05616 -0.99257,-0.08411 -1.599,-0.08411 z m 0,4.533429 c 2.97435,0 4.4138,1.781434 5.08457,3.96379 0.11809,0.384229 0.12053,0.399875 0.12053,1.96272 0,0.866528 -0.0135,1.591075 -0.0305,1.608553 -0.0171,0.01747 -2.33546,0.02433 -5.17461,0.01768 -2.83915,0.0071 -5.15761,-3.33e-4 -5.17461,-0.01768 -0.017,-0.01747 -0.0305,-0.742025 -0.0305,-1.608553 0,-1.562845 0.002,-1.578491 0.12054,-1.96272 0.67077,-2.182356 2.11021,-3.96379 5.08456,-3.96379 z m 9.66662,11.590345 -0.14087,0.228746 c -0.33164,0.537667 -0.96252,1.029691 -4.36567,3.401537 -2.7289,1.901934 -4.5306,2.921453 -5.14702,2.913086 -0.1008,-0.0014 -0.30218,-0.03904 -0.44877,-0.08411 -0.92878,-0.285374 -2.43641,-1.221919 -6.10553,-3.789664 -2.19468,-1.535882 -2.65792,-1.914254 -2.99177,-2.452657 l -0.13072,-0.212506 c 5e-5,0.107568 2.7e-4,0.56354 0,0.608002 -1.2e-4,0.01351 -0.003,0.02483 -0.003,0.03841 v 4.98795 c 0,0.04661 0.0113,0.08573 0.0131,0.131342 l 0.0102,2.932268 0.14524,0.271539 c 0.11167,0.206946 0.20173,0.300815 0.38341,0.407294 l 0.23673,0.140197 3.85155,0.02355 c 2.11826,0.01273 6.08433,0.02193 8.81267,0.02065 l 4.96112,-0.0028 0.23963,-0.101818 c 0.30824,-0.131964 0.39882,-0.211042 0.54171,-0.478132 l 0.11474,-0.218413 0.004,-2.92489 c 0.004,-0.06875 0.0188,-0.12951 0.0188,-0.200701 V 71.92994 c 0,-0.0094 -0.003,-0.01719 -0.003,-0.0266 z"
             id="path371" />
        </g>
        <g
           id="g405">
          <path
             style="color:#bebebe;display:inline;overflow:visible;visibility:visible;fill:url(#linearGradient3870);fill-opacity:1;fill-rule:nonzero;stroke:none;stroke-width:2;marker:none;enable-background:accumulate"
             d="m 422,101.5 c -2.49699,0 -4.5,2.00301 -4.5,4.5 v 12 c 0,2.49699 2.00301,4.5 4.5,4.5 h 12 c 2.49699,0 4.5,-2.00301 4.5,-4.5 v -12 c 0,-2.49699 -2.00301,-4.5 -4.5,-4.5 z"
             id="path4204"
             inkscape:connector-curvature="0" />
          <path
             id="path379"
             d="m 427.99975,102.69863 c -0.43914,0 -0.8793,0.0202 -1.15895,0.0609 -3.37548,0.49037 -5.37011,2.15051 -5.76952,4.80135 -0.0441,0.29288 -0.0571,0.81262 -0.0641,2.80515 l -0.007,2.36701 0.0968,0.15709 c 0.24176,0.38988 0.57721,0.66387 2.16646,1.77607 2.65695,1.85939 3.74868,2.53758 4.42125,2.74423 0.10615,0.0326 0.25197,0.06 0.32498,0.0609 0.44637,0.006 1.75104,-0.73221 3.72714,-2.10947 2.46434,-1.71755 2.92119,-2.07384 3.16135,-2.46319 l 0.10201,-0.16564 v -1.95236 c 0,-2.54601 -0.0176,-2.99687 -0.13566,-3.54251 -0.21053,-0.97305 -0.59349,-1.74229 -1.20418,-2.41189 -0.98022,-1.0748 -2.51287,-1.77773 -4.50223,-2.06673 -0.27966,-0.0407 -0.71876,-0.0609 -1.1579,-0.0609 z m 0,3.28283 c 2.15384,0 3.1962,1.29 3.68193,2.87033 0.0855,0.27823 0.0873,0.28956 0.0873,1.42128 0,0.62748 -0.01,1.15215 -0.0221,1.16481 -0.0123,0.0127 -1.6912,0.0176 -3.74714,0.0128 -2.05593,0.005 -3.73482,-2.5e-4 -3.74713,-0.0128 -0.0123,-0.0127 -0.0221,-0.53733 -0.0221,-1.16481 0,-1.13172 0.002,-1.14305 0.0873,-1.42128 0.48573,-1.58033 1.52809,-2.87033 3.68192,-2.87033 z m 6.99996,8.393 -0.10201,0.16565 c -0.24015,0.38934 -0.697,0.74564 -3.16135,2.46318 -1.9761,1.37726 -3.28077,2.11553 -3.72714,2.10948 -0.073,-10e-4 -0.21883,-0.0283 -0.32497,-0.0609 -0.67257,-0.20665 -1.7643,-0.88484 -4.42125,-2.74424 -1.58925,-1.11219 -1.9247,-1.38619 -2.16646,-1.77607 l -0.0947,-0.15388 c 3e-5,0.0779 1.8e-4,0.40808 0,0.44028 -10e-5,0.01 -0.002,0.018 -0.002,0.0278 v 3.61196 c 0,0.0338 0.008,0.0621 0.009,0.0951 l 0.007,2.12337 0.10516,0.19663 c 0.0809,0.14986 0.14609,0.21783 0.27764,0.29494 l 0.17143,0.10152 2.78905,0.0171 c 1.53391,0.009 4.40589,0.0159 6.38159,0.0149 l 3.59254,-0.002 0.17352,-0.0737 c 0.22321,-0.0956 0.2888,-0.15282 0.39228,-0.34623 l 0.0831,-0.15816 0.003,-2.11802 c 0.003,-0.0498 0.0136,-0.0938 0.0136,-0.14534 v -3.61196 c 0,-0.007 -0.002,-0.0125 -0.002,-0.0193 z"
             style="fill:#ffffff;stroke-width:0.54278135"
             inkscape:connector-curvature="0" />
        </g>
        <g
           id="g409">
          <path
             style="color:#bebebe;display:inline;overflow:visible;visibility:visible;fill:url(#linearGradient4256);fill-opacity:1;fill-rule:nonzero;stroke:none;stroke-width:2;marker:none;enable-background:accumulate"
             d="m 419,140.5 c -1.3844,0 -2.5,1.1156 -2.5,2.5 v 10 c 0,1.3844 1.1156,2.5 2.5,2.5 h 10 c 1.3844,0 2.5,-1.1156 2.5,-2.5 v -10 c 0,-1.3844 -1.1156,-2.5 -2.5,-2.5 z"
             id="path4202"
             inkscape:connector-curvature="0" />
          <path
             inkscape:connector-curvature="0"
             style="fill:#ffffff;stroke-width:0.38770097"
             d="m 423.99967,141.35615 c -0.31367,0 -0.62807,0.0145 -0.82782,0.0435 -2.41106,0.35026 -3.83579,1.53607 -4.12108,3.42953 -0.0315,0.2092 -0.0408,0.58045 -0.0458,2.00368 l -0.005,1.69072 0.0691,0.11221 c 0.17269,0.27849 0.41229,0.4742 1.54747,1.26862 1.89782,1.32814 2.67763,1.81256 3.15804,1.96017 0.0758,0.0233 0.17998,0.0428 0.23213,0.0435 0.31883,0.004 1.25074,-0.52301 2.66224,-1.50677 1.76024,-1.22682 2.08656,-1.48132 2.25811,-1.75942 l 0.0729,-0.11832 v -1.39456 c 0,-1.81857 -0.0126,-2.14062 -0.0969,-2.53036 -0.15038,-0.69503 -0.42392,-1.24449 -0.86012,-1.72278 -0.70016,-0.76771 -1.79492,-1.2698 -3.21589,-1.47623 -0.19975,-0.029 -0.5134,-0.0435 -0.82707,-0.0435 z m 0,2.34488 c 1.53846,0 2.283,0.92143 2.62995,2.05023 0.0611,0.19874 0.0623,0.20683 0.0623,1.0152 0,0.44821 -0.007,0.82297 -0.0158,0.83201 -0.009,0.009 -1.208,0.0126 -2.67653,0.009 -1.46852,0.004 -2.66773,-1.7e-4 -2.67652,-0.009 -0.009,-0.009 -0.0158,-0.3838 -0.0158,-0.83201 0,-0.80837 10e-4,-0.81646 0.0623,-1.0152 0.34695,-1.1288 1.09149,-2.05023 2.62994,-2.05023 z m 4.99997,5.995 -0.0729,0.11832 c -0.17154,0.2781 -0.49786,0.5326 -2.25811,1.75942 -1.4115,0.98375 -2.34341,1.51109 -2.66224,1.50676 -0.0521,-7.3e-4 -0.15631,-0.0202 -0.23213,-0.0435 -0.4804,-0.14761 -1.26021,-0.63203 -3.15803,-1.96017 -1.13518,-0.79443 -1.37479,-0.99014 -1.54747,-1.26862 l -0.0676,-0.10992 c 2e-5,0.0556 1.3e-4,0.29149 0,0.31449 -7e-5,0.007 -0.001,0.0128 -0.001,0.0199 v 2.57998 c 0,0.0241 0.006,0.0443 0.007,0.0679 l 0.005,1.51669 0.0751,0.14045 c 0.0578,0.10705 0.10436,0.1556 0.19831,0.21067 l 0.12245,0.0725 1.99219,0.0122 c 1.09564,0.007 3.14707,0.0113 4.55828,0.0107 l 2.5661,-0.001 0.12394,-0.0527 c 0.15944,-0.0683 0.20629,-0.10916 0.2802,-0.24731 l 0.0593,-0.11297 0.002,-1.51288 c 0.002,-0.0356 0.01,-0.067 0.01,-0.10381 v -2.57997 c 0,-0.005 -10e-4,-0.009 -10e-4,-0.0138 z"
             id="path387" />
        </g>
      </g>
    </g>
    <g
       inkscape:groupmode="layer"
       id="layer5"
       inkscape:label="Highlights"
       style="display:inline"
       sodipodi:insensitive="true">
      <path
         style="opacity:0.12999998;color:#bebebe;fill:#ffffff;fill-opacity:1;fill-rule:nonzero;stroke:none;stroke-width:0;marker:none;visibility:visible;display:inline;overflow:visible;enable-background:accumulate"
         d="M 84,47 C 56.836703,47 35,68.836703 35,96 l 0,1 C 35,69.836703 56.836703,48 84,48 l 120,0 c 27.1633,0 49,21.836703 49,49 l 0,-1 C 253,68.836703 231.1633,47 204,47 L 84,47 z"
         id="rect3894"
         inkscape:connector-curvature="0" />
      <path
         style="opacity:0.12999998;color:#bebebe;fill:#ffffff;fill-opacity:1;fill-rule:nonzero;stroke:none;stroke-width:0;marker:none;visibility:visible;display:inline;overflow:visible;enable-background:accumulate"
         d="m 419,141 c -1.1253,0 -2,0.8747 -2,2 l 0,1 c 0,-1.1253 0.8747,-2 2,-2 l 10,0 c 1.1253,0 2,0.8747 2,2 l 0,-1 c 0,-1.1253 -0.8747,-2 -2,-2 l -10,0 z"
         id="rect3896"
         inkscape:connector-curvature="0" />
      <path
         style="opacity:0.12999998;color:#bebebe;fill:#ffffff;fill-opacity:1;fill-rule:nonzero;stroke:none;stroke-width:0;marker:none;visibility:visible;display:inline;overflow:visible;enable-background:accumulate"
         d="m 422,102 c -2.2333,0 -4,1.7667 -4,4 l 0,1 c 0,-2.2333 1.7667,-4 4,-4 l 12,0 c 2.2333,0 4,1.7667 4,4 l 0,-1 c 0,-2.2333 -1.7667,-4 -4,-4 l -12,0 z"
         id="rect3898"
         inkscape:connector-curvature="0" />
      <path
         style="opacity:0.12999998;color:#bebebe;fill:#ffffff;fill-opacity:1;fill-rule:nonzero;stroke:none;stroke-width:0;marker:none;visibility:visible;display:inline;overflow:visible;enable-background:accumulate"
         d="m 424,54 c -3.3413,0 -6,2.658703 -6,6 l 0,1 c 0,-3.341297 2.6587,-6 6,-6 l 16,0 c 3.3413,0 6,2.658703 6,6 l 0,-1 c 0,-3.341297 -2.6587,-6 -6,-6 l -16,0 z"
         id="rect3900"
         inkscape:connector-curvature="0" />
      <path
         style="opacity:0.12999998;color:#bebebe;fill:#ffffff;fill-opacity:1;fill-rule:nonzero;stroke:none;stroke-width:0;marker:none;visibility:visible;display:inline;overflow:visible;enable-background:accumulate"
         d="m 300,224 c -4.4493,0 -8,3.5507 -8,8 l 0,1 c 0,-4.4493 3.5507,-8 8,-8 l 24,0 c 4.4493,0 8,3.5507 8,8 l 0,-1 c 0,-4.4493 -3.5507,-8 -8,-8 l -24,0 z"
         id="rect3902"
         inkscape:connector-curvature="0" />
      <path
         style="opacity:0.12999998;color:#bebebe;fill:#ffffff;fill-opacity:1;fill-rule:nonzero;stroke:none;stroke-width:0;marker:none;visibility:visible;display:inline;overflow:visible;enable-background:accumulate"
         d="m 310,33 c -9.4353,0 -17,7.564703 -17,17 l 0,1 c 0,-9.435297 7.5647,-17 17,-17 l 52,0 c 9.4353,0 17,7.564703 17,17 l 0,-1 c 0,-9.435297 -7.5647,-17 -17,-17 l -52,0 z"
         id="rect3904"
         inkscape:connector-curvature="0" />
      <path
         style="opacity:0.12999998;color:#bebebe;fill:#ffffff;fill-opacity:1;fill-rule:nonzero;stroke:none;stroke-width:0;marker:none;visibility:visible;display:inline;overflow:visible;enable-background:accumulate"
         d="m 302.5,143 c -6.3883,0 -11.5,5.1117 -11.5,11.5 l 0,1 c 0,-6.3883 5.1117,-11.5 11.5,-11.5 l 35,0 c 6.3883,0 11.5,5.1117 11.5,11.5 l 0,-1 c 0,-6.3883 -5.1117,-11.5 -11.5,-11.5 l -35,0 z"
         id="rect3906"
         inkscape:connector-curvature="0" />
      <path
         id="path4085"
         d="m 204,266 c 27.1633,0 49,-21.8367 49,-49 l 0,-1 c 0,27.1633 -21.8367,49 -49,49 L 84,265 C 56.8367,265 35,243.1633 35,216 l 0,1 c 0,27.1633 21.8367,49 49,49 l 120,0 z"
         style="opacity:0.41;color:#bebebe;fill:#000000;fill-opacity:1;fill-rule:nonzero;stroke:none;stroke-width:0;marker:none;visibility:visible;display:inline;overflow:visible;enable-background:accumulate"
         inkscape:connector-curvature="0" />
      <path
         id="path4087"
         d="m 429,156 c 1.1253,0 2,-0.8747 2,-2 l 0,-1 c 0,1.1253 -0.8747,2 -2,2 l -10,0 c -1.1253,0 -2,-0.8747 -2,-2 l 0,1 c 0,1.1253 0.8747,2 2,2 l 10,0 z"
         style="opacity:0.3;color:#bebebe;fill:#000000;fill-opacity:1;fill-rule:nonzero;stroke:none;stroke-width:0;marker:none;visibility:visible;display:inline;overflow:visible;enable-background:accumulate"
         inkscape:connector-curvature="0" />
      <path
         id="path4089"
         d="m 434,123 c 2.2333,0 4,-1.7667 4,-4 l 0,-1 c 0,2.2333 -1.7667,4 -4,4 l -12,0 c -2.2333,0 -4,-1.7667 -4,-4 l 0,1 c 0,2.2333 1.7667,4 4,4 l 12,0 z"
         style="opacity:0.3;color:#bebebe;fill:#000000;fill-opacity:1;fill-rule:nonzero;stroke:none;stroke-width:0;marker:none;visibility:visible;display:inline;overflow:visible;enable-background:accumulate"
         inkscape:connector-curvature="0" />
      <path
         id="path4091"
         d="m 440,83 c 3.3413,0 6,-2.6587 6,-6 l 0,-1 c 0,3.3413 -2.6587,6 -6,6 l -16,0 c -3.3413,0 -6,-2.6587 -6,-6 l 0,1 c 0,3.3413 2.6587,6 6,6 l 16,0 z"
         style="opacity:0.41;color:#bebebe;fill:#000000;fill-opacity:1;fill-rule:nonzero;stroke:none;stroke-width:0;marker:none;visibility:visible;display:inline;overflow:visible;enable-background:accumulate"
         inkscape:connector-curvature="0" />
      <path
         id="path4093"
         d="m 324,265 c 4.4493,0 8,-3.5507 8,-8 l 0,-1 c 0,4.4493 -3.5507,8 -8,8 l -24,0 c -4.4493,0 -8,-3.5507 -8,-8 l 0,1 c 0,4.4493 3.5507,8 8,8 l 24,0 z"
         style="opacity:0.41;color:#bebebe;fill:#000000;fill-opacity:1;fill-rule:nonzero;stroke:none;stroke-width:0;marker:none;visibility:visible;display:inline;overflow:visible;enable-background:accumulate"
         inkscape:connector-curvature="0" />
      <path
         id="path4095"
         d="m 362,120 c 9.4353,0 17,-7.5647 17,-17 l 0,-1 c 0,9.4353 -7.5647,17 -17,17 l -52,0 c -9.4353,0 -17,-7.5647 -17,-17 l 0,1 c 0,9.4353 7.5647,17 17,17 l 52,0 z"
         style="opacity:0.41;color:#bebebe;fill:#000000;fill-opacity:1;fill-rule:nonzero;stroke:none;stroke-width:0;marker:none;visibility:visible;display:inline;overflow:visible;enable-background:accumulate"
         inkscape:connector-curvature="0" />
      <path
         id="path4097"
         d="m 337.5,202 c 6.3883,0 11.5,-5.1117 11.5,-11.5 l 0,-1 c 0,6.3883 -5.1117,11.5 -11.5,11.5 l -35,0 c -6.3883,0 -11.5,-5.1117 -11.5,-11.5 l 0,1 c 0,6.3883 5.1117,11.5 11.5,11.5 l 35,0 z"
         style="opacity:0.41;color:#bebebe;fill:#000000;fill-opacity:1;fill-rule:nonzero;stroke:none;stroke-width:0;marker:none;visibility:visible;display:inline;overflow:visible;enable-background:accumulate"
         inkscape:connector-curvature="0" />
      <path
         inkscape:connector-curvature="0"
         id="path4280"
         d="M 84,265 C 56.836703,265 35,243.1633 35,216 l 0,-1 c 0,27.1633 21.836703,49 49,49 l 120,0 c 27.1633,0 49,-21.8367 49,-49 l 0,1 c 0,27.1633 -21.8367,49 -49,49 l -120,0 z"
         style="opacity:0.1;color:#bebebe;fill:#ffffff;fill-opacity:1;fill-rule:nonzero;stroke:none;stroke-width:0;marker:none;visibility:visible;display:inline;overflow:visible;enable-background:accumulate" />
      <path
         style="opacity:0.1;color:#bebebe;fill:#ffffff;fill-opacity:1;fill-rule:nonzero;stroke:none;stroke-width:0;marker:none;visibility:visible;display:inline;overflow:visible;enable-background:accumulate"
         d="m 300,264 c -4.4493,0 -8,-3.5507 -8,-8 l 0,-1 c 0,4.4493 3.5507,8 8,8 l 24,0 c 4.4493,0 8,-3.5507 8,-8 l 0,1 c 0,4.4493 -3.5507,8 -8,8 l -24,0 z"
         id="path4294"
         inkscape:connector-curvature="0" />
      <path
         style="opacity:0.1;color:#bebebe;fill:#ffffff;fill-opacity:1;fill-rule:nonzero;stroke:none;stroke-width:0;marker:none;visibility:visible;display:inline;overflow:visible;enable-background:accumulate"
         d="m 302.5,201 c -6.3883,0 -11.5,-5.1117 -11.5,-11.5 l 0,-1 c 0,6.3883 5.1117,11.5 11.5,11.5 l 35,0 c 6.3883,0 11.5,-5.1117 11.5,-11.5 l 0,1 c 0,6.3883 -5.1117,11.5 -11.5,11.5 l -35,0 z"
         id="path4296"
         inkscape:connector-curvature="0" />
      <path
         style="opacity:0.1;color:#bebebe;fill:#ffffff;fill-opacity:1;fill-rule:nonzero;stroke:none;stroke-width:0;marker:none;visibility:visible;display:inline;overflow:visible;enable-background:accumulate"
         d="m 310,119 c -9.4353,0 -17,-7.5647 -17,-17 l 0,-1 c 0,9.4353 7.5647,17 17,17 l 52,0 c 9.4353,0 17,-7.5647 17,-17 l 0,1 c 0,9.4353 -7.5647,17 -17,17 l -52,0 z"
         id="path4298"
         inkscape:connector-curvature="0" />
      <path
         style="opacity:0.1;color:#bebebe;fill:#ffffff;fill-opacity:1;fill-rule:nonzero;stroke:none;stroke-width:0;marker:none;visibility:visible;display:inline;overflow:visible;enable-background:accumulate"
         d="m 424,82 c -3.3413,0 -6,-2.658703 -6,-6 l 0,-1 c 0,3.341297 2.6587,6 6,6 l 16,0 c 3.3413,0 6,-2.658703 6,-6 l 0,1 c 0,3.341297 -2.6587,6 -6,6 l -16,0 z"
         id="path4300"
         inkscape:connector-curvature="0" />
      <path
         style="opacity:0.1;color:#bebebe;fill:#ffffff;fill-opacity:1;fill-rule:nonzero;stroke:none;stroke-width:0;marker:none;visibility:visible;display:inline;overflow:visible;enable-background:accumulate"
         d="m 422,122 c -2.2333,0 -4,-1.7667 -4,-4 l 0,-1 c 0,2.2333 1.7667,4 4,4 l 12,0 c 2.2333,0 4,-1.7667 4,-4 l 0,1 c 0,2.2333 -1.7667,4 -4,4 l -12,0 z"
         id="path4302"
         inkscape:connector-curvature="0" />
      <path
         style="opacity:0.1;color:#bebebe;fill:#ffffff;fill-opacity:1;fill-rule:nonzero;stroke:none;stroke-width:0;marker:none;visibility:visible;display:inline;overflow:visible;enable-background:accumulate"
         d="m 419,154.5 c -1.1253,0 -2,-0.8747 -2,-2 l 0,-1 c 0,1.1253 0.8747,2 2,2 l 10,0 c 1.1253,0 2,-0.8747 2,-2 l 0,1 c 0,1.1253 -0.8747,2 -2,2 l -10,0 z"
         id="path4304"
         inkscape:connector-curvature="0" />
    </g>
    <g
       inkscape:groupmode="layer"
       id="layer3"
       inkscape:label="Border"
       style="display:inline"
       sodipodi:insensitive="true">
      <path
         style="opacity:0.41;color:#bebebe;fill:#000000;fill-opacity:1;fill-rule:nonzero;stroke:none;stroke-width:0;marker:none;visibility:visible;display:inline;overflow:visible;enable-background:accumulate"
         d="m 422,101 c -2.77,0 -5,2.23 -5,5 l 0,12 c 0,2.77 2.23,5 5,5 l 12,0 c 2.77,0 5,-2.23 5,-5 l 0,-12 c 0,-2.77 -2.23,-5 -5,-5 l -12,0 z m 0,1 12,0 c 2.2333,0 4,1.7667 4,4 l 0,12 c 0,2.2333 -1.7667,4 -4,4 l -12,0 c -2.2333,0 -4,-1.7667 -4,-4 l 0,-12 c 0,-2.2333 1.7667,-4 4,-4 z"
         id="rect4099"
         inkscape:connector-curvature="0" />
      <path
         style="opacity:0.41;color:#bebebe;fill:#000000;fill-opacity:1;fill-rule:nonzero;stroke:none;stroke-width:0;marker:none;visibility:visible;display:inline;overflow:visible;enable-background:accumulate"
         d="m 424,53 c -3.878,0 -7,3.122 -7,7 l 0,16 c 0,3.878 3.122,7 7,7 l 16,0 c 3.878,0 7,-3.122 7,-7 l 0,-16 c 0,-3.878 -3.122,-7 -7,-7 l -16,0 z m 0,1 16,0 c 3.3413,0 6,2.658703 6,6 l 0,16 c 0,3.341297 -2.6587,6 -6,6 l -16,0 c -3.3413,0 -6,-2.658703 -6,-6 l 0,-16 c 0,-3.341297 2.6587,-6 6,-6 z"
         id="rect4151"
         inkscape:connector-curvature="0" />
      <path
         style="opacity:0.41;color:#bebebe;fill:#000000;fill-opacity:1;fill-rule:nonzero;stroke:none;stroke-width:0;marker:none;visibility:visible;display:inline;overflow:visible;enable-background:accumulate"
         d="m 419,140 c -1.662,0 -3,1.338 -3,3 l 0,10 c 0,1.662 1.338,3 3,3 l 10,0 c 1.662,0 3,-1.338 3,-3 l 0,-10 c 0,-1.662 -1.338,-3 -3,-3 l -10,0 z m 0,1 10,0 c 1.1253,0 2,0.8747 2,2 l 0,10 c 0,1.1253 -0.8747,2 -2,2 l -10,0 c -1.1253,0 -2,-0.8747 -2,-2 l 0,-10 c 0,-1.1253 0.8747,-2 2,-2 z"
         id="rect4095"
         inkscape:connector-curvature="0" />
      <path
         style="opacity:0.41;color:#bebebe;fill:#000000;fill-opacity:1;fill-rule:nonzero;stroke:none;stroke-width:0;marker:none;visibility:visible;display:inline;overflow:visible;enable-background:accumulate"
         d="m 300,223 c -4.986,0 -9,4.014 -9,9 l 0,24 c 0,4.986 4.014,9 9,9 l 24,0 c 4.986,0 9,-4.014 9,-9 l 0,-24 c 0,-4.986 -4.014,-9 -9,-9 l -24,0 z m 0,1 24,0 c 4.4493,0 8,3.5507 8,8 l 0,24 c 0,4.4493 -3.5507,8 -8,8 l -24,0 c -4.4493,0 -8,-3.5507 -8,-8 l 0,-24 c 0,-4.4493 3.5507,-8 8,-8 z"
         id="rect4783"
         inkscape:connector-curvature="0" />
      <path
         style="opacity:0.41;color:#bebebe;fill:#000000;fill-opacity:1;fill-rule:nonzero;stroke:none;stroke-width:0;marker:none;visibility:visible;display:inline;overflow:visible;enable-background:accumulate"
         d="m 302.5,142 c -6.925,0 -12.5,5.575 -12.5,12.5 l 0,35 c 0,6.925 5.575,12.5 12.5,12.5 l 35,0 c 6.925,0 12.5,-5.575 12.5,-12.5 l 0,-35 c 0,-6.925 -5.575,-12.5 -12.5,-12.5 l -35,0 z m 0,1 35,0 c 6.3883,0 11.5,5.1117 11.5,11.5 l 0,35 c 0,6.3883 -5.1117,11.5 -11.5,11.5 l -35,0 c -6.3883,0 -11.5,-5.1117 -11.5,-11.5 l 0,-35 c 0,-6.3883 5.1117,-11.5 11.5,-11.5 z"
         id="rect4515"
         inkscape:connector-curvature="0" />
      <path
         style="opacity:0.41;color:#bebebe;fill:#000000;fill-opacity:1;fill-rule:nonzero;stroke:none;stroke-width:0;marker:none;visibility:visible;display:inline;overflow:visible;enable-background:accumulate"
         d="m 310,32 c -9.972,0 -18,8.028 -18,18 l 0,52 c 0,9.972 8.028,18 18,18 l 52,0 c 9.972,0 18,-8.028 18,-18 l 0,-52 c 0,-9.972 -8.028,-18 -18,-18 l -52,0 z m 0,1 52,0 c 9.4353,0 17,7.564703 17,17 l 0,52 c 0,9.4353 -7.5647,17 -17,17 l -52,0 c -9.4353,0 -17,-7.5647 -17,-17 l 0,-52 c 0,-9.435297 7.5647,-17 17,-17 z"
         id="rect4511"
         inkscape:connector-curvature="0" />
      <path
         style="opacity:0.41;color:#bebebe;fill:#000000;fill-opacity:1;fill-rule:nonzero;stroke:none;stroke-width:0;marker:none;visibility:visible;display:inline;overflow:visible;enable-background:accumulate"
         d="M 84,46 C 56.3,46 34,68.3 34,96 l 0,120 c 0,27.7 22.3,50 50,50 l 120,0 c 27.7,0 50,-22.3 50,-50 L 254,96 C 254,68.3 231.7,46 204,46 L 84,46 z m 0,1 120,0 c 27.1633,0 49,21.836703 49,49 l 0,120 c 0,27.1633 -21.8367,49 -49,49 L 84,265 C 56.836703,265 35,243.1633 35,216 L 35,96 C 35,68.836703 56.836703,47 84,47 z"
         id="rect4040"
         inkscape:connector-curvature="0" />
    </g>
  </g>
</svg>
