<?xml version="1.0" encoding="UTF-8" standalone="no"?>
<!-- Created with Inkscape (http://www.inkscape.org/) -->

<svg
   xmlns:dc="http://purl.org/dc/elements/1.1/"
   xmlns:cc="http://creativecommons.org/ns#"
   xmlns:rdf="http://www.w3.org/1999/02/22-rdf-syntax-ns#"
   xmlns:svg="http://www.w3.org/2000/svg"
   xmlns="http://www.w3.org/2000/svg"
   xmlns:xlink="http://www.w3.org/1999/xlink"
   xmlns:sodipodi="http://sodipodi.sourceforge.net/DTD/sodipodi-0.dtd"
   xmlns:inkscape="http://www.inkscape.org/namespaces/inkscape"
   inkscape:export-ydpi="90.000000"
   inkscape:export-xdpi="90.000000"
   width="480"
   height="300"
   id="svg11300"
   sodipodi:version="0.32"
   inkscape:version="0.92.5 (2060ec1f9f, 2020-04-08)"
   sodipodi:docname="dart (another copy).svg"
   inkscape:output_extension="org.inkscape.output.svg.inkscape"
   version="1.0"
   style="display:inline;enable-background:new"
   inkscape:export-filename="/home/sam/moka-next-template.png">
  <sodipodi:namedview
     stroke="#ef2929"
     fill="#f57900"
     id="base"
     pagecolor="#777777"
     bordercolor="#666666"
     borderopacity="0.25490196"
     inkscape:pageopacity="0"
     inkscape:pageshadow="2"
     inkscape:zoom="1.3199327"
     inkscape:cx="394.58739"
     inkscape:cy="150.78612"
     inkscape:current-layer="layer6"
     showgrid="false"
     inkscape:grid-bbox="true"
     inkscape:document-units="px"
     inkscape:showpageshadow="false"
     inkscape:window-width="1366"
     inkscape:window-height="741"
     inkscape:window-x="0"
     inkscape:window-y="0"
     width="400px"
     height="300px"
     inkscape:snap-nodes="true"
     inkscape:snap-bbox="true"
     gridtolerance="10000"
     inkscape:object-nodes="true"
     inkscape:snap-grids="true"
     showguides="true"
     inkscape:guide-bbox="true"
     inkscape:window-maximized="1"
     inkscape:bbox-nodes="true"
     inkscape:bbox-paths="true"
     inkscape:snap-bbox-edge-midpoints="true"
     inkscape:snap-bbox-midpoints="true">
    <inkscape:grid
       spacingy="1"
       spacingx="1"
       id="grid5883"
       type="xygrid"
       enabled="true"
       visible="true"
       empspacing="4"
       snapvisiblegridlinesonly="true"
       dotted="false"
       color="#000000"
       opacity="0.1254902"
       empcolor="#203ef3"
       empopacity="0.36470588"
       originx="0"
       originy="0" />
    <inkscape:grid
       type="xygrid"
       id="grid11592"
       empspacing="8"
       visible="true"
       enabled="false"
       spacingx="0.5"
       spacingy="0.5"
       color="#ff0000"
       opacity="0.1254902"
       empcolor="#ff0000"
       empopacity="0.25098039"
       snapvisiblegridlinesonly="true"
       dotted="true"
       originx="0"
       originy="0" />
  </sodipodi:namedview>
  <defs
     id="defs3">
    <linearGradient
       id="outerBackgroundGradient-5">
      <stop
         style="stop-color:#f2f2f2;stop-opacity:1;"
         offset="0"
         id="stop3864-8-6-7" />
      <stop
         style="stop-color:#ffffff;stop-opacity:1;"
         offset="1"
         id="stop3866-9-1-73" />
    </linearGradient>
    <linearGradient
       inkscape:collect="always"
       xlink:href="#outerBackgroundGradient-5"
       id="linearGradient7768"
       gradientUnits="userSpaceOnUse"
       gradientTransform="matrix(0,-1,1,0,68,556)"
       x1="292"
       y1="244"
       x2="332"
       y2="244" />
    <linearGradient
       id="a">
      <stop
         id="stop256"
         stop-opacity=".208"
         stop-color="#31363b"
         offset="0" />
      <stop
         id="stop258"
         stop-opacity="0"
         stop-color="#31363b"
         offset="1" />
    </linearGradient>
    <linearGradient
       y2="1035.361953"
       y1="1021.361953"
       xlink:href="#a"
       x2="45.969"
       x1="31.969"
       gradientUnits="userSpaceOnUse"
       id="b" />
    <linearGradient
       y2="26.9998"
       y1="13.9998"
       xlink:href="#a"
       x2="49"
       x1="36"
       gradientUnits="userSpaceOnUse"
       id="c" />
    <linearGradient
       y2="42.2958"
       y1="29.2958"
       xlink:href="#a"
       x2="18.725"
       x1="5.725"
       gradientUnits="userSpaceOnUse"
       id="d" />
    <linearGradient
       y2="1048.362"
       y1="1008.362"
       x2="24"
       x1="24"
       gradientUnits="userSpaceOnUse"
       id="e"
       gradientTransform="matrix(5,0,0,4.9999826,556,-4977.7923)">
      <stop
         id="stop264"
         stop-color="#054e87"
         offset="0" />
      <stop
         id="stop266"
         stop-color="#1d99f3"
         offset="1" />
    </linearGradient>
    <linearGradient
       y2="1031.848516"
       y1="1019.461516"
       xlink:href="#a"
       x2="41.94733"
       x1="27.06333"
       gradientUnits="userSpaceOnUse"
       id="f" />
    <linearGradient
       y2="1044.510147"
       y1="1032.123147"
       xlink:href="#a"
       x2="29.639253"
       x1="14.755253"
       gradientUnits="userSpaceOnUse"
       id="g" />
    <linearGradient
       y2="1048.192127"
       y1="1034.192127"
       xlink:href="#a"
       x2="33.098692"
       x1="19.098692"
       gradientUnits="userSpaceOnUse"
       id="h" />
    <linearGradient
       inkscape:collect="always"
       xlink:href="#e"
       id="linearGradient1185"
       x1="253.5"
       y1="156"
       x2="253.5"
       y2="156"
       gradientUnits="userSpaceOnUse" />
    <linearGradient
       inkscape:collect="always"
       xlink:href="#e"
       id="linearGradient1214"
       gradientUnits="userSpaceOnUse"
       x1="253.5"
       y1="156"
       x2="253.5"
       y2="156"
       gradientTransform="matrix(0.39726027,0,0,0.39726027,461.43518,14.0274)" />
    <linearGradient
       inkscape:collect="always"
       xlink:href="#e"
       id="linearGradient1244"
       gradientUnits="userSpaceOnUse"
       gradientTransform="matrix(0.26940638,0,0,0.26940639,405.06523,129.9726)"
       x1="253.5"
       y1="156"
       x2="253.5"
       y2="156" />
    <linearGradient
       inkscape:collect="always"
       xlink:href="#e"
       id="linearGradient1270"
       gradientUnits="userSpaceOnUse"
       gradientTransform="matrix(0.26940638,0,0,0.26940639,405.06523,129.9726)"
       x1="253.5"
       y1="156"
       x2="253.5"
       y2="156" />
    <linearGradient
       inkscape:collect="always"
       xlink:href="#e"
       id="linearGradient1294"
       gradientUnits="userSpaceOnUse"
       gradientTransform="matrix(0.13242008,0,0,0.13242009,525.81173,47.342467)"
       x1="253.5"
       y1="156"
       x2="253.5"
       y2="156" />
    <linearGradient
       inkscape:collect="always"
       xlink:href="#e"
       id="linearGradient1324"
       gradientUnits="userSpaceOnUse"
       gradientTransform="matrix(0.0958904,0,0,0.09589041,524.85073,97.041097)"
       x1="253.5"
       y1="156"
       x2="253.5"
       y2="156" />
    <linearGradient
       inkscape:collect="always"
       xlink:href="#e"
       id="linearGradient1355"
       gradientUnits="userSpaceOnUse"
       gradientTransform="matrix(0.06849313,0,0,0.06849315,512.68765,137.31507)"
       x1="253.5"
       y1="156"
       x2="253.5"
       y2="156" />
  </defs>
  <metadata
     id="metadata4">
    <rdf:RDF>
      <cc:Work
         rdf:about="">
        <dc:format>image/svg+xml</dc:format>
        <dc:type
           rdf:resource="http://purl.org/dc/dcmitype/StillImage" />
        <dc:creator>
          <cc:Agent>
            <dc:title>Sam Hewitt</dc:title>
          </cc:Agent>
        </dc:creator>
        <dc:source />
        <cc:license
           rdf:resource="" />
        <dc:title />
        <dc:subject>
          <rdf:Bag />
        </dc:subject>
        <dc:date />
        <dc:rights>
          <cc:Agent>
            <dc:title />
          </cc:Agent>
        </dc:rights>
        <dc:publisher>
          <cc:Agent>
            <dc:title />
          </cc:Agent>
        </dc:publisher>
        <dc:identifier />
        <dc:relation />
        <dc:language />
        <dc:coverage />
        <dc:description />
        <dc:contributor>
          <cc:Agent>
            <dc:title />
          </cc:Agent>
        </dc:contributor>
      </cc:Work>
      <cc:Work
         rdf:about="">
        <dc:format>image/svg+xml</dc:format>
        <dc:type
           rdf:resource="http://purl.org/dc/dcmitype/StillImage" />
      </cc:Work>
    </rdf:RDF>
  </metadata>
  <g
     style="display:inline"
     inkscape:groupmode="layer"
     inkscape:label="Icon"
     id="layer1">
    <g
       style="display:none"
       inkscape:label="Baseplate"
       id="layer7"
       inkscape:groupmode="layer">
      <text
         y="19.745117"
         xml:space="preserve"
         x="15.006836"
         style="font-style:normal;font-variant:normal;font-weight:normal;font-stretch:normal;line-height:0%;font-family:'DejaVu Sans';-inkscape-font-specification:'DejaVu Sans';display:inline;fill:#000000;fill-opacity:1;stroke:none;enable-background:new"
         inkscape:label="context"
         id="context"><tspan
           style="font-style:normal;font-variant:normal;font-weight:normal;font-stretch:normal;font-size:18px;line-height:1.25;font-family:'DejaVu Sans';-inkscape-font-specification:'DejaVu Sans'"
           y="19.745117"
           x="15.006836"
           sodipodi:role="line"
           id="tspan3933">apps</tspan></text>
      <text
         y="19.745117"
         xml:space="preserve"
         x="122.48828"
         style="font-style:normal;font-variant:normal;font-weight:bold;font-stretch:normal;line-height:0%;font-family:'DejaVu Sans';-inkscape-font-specification:'DejaVu Sans Bold';text-align:start;writing-mode:lr-tb;text-anchor:start;display:inline;fill:#000000;fill-opacity:1;stroke:none;enable-background:new"
         inkscape:label="icon-name"
         id="icon-name"><tspan
           style="font-style:normal;font-variant:normal;font-weight:bold;font-stretch:normal;font-size:18px;line-height:1.25;font-family:'DejaVu Sans';-inkscape-font-specification:'DejaVu Sans Bold'"
           y="19.745117"
           x="122.48828"
           sodipodi:role="line"
           id="tspan3937">dart</tspan></text>
      <rect
         style="fill:#eeeeec;fill-opacity:1;fill-rule:nonzero;stroke:none;stroke-width:2;marker:none;visibility:visible;display:inline;overflow:visible;enable-background:accumulate"
         id="rect16x16"
         width="16"
         height="16"
         x="416"
         y="140"
         inkscape:label="16x16" />
      <rect
         style="fill:#d4d4d4;fill-opacity:1;fill-rule:nonzero;stroke:none;stroke-width:2;marker:none;visibility:visible;display:inline;overflow:visible;enable-background:accumulate"
         id="rect24x24"
         width="24"
         height="24"
         x="416"
         y="100"
         inkscape:label="24x24" />
      <rect
         style="fill:#eeeeec;fill-opacity:1;fill-rule:nonzero;stroke:none;stroke-width:2;marker:none;visibility:visible;display:inline;overflow:visible;enable-background:accumulate"
         id="rect32x32"
         width="32"
         height="32"
         x="416"
         y="52"
         inkscape:label="32x32" />
      <rect
         inkscape:label="22x22"
         y="101"
         x="417"
         height="22"
         width="22"
         id="rect22x22"
         style="fill:#eeeeec;fill-opacity:1;fill-rule:nonzero;stroke:none;stroke-width:2;marker:none;visibility:visible;display:inline;overflow:visible;enable-background:accumulate" />
      <rect
         inkscape:label="48x48"
         y="220"
         x="288"
         height="48"
         width="48"
         id="rect48x48"
         style="fill:#eeeeec;fill-opacity:1;fill-rule:nonzero;stroke:none;stroke-width:2;marker:none;visibility:visible;display:inline;overflow:visible;enable-background:accumulate" />
      <rect
         style="fill:#eeeeec;fill-opacity:1;fill-rule:nonzero;stroke:none;stroke-width:2;marker:none;visibility:visible;display:inline;overflow:visible;enable-background:accumulate"
         id="rect256x256"
         width="256"
         height="256"
         x="16"
         y="28"
         inkscape:label="256x256" />
      <rect
         style="fill:#eeeeec;fill-opacity:1;fill-rule:nonzero;stroke:none;stroke-width:2;marker:none;visibility:visible;display:inline;overflow:visible;enable-background:accumulate"
         id="rect64x64"
         width="64"
         height="64"
         x="288"
         y="140"
         inkscape:label="64x64" />
      <rect
         style="fill:#eeeeec;fill-opacity:1;fill-rule:nonzero;stroke:none;stroke-width:2;marker:none;visibility:visible;display:inline;overflow:visible;enable-background:accumulate"
         id="rect96x96"
         width="96"
         height="96"
         x="288"
         y="28"
         inkscape:label="96x96" />
    </g>
    <g
       inkscape:groupmode="layer"
       id="layer4"
       inkscape:label="Shadow"
       style="display:inline"
       sodipodi:insensitive="true">
      <rect
         ry="50"
         y="47"
         x="34"
         height="220"
         width="220"
         id="rect4114"
         style="opacity:0.1;color:#bebebe;fill:#000000;fill-opacity:1;fill-rule:nonzero;stroke:none;stroke-width:0;marker:none;visibility:visible;display:inline;overflow:visible;enable-background:accumulate" />
      <rect
         style="opacity:0.1;color:#bebebe;fill:#000000;fill-opacity:1;fill-rule:nonzero;stroke:none;stroke-width:0;marker:none;visibility:visible;display:inline;overflow:visible;enable-background:accumulate"
         id="rect4120"
         width="30"
         height="30"
         x="417"
         y="54"
         ry="7" />
      <rect
         transform="scale(1,-1)"
         ry="9"
         y="-266"
         x="291"
         height="42"
         width="42"
         id="rect4122"
         style="opacity:0.1;color:#bebebe;fill:#000000;fill-opacity:1;fill-rule:nonzero;stroke:none;stroke-width:0;marker:none;visibility:visible;display:inline;overflow:visible;enable-background:accumulate" />
      <rect
         style="opacity:0.1;color:#bebebe;fill:#000000;fill-opacity:1;fill-rule:nonzero;stroke:none;stroke-width:0;marker:none;visibility:visible;display:inline;overflow:visible;enable-background:accumulate"
         id="rect4124"
         width="88"
         height="88"
         x="292"
         y="33"
         ry="18" />
      <rect
         ry="12.5"
         y="143"
         x="290"
         height="60"
         width="60"
         id="rect4126"
         style="opacity:0.1;color:#bebebe;fill:#000000;fill-opacity:1;fill-rule:nonzero;stroke:none;stroke-width:0;marker:none;visibility:visible;display:inline;overflow:visible;enable-background:accumulate" />
      <path
         id="path4268"
         d="m 422,101 c -2.77,0 -5,2.23 -5,5 l 0,12 c 0,2.77 2.23,5 5,5 l 12,0 c 2.77,0 5,-2.23 5,-5 l 0,-12 c 0,-2.77 -2.23,-5 -5,-5 z"
         style="opacity:0.1;color:#bebebe;fill:#000000;fill-opacity:1;fill-rule:nonzero;stroke:none;stroke-width:0;marker:none;visibility:visible;display:inline;overflow:visible;enable-background:accumulate"
         inkscape:connector-curvature="0"
         sodipodi:nodetypes="sssssssss" />
      <path
         id="path4270"
         d="m 419,140 c -1.662,0 -3,1.338 -3,3 l 0,10 c 0,1.662 1.338,3 3,3 l 10,0 c 1.662,0 3,-1.338 3,-3 l 0,-10 c 0,-1.662 -1.338,-3 -3,-3 z"
         style="opacity:0.1;color:#bebebe;fill:#000000;fill-opacity:1;fill-rule:nonzero;stroke:none;stroke-width:0;marker:none;visibility:visible;display:inline;overflow:visible;enable-background:accumulate"
         inkscape:connector-curvature="0"
         sodipodi:nodetypes="sssssssss" />
    </g>
    <g
       inkscape:groupmode="layer"
       id="layer2"
       inkscape:label="Background"
       style="display:inline" />
    <g
       inkscape:groupmode="layer"
       id="layer6"
       inkscape:label="Symbols"
       style="display:inline">
      <g
         id="g1417">
        <g
           transform="translate(0,-0.5)"
           id="g1256">
          <path
             inkscape:connector-curvature="0"
             id="path1232"
             d="m 302.36782,142.5 c -6.57989,0 -11.86782,5.28793 -11.86782,11.86782 v 35.26436 c 0,6.57989 5.28793,11.86782 11.86782,11.86782 h 35.26436 c 6.57989,0 11.86782,-5.28793 11.86782,-11.86782 V 154.36782 C 349.5,147.78793 344.21207,142.5 337.63218,142.5 Z"
             style="fill:url(#linearGradient1244);fill-opacity:1;stroke-width:1.34702957" />
          <g
             id="g1240"
             transform="matrix(0.28480112,0,0,0.28864971,280.67435,126.97066)">
            <path
               inkscape:connector-curvature="0"
               d="m 169.78287,85.999966 c -21.93516,0 -39.71712,18.079434 -39.71712,40.381554 0.009,1.08483 0.0605,2.16886 0.15516,3.24945 -6.82942,8.48402 -25.44777,29.86619 -27.07798,31.77944 -12.798242,0.17682 -24.242553,8.14405 -29.032809,20.21181 -6.552966,16.55235 1.333436,35.37166 17.614133,42.03257 16.280026,6.66251 34.789666,-1.35581 41.340976,-17.9088 1.45306,-3.69833 2.22101,-7.63796 2.26512,-11.62021 l 31.22552,-27.52045 c 1.07311,0.0971 2.14967,0.14968 3.227,0.15774 21.93516,0 39.71713,-18.07943 39.71713,-40.38155 0,-22.30212 -17.78197,-40.381554 -39.71713,-40.381554 z m 0,16.152624 c 13.16109,0 23.83028,10.84766 23.83028,24.22893 0,13.38127 -10.66919,24.22893 -23.83028,24.22893 -13.16109,0 -23.83027,-10.84766 -23.83027,-24.22893 0,-13.38127 10.66918,-24.22893 23.83027,-24.22893 z m -65.94698,69.99469 c 2.62755,0.0312 5.22651,0.55874 7.66417,1.55637 10.85437,4.44199 16.11066,16.99032 11.73931,28.02522 -4.3689,11.03584 -16.71074,16.38005 -27.564109,11.9357 -10.854368,-4.44199 -16.11066,-16.99033 -11.739308,-28.02523 3.262444,-8.23908 11.164914,-13.59692 19.899937,-13.49206 z"
               id="path1234"
               style="fill:#ffffff;stroke-width:5.33972836" />
            <ellipse
               ry="18.844725"
               rx="18.53466"
               cx="169.78287"
               cy="126.38044"
               id="ellipse1236"
               style="fill:#ffffff;stroke-width:5.33972836" />
            <path
               inkscape:connector-curvature="0"
               d="m 34.752871,148.26538 c -0.223403,2.57059 0.0234,5.14886 -0.0082,7.72928 0.0055,13.89098 -1.334893,26.96675 2.202859,25.55782 l 60.713621,27.11697 c 8.139989,3.3272 17.391689,-0.68397 20.665319,-8.95965 3.27245,-8.27617 -0.67272,-17.68264 -8.81224,-21.01103 z"
               id="path1238"
               sodipodi:nodetypes="ccccccc"
               style="fill:#ffffff;stroke-width:5.33972836" />
          </g>
        </g>
        <g
           id="g1200">
          <path
             style="fill:url(#linearGradient1185);stroke-width:4.99999142;fill-opacity:1"
             d="M 84 46.5 C 56.568735 46.5 34.5 68.568732 34.5 96 L 34.5 216 C 34.5 243.43127 56.568735 265.5 84 265.5 L 204 265.5 C 231.43127 265.5 253.5 243.43127 253.5 216 L 253.5 96 C 253.5 68.568732 231.43127 46.5 204 46.5 L 84 46.5 z "
             id="circle274" />
          <g
             id="g1193"
             transform="matrix(1.0571432,0,0,1.0714286,-1.9714964,-11.142825)">
            <path
               inkscape:connector-curvature="0"
               d="m 169.78287,85.999966 c -21.93516,0 -39.71712,18.079434 -39.71712,40.381554 0.009,1.08483 0.0605,2.16886 0.15516,3.24945 -6.82942,8.48402 -25.44777,29.86619 -27.07798,31.77944 -12.798242,0.17682 -24.242553,8.14405 -29.032809,20.21181 -6.552966,16.55235 1.333436,35.37166 17.614133,42.03257 16.280026,6.66251 34.789666,-1.35581 41.340976,-17.9088 1.45306,-3.69833 2.22101,-7.63796 2.26512,-11.62021 l 31.22552,-27.52045 c 1.07311,0.0971 2.14967,0.14968 3.227,0.15774 21.93516,0 39.71713,-18.07943 39.71713,-40.38155 0,-22.30212 -17.78197,-40.381554 -39.71713,-40.381554 z m 0,16.152624 c 13.16109,0 23.83028,10.84766 23.83028,24.22893 0,13.38127 -10.66919,24.22893 -23.83028,24.22893 -13.16109,0 -23.83027,-10.84766 -23.83027,-24.22893 0,-13.38127 10.66918,-24.22893 23.83027,-24.22893 z m -65.94698,69.99469 c 2.62755,0.0312 5.22651,0.55874 7.66417,1.55637 10.85437,4.44199 16.11066,16.99032 11.73931,28.02522 -4.3689,11.03584 -16.71074,16.38005 -27.564109,11.9357 -10.854368,-4.44199 -16.11066,-16.99033 -11.739308,-28.02523 3.262444,-8.23908 11.164914,-13.59692 19.899937,-13.49206 z"
               id="path290"
               style="fill:#ffffff;stroke-width:5.33972836" />
            <ellipse
               ry="18.844725"
               rx="18.53466"
               cx="169.78287"
               cy="126.38044"
               id="ellipse292"
               style="fill:#ffffff;stroke-width:5.33972836" />
            <path
               inkscape:connector-curvature="0"
               d="m 34.752871,148.26538 c -0.223403,2.57059 0.0234,5.14886 -0.0082,7.72928 0.0055,13.89098 -1.334893,26.96675 2.202859,25.55782 l 60.713621,27.11697 c 8.139989,3.3272 17.391689,-0.68397 20.665319,-8.95965 3.27245,-8.27617 -0.67272,-17.68264 -8.81224,-21.01103 z"
               id="path294"
               sodipodi:nodetypes="ccccccc"
               style="fill:#ffffff;stroke-width:5.33972836" />
          </g>
        </g>
        <g
           id="g1230">
          <path
             style="fill:url(#linearGradient1214);fill-opacity:1;stroke-width:1.98629797"
             d="M 310 32.5 C 300.29745 32.5 292.5 40.297452 292.5 50 L 292.5 102 C 292.5 111.70255 300.29745 119.5 310 119.5 L 362 119.5 C 371.70255 119.5 379.5 111.70255 379.5 102 L 379.5 50 C 379.5 40.297452 371.70255 32.5 362 32.5 L 310 32.5 z "
             id="path1202" />
          <g
             transform="matrix(0.41996099,0,0,0.42563601,278.01132,9.6007968)"
             id="g1210">
            <path
               style="fill:#ffffff;stroke-width:5.33972836"
               id="path1204"
               d="m 169.78287,85.999966 c -21.93516,0 -39.71712,18.079434 -39.71712,40.381554 0.009,1.08483 0.0605,2.16886 0.15516,3.24945 -6.82942,8.48402 -25.44777,29.86619 -27.07798,31.77944 -12.798242,0.17682 -24.242553,8.14405 -29.032809,20.21181 -6.552966,16.55235 1.333436,35.37166 17.614133,42.03257 16.280026,6.66251 34.789666,-1.35581 41.340976,-17.9088 1.45306,-3.69833 2.22101,-7.63796 2.26512,-11.62021 l 31.22552,-27.52045 c 1.07311,0.0971 2.14967,0.14968 3.227,0.15774 21.93516,0 39.71713,-18.07943 39.71713,-40.38155 0,-22.30212 -17.78197,-40.381554 -39.71713,-40.381554 z m 0,16.152624 c 13.16109,0 23.83028,10.84766 23.83028,24.22893 0,13.38127 -10.66919,24.22893 -23.83028,24.22893 -13.16109,0 -23.83027,-10.84766 -23.83027,-24.22893 0,-13.38127 10.66918,-24.22893 23.83027,-24.22893 z m -65.94698,69.99469 c 2.62755,0.0312 5.22651,0.55874 7.66417,1.55637 10.85437,4.44199 16.11066,16.99032 11.73931,28.02522 -4.3689,11.03584 -16.71074,16.38005 -27.564109,11.9357 -10.854368,-4.44199 -16.11066,-16.99033 -11.739308,-28.02523 3.262444,-8.23908 11.164914,-13.59692 19.899937,-13.49206 z"
               inkscape:connector-curvature="0" />
            <ellipse
               style="fill:#ffffff;stroke-width:5.33972836"
               id="ellipse1206"
               cy="126.38044"
               cx="169.78287"
               rx="18.53466"
               ry="18.844725" />
            <path
               style="fill:#ffffff;stroke-width:5.33972836"
               sodipodi:nodetypes="ccccccc"
               id="path1208"
               d="m 34.752871,148.26538 c -0.223403,2.57059 0.0234,5.14886 -0.0082,7.72928 0.0055,13.89098 -1.334893,26.96675 2.202859,25.55782 l 60.713621,27.11697 c 8.139989,3.3272 17.391689,-0.68397 20.665319,-8.95965 3.27245,-8.27617 -0.67272,-17.68264 -8.81224,-21.01103 z"
               inkscape:connector-curvature="0" />
          </g>
        </g>
        <g
           id="g1280">
          <path
             style="display:inline;enable-background:accumulate;color:#bebebe;fill:url(#linearGradient7768);fill-opacity:1;fill-rule:nonzero;stroke:none;stroke-width:2;marker:none;visibility:visible;overflow:visible"
             d="M 300 223.5 C 295.28469 223.5 291.5 227.28469 291.5 232 L 291.5 256 C 291.5 260.71531 295.28469 264.5 300 264.5 L 324 264.5 C 328.71531 264.5 332.5 260.71531 332.5 256 L 332.5 232 C 332.5 227.28469 328.71531 223.5 324 223.5 L 300 223.5 z "
             id="path4208" />
          <g
             transform="matrix(0.69491525,0,0,0.69491525,89.62712,124.47458)"
             id="g1268">
            <path
               inkscape:connector-curvature="0"
               id="path1258"
               d="m 302.36782,142.5 c -6.57989,0 -11.86782,5.28793 -11.86782,11.86782 v 35.26436 c 0,6.57989 5.28793,11.86782 11.86782,11.86782 h 35.26436 c 6.57989,0 11.86782,-5.28793 11.86782,-11.86782 V 154.36782 C 349.5,147.78793 344.21207,142.5 337.63218,142.5 Z"
               style="fill:url(#linearGradient1270);fill-opacity:1;stroke-width:1.34702957" />
            <g
               id="g1266"
               transform="matrix(0.28480112,0,0,0.28864971,280.67435,126.97066)">
              <path
                 inkscape:connector-curvature="0"
                 d="m 169.78287,85.999966 c -21.93516,0 -39.71712,18.079434 -39.71712,40.381554 0.009,1.08483 0.0605,2.16886 0.15516,3.24945 -6.82942,8.48402 -25.44777,29.86619 -27.07798,31.77944 -12.798242,0.17682 -24.242553,8.14405 -29.032809,20.21181 -6.552966,16.55235 1.333436,35.37166 17.614133,42.03257 16.280026,6.66251 34.789666,-1.35581 41.340976,-17.9088 1.45306,-3.69833 2.22101,-7.63796 2.26512,-11.62021 l 31.22552,-27.52045 c 1.07311,0.0971 2.14967,0.14968 3.227,0.15774 21.93516,0 39.71713,-18.07943 39.71713,-40.38155 0,-22.30212 -17.78197,-40.381554 -39.71713,-40.381554 z m 0,16.152624 c 13.16109,0 23.83028,10.84766 23.83028,24.22893 0,13.38127 -10.66919,24.22893 -23.83028,24.22893 -13.16109,0 -23.83027,-10.84766 -23.83027,-24.22893 0,-13.38127 10.66918,-24.22893 23.83027,-24.22893 z m -65.94698,69.99469 c 2.62755,0.0312 5.22651,0.55874 7.66417,1.55637 10.85437,4.44199 16.11066,16.99032 11.73931,28.02522 -4.3689,11.03584 -16.71074,16.38005 -27.564109,11.9357 -10.854368,-4.44199 -16.11066,-16.99033 -11.739308,-28.02523 3.262444,-8.23908 11.164914,-13.59692 19.899937,-13.49206 z"
                 id="path1260"
                 style="fill:#ffffff;stroke-width:5.33972836" />
              <ellipse
                 ry="18.844725"
                 rx="18.53466"
                 cx="169.78287"
                 cy="126.38044"
                 id="ellipse1262"
                 style="fill:#ffffff;stroke-width:5.33972836" />
              <path
                 inkscape:connector-curvature="0"
                 d="m 34.752871,148.26538 c -0.223403,2.57059 0.0234,5.14886 -0.0082,7.72928 0.0055,13.89098 -1.334893,26.96675 2.202859,25.55782 l 60.713621,27.11697 c 8.139989,3.3272 17.391689,-0.68397 20.665319,-8.95965 3.27245,-8.27617 -0.67272,-17.68264 -8.81224,-21.01103 z"
                 id="path1264"
                 sodipodi:nodetypes="ccccccc"
                 style="fill:#ffffff;stroke-width:5.33972836" />
            </g>
          </g>
        </g>
        <g
           id="g1310">
          <path
             style="fill:url(#linearGradient1294);fill-opacity:1;stroke-width:0.6620993"
             d="M 424 53.5 C 420.39346 53.5 417.5 56.393464 417.5 60 L 417.5 76 C 417.5 79.606536 420.39346 82.5 424 82.5 L 440 82.5 C 443.60654 82.5 446.5 79.606536 446.5 76 L 446.5 60 C 446.5 56.393464 443.60654 53.5 440 53.5 L 424 53.5 z "
             id="path1282" />
          <g
             id="g1290"
             transform="matrix(0.13998699,0,0,0.14187867,412.67044,45.866932)">
            <path
               inkscape:connector-curvature="0"
               d="m 169.78287,85.999966 c -21.93516,0 -39.71712,18.079434 -39.71712,40.381554 0.009,1.08483 0.0605,2.16886 0.15516,3.24945 -6.82942,8.48402 -25.44777,29.86619 -27.07798,31.77944 -12.798242,0.17682 -24.242553,8.14405 -29.032809,20.21181 -6.552966,16.55235 1.333436,35.37166 17.614133,42.03257 16.280026,6.66251 34.789666,-1.35581 41.340976,-17.9088 1.45306,-3.69833 2.22101,-7.63796 2.26512,-11.62021 l 31.22552,-27.52045 c 1.07311,0.0971 2.14967,0.14968 3.227,0.15774 21.93516,0 39.71713,-18.07943 39.71713,-40.38155 0,-22.30212 -17.78197,-40.381554 -39.71713,-40.381554 z m 0,16.152624 c 13.16109,0 23.83028,10.84766 23.83028,24.22893 0,13.38127 -10.66919,24.22893 -23.83028,24.22893 -13.16109,0 -23.83027,-10.84766 -23.83027,-24.22893 0,-13.38127 10.66918,-24.22893 23.83027,-24.22893 z m -65.94698,69.99469 c 2.62755,0.0312 5.22651,0.55874 7.66417,1.55637 10.85437,4.44199 16.11066,16.99032 11.73931,28.02522 -4.3689,11.03584 -16.71074,16.38005 -27.564109,11.9357 -10.854368,-4.44199 -16.11066,-16.99033 -11.739308,-28.02523 3.262444,-8.23908 11.164914,-13.59692 19.899937,-13.49206 z"
               id="path1284"
               style="fill:#ffffff;stroke-width:5.33972836" />
            <ellipse
               ry="18.844725"
               rx="18.53466"
               cx="169.78287"
               cy="126.38044"
               id="ellipse1286"
               style="fill:#ffffff;stroke-width:5.33972836" />
            <path
               inkscape:connector-curvature="0"
               d="m 34.752871,148.26538 c -0.223403,2.57059 0.0234,5.14886 -0.0082,7.72928 0.0055,13.89098 -1.334893,26.96675 2.202859,25.55782 l 60.713621,27.11697 c 8.139989,3.3272 17.391689,-0.68397 20.665319,-8.95965 3.27245,-8.27617 -0.67272,-17.68264 -8.81224,-21.01103 z"
               id="path1288"
               sodipodi:nodetypes="ccccccc"
               style="fill:#ffffff;stroke-width:5.33972836" />
          </g>
        </g>
        <g
           id="g1341">
          <path
             style="fill:url(#linearGradient1324);fill-opacity:1;stroke-width:0.47945121"
             d="M 422 101.5 C 419.50301 101.5 417.5 103.50301 417.5 106 L 417.5 118 C 417.5 120.49699 419.50301 122.5 422 122.5 L 434 122.5 C 436.49699 122.5 438.5 120.49699 438.5 118 L 438.5 106 C 438.5 103.50301 436.49699 101.5 434 101.5 L 422 101.5 z "
             id="path1312" />
          <g
             transform="matrix(0.10136988,0,0,0.10273973,414.00273,95.972606)"
             id="g1320">
            <path
               style="fill:#ffffff;stroke-width:5.33972836"
               id="path1314"
               d="m 169.78287,85.999966 c -21.93516,0 -39.71712,18.079434 -39.71712,40.381554 0.009,1.08483 0.0605,2.16886 0.15516,3.24945 -6.82942,8.48402 -25.44777,29.86619 -27.07798,31.77944 -12.798242,0.17682 -24.242553,8.14405 -29.032809,20.21181 -6.552966,16.55235 1.333436,35.37166 17.614133,42.03257 16.280026,6.66251 34.789666,-1.35581 41.340976,-17.9088 1.45306,-3.69833 2.22101,-7.63796 2.26512,-11.62021 l 31.22552,-27.52045 c 1.07311,0.0971 2.14967,0.14968 3.227,0.15774 21.93516,0 39.71713,-18.07943 39.71713,-40.38155 0,-22.30212 -17.78197,-40.381554 -39.71713,-40.381554 z m 0,16.152624 c 13.16109,0 23.83028,10.84766 23.83028,24.22893 0,13.38127 -10.66919,24.22893 -23.83028,24.22893 -13.16109,0 -23.83027,-10.84766 -23.83027,-24.22893 0,-13.38127 10.66918,-24.22893 23.83027,-24.22893 z m -65.94698,69.99469 c 2.62755,0.0312 5.22651,0.55874 7.66417,1.55637 10.85437,4.44199 16.11066,16.99032 11.73931,28.02522 -4.3689,11.03584 -16.71074,16.38005 -27.564109,11.9357 -10.854368,-4.44199 -16.11066,-16.99033 -11.739308,-28.02523 3.262444,-8.23908 11.164914,-13.59692 19.899937,-13.49206 z"
               inkscape:connector-curvature="0" />
            <ellipse
               style="fill:#ffffff;stroke-width:5.33972836"
               id="ellipse1316"
               cy="126.38044"
               cx="169.78287"
               rx="18.53466"
               ry="18.844725" />
            <path
               style="fill:#ffffff;stroke-width:5.33972836"
               sodipodi:nodetypes="ccccccc"
               id="path1318"
               d="m 34.752871,148.26538 c -0.223403,2.57059 0.0234,5.14886 -0.0082,7.72928 0.0055,13.89098 -1.334893,26.96675 2.202859,25.55782 l 60.713621,27.11697 c 8.139989,3.3272 17.391689,-0.68397 20.665319,-8.95965 3.27245,-8.27617 -0.67272,-17.68264 -8.81224,-21.01103 z"
               inkscape:connector-curvature="0" />
          </g>
        </g>
        <g
           id="g1371">
          <path
             style="fill:url(#linearGradient1355);fill-opacity:1;stroke-width:0.34246513"
             d="M 419 140.5 C 417.6156 140.5 416.5 141.6156 416.5 143 L 416.5 153 C 416.5 154.3844 417.6156 155.5 419 155.5 L 429 155.5 C 430.3844 155.5 431.5 154.3844 431.5 153 L 431.5 143 C 431.5 141.6156 430.3844 140.5 429 140.5 L 419 140.5 z "
             id="path1343" />
          <g
             id="g1351"
             transform="matrix(0.07240704,0,0,0.07338552,414.00195,136.55186)">
            <path
               inkscape:connector-curvature="0"
               d="m 169.78287,85.999966 c -21.93516,0 -39.71712,18.079434 -39.71712,40.381554 0.009,1.08483 0.0605,2.16886 0.15516,3.24945 -6.82942,8.48402 -25.44777,29.86619 -27.07798,31.77944 -12.798242,0.17682 -24.242553,8.14405 -29.032809,20.21181 -6.552966,16.55235 1.333436,35.37166 17.614133,42.03257 16.280026,6.66251 34.789666,-1.35581 41.340976,-17.9088 1.45306,-3.69833 2.22101,-7.63796 2.26512,-11.62021 l 31.22552,-27.52045 c 1.07311,0.0971 2.14967,0.14968 3.227,0.15774 21.93516,0 39.71713,-18.07943 39.71713,-40.38155 0,-22.30212 -17.78197,-40.381554 -39.71713,-40.381554 z m 0,16.152624 c 13.16109,0 23.83028,10.84766 23.83028,24.22893 0,13.38127 -10.66919,24.22893 -23.83028,24.22893 -13.16109,0 -23.83027,-10.84766 -23.83027,-24.22893 0,-13.38127 10.66918,-24.22893 23.83027,-24.22893 z m -65.94698,69.99469 c 2.62755,0.0312 5.22651,0.55874 7.66417,1.55637 10.85437,4.44199 16.11066,16.99032 11.73931,28.02522 -4.3689,11.03584 -16.71074,16.38005 -27.564109,11.9357 -10.854368,-4.44199 -16.11066,-16.99033 -11.739308,-28.02523 3.262444,-8.23908 11.164914,-13.59692 19.899937,-13.49206 z"
               id="path1345"
               style="fill:#ffffff;stroke-width:5.33972836" />
            <ellipse
               ry="18.844725"
               rx="18.53466"
               cx="169.78287"
               cy="126.38044"
               id="ellipse1347"
               style="fill:#ffffff;stroke-width:5.33972836" />
            <path
               inkscape:connector-curvature="0"
               d="m 34.752871,148.26538 c -0.223403,2.57059 0.0234,5.14886 -0.0082,7.72928 0.0055,13.89098 -1.334893,26.96675 2.202859,25.55782 l 60.713621,27.11697 c 8.139989,3.3272 17.391689,-0.68397 20.665319,-8.95965 3.27245,-8.27617 -0.67272,-17.68264 -8.81224,-21.01103 z"
               id="path1349"
               sodipodi:nodetypes="ccccccc"
               style="fill:#ffffff;stroke-width:5.33972836" />
          </g>
        </g>
      </g>
    </g>
    <g
       inkscape:groupmode="layer"
       id="layer5"
       inkscape:label="Highlights"
       style="display:inline"
       sodipodi:insensitive="true">
      <path
         style="opacity:0.12999998;color:#bebebe;fill:#ffffff;fill-opacity:1;fill-rule:nonzero;stroke:none;stroke-width:0;marker:none;visibility:visible;display:inline;overflow:visible;enable-background:accumulate"
         d="M 84,47 C 56.836703,47 35,68.836703 35,96 l 0,1 C 35,69.836703 56.836703,48 84,48 l 120,0 c 27.1633,0 49,21.836703 49,49 l 0,-1 C 253,68.836703 231.1633,47 204,47 L 84,47 z"
         id="rect3894"
         inkscape:connector-curvature="0" />
      <path
         style="opacity:0.12999998;color:#bebebe;fill:#ffffff;fill-opacity:1;fill-rule:nonzero;stroke:none;stroke-width:0;marker:none;visibility:visible;display:inline;overflow:visible;enable-background:accumulate"
         d="m 419,141 c -1.1253,0 -2,0.8747 -2,2 l 0,1 c 0,-1.1253 0.8747,-2 2,-2 l 10,0 c 1.1253,0 2,0.8747 2,2 l 0,-1 c 0,-1.1253 -0.8747,-2 -2,-2 l -10,0 z"
         id="rect3896"
         inkscape:connector-curvature="0" />
      <path
         style="opacity:0.12999998;color:#bebebe;fill:#ffffff;fill-opacity:1;fill-rule:nonzero;stroke:none;stroke-width:0;marker:none;visibility:visible;display:inline;overflow:visible;enable-background:accumulate"
         d="m 422,102 c -2.2333,0 -4,1.7667 -4,4 l 0,1 c 0,-2.2333 1.7667,-4 4,-4 l 12,0 c 2.2333,0 4,1.7667 4,4 l 0,-1 c 0,-2.2333 -1.7667,-4 -4,-4 l -12,0 z"
         id="rect3898"
         inkscape:connector-curvature="0" />
      <path
         style="opacity:0.12999998;color:#bebebe;fill:#ffffff;fill-opacity:1;fill-rule:nonzero;stroke:none;stroke-width:0;marker:none;visibility:visible;display:inline;overflow:visible;enable-background:accumulate"
         d="m 424,54 c -3.3413,0 -6,2.658703 -6,6 l 0,1 c 0,-3.341297 2.6587,-6 6,-6 l 16,0 c 3.3413,0 6,2.658703 6,6 l 0,-1 c 0,-3.341297 -2.6587,-6 -6,-6 l -16,0 z"
         id="rect3900"
         inkscape:connector-curvature="0" />
      <path
         style="opacity:0.12999998;color:#bebebe;fill:#ffffff;fill-opacity:1;fill-rule:nonzero;stroke:none;stroke-width:0;marker:none;visibility:visible;display:inline;overflow:visible;enable-background:accumulate"
         d="m 300,224 c -4.4493,0 -8,3.5507 -8,8 l 0,1 c 0,-4.4493 3.5507,-8 8,-8 l 24,0 c 4.4493,0 8,3.5507 8,8 l 0,-1 c 0,-4.4493 -3.5507,-8 -8,-8 l -24,0 z"
         id="rect3902"
         inkscape:connector-curvature="0" />
      <path
         style="opacity:0.12999998;color:#bebebe;fill:#ffffff;fill-opacity:1;fill-rule:nonzero;stroke:none;stroke-width:0;marker:none;visibility:visible;display:inline;overflow:visible;enable-background:accumulate"
         d="m 310,33 c -9.4353,0 -17,7.564703 -17,17 l 0,1 c 0,-9.435297 7.5647,-17 17,-17 l 52,0 c 9.4353,0 17,7.564703 17,17 l 0,-1 c 0,-9.435297 -7.5647,-17 -17,-17 l -52,0 z"
         id="rect3904"
         inkscape:connector-curvature="0" />
      <path
         style="opacity:0.12999998;color:#bebebe;fill:#ffffff;fill-opacity:1;fill-rule:nonzero;stroke:none;stroke-width:0;marker:none;visibility:visible;display:inline;overflow:visible;enable-background:accumulate"
         d="m 302.5,143 c -6.3883,0 -11.5,5.1117 -11.5,11.5 l 0,1 c 0,-6.3883 5.1117,-11.5 11.5,-11.5 l 35,0 c 6.3883,0 11.5,5.1117 11.5,11.5 l 0,-1 c 0,-6.3883 -5.1117,-11.5 -11.5,-11.5 l -35,0 z"
         id="rect3906"
         inkscape:connector-curvature="0" />
      <path
         id="path4085"
         d="m 204,266 c 27.1633,0 49,-21.8367 49,-49 l 0,-1 c 0,27.1633 -21.8367,49 -49,49 L 84,265 C 56.8367,265 35,243.1633 35,216 l 0,1 c 0,27.1633 21.8367,49 49,49 l 120,0 z"
         style="opacity:0.5;color:#bebebe;fill:#000000;fill-opacity:1;fill-rule:nonzero;stroke:none;stroke-width:0;marker:none;visibility:visible;display:inline;overflow:visible;enable-background:accumulate"
         inkscape:connector-curvature="0" />
      <path
         id="path4087"
         d="m 429,156 c 1.1253,0 2,-0.8747 2,-2 l 0,-1 c 0,1.1253 -0.8747,2 -2,2 l -10,0 c -1.1253,0 -2,-0.8747 -2,-2 l 0,1 c 0,1.1253 0.8747,2 2,2 l 10,0 z"
         style="opacity:0.3;color:#bebebe;fill:#000000;fill-opacity:1;fill-rule:nonzero;stroke:none;stroke-width:0;marker:none;visibility:visible;display:inline;overflow:visible;enable-background:accumulate"
         inkscape:connector-curvature="0" />
      <path
         id="path4089"
         d="m 434,123 c 2.2333,0 4,-1.7667 4,-4 l 0,-1 c 0,2.2333 -1.7667,4 -4,4 l -12,0 c -2.2333,0 -4,-1.7667 -4,-4 l 0,1 c 0,2.2333 1.7667,4 4,4 l 12,0 z"
         style="opacity:0.3;color:#bebebe;fill:#000000;fill-opacity:1;fill-rule:nonzero;stroke:none;stroke-width:0;marker:none;visibility:visible;display:inline;overflow:visible;enable-background:accumulate"
         inkscape:connector-curvature="0" />
      <path
         id="path4091"
         d="m 440,83 c 3.3413,0 6,-2.6587 6,-6 l 0,-1 c 0,3.3413 -2.6587,6 -6,6 l -16,0 c -3.3413,0 -6,-2.6587 -6,-6 l 0,1 c 0,3.3413 2.6587,6 6,6 l 16,0 z"
         style="opacity:0.5;color:#bebebe;fill:#000000;fill-opacity:1;fill-rule:nonzero;stroke:none;stroke-width:0;marker:none;visibility:visible;display:inline;overflow:visible;enable-background:accumulate"
         inkscape:connector-curvature="0" />
      <path
         id="path4093"
         d="m 324,265 c 4.4493,0 8,-3.5507 8,-8 l 0,-1 c 0,4.4493 -3.5507,8 -8,8 l -24,0 c -4.4493,0 -8,-3.5507 -8,-8 l 0,1 c 0,4.4493 3.5507,8 8,8 l 24,0 z"
         style="opacity:0.5;color:#bebebe;fill:#000000;fill-opacity:1;fill-rule:nonzero;stroke:none;stroke-width:0;marker:none;visibility:visible;display:inline;overflow:visible;enable-background:accumulate"
         inkscape:connector-curvature="0" />
      <path
         id="path4095"
         d="m 362,120 c 9.4353,0 17,-7.5647 17,-17 l 0,-1 c 0,9.4353 -7.5647,17 -17,17 l -52,0 c -9.4353,0 -17,-7.5647 -17,-17 l 0,1 c 0,9.4353 7.5647,17 17,17 l 52,0 z"
         style="opacity:0.5;color:#bebebe;fill:#000000;fill-opacity:1;fill-rule:nonzero;stroke:none;stroke-width:0;marker:none;visibility:visible;display:inline;overflow:visible;enable-background:accumulate"
         inkscape:connector-curvature="0" />
      <path
         id="path4097"
         d="m 337.5,202 c 6.3883,0 11.5,-5.1117 11.5,-11.5 l 0,-1 c 0,6.3883 -5.1117,11.5 -11.5,11.5 l -35,0 c -6.3883,0 -11.5,-5.1117 -11.5,-11.5 l 0,1 c 0,6.3883 5.1117,11.5 11.5,11.5 l 35,0 z"
         style="opacity:0.5;color:#bebebe;fill:#000000;fill-opacity:1;fill-rule:nonzero;stroke:none;stroke-width:0;marker:none;visibility:visible;display:inline;overflow:visible;enable-background:accumulate"
         inkscape:connector-curvature="0" />
      <path
         inkscape:connector-curvature="0"
         id="path4280"
         d="M 84,265 C 56.836703,265 35,243.1633 35,216 l 0,-1 c 0,27.1633 21.836703,49 49,49 l 120,0 c 27.1633,0 49,-21.8367 49,-49 l 0,1 c 0,27.1633 -21.8367,49 -49,49 l -120,0 z"
         style="opacity:0.1;color:#bebebe;fill:#ffffff;fill-opacity:1;fill-rule:nonzero;stroke:none;stroke-width:0;marker:none;visibility:visible;display:inline;overflow:visible;enable-background:accumulate" />
      <path
         style="opacity:0.1;color:#bebebe;fill:#ffffff;fill-opacity:1;fill-rule:nonzero;stroke:none;stroke-width:0;marker:none;visibility:visible;display:inline;overflow:visible;enable-background:accumulate"
         d="m 300,264 c -4.4493,0 -8,-3.5507 -8,-8 l 0,-1 c 0,4.4493 3.5507,8 8,8 l 24,0 c 4.4493,0 8,-3.5507 8,-8 l 0,1 c 0,4.4493 -3.5507,8 -8,8 l -24,0 z"
         id="path4294"
         inkscape:connector-curvature="0" />
      <path
         style="opacity:0.1;color:#bebebe;fill:#ffffff;fill-opacity:1;fill-rule:nonzero;stroke:none;stroke-width:0;marker:none;visibility:visible;display:inline;overflow:visible;enable-background:accumulate"
         d="m 302.5,201 c -6.3883,0 -11.5,-5.1117 -11.5,-11.5 l 0,-1 c 0,6.3883 5.1117,11.5 11.5,11.5 l 35,0 c 6.3883,0 11.5,-5.1117 11.5,-11.5 l 0,1 c 0,6.3883 -5.1117,11.5 -11.5,11.5 l -35,0 z"
         id="path4296"
         inkscape:connector-curvature="0" />
      <path
         style="opacity:0.1;color:#bebebe;fill:#ffffff;fill-opacity:1;fill-rule:nonzero;stroke:none;stroke-width:0;marker:none;visibility:visible;display:inline;overflow:visible;enable-background:accumulate"
         d="m 310,119 c -9.4353,0 -17,-7.5647 -17,-17 l 0,-1 c 0,9.4353 7.5647,17 17,17 l 52,0 c 9.4353,0 17,-7.5647 17,-17 l 0,1 c 0,9.4353 -7.5647,17 -17,17 l -52,0 z"
         id="path4298"
         inkscape:connector-curvature="0" />
      <path
         style="opacity:0.1;color:#bebebe;fill:#ffffff;fill-opacity:1;fill-rule:nonzero;stroke:none;stroke-width:0;marker:none;visibility:visible;display:inline;overflow:visible;enable-background:accumulate"
         d="m 424,82 c -3.3413,0 -6,-2.658703 -6,-6 l 0,-1 c 0,3.341297 2.6587,6 6,6 l 16,0 c 3.3413,0 6,-2.658703 6,-6 l 0,1 c 0,3.341297 -2.6587,6 -6,6 l -16,0 z"
         id="path4300"
         inkscape:connector-curvature="0" />
      <path
         style="opacity:0.1;color:#bebebe;fill:#ffffff;fill-opacity:1;fill-rule:nonzero;stroke:none;stroke-width:0;marker:none;visibility:visible;display:inline;overflow:visible;enable-background:accumulate"
         d="m 422,122 c -2.2333,0 -4,-1.7667 -4,-4 l 0,-1 c 0,2.2333 1.7667,4 4,4 l 12,0 c 2.2333,0 4,-1.7667 4,-4 l 0,1 c 0,2.2333 -1.7667,4 -4,4 l -12,0 z"
         id="path4302"
         inkscape:connector-curvature="0" />
      <path
         style="opacity:0.1;color:#bebebe;fill:#ffffff;fill-opacity:1;fill-rule:nonzero;stroke:none;stroke-width:0;marker:none;visibility:visible;display:inline;overflow:visible;enable-background:accumulate"
         d="m 419,154.5 c -1.1253,0 -2,-0.8747 -2,-2 l 0,-1 c 0,1.1253 0.8747,2 2,2 l 10,0 c 1.1253,0 2,-0.8747 2,-2 l 0,1 c 0,1.1253 -0.8747,2 -2,2 l -10,0 z"
         id="path4304"
         inkscape:connector-curvature="0" />
    </g>
    <g
       inkscape:groupmode="layer"
       id="layer3"
       inkscape:label="Border"
       style="display:inline"
       sodipodi:insensitive="true">
      <path
         style="opacity:0.41000001;color:#bebebe;fill:#000000;fill-opacity:1;fill-rule:nonzero;stroke:none;stroke-width:0;marker:none;visibility:visible;display:inline;overflow:visible;enable-background:accumulate"
         d="m 422,101 c -2.77,0 -5,2.23 -5,5 l 0,12 c 0,2.77 2.23,5 5,5 l 12,0 c 2.77,0 5,-2.23 5,-5 l 0,-12 c 0,-2.77 -2.23,-5 -5,-5 l -12,0 z m 0,1 12,0 c 2.2333,0 4,1.7667 4,4 l 0,12 c 0,2.2333 -1.7667,4 -4,4 l -12,0 c -2.2333,0 -4,-1.7667 -4,-4 l 0,-12 c 0,-2.2333 1.7667,-4 4,-4 z"
         id="rect4099"
         inkscape:connector-curvature="0" />
      <path
         style="opacity:0.41000001;color:#bebebe;fill:#000000;fill-opacity:1;fill-rule:nonzero;stroke:none;stroke-width:0;marker:none;visibility:visible;display:inline;overflow:visible;enable-background:accumulate"
         d="m 424,53 c -3.878,0 -7,3.122 -7,7 l 0,16 c 0,3.878 3.122,7 7,7 l 16,0 c 3.878,0 7,-3.122 7,-7 l 0,-16 c 0,-3.878 -3.122,-7 -7,-7 l -16,0 z m 0,1 16,0 c 3.3413,0 6,2.658703 6,6 l 0,16 c 0,3.341297 -2.6587,6 -6,6 l -16,0 c -3.3413,0 -6,-2.658703 -6,-6 l 0,-16 c 0,-3.341297 2.6587,-6 6,-6 z"
         id="rect4151"
         inkscape:connector-curvature="0" />
      <path
         style="opacity:0.41000001;color:#bebebe;fill:#000000;fill-opacity:1;fill-rule:nonzero;stroke:none;stroke-width:0;marker:none;visibility:visible;display:inline;overflow:visible;enable-background:accumulate"
         d="m 419,140 c -1.662,0 -3,1.338 -3,3 l 0,10 c 0,1.662 1.338,3 3,3 l 10,0 c 1.662,0 3,-1.338 3,-3 l 0,-10 c 0,-1.662 -1.338,-3 -3,-3 l -10,0 z m 0,1 10,0 c 1.1253,0 2,0.8747 2,2 l 0,10 c 0,1.1253 -0.8747,2 -2,2 l -10,0 c -1.1253,0 -2,-0.8747 -2,-2 l 0,-10 c 0,-1.1253 0.8747,-2 2,-2 z"
         id="rect4095"
         inkscape:connector-curvature="0" />
      <path
         style="opacity:0.41000001;color:#bebebe;fill:#000000;fill-opacity:1;fill-rule:nonzero;stroke:none;stroke-width:0;marker:none;visibility:visible;display:inline;overflow:visible;enable-background:accumulate"
         d="m 300,223 c -4.986,0 -9,4.014 -9,9 l 0,24 c 0,4.986 4.014,9 9,9 l 24,0 c 4.986,0 9,-4.014 9,-9 l 0,-24 c 0,-4.986 -4.014,-9 -9,-9 l -24,0 z m 0,1 24,0 c 4.4493,0 8,3.5507 8,8 l 0,24 c 0,4.4493 -3.5507,8 -8,8 l -24,0 c -4.4493,0 -8,-3.5507 -8,-8 l 0,-24 c 0,-4.4493 3.5507,-8 8,-8 z"
         id="rect4783"
         inkscape:connector-curvature="0" />
      <path
         style="opacity:0.41000001;color:#bebebe;fill:#000000;fill-opacity:1;fill-rule:nonzero;stroke:none;stroke-width:0;marker:none;visibility:visible;display:inline;overflow:visible;enable-background:accumulate"
         d="m 302.5,142 c -6.925,0 -12.5,5.575 -12.5,12.5 l 0,35 c 0,6.925 5.575,12.5 12.5,12.5 l 35,0 c 6.925,0 12.5,-5.575 12.5,-12.5 l 0,-35 c 0,-6.925 -5.575,-12.5 -12.5,-12.5 l -35,0 z m 0,1 35,0 c 6.3883,0 11.5,5.1117 11.5,11.5 l 0,35 c 0,6.3883 -5.1117,11.5 -11.5,11.5 l -35,0 c -6.3883,0 -11.5,-5.1117 -11.5,-11.5 l 0,-35 c 0,-6.3883 5.1117,-11.5 11.5,-11.5 z"
         id="rect4515"
         inkscape:connector-curvature="0" />
      <path
         style="opacity:0.41000001;color:#bebebe;fill:#000000;fill-opacity:1;fill-rule:nonzero;stroke:none;stroke-width:0;marker:none;visibility:visible;display:inline;overflow:visible;enable-background:accumulate"
         d="m 310,32 c -9.972,0 -18,8.028 -18,18 l 0,52 c 0,9.972 8.028,18 18,18 l 52,0 c 9.972,0 18,-8.028 18,-18 l 0,-52 c 0,-9.972 -8.028,-18 -18,-18 l -52,0 z m 0,1 52,0 c 9.4353,0 17,7.564703 17,17 l 0,52 c 0,9.4353 -7.5647,17 -17,17 l -52,0 c -9.4353,0 -17,-7.5647 -17,-17 l 0,-52 c 0,-9.435297 7.5647,-17 17,-17 z"
         id="rect4511"
         inkscape:connector-curvature="0" />
      <path
         style="opacity:0.41000001;color:#bebebe;fill:#000000;fill-opacity:1;fill-rule:nonzero;stroke:none;stroke-width:0;marker:none;visibility:visible;display:inline;overflow:visible;enable-background:accumulate"
         d="M 84,46 C 56.3,46 34,68.3 34,96 l 0,120 c 0,27.7 22.3,50 50,50 l 120,0 c 27.7,0 50,-22.3 50,-50 L 254,96 C 254,68.3 231.7,46 204,46 L 84,46 z m 0,1 120,0 c 27.1633,0 49,21.836703 49,49 l 0,120 c 0,27.1633 -21.8367,49 -49,49 L 84,265 C 56.836703,265 35,243.1633 35,216 L 35,96 C 35,68.836703 56.836703,47 84,47 z"
         id="rect4040"
         inkscape:connector-curvature="0" />
    </g>
  </g>
</svg>
