<?xml version="1.0" encoding="UTF-8" standalone="no"?>
<!-- Created with Inkscape (http://www.inkscape.org/) -->

<svg
   xmlns:dc="http://purl.org/dc/elements/1.1/"
   xmlns:cc="http://creativecommons.org/ns#"
   xmlns:rdf="http://www.w3.org/1999/02/22-rdf-syntax-ns#"
   xmlns:svg="http://www.w3.org/2000/svg"
   xmlns="http://www.w3.org/2000/svg"
   xmlns:sodipodi="http://sodipodi.sourceforge.net/DTD/sodipodi-0.dtd"
   xmlns:inkscape="http://www.inkscape.org/namespaces/inkscape"
   inkscape:export-ydpi="90.000000"
   inkscape:export-xdpi="90.000000"
   width="480"
   height="300"
   id="svg11300"
   sodipodi:version="0.32"
   inkscape:version="0.92.5 (2060ec1f9f, 2020-04-08)"
   sodipodi:docname="yast_hardware_assets.svg"
   inkscape:output_extension="org.inkscape.output.svg.inkscape"
   version="1.0"
   style="display:inline;enable-background:new"
   inkscape:export-filename="/home/sam/moka-next-template.png">
  <sodipodi:namedview
     stroke="#ef2929"
     fill="#f57900"
     id="base"
     pagecolor="#ffffff"
     bordercolor="#000000"
     borderopacity="0.61176471"
     inkscape:pageopacity="0"
     inkscape:pageshadow="2"
     inkscape:zoom="0.5"
     inkscape:cx="333.37469"
     inkscape:cy="-20.009519"
     inkscape:current-layer="layer2"
     showgrid="false"
     inkscape:grid-bbox="true"
     inkscape:document-units="px"
     inkscape:showpageshadow="true"
     inkscape:window-width="1366"
     inkscape:window-height="703"
     inkscape:window-x="0"
     inkscape:window-y="40"
     width="400px"
     height="300px"
     inkscape:snap-nodes="true"
     inkscape:snap-bbox="true"
     gridtolerance="10000"
     inkscape:object-nodes="true"
     inkscape:snap-grids="true"
     showguides="true"
     inkscape:guide-bbox="true"
     inkscape:window-maximized="1"
     inkscape:bbox-nodes="true"
     inkscape:bbox-paths="true"
     inkscape:snap-bbox-edge-midpoints="true"
     inkscape:snap-bbox-midpoints="true"
     inkscape:object-paths="true"
     inkscape:snap-intersection-paths="true"
     inkscape:snap-smooth-nodes="true"
     inkscape:snap-midpoints="true"
     inkscape:pagecheckerboard="false"
     showborder="true"
     borderlayer="true">
    <inkscape:grid
       spacingy="1"
       spacingx="1"
       id="grid5883"
       type="xygrid"
       enabled="true"
       visible="true"
       empspacing="4"
       snapvisiblegridlinesonly="true"
       dotted="false"
       color="#000000"
       opacity="0.1254902"
       empcolor="#203ef3"
       empopacity="0.36470588"
       originx="0"
       originy="0" />
    <inkscape:grid
       type="xygrid"
       id="grid11592"
       empspacing="8"
       visible="true"
       enabled="false"
       spacingx="0.5"
       spacingy="0.5"
       color="#ff0000"
       opacity="0.1254902"
       empcolor="#ff0000"
       empopacity="0.25098039"
       snapvisiblegridlinesonly="true"
       dotted="true"
       originx="0"
       originy="0" />
  </sodipodi:namedview>
  <defs
     id="defs3">
    <linearGradient
       id="linearGradient905">
      <stop
         style="stop-color:#ff7139;stop-opacity:1"
         offset="0"
         id="stop901" />
      <stop
         style="stop-color:#ff7139;stop-opacity:1"
         offset="1"
         id="stop903" />
    </linearGradient>
    <linearGradient
       id="linearGradient3984">
      <stop
         id="stop3986"
         offset="0"
         style="stop-color:#f57d33;stop-opacity:1" />
      <stop
         id="stop3988"
         offset="1"
         style="stop-color:#faa653;stop-opacity:1;" />
    </linearGradient>
  </defs>
  <metadata
     id="metadata4">
    <rdf:RDF>
      <cc:Work
         rdf:about="">
        <dc:format>image/svg+xml</dc:format>
        <dc:type
           rdf:resource="http://purl.org/dc/dcmitype/StillImage" />
        <dc:creator>
          <cc:Agent>
            <dc:title />
          </cc:Agent>
        </dc:creator>
        <dc:source />
        <cc:license
           rdf:resource="" />
        <dc:title />
        <dc:subject>
          <rdf:Bag />
        </dc:subject>
        <dc:date />
        <dc:rights>
          <cc:Agent>
            <dc:title />
          </cc:Agent>
        </dc:rights>
        <dc:publisher>
          <cc:Agent>
            <dc:title />
          </cc:Agent>
        </dc:publisher>
        <dc:identifier />
        <dc:relation />
        <dc:language />
        <dc:coverage />
        <dc:description />
        <dc:contributor>
          <cc:Agent>
            <dc:title />
          </cc:Agent>
        </dc:contributor>
      </cc:Work>
      <cc:Work
         rdf:about="">
        <dc:format>image/svg+xml</dc:format>
        <dc:type
           rdf:resource="http://purl.org/dc/dcmitype/StillImage" />
      </cc:Work>
    </rdf:RDF>
  </metadata>
  <g
     style="display:inline"
     inkscape:groupmode="layer"
     inkscape:label="Icon"
     id="layer1">
    <g
       style="display:none"
       inkscape:label="Baseplate"
       id="layer7"
       inkscape:groupmode="layer">
      <text
         y="19.745117"
         xml:space="preserve"
         x="15.006836"
         style="font-style:normal;font-variant:normal;font-weight:normal;font-stretch:normal;line-height:0%;font-family:'DejaVu Sans';-inkscape-font-specification:'DejaVu Sans';display:inline;fill:#000000;fill-opacity:1;stroke:none;enable-background:new"
         inkscape:label="context"
         id="context"><tspan
           style="font-style:normal;font-variant:normal;font-weight:normal;font-stretch:normal;font-size:18px;line-height:1.25;font-family:'DejaVu Sans';-inkscape-font-specification:'DejaVu Sans'"
           y="19.745117"
           x="15.006836"
           sodipodi:role="line"
           id="tspan3933">apps</tspan></text>
      <text
         y="19.745117"
         xml:space="preserve"
         x="122.48828"
         style="font-style:normal;font-variant:normal;font-weight:bold;font-stretch:normal;line-height:0%;font-family:'DejaVu Sans';-inkscape-font-specification:'DejaVu Sans Bold';text-align:start;writing-mode:lr-tb;text-anchor:start;display:inline;fill:#000000;fill-opacity:1;stroke:none;enable-background:new"
         inkscape:label="icon-name"
         id="icon-name"><tspan
           style="font-style:normal;font-variant:normal;font-weight:bold;font-stretch:normal;font-size:18px;line-height:1.25;font-family:'DejaVu Sans';-inkscape-font-specification:'DejaVu Sans Bold'"
           y="19.745117"
           x="122.48828"
           sodipodi:role="line"
           id="tspan3937">firefox</tspan></text>
      <rect
         style="display:inline;overflow:visible;visibility:visible;fill:#eeeeec;fill-opacity:1;fill-rule:nonzero;stroke:none;stroke-width:2;marker:none;enable-background:accumulate"
         id="rect16x16"
         width="16"
         height="16"
         x="416"
         y="140"
         inkscape:label="16x16" />
      <rect
         style="display:inline;overflow:visible;visibility:visible;fill:#d4d4d4;fill-opacity:1;fill-rule:nonzero;stroke:none;stroke-width:2;marker:none;enable-background:accumulate"
         id="rect24x24"
         width="24"
         height="24"
         x="416"
         y="100"
         inkscape:label="24x24" />
      <rect
         style="display:inline;overflow:visible;visibility:visible;fill:#eeeeec;fill-opacity:1;fill-rule:nonzero;stroke:none;stroke-width:2;marker:none;enable-background:accumulate"
         id="rect32x32"
         width="32"
         height="32"
         x="416"
         y="52"
         inkscape:label="32x32" />
      <rect
         inkscape:label="22x22"
         y="101"
         x="417"
         height="22"
         width="22"
         id="rect22x22"
         style="display:inline;overflow:visible;visibility:visible;fill:#eeeeec;fill-opacity:1;fill-rule:nonzero;stroke:none;stroke-width:2;marker:none;enable-background:accumulate" />
      <rect
         inkscape:label="48x48"
         y="220"
         x="288"
         height="48"
         width="48"
         id="rect48x48"
         style="display:inline;overflow:visible;visibility:visible;fill:#eeeeec;fill-opacity:1;fill-rule:nonzero;stroke:none;stroke-width:2;marker:none;enable-background:accumulate" />
      <rect
         style="display:inline;overflow:visible;visibility:visible;fill:#eeeeec;fill-opacity:1;fill-rule:nonzero;stroke:none;stroke-width:2;marker:none;enable-background:accumulate"
         id="rect256x256"
         width="256"
         height="256"
         x="16"
         y="28"
         inkscape:label="256x256" />
      <rect
         style="display:inline;overflow:visible;visibility:visible;fill:#eeeeec;fill-opacity:1;fill-rule:nonzero;stroke:none;stroke-width:2;marker:none;enable-background:accumulate"
         id="rect64x64"
         width="64"
         height="64"
         x="288"
         y="140"
         inkscape:label="64x64" />
      <rect
         style="display:inline;overflow:visible;visibility:visible;fill:#eeeeec;fill-opacity:1;fill-rule:nonzero;stroke:none;stroke-width:2;marker:none;enable-background:accumulate"
         id="rect96x96"
         width="96"
         height="96"
         x="288"
         y="28"
         inkscape:label="96x96" />
    </g>
    <g
       inkscape:groupmode="layer"
       id="layer4"
       inkscape:label="Shadow"
       style="display:inline"
       sodipodi:insensitive="true">
      <rect
         ry="50"
         y="47"
         x="34"
         height="220"
         width="220"
         id="rect4114"
         style="color:#bebebe;display:inline;overflow:visible;visibility:visible;opacity:0.1;fill:#000000;fill-opacity:1;fill-rule:nonzero;stroke:none;stroke-width:0;marker:none;enable-background:accumulate" />
      <rect
         style="color:#bebebe;display:inline;overflow:visible;visibility:visible;opacity:0.1;fill:#000000;fill-opacity:1;fill-rule:nonzero;stroke:none;stroke-width:0;marker:none;enable-background:accumulate"
         id="rect4120"
         width="30"
         height="30"
         x="417"
         y="54"
         ry="7" />
      <rect
         transform="scale(1,-1)"
         ry="9"
         y="-266"
         x="291"
         height="42"
         width="42"
         id="rect4122"
         style="color:#bebebe;display:inline;overflow:visible;visibility:visible;opacity:0.1;fill:#000000;fill-opacity:1;fill-rule:nonzero;stroke:none;stroke-width:0;marker:none;enable-background:accumulate" />
      <rect
         style="color:#bebebe;display:inline;overflow:visible;visibility:visible;opacity:0.1;fill:#000000;fill-opacity:1;fill-rule:nonzero;stroke:none;stroke-width:0;marker:none;enable-background:accumulate"
         id="rect4124"
         width="88"
         height="88"
         x="292"
         y="33"
         ry="18" />
      <rect
         ry="12.5"
         y="143"
         x="290"
         height="60"
         width="60"
         id="rect4126"
         style="color:#bebebe;display:inline;overflow:visible;visibility:visible;opacity:0.1;fill:#000000;fill-opacity:1;fill-rule:nonzero;stroke:none;stroke-width:0;marker:none;enable-background:accumulate" />
      <path
         id="path4268"
         d="m 422,101 c -2.77,0 -5,2.23 -5,5 v 12 c 0,2.77 2.23,5 5,5 h 12 c 2.77,0 5,-2.23 5,-5 v -12 c 0,-2.77 -2.23,-5 -5,-5 z"
         style="color:#bebebe;display:inline;overflow:visible;visibility:visible;opacity:0.1;fill:#000000;fill-opacity:1;fill-rule:nonzero;stroke:none;stroke-width:0;marker:none;enable-background:accumulate"
         inkscape:connector-curvature="0"
         sodipodi:nodetypes="sssssssss" />
      <path
         id="path4270"
         d="m 419,140 c -1.662,0 -3,1.338 -3,3 v 10 c 0,1.662 1.338,3 3,3 h 10 c 1.662,0 3,-1.338 3,-3 v -10 c 0,-1.662 -1.338,-3 -3,-3 z"
         style="color:#bebebe;display:inline;overflow:visible;visibility:visible;opacity:0.1;fill:#000000;fill-opacity:1;fill-rule:nonzero;stroke:none;stroke-width:0;marker:none;enable-background:accumulate"
         inkscape:connector-curvature="0"
         sodipodi:nodetypes="sssssssss" />
    </g>
    <g
       inkscape:groupmode="layer"
       id="layer2"
       inkscape:label="Background"
       style="display:inline">
      <g
         id="g6183">
        <path
           inkscape:connector-curvature="0"
           id="path4200"
           d="M 84,46.5 C 56.568735,46.5 34.5,68.568732 34.5,96 v 120 c 0,27.43127 22.068735,49.5 49.5,49.5 h 120 c 27.43127,0 49.5,-22.06873 49.5,-49.5 V 96 C 253.5,68.568732 231.43127,46.5 204,46.5 Z"
           style="color:#bebebe;display:inline;overflow:visible;visibility:visible;fill:#4d4d4d;fill-opacity:1;fill-rule:nonzero;stroke:none;stroke-width:2;marker:none;enable-background:accumulate" />
        <g
           id="g6173">
          <g
             id="g6119">
            <path
               inkscape:connector-curvature="0"
               id="path6040"
               d="m 94.13672,65 c -14.0632,0 -26.42214,6.98394 -33.83399,17.6836 a 7,7 0 0 1 6.98828,7 7,7 0 0 1 -7,7 7,7 0 0 1 -5.49023,-2.65821 C 53.63215,97.85154 53,101.91717 53,106.13672 v 57.72461 c 3.878,0 7,3.12194 7,7 0,3.87793 -3.122,7 -7,7 v 14 c 3.878,0 7,3.12195 7,7 0,3.87793 -3.122,7 -7,7 C 53,228.6581 71.33994,247 94.13672,247 h 99.72656 C 216.66005,247 235,228.6581 235,205.86133 c -3.878,0 -7,-3.12207 -7,-7 0,-3.87805 3.122,-7 7,-7 v -14 c -3.878,0 -7,-3.12207 -7,-7 0,-3.87806 3.122,-7 7,-7 v -57.72461 c 0,-4.21889 -0.63252,-8.28376 -1.80078,-12.10937 a 7,7 0 0 1 -5.49024,2.65625 7,7 0 0 1 -7,-7 7,7 0 0 1 6.98828,-7 C 220.28542,71.98457 207.92604,65 193.86328,65 Z"
               style="color:#bebebe;display:inline;overflow:visible;visibility:visible;fill:#26a269;fill-opacity:1;fill-rule:nonzero;stroke:none;stroke-width:1.66210043;marker:none;enable-background:accumulate" />
            <g
               id="g6109">
              <path
                 style="color:#bebebe;display:inline;overflow:visible;visibility:visible;fill:#cccccc;fill-opacity:1;fill-rule:nonzero;stroke:none;stroke-width:1.36073065;marker:none;enable-background:accumulate"
                 d="M 103.17773,81.5 C 84.514455,81.5 69.5,96.514448 69.5,115.17773 v 67.46485 c 0,18.66329 15.014453,33.67773 33.67773,33.67773 h 81.64454 c 18.66328,0 33.67773,-15.01444 33.67773,-33.67773 V 115.17773 C 218.5,96.514448 203.48555,81.5 184.82227,81.5 Z"
                 id="path96"
                 inkscape:connector-curvature="0" />
              <path
                 style="color:#bebebe;display:inline;overflow:visible;visibility:visible;fill:#4d4d4d;fill-opacity:1;fill-rule:nonzero;stroke:none;stroke-width:1.36073065;marker:none;enable-background:accumulate"
                 d="m 69.500005,182.64257 v 14.17774 c 0,18.66329 15.01445,33.67969 33.677725,33.67969 h 81.64453 C 203.48554,230.5 218.5,215.4836 218.5,196.82031 v -14.17774 c 0,18.66329 -15.01446,33.67774 -33.67774,33.67774 h -81.64453 c -18.663285,0 -33.677725,-15.01445 -33.677725,-33.67774 z"
                 id="path2291"
                 inkscape:connector-curvature="0" />
            </g>
          </g>
          <path
             style="color:#bebebe;overflow:visible;fill:#4d4d4d;stroke-width:1.15470052"
             inkscape:connector-curvature="0"
             d="m 134,116.91016 h 20 v 17.06666 h -20 z m 0,25.59999 h 20 v 38.4 h -20 z"
             overflow="visible"
             id="path2243" />
        </g>
      </g>
      <g
         id="g6219">
        <path
           inkscape:connector-curvature="0"
           id="path4210"
           d="m 310,32.5 c -9.70255,0 -17.5,7.797452 -17.5,17.5 v 52 c 0,9.70255 7.79745,17.5 17.5,17.5 h 52 c 9.70255,0 17.5,-7.79745 17.5,-17.5 V 50 c 0,-9.702548 -7.79745,-17.5 -17.5,-17.5 z"
           style="color:#bebebe;display:inline;overflow:visible;visibility:visible;fill:#4d4d4d;fill-opacity:1;fill-rule:nonzero;stroke:none;stroke-width:2;marker:none;enable-background:accumulate" />
        <g
           transform="matrix(0.39726027,0,0,0.39726027,278.79452,14.027398)"
           id="g6199">
          <g
             id="g6195">
            <path
               style="color:#bebebe;display:inline;overflow:visible;visibility:visible;fill:#26a269;fill-opacity:1;fill-rule:nonzero;stroke:none;stroke-width:1.66210043;marker:none;enable-background:accumulate"
               d="m 94.13672,65 c -14.0632,0 -26.42214,6.98394 -33.83399,17.6836 a 7,7 0 0 1 6.98828,7 7,7 0 0 1 -7,7 7,7 0 0 1 -5.49023,-2.65821 C 53.63215,97.85154 53,101.91717 53,106.13672 v 57.72461 c 3.878,0 7,3.12194 7,7 0,3.87793 -3.122,7 -7,7 v 14 c 3.878,0 7,3.12195 7,7 0,3.87793 -3.122,7 -7,7 C 53,228.6581 71.33994,247 94.13672,247 h 99.72656 C 216.66005,247 235,228.6581 235,205.86133 c -3.878,0 -7,-3.12207 -7,-7 0,-3.87805 3.122,-7 7,-7 v -14 c -3.878,0 -7,-3.12207 -7,-7 0,-3.87806 3.122,-7 7,-7 v -57.72461 c 0,-4.21889 -0.63252,-8.28376 -1.80078,-12.10937 a 7,7 0 0 1 -5.49024,2.65625 7,7 0 0 1 -7,-7 7,7 0 0 1 6.98828,-7 C 220.28542,71.98457 207.92604,65 193.86328,65 Z"
               id="path6187"
               inkscape:connector-curvature="0" />
            <g
               id="g6193">
              <path
                 inkscape:connector-curvature="0"
                 id="path6189"
                 d="M 103.17773,81.5 C 84.514455,81.5 69.5,96.514448 69.5,115.17773 v 67.46485 c 0,18.66329 15.014453,33.67773 33.67773,33.67773 h 81.64454 c 18.66328,0 33.67773,-15.01444 33.67773,-33.67773 V 115.17773 C 218.5,96.514448 203.48555,81.5 184.82227,81.5 Z"
                 style="color:#bebebe;display:inline;overflow:visible;visibility:visible;fill:#cccccc;fill-opacity:1;fill-rule:nonzero;stroke:none;stroke-width:1.36073065;marker:none;enable-background:accumulate" />
              <path
                 inkscape:connector-curvature="0"
                 id="path6191"
                 d="m 69.500005,182.64257 v 14.17774 c 0,18.66329 15.01445,33.67969 33.677725,33.67969 h 81.64453 C 203.48554,230.5 218.5,215.4836 218.5,196.82031 v -14.17774 c 0,18.66329 -15.01446,33.67774 -33.67774,33.67774 h -81.64453 c -18.663285,0 -33.677725,-15.01445 -33.677725,-33.67774 z"
                 style="color:#bebebe;display:inline;overflow:visible;visibility:visible;fill:#4d4d4d;fill-opacity:1;fill-rule:nonzero;stroke:none;stroke-width:1.36073065;marker:none;enable-background:accumulate" />
            </g>
          </g>
          <path
             id="path6197"
             overflow="visible"
             d="m 134,116.91016 h 20 v 17.06666 h -20 z m 0,25.59999 h 20 v 38.4 h -20 z"
             inkscape:connector-curvature="0"
             style="color:#bebebe;overflow:visible;fill:#4d4d4d;stroke-width:1.15470052" />
        </g>
      </g>
      <g
         id="g6255">
        <path
           inkscape:connector-curvature="0"
           id="path4206"
           d="m 424,53.5 c -3.60654,0 -6.5,2.893464 -6.5,6.5 v 16 c 0,3.606536 2.89346,6.5 6.5,6.5 h 16 c 3.60654,0 6.5,-2.893464 6.5,-6.5 V 60 c 0,-3.606536 -2.89346,-6.5 -6.5,-6.5 z"
           style="color:#bebebe;display:inline;overflow:visible;visibility:visible;fill:#4d4d4d;fill-opacity:1;fill-rule:nonzero;stroke:none;stroke-width:2;marker:none;enable-background:accumulate" />
        <g
           transform="matrix(0.13242009,0,0,0.13242009,412.93151,47.342466)"
           id="g6235">
          <g
             id="g6231">
            <path
               style="color:#bebebe;display:inline;overflow:visible;visibility:visible;fill:#26a269;fill-opacity:1;fill-rule:nonzero;stroke:none;stroke-width:1.66210043;marker:none;enable-background:accumulate"
               d="m 94.13672,65 c -14.0632,0 -26.42214,6.98394 -33.83399,17.6836 a 7,7 0 0 1 6.98828,7 7,7 0 0 1 -7,7 7,7 0 0 1 -5.49023,-2.65821 C 53.63215,97.85154 53,101.91717 53,106.13672 v 57.72461 c 3.878,0 7,3.12194 7,7 0,3.87793 -3.122,7 -7,7 v 14 c 3.878,0 7,3.12195 7,7 0,3.87793 -3.122,7 -7,7 C 53,228.6581 71.33994,247 94.13672,247 h 99.72656 C 216.66005,247 235,228.6581 235,205.86133 c -3.878,0 -7,-3.12207 -7,-7 0,-3.87805 3.122,-7 7,-7 v -14 c -3.878,0 -7,-3.12207 -7,-7 0,-3.87806 3.122,-7 7,-7 v -57.72461 c 0,-4.21889 -0.63252,-8.28376 -1.80078,-12.10937 a 7,7 0 0 1 -5.49024,2.65625 7,7 0 0 1 -7,-7 7,7 0 0 1 6.98828,-7 C 220.28542,71.98457 207.92604,65 193.86328,65 Z"
               id="path6223"
               inkscape:connector-curvature="0" />
            <g
               id="g6229">
              <path
                 inkscape:connector-curvature="0"
                 id="path6225"
                 d="M 103.17773,81.5 C 84.514455,81.5 69.5,96.514448 69.5,115.17773 v 67.46485 c 0,18.66329 15.014453,33.67773 33.67773,33.67773 h 81.64454 c 18.66328,0 33.67773,-15.01444 33.67773,-33.67773 V 115.17773 C 218.5,96.514448 203.48555,81.5 184.82227,81.5 Z"
                 style="color:#bebebe;display:inline;overflow:visible;visibility:visible;fill:#cccccc;fill-opacity:1;fill-rule:nonzero;stroke:none;stroke-width:1.36073065;marker:none;enable-background:accumulate" />
              <path
                 inkscape:connector-curvature="0"
                 id="path6227"
                 d="m 69.500005,182.64257 v 14.17774 c 0,18.66329 15.01445,33.67969 33.677725,33.67969 h 81.64453 C 203.48554,230.5 218.5,215.4836 218.5,196.82031 v -14.17774 c 0,18.66329 -15.01446,33.67774 -33.67774,33.67774 h -81.64453 c -18.663285,0 -33.677725,-15.01445 -33.677725,-33.67774 z"
                 style="color:#bebebe;display:inline;overflow:visible;visibility:visible;fill:#4d4d4d;fill-opacity:1;fill-rule:nonzero;stroke:none;stroke-width:1.36073065;marker:none;enable-background:accumulate" />
            </g>
          </g>
          <path
             id="path6233"
             overflow="visible"
             d="m 134,116.91016 h 20 v 17.06666 h -20 z m 0,25.59999 h 20 v 38.4 h -20 z"
             inkscape:connector-curvature="0"
             style="color:#bebebe;overflow:visible;fill:#4d4d4d;stroke-width:1.15470052" />
        </g>
      </g>
      <g
         id="g6291">
        <path
           inkscape:connector-curvature="0"
           id="path4212"
           d="m 302.5,142.5 c -6.65502,0 -12,5.34498 -12,12 v 35 c 0,6.65502 5.34498,12 12,12 h 35 c 6.65502,0 12,-5.34498 12,-12 v -35 c 0,-6.65502 -5.34498,-12 -12,-12 z"
           style="color:#bebebe;display:inline;overflow:visible;visibility:visible;fill:#4d4d4d;fill-opacity:1;fill-rule:nonzero;stroke:none;stroke-width:2;marker:none;enable-background:accumulate" />
        <g
           transform="matrix(0.26940639,0,0,0.26940639,281.20548,129.9726)"
           id="g6271">
          <g
             id="g6267">
            <path
               style="color:#bebebe;display:inline;overflow:visible;visibility:visible;fill:#26a269;fill-opacity:1;fill-rule:nonzero;stroke:none;stroke-width:1.66210043;marker:none;enable-background:accumulate"
               d="m 94.13672,65 c -14.0632,0 -26.42214,6.98394 -33.83399,17.6836 a 7,7 0 0 1 6.98828,7 7,7 0 0 1 -7,7 7,7 0 0 1 -5.49023,-2.65821 C 53.63215,97.85154 53,101.91717 53,106.13672 v 57.72461 c 3.878,0 7,3.12194 7,7 0,3.87793 -3.122,7 -7,7 v 14 c 3.878,0 7,3.12195 7,7 0,3.87793 -3.122,7 -7,7 C 53,228.6581 71.33994,247 94.13672,247 h 99.72656 C 216.66005,247 235,228.6581 235,205.86133 c -3.878,0 -7,-3.12207 -7,-7 0,-3.87805 3.122,-7 7,-7 v -14 c -3.878,0 -7,-3.12207 -7,-7 0,-3.87806 3.122,-7 7,-7 v -57.72461 c 0,-4.21889 -0.63252,-8.28376 -1.80078,-12.10937 a 7,7 0 0 1 -5.49024,2.65625 7,7 0 0 1 -7,-7 7,7 0 0 1 6.98828,-7 C 220.28542,71.98457 207.92604,65 193.86328,65 Z"
               id="path6259"
               inkscape:connector-curvature="0" />
            <g
               id="g6265">
              <path
                 inkscape:connector-curvature="0"
                 id="path6261"
                 d="M 103.17773,81.5 C 84.514455,81.5 69.5,96.514448 69.5,115.17773 v 67.46485 c 0,18.66329 15.014453,33.67773 33.67773,33.67773 h 81.64454 c 18.66328,0 33.67773,-15.01444 33.67773,-33.67773 V 115.17773 C 218.5,96.514448 203.48555,81.5 184.82227,81.5 Z"
                 style="color:#bebebe;display:inline;overflow:visible;visibility:visible;fill:#cccccc;fill-opacity:1;fill-rule:nonzero;stroke:none;stroke-width:1.36073065;marker:none;enable-background:accumulate" />
              <path
                 inkscape:connector-curvature="0"
                 id="path6263"
                 d="m 69.500005,182.64257 v 14.17774 c 0,18.66329 15.01445,33.67969 33.677725,33.67969 h 81.64453 C 203.48554,230.5 218.5,215.4836 218.5,196.82031 v -14.17774 c 0,18.66329 -15.01446,33.67774 -33.67774,33.67774 h -81.64453 c -18.663285,0 -33.677725,-15.01445 -33.677725,-33.67774 z"
                 style="color:#bebebe;display:inline;overflow:visible;visibility:visible;fill:#4d4d4d;fill-opacity:1;fill-rule:nonzero;stroke:none;stroke-width:1.36073065;marker:none;enable-background:accumulate" />
            </g>
          </g>
          <path
             id="path6269"
             overflow="visible"
             d="m 134,116.91016 h 20 v 17.06666 h -20 z m 0,25.59999 h 20 v 38.4 h -20 z"
             inkscape:connector-curvature="0"
             style="color:#bebebe;overflow:visible;fill:#4d4d4d;stroke-width:1.15470052" />
        </g>
      </g>
      <g
         id="g6327">
        <path
           inkscape:connector-curvature="0"
           id="path4208"
           d="m 300,223.5 c -4.71531,0 -8.5,3.78469 -8.5,8.5 v 24 c 0,4.71531 3.78469,8.5 8.5,8.5 h 24 c 4.71531,0 8.5,-3.78469 8.5,-8.5 v -24 c 0,-4.71531 -3.78469,-8.5 -8.5,-8.5 z"
           style="color:#bebebe;display:inline;overflow:visible;visibility:visible;fill:#4d4d4d;fill-opacity:1;fill-rule:nonzero;stroke:none;stroke-width:2;marker:none;enable-background:accumulate" />
        <g
           transform="matrix(0.18721461,0,0,0.18721461,285.0411,214.79452)"
           id="g6307">
          <g
             id="g6303">
            <path
               style="color:#bebebe;display:inline;overflow:visible;visibility:visible;fill:#26a269;fill-opacity:1;fill-rule:nonzero;stroke:none;stroke-width:1.66210043;marker:none;enable-background:accumulate"
               d="m 94.13672,65 c -14.0632,0 -26.42214,6.98394 -33.83399,17.6836 a 7,7 0 0 1 6.98828,7 7,7 0 0 1 -7,7 7,7 0 0 1 -5.49023,-2.65821 C 53.63215,97.85154 53,101.91717 53,106.13672 v 57.72461 c 3.878,0 7,3.12194 7,7 0,3.87793 -3.122,7 -7,7 v 14 c 3.878,0 7,3.12195 7,7 0,3.87793 -3.122,7 -7,7 C 53,228.6581 71.33994,247 94.13672,247 h 99.72656 C 216.66005,247 235,228.6581 235,205.86133 c -3.878,0 -7,-3.12207 -7,-7 0,-3.87805 3.122,-7 7,-7 v -14 c -3.878,0 -7,-3.12207 -7,-7 0,-3.87806 3.122,-7 7,-7 v -57.72461 c 0,-4.21889 -0.63252,-8.28376 -1.80078,-12.10937 a 7,7 0 0 1 -5.49024,2.65625 7,7 0 0 1 -7,-7 7,7 0 0 1 6.98828,-7 C 220.28542,71.98457 207.92604,65 193.86328,65 Z"
               id="path6295"
               inkscape:connector-curvature="0" />
            <g
               id="g6301">
              <path
                 inkscape:connector-curvature="0"
                 id="path6297"
                 d="M 103.17773,81.5 C 84.514455,81.5 69.5,96.514448 69.5,115.17773 v 67.46485 c 0,18.66329 15.014453,33.67773 33.67773,33.67773 h 81.64454 c 18.66328,0 33.67773,-15.01444 33.67773,-33.67773 V 115.17773 C 218.5,96.514448 203.48555,81.5 184.82227,81.5 Z"
                 style="color:#bebebe;display:inline;overflow:visible;visibility:visible;fill:#cccccc;fill-opacity:1;fill-rule:nonzero;stroke:none;stroke-width:1.36073065;marker:none;enable-background:accumulate" />
              <path
                 inkscape:connector-curvature="0"
                 id="path6299"
                 d="m 69.500005,182.64257 v 14.17774 c 0,18.66329 15.01445,33.67969 33.677725,33.67969 h 81.64453 C 203.48554,230.5 218.5,215.4836 218.5,196.82031 v -14.17774 c 0,18.66329 -15.01446,33.67774 -33.67774,33.67774 h -81.64453 c -18.663285,0 -33.677725,-15.01445 -33.677725,-33.67774 z"
                 style="color:#bebebe;display:inline;overflow:visible;visibility:visible;fill:#4d4d4d;fill-opacity:1;fill-rule:nonzero;stroke:none;stroke-width:1.36073065;marker:none;enable-background:accumulate" />
            </g>
          </g>
          <path
             id="path6305"
             overflow="visible"
             d="m 134,116.91016 h 20 v 17.06666 h -20 z m 0,25.59999 h 20 v 38.4 h -20 z"
             inkscape:connector-curvature="0"
             style="color:#bebebe;overflow:visible;fill:#4d4d4d;stroke-width:1.15470052" />
        </g>
      </g>
      <g
         id="g6410">
        <g
           id="g6363">
          <path
             style="color:#bebebe;display:inline;overflow:visible;visibility:visible;fill:#4d4d4d;fill-opacity:1;fill-rule:nonzero;stroke:none;stroke-width:2;marker:none;enable-background:accumulate"
             d="m 422,101.5 c -2.49699,0 -4.5,2.00301 -4.5,4.5 v 12 c 0,2.49699 2.00301,4.5 4.5,4.5 h 12 c 2.49699,0 4.5,-2.00301 4.5,-4.5 v -12 c 0,-2.49699 -2.00301,-4.5 -4.5,-4.5 z"
             id="path4204"
             inkscape:connector-curvature="0" />
          <g
             id="g6343"
             transform="matrix(0.09589041,0,0,0.09589041,414.19178,97.041096)">
            <g
               id="g6339">
              <path
                 inkscape:connector-curvature="0"
                 id="path6331"
                 d="m 94.13672,65 c -14.0632,0 -26.42214,6.98394 -33.83399,17.6836 a 7,7 0 0 1 6.98828,7 7,7 0 0 1 -7,7 7,7 0 0 1 -5.49023,-2.65821 C 53.63215,97.85154 53,101.91717 53,106.13672 v 57.72461 c 3.878,0 7,3.12194 7,7 0,3.87793 -3.122,7 -7,7 v 14 c 3.878,0 7,3.12195 7,7 0,3.87793 -3.122,7 -7,7 C 53,228.6581 71.33994,247 94.13672,247 h 99.72656 C 216.66005,247 235,228.6581 235,205.86133 c -3.878,0 -7,-3.12207 -7,-7 0,-3.87805 3.122,-7 7,-7 v -14 c -3.878,0 -7,-3.12207 -7,-7 0,-3.87806 3.122,-7 7,-7 v -57.72461 c 0,-4.21889 -0.63252,-8.28376 -1.80078,-12.10937 a 7,7 0 0 1 -5.49024,2.65625 7,7 0 0 1 -7,-7 7,7 0 0 1 6.98828,-7 C 220.28542,71.98457 207.92604,65 193.86328,65 Z"
                 style="color:#bebebe;display:inline;overflow:visible;visibility:visible;fill:#26a269;fill-opacity:1;fill-rule:nonzero;stroke:none;stroke-width:1.66210043;marker:none;enable-background:accumulate" />
              <g
                 id="g6337">
                <path
                   style="color:#bebebe;display:inline;overflow:visible;visibility:visible;fill:#cccccc;fill-opacity:1;fill-rule:nonzero;stroke:none;stroke-width:1.36073065;marker:none;enable-background:accumulate"
                   d="M 103.17773,81.5 C 84.514455,81.5 69.5,96.514448 69.5,115.17773 v 67.46485 c 0,18.66329 15.014453,33.67773 33.67773,33.67773 h 81.64454 c 18.66328,0 33.67773,-15.01444 33.67773,-33.67773 V 115.17773 C 218.5,96.514448 203.48555,81.5 184.82227,81.5 Z"
                   id="path6333"
                   inkscape:connector-curvature="0" />
                <path
                   style="color:#bebebe;display:inline;overflow:visible;visibility:visible;fill:#4d4d4d;fill-opacity:1;fill-rule:nonzero;stroke:none;stroke-width:1.36073065;marker:none;enable-background:accumulate"
                   d="m 69.500005,182.64257 v 14.17774 c 0,18.66329 15.01445,33.67969 33.677725,33.67969 h 81.64453 C 203.48554,230.5 218.5,215.4836 218.5,196.82031 v -14.17774 c 0,18.66329 -15.01446,33.67774 -33.67774,33.67774 h -81.64453 c -18.663285,0 -33.677725,-15.01445 -33.677725,-33.67774 z"
                   id="path6335"
                   inkscape:connector-curvature="0" />
              </g>
            </g>
            <path
               style="color:#bebebe;overflow:visible;fill:#4d4d4d;stroke-width:1.15470052"
               inkscape:connector-curvature="0"
               d="m 134,116.91016 h 20 v 17.06666 h -20 z m 0,25.59999 h 20 v 38.4 h -20 z"
               overflow="visible"
               id="path6341" />
          </g>
        </g>
      </g>
      <g
         id="g6399">
        <path
           inkscape:connector-curvature="0"
           id="path4202"
           d="m 419,140.5 c -1.3844,0 -2.5,1.1156 -2.5,2.5 v 10 c 0,1.3844 1.1156,2.5 2.5,2.5 h 10 c 1.3844,0 2.5,-1.1156 2.5,-2.5 v -10 c 0,-1.3844 -1.1156,-2.5 -2.5,-2.5 z"
           style="color:#bebebe;display:inline;overflow:visible;visibility:visible;fill:#4d4d4d;fill-opacity:1;fill-rule:nonzero;stroke:none;stroke-width:2;marker:none;enable-background:accumulate" />
        <g
           transform="matrix(0.06849315,0,0,0.06849315,414.13699,137.31507)"
           id="g6379">
          <g
             id="g6375">
            <path
               style="color:#bebebe;display:inline;overflow:visible;visibility:visible;fill:#26a269;fill-opacity:1;fill-rule:nonzero;stroke:none;stroke-width:1.66210043;marker:none;enable-background:accumulate"
               d="m 94.13672,65 c -14.0632,0 -26.42214,6.98394 -33.83399,17.6836 a 7,7 0 0 1 6.98828,7 7,7 0 0 1 -7,7 7,7 0 0 1 -5.49023,-2.65821 C 53.63215,97.85154 53,101.91717 53,106.13672 v 57.72461 c 3.878,0 7,3.12194 7,7 0,3.87793 -3.122,7 -7,7 v 14 c 3.878,0 7,3.12195 7,7 0,3.87793 -3.122,7 -7,7 C 53,228.6581 71.33994,247 94.13672,247 h 99.72656 C 216.66005,247 235,228.6581 235,205.86133 c -3.878,0 -7,-3.12207 -7,-7 0,-3.87805 3.122,-7 7,-7 v -14 c -3.878,0 -7,-3.12207 -7,-7 0,-3.87806 3.122,-7 7,-7 v -57.72461 c 0,-4.21889 -0.63252,-8.28376 -1.80078,-12.10937 a 7,7 0 0 1 -5.49024,2.65625 7,7 0 0 1 -7,-7 7,7 0 0 1 6.98828,-7 C 220.28542,71.98457 207.92604,65 193.86328,65 Z"
               id="path6367"
               inkscape:connector-curvature="0" />
            <g
               id="g6373">
              <path
                 inkscape:connector-curvature="0"
                 id="path6369"
                 d="M 103.17773,81.5 C 84.514455,81.5 69.5,96.514448 69.5,115.17773 v 67.46485 c 0,18.66329 15.014453,33.67773 33.67773,33.67773 h 81.64454 c 18.66328,0 33.67773,-15.01444 33.67773,-33.67773 V 115.17773 C 218.5,96.514448 203.48555,81.5 184.82227,81.5 Z"
                 style="color:#bebebe;display:inline;overflow:visible;visibility:visible;fill:#cccccc;fill-opacity:1;fill-rule:nonzero;stroke:none;stroke-width:1.36073065;marker:none;enable-background:accumulate" />
              <path
                 inkscape:connector-curvature="0"
                 id="path6371"
                 d="m 69.500005,182.64257 v 14.17774 c 0,18.66329 15.01445,33.67969 33.677725,33.67969 h 81.64453 C 203.48554,230.5 218.5,215.4836 218.5,196.82031 v -14.17774 c 0,18.66329 -15.01446,33.67774 -33.67774,33.67774 h -81.64453 c -18.663285,0 -33.677725,-15.01445 -33.677725,-33.67774 z"
                 style="color:#bebebe;display:inline;overflow:visible;visibility:visible;fill:#4d4d4d;fill-opacity:1;fill-rule:nonzero;stroke:none;stroke-width:1.36073065;marker:none;enable-background:accumulate" />
            </g>
          </g>
          <path
             id="path6377"
             overflow="visible"
             d="m 134,116.91016 h 20 v 17.06666 h -20 z m 0,25.59999 h 20 v 38.4 h -20 z"
             inkscape:connector-curvature="0"
             style="color:#bebebe;overflow:visible;fill:#4d4d4d;stroke-width:1.15470052" />
        </g>
      </g>
    </g>
    <g
       inkscape:groupmode="layer"
       id="layer6"
       inkscape:label="Symbols"
       style="display:inline" />
    <g
       inkscape:groupmode="layer"
       id="layer5"
       inkscape:label="Highlights"
       style="display:inline"
       sodipodi:insensitive="true">
      <path
         style="color:#bebebe;display:inline;overflow:visible;visibility:visible;opacity:0.12999998;fill:#ffffff;fill-opacity:1;fill-rule:nonzero;stroke:none;stroke-width:0;marker:none;enable-background:accumulate"
         d="M 84,47 C 56.836703,47 35,68.836703 35,96 v 1 C 35,69.836703 56.836703,48 84,48 h 120 c 27.1633,0 49,21.836703 49,49 V 96 C 253,68.836703 231.1633,47 204,47 Z"
         id="rect3894"
         inkscape:connector-curvature="0" />
      <path
         style="color:#bebebe;display:inline;overflow:visible;visibility:visible;opacity:0.12999998;fill:#ffffff;fill-opacity:1;fill-rule:nonzero;stroke:none;stroke-width:0;marker:none;enable-background:accumulate"
         d="m 419,141 c -1.1253,0 -2,0.8747 -2,2 v 1 c 0,-1.1253 0.8747,-2 2,-2 h 10 c 1.1253,0 2,0.8747 2,2 v -1 c 0,-1.1253 -0.8747,-2 -2,-2 z"
         id="rect3896"
         inkscape:connector-curvature="0" />
      <path
         style="color:#bebebe;display:inline;overflow:visible;visibility:visible;opacity:0.12999998;fill:#ffffff;fill-opacity:1;fill-rule:nonzero;stroke:none;stroke-width:0;marker:none;enable-background:accumulate"
         d="m 422,102 c -2.2333,0 -4,1.7667 -4,4 v 1 c 0,-2.2333 1.7667,-4 4,-4 h 12 c 2.2333,0 4,1.7667 4,4 v -1 c 0,-2.2333 -1.7667,-4 -4,-4 z"
         id="rect3898"
         inkscape:connector-curvature="0" />
      <path
         style="color:#bebebe;display:inline;overflow:visible;visibility:visible;opacity:0.12999998;fill:#ffffff;fill-opacity:1;fill-rule:nonzero;stroke:none;stroke-width:0;marker:none;enable-background:accumulate"
         d="m 424,54 c -3.3413,0 -6,2.658703 -6,6 v 1 c 0,-3.341297 2.6587,-6 6,-6 h 16 c 3.3413,0 6,2.658703 6,6 v -1 c 0,-3.341297 -2.6587,-6 -6,-6 z"
         id="rect3900"
         inkscape:connector-curvature="0" />
      <path
         style="color:#bebebe;display:inline;overflow:visible;visibility:visible;opacity:0.12999998;fill:#ffffff;fill-opacity:1;fill-rule:nonzero;stroke:none;stroke-width:0;marker:none;enable-background:accumulate"
         d="m 300,224 c -4.4493,0 -8,3.5507 -8,8 v 1 c 0,-4.4493 3.5507,-8 8,-8 h 24 c 4.4493,0 8,3.5507 8,8 v -1 c 0,-4.4493 -3.5507,-8 -8,-8 z"
         id="rect3902"
         inkscape:connector-curvature="0" />
      <path
         style="color:#bebebe;display:inline;overflow:visible;visibility:visible;opacity:0.12999998;fill:#ffffff;fill-opacity:1;fill-rule:nonzero;stroke:none;stroke-width:0;marker:none;enable-background:accumulate"
         d="m 310,33 c -9.4353,0 -17,7.564703 -17,17 v 1 c 0,-9.435297 7.5647,-17 17,-17 h 52 c 9.4353,0 17,7.564703 17,17 v -1 c 0,-9.435297 -7.5647,-17 -17,-17 z"
         id="rect3904"
         inkscape:connector-curvature="0" />
      <path
         style="color:#bebebe;display:inline;overflow:visible;visibility:visible;opacity:0.12999998;fill:#ffffff;fill-opacity:1;fill-rule:nonzero;stroke:none;stroke-width:0;marker:none;enable-background:accumulate"
         d="m 302.5,143 c -6.3883,0 -11.5,5.1117 -11.5,11.5 v 1 c 0,-6.3883 5.1117,-11.5 11.5,-11.5 h 35 c 6.3883,0 11.5,5.1117 11.5,11.5 v -1 c 0,-6.3883 -5.1117,-11.5 -11.5,-11.5 z"
         id="rect3906"
         inkscape:connector-curvature="0" />
      <path
         id="path4085"
         d="m 204,266 c 27.1633,0 49,-21.8367 49,-49 v -1 c 0,27.1633 -21.8367,49 -49,49 H 84 C 56.8367,265 35,243.1633 35,216 v 1 c 0,27.1633 21.8367,49 49,49 z"
         style="color:#bebebe;display:inline;overflow:visible;visibility:visible;opacity:0.41000001;fill:#000000;fill-opacity:1;fill-rule:nonzero;stroke:none;stroke-width:0;marker:none;enable-background:accumulate"
         inkscape:connector-curvature="0" />
      <path
         id="path4087"
         d="m 429,156 c 1.1253,0 2,-0.8747 2,-2 v -1 c 0,1.1253 -0.8747,2 -2,2 h -10 c -1.1253,0 -2,-0.8747 -2,-2 v 1 c 0,1.1253 0.8747,2 2,2 z"
         style="color:#bebebe;display:inline;overflow:visible;visibility:visible;opacity:0.3;fill:#000000;fill-opacity:1;fill-rule:nonzero;stroke:none;stroke-width:0;marker:none;enable-background:accumulate"
         inkscape:connector-curvature="0" />
      <path
         id="path4089"
         d="m 434,123 c 2.2333,0 4,-1.7667 4,-4 v -1 c 0,2.2333 -1.7667,4 -4,4 h -12 c -2.2333,0 -4,-1.7667 -4,-4 v 1 c 0,2.2333 1.7667,4 4,4 z"
         style="color:#bebebe;display:inline;overflow:visible;visibility:visible;opacity:0.3;fill:#000000;fill-opacity:1;fill-rule:nonzero;stroke:none;stroke-width:0;marker:none;enable-background:accumulate"
         inkscape:connector-curvature="0" />
      <path
         id="path4091"
         d="m 440,83 c 3.3413,0 6,-2.6587 6,-6 v -1 c 0,3.3413 -2.6587,6 -6,6 h -16 c -3.3413,0 -6,-2.6587 -6,-6 v 1 c 0,3.3413 2.6587,6 6,6 z"
         style="color:#bebebe;display:inline;overflow:visible;visibility:visible;opacity:0.41000001;fill:#000000;fill-opacity:1;fill-rule:nonzero;stroke:none;stroke-width:0;marker:none;enable-background:accumulate"
         inkscape:connector-curvature="0" />
      <path
         id="path4093"
         d="m 324,265 c 4.4493,0 8,-3.5507 8,-8 v -1 c 0,4.4493 -3.5507,8 -8,8 h -24 c -4.4493,0 -8,-3.5507 -8,-8 v 1 c 0,4.4493 3.5507,8 8,8 z"
         style="color:#bebebe;display:inline;overflow:visible;visibility:visible;opacity:0.41000001;fill:#000000;fill-opacity:1;fill-rule:nonzero;stroke:none;stroke-width:0;marker:none;enable-background:accumulate"
         inkscape:connector-curvature="0" />
      <path
         id="path4095"
         d="m 362,120 c 9.4353,0 17,-7.5647 17,-17 v -1 c 0,9.4353 -7.5647,17 -17,17 h -52 c -9.4353,0 -17,-7.5647 -17,-17 v 1 c 0,9.4353 7.5647,17 17,17 z"
         style="color:#bebebe;display:inline;overflow:visible;visibility:visible;opacity:0.41000001;fill:#000000;fill-opacity:1;fill-rule:nonzero;stroke:none;stroke-width:0;marker:none;enable-background:accumulate"
         inkscape:connector-curvature="0" />
      <path
         id="path4097"
         d="m 337.5,202 c 6.3883,0 11.5,-5.1117 11.5,-11.5 v -1 c 0,6.3883 -5.1117,11.5 -11.5,11.5 h -35 c -6.3883,0 -11.5,-5.1117 -11.5,-11.5 v 1 c 0,6.3883 5.1117,11.5 11.5,11.5 z"
         style="color:#bebebe;display:inline;overflow:visible;visibility:visible;opacity:0.41000001;fill:#000000;fill-opacity:1;fill-rule:nonzero;stroke:none;stroke-width:0;marker:none;enable-background:accumulate"
         inkscape:connector-curvature="0" />
      <path
         inkscape:connector-curvature="0"
         id="path4280"
         d="M 84,265 C 56.836703,265 35,243.1633 35,216 v -1 c 0,27.1633 21.836703,49 49,49 h 120 c 27.1633,0 49,-21.8367 49,-49 v 1 c 0,27.1633 -21.8367,49 -49,49 z"
         style="color:#bebebe;display:inline;overflow:visible;visibility:visible;opacity:0.1;fill:#ffffff;fill-opacity:1;fill-rule:nonzero;stroke:none;stroke-width:0;marker:none;enable-background:accumulate" />
      <path
         style="color:#bebebe;display:inline;overflow:visible;visibility:visible;opacity:0.1;fill:#ffffff;fill-opacity:1;fill-rule:nonzero;stroke:none;stroke-width:0;marker:none;enable-background:accumulate"
         d="m 300,264 c -4.4493,0 -8,-3.5507 -8,-8 v -1 c 0,4.4493 3.5507,8 8,8 h 24 c 4.4493,0 8,-3.5507 8,-8 v 1 c 0,4.4493 -3.5507,8 -8,8 z"
         id="path4294"
         inkscape:connector-curvature="0" />
      <path
         style="color:#bebebe;display:inline;overflow:visible;visibility:visible;opacity:0.1;fill:#ffffff;fill-opacity:1;fill-rule:nonzero;stroke:none;stroke-width:0;marker:none;enable-background:accumulate"
         d="m 302.5,201 c -6.3883,0 -11.5,-5.1117 -11.5,-11.5 v -1 c 0,6.3883 5.1117,11.5 11.5,11.5 h 35 c 6.3883,0 11.5,-5.1117 11.5,-11.5 v 1 c 0,6.3883 -5.1117,11.5 -11.5,11.5 z"
         id="path4296"
         inkscape:connector-curvature="0" />
      <path
         style="color:#bebebe;display:inline;overflow:visible;visibility:visible;opacity:0.1;fill:#ffffff;fill-opacity:1;fill-rule:nonzero;stroke:none;stroke-width:0;marker:none;enable-background:accumulate"
         d="m 310,119 c -9.4353,0 -17,-7.5647 -17,-17 v -1 c 0,9.4353 7.5647,17 17,17 h 52 c 9.4353,0 17,-7.5647 17,-17 v 1 c 0,9.4353 -7.5647,17 -17,17 z"
         id="path4298"
         inkscape:connector-curvature="0" />
      <path
         style="color:#bebebe;display:inline;overflow:visible;visibility:visible;opacity:0.1;fill:#ffffff;fill-opacity:1;fill-rule:nonzero;stroke:none;stroke-width:0;marker:none;enable-background:accumulate"
         d="m 424,82 c -3.3413,0 -6,-2.658703 -6,-6 v -1 c 0,3.341297 2.6587,6 6,6 h 16 c 3.3413,0 6,-2.658703 6,-6 v 1 c 0,3.341297 -2.6587,6 -6,6 z"
         id="path4300"
         inkscape:connector-curvature="0" />
      <path
         style="color:#bebebe;display:inline;overflow:visible;visibility:visible;opacity:0.1;fill:#ffffff;fill-opacity:1;fill-rule:nonzero;stroke:none;stroke-width:0;marker:none;enable-background:accumulate"
         d="m 422,122 c -2.2333,0 -4,-1.7667 -4,-4 v -1 c 0,2.2333 1.7667,4 4,4 h 12 c 2.2333,0 4,-1.7667 4,-4 v 1 c 0,2.2333 -1.7667,4 -4,4 z"
         id="path4302"
         inkscape:connector-curvature="0" />
      <path
         style="color:#bebebe;display:inline;overflow:visible;visibility:visible;opacity:0.1;fill:#ffffff;fill-opacity:1;fill-rule:nonzero;stroke:none;stroke-width:0;marker:none;enable-background:accumulate"
         d="m 419,154.5 c -1.1253,0 -2,-0.8747 -2,-2 v -1 c 0,1.1253 0.8747,2 2,2 h 10 c 1.1253,0 2,-0.8747 2,-2 v 1 c 0,1.1253 -0.8747,2 -2,2 z"
         id="path4304"
         inkscape:connector-curvature="0" />
    </g>
    <g
       inkscape:groupmode="layer"
       id="layer3"
       inkscape:label="Border"
       style="display:inline"
       sodipodi:insensitive="true">
      <path
         style="color:#bebebe;display:inline;overflow:visible;visibility:visible;opacity:0.41000001;fill:#000000;fill-opacity:1;fill-rule:nonzero;stroke:none;stroke-width:0;marker:none;enable-background:accumulate"
         d="m 422,101 c -2.77,0 -5,2.23 -5,5 v 12 c 0,2.77 2.23,5 5,5 h 12 c 2.77,0 5,-2.23 5,-5 v -12 c 0,-2.77 -2.23,-5 -5,-5 z m 0,1 h 12 c 2.2333,0 4,1.7667 4,4 v 12 c 0,2.2333 -1.7667,4 -4,4 h -12 c -2.2333,0 -4,-1.7667 -4,-4 v -12 c 0,-2.2333 1.7667,-4 4,-4 z"
         id="rect4099"
         inkscape:connector-curvature="0" />
      <path
         style="color:#bebebe;display:inline;overflow:visible;visibility:visible;opacity:0.41000001;fill:#000000;fill-opacity:1;fill-rule:nonzero;stroke:none;stroke-width:0;marker:none;enable-background:accumulate"
         d="m 424,53 c -3.878,0 -7,3.122 -7,7 v 16 c 0,3.878 3.122,7 7,7 h 16 c 3.878,0 7,-3.122 7,-7 V 60 c 0,-3.878 -3.122,-7 -7,-7 z m 0,1 h 16 c 3.3413,0 6,2.658703 6,6 v 16 c 0,3.341297 -2.6587,6 -6,6 h -16 c -3.3413,0 -6,-2.658703 -6,-6 V 60 c 0,-3.341297 2.6587,-6 6,-6 z"
         id="rect4151"
         inkscape:connector-curvature="0" />
      <path
         style="color:#bebebe;display:inline;overflow:visible;visibility:visible;opacity:0.41000001;fill:#000000;fill-opacity:1;fill-rule:nonzero;stroke:none;stroke-width:0;marker:none;enable-background:accumulate"
         d="m 419,140 c -1.662,0 -3,1.338 -3,3 v 10 c 0,1.662 1.338,3 3,3 h 10 c 1.662,0 3,-1.338 3,-3 v -10 c 0,-1.662 -1.338,-3 -3,-3 z m 0,1 h 10 c 1.1253,0 2,0.8747 2,2 v 10 c 0,1.1253 -0.8747,2 -2,2 h -10 c -1.1253,0 -2,-0.8747 -2,-2 v -10 c 0,-1.1253 0.8747,-2 2,-2 z"
         id="rect4095"
         inkscape:connector-curvature="0" />
      <path
         style="color:#bebebe;display:inline;overflow:visible;visibility:visible;opacity:0.41000001;fill:#000000;fill-opacity:1;fill-rule:nonzero;stroke:none;stroke-width:0;marker:none;enable-background:accumulate"
         d="m 300,223 c -4.986,0 -9,4.014 -9,9 v 24 c 0,4.986 4.014,9 9,9 h 24 c 4.986,0 9,-4.014 9,-9 v -24 c 0,-4.986 -4.014,-9 -9,-9 z m 0,1 h 24 c 4.4493,0 8,3.5507 8,8 v 24 c 0,4.4493 -3.5507,8 -8,8 h -24 c -4.4493,0 -8,-3.5507 -8,-8 v -24 c 0,-4.4493 3.5507,-8 8,-8 z"
         id="rect4783"
         inkscape:connector-curvature="0" />
      <path
         style="color:#bebebe;display:inline;overflow:visible;visibility:visible;opacity:0.41000001;fill:#000000;fill-opacity:1;fill-rule:nonzero;stroke:none;stroke-width:0;marker:none;enable-background:accumulate"
         d="m 302.5,142 c -6.925,0 -12.5,5.575 -12.5,12.5 v 35 c 0,6.925 5.575,12.5 12.5,12.5 h 35 c 6.925,0 12.5,-5.575 12.5,-12.5 v -35 c 0,-6.925 -5.575,-12.5 -12.5,-12.5 z m 0,1 h 35 c 6.3883,0 11.5,5.1117 11.5,11.5 v 35 c 0,6.3883 -5.1117,11.5 -11.5,11.5 h -35 c -6.3883,0 -11.5,-5.1117 -11.5,-11.5 v -35 c 0,-6.3883 5.1117,-11.5 11.5,-11.5 z"
         id="rect4515"
         inkscape:connector-curvature="0" />
      <path
         style="color:#bebebe;display:inline;overflow:visible;visibility:visible;opacity:0.41000001;fill:#000000;fill-opacity:1;fill-rule:nonzero;stroke:none;stroke-width:0;marker:none;enable-background:accumulate"
         d="m 310,32 c -9.972,0 -18,8.028 -18,18 v 52 c 0,9.972 8.028,18 18,18 h 52 c 9.972,0 18,-8.028 18,-18 V 50 c 0,-9.972 -8.028,-18 -18,-18 z m 0,1 h 52 c 9.4353,0 17,7.564703 17,17 v 52 c 0,9.4353 -7.5647,17 -17,17 h -52 c -9.4353,0 -17,-7.5647 -17,-17 V 50 c 0,-9.435297 7.5647,-17 17,-17 z"
         id="rect4511"
         inkscape:connector-curvature="0" />
      <path
         style="color:#bebebe;display:inline;overflow:visible;visibility:visible;opacity:0.41000001;fill:#000000;fill-opacity:1;fill-rule:nonzero;stroke:none;stroke-width:0;marker:none;enable-background:accumulate"
         d="M 84,46 C 56.3,46 34,68.3 34,96 v 120 c 0,27.7 22.3,50 50,50 h 120 c 27.7,0 50,-22.3 50,-50 V 96 C 254,68.3 231.7,46 204,46 Z m 0,1 h 120 c 27.1633,0 49,21.836703 49,49 v 120 c 0,27.1633 -21.8367,49 -49,49 H 84 C 56.836703,265 35,243.1633 35,216 V 96 C 35,68.836703 56.836703,47 84,47 Z"
         id="rect4040"
         inkscape:connector-curvature="0" />
    </g>
  </g>
</svg>
