<?xml version="1.0" encoding="UTF-8" standalone="no"?>
<!-- Created with Inkscape (http://www.inkscape.org/) -->

<svg
   xmlns:dc="http://purl.org/dc/elements/1.1/"
   xmlns:cc="http://creativecommons.org/ns#"
   xmlns:rdf="http://www.w3.org/1999/02/22-rdf-syntax-ns#"
   xmlns:svg="http://www.w3.org/2000/svg"
   xmlns="http://www.w3.org/2000/svg"
   xmlns:sodipodi="http://sodipodi.sourceforge.net/DTD/sodipodi-0.dtd"
   xmlns:inkscape="http://www.inkscape.org/namespaces/inkscape"
   inkscape:export-ydpi="90.000000"
   inkscape:export-xdpi="90.000000"
   width="480"
   height="300"
   id="svg11300"
   sodipodi:version="0.32"
   inkscape:version="0.92.5 (2060ec1f9f, 2020-04-08)"
   sodipodi:docname="synaptic.svg"
   inkscape:output_extension="org.inkscape.output.svg.inkscape"
   version="1.0"
   style="display:inline;enable-background:new"
   inkscape:export-filename="/home/sam/moka-next-template.png">
  <sodipodi:namedview
     stroke="#ef2929"
     fill="#f57900"
     id="base"
     pagecolor="#e3e3e3"
     bordercolor="#000000"
     borderopacity="0.40392157"
     inkscape:pageopacity="0"
     inkscape:pageshadow="2"
     inkscape:zoom="0.99999999"
     inkscape:cx="436.15673"
     inkscape:cy="161.79548"
     inkscape:current-layer="layer6"
     showgrid="false"
     inkscape:grid-bbox="true"
     inkscape:document-units="px"
     inkscape:showpageshadow="false"
     inkscape:window-width="1366"
     inkscape:window-height="703"
     inkscape:window-x="0"
     inkscape:window-y="40"
     width="400px"
     height="300px"
     inkscape:snap-nodes="true"
     inkscape:snap-bbox="true"
     gridtolerance="10000"
     inkscape:object-nodes="false"
     inkscape:snap-grids="true"
     showguides="true"
     inkscape:guide-bbox="true"
     inkscape:window-maximized="1"
     inkscape:bbox-nodes="true"
     inkscape:bbox-paths="true"
     inkscape:snap-bbox-edge-midpoints="true"
     inkscape:snap-bbox-midpoints="true"
     borderlayer="false"
     inkscape:object-paths="true"
     inkscape:snap-intersection-paths="false"
     inkscape:snap-smooth-nodes="false"
     inkscape:snap-midpoints="true">
    <inkscape:grid
       spacingy="1"
       spacingx="1"
       id="grid5883"
       type="xygrid"
       enabled="true"
       visible="true"
       empspacing="4"
       snapvisiblegridlinesonly="true"
       dotted="false"
       color="#000000"
       opacity="0.1254902"
       empcolor="#203ef3"
       empopacity="0.36470588"
       originx="0"
       originy="0" />
    <inkscape:grid
       type="xygrid"
       id="grid11592"
       empspacing="8"
       visible="true"
       enabled="false"
       spacingx="0.5"
       spacingy="0.5"
       color="#ff0000"
       opacity="0.1254902"
       empcolor="#ff0000"
       empopacity="0.25098039"
       snapvisiblegridlinesonly="true"
       dotted="true"
       originx="0"
       originy="0" />
  </sodipodi:namedview>
  <defs
     id="defs3">
    <linearGradient
       id="linearGradient4239">
      <stop
         style="stop-color:#3b707e;stop-opacity:1"
         offset="0"
         id="stop4241" />
      <stop
         style="stop-color:#5199ac;stop-opacity:1"
         offset="1"
         id="stop4243" />
    </linearGradient>
    <linearGradient
       id="linearGradient4163-4">
      <stop
         id="stop4165-8"
         offset="0"
         style="stop-color:#d35142;stop-opacity:1;" />
      <stop
         id="stop4167-3"
         offset="1"
         style="stop-color:#f57c6e;stop-opacity:1;" />
    </linearGradient>
  </defs>
  <metadata
     id="metadata4">
    <rdf:RDF>
      <cc:Work
         rdf:about="">
        <dc:format>image/svg+xml</dc:format>
        <dc:type
           rdf:resource="http://purl.org/dc/dcmitype/StillImage" />
        <dc:creator>
          <cc:Agent>
            <dc:title />
          </cc:Agent>
        </dc:creator>
        <dc:source />
        <cc:license
           rdf:resource="" />
        <dc:title />
        <dc:subject>
          <rdf:Bag />
        </dc:subject>
        <dc:date />
        <dc:rights>
          <cc:Agent>
            <dc:title />
          </cc:Agent>
        </dc:rights>
        <dc:publisher>
          <cc:Agent>
            <dc:title />
          </cc:Agent>
        </dc:publisher>
        <dc:identifier />
        <dc:relation />
        <dc:language />
        <dc:coverage />
        <dc:description />
        <dc:contributor>
          <cc:Agent>
            <dc:title />
          </cc:Agent>
        </dc:contributor>
      </cc:Work>
      <cc:Work
         rdf:about="">
        <dc:format>image/svg+xml</dc:format>
        <dc:type
           rdf:resource="http://purl.org/dc/dcmitype/StillImage" />
      </cc:Work>
    </rdf:RDF>
  </metadata>
  <g
     style="display:inline"
     inkscape:groupmode="layer"
     inkscape:label="Icon"
     id="layer1">
    <g
       style="display:none"
       inkscape:label="Baseplate"
       id="layer7"
       inkscape:groupmode="layer">
      <text
         y="19.745117"
         xml:space="preserve"
         x="15.006836"
         style="font-style:normal;font-variant:normal;font-weight:normal;font-stretch:normal;line-height:0%;font-family:'DejaVu Sans';-inkscape-font-specification:'DejaVu Sans';display:inline;fill:#000000;fill-opacity:1;stroke:none;enable-background:new"
         inkscape:label="context"
         id="context"><tspan
           style="font-style:normal;font-variant:normal;font-weight:normal;font-stretch:normal;font-size:18px;line-height:1.25;font-family:'DejaVu Sans';-inkscape-font-specification:'DejaVu Sans'"
           y="19.745117"
           x="15.006836"
           sodipodi:role="line"
           id="tspan3933">apps</tspan></text>
      <text
         y="19.745117"
         xml:space="preserve"
         x="122.48828"
         style="font-style:normal;font-variant:normal;font-weight:bold;font-stretch:normal;line-height:0%;font-family:'DejaVu Sans';-inkscape-font-specification:'DejaVu Sans Bold';text-align:start;writing-mode:lr-tb;text-anchor:start;display:inline;fill:#000000;fill-opacity:1;stroke:none;enable-background:new"
         inkscape:label="icon-name"
         id="icon-name"><tspan
           style="font-style:normal;font-variant:normal;font-weight:bold;font-stretch:normal;font-size:18px;line-height:1.25;font-family:'DejaVu Sans';-inkscape-font-specification:'DejaVu Sans Bold'"
           y="19.745117"
           x="122.48828"
           sodipodi:role="line"
           id="tspan3937">synaptic</tspan></text>
      <rect
         style="fill:#eeeeec;fill-opacity:1;fill-rule:nonzero;stroke:none;stroke-width:2;marker:none;visibility:visible;display:inline;overflow:visible;enable-background:accumulate"
         id="rect16x16"
         width="16"
         height="16"
         x="416"
         y="140"
         inkscape:label="16x16" />
      <rect
         style="fill:#d4d4d4;fill-opacity:1;fill-rule:nonzero;stroke:none;stroke-width:2;marker:none;visibility:visible;display:inline;overflow:visible;enable-background:accumulate"
         id="rect24x24"
         width="24"
         height="24"
         x="416"
         y="100"
         inkscape:label="24x24" />
      <rect
         style="fill:#eeeeec;fill-opacity:1;fill-rule:nonzero;stroke:none;stroke-width:2;marker:none;visibility:visible;display:inline;overflow:visible;enable-background:accumulate"
         id="rect32x32"
         width="32"
         height="32"
         x="416"
         y="52"
         inkscape:label="32x32" />
      <rect
         inkscape:label="22x22"
         y="101"
         x="417"
         height="22"
         width="22"
         id="rect22x22"
         style="fill:#eeeeec;fill-opacity:1;fill-rule:nonzero;stroke:none;stroke-width:2;marker:none;visibility:visible;display:inline;overflow:visible;enable-background:accumulate" />
      <rect
         inkscape:label="48x48"
         y="220"
         x="288"
         height="48"
         width="48"
         id="rect48x48"
         style="fill:#eeeeec;fill-opacity:1;fill-rule:nonzero;stroke:none;stroke-width:2;marker:none;visibility:visible;display:inline;overflow:visible;enable-background:accumulate" />
      <rect
         style="fill:#eeeeec;fill-opacity:1;fill-rule:nonzero;stroke:none;stroke-width:2;marker:none;visibility:visible;display:inline;overflow:visible;enable-background:accumulate"
         id="rect256x256"
         width="256"
         height="256"
         x="16"
         y="28"
         inkscape:label="256x256" />
      <rect
         style="fill:#eeeeec;fill-opacity:1;fill-rule:nonzero;stroke:none;stroke-width:2;marker:none;visibility:visible;display:inline;overflow:visible;enable-background:accumulate"
         id="rect64x64"
         width="64"
         height="64"
         x="288"
         y="140"
         inkscape:label="64x64" />
      <rect
         style="fill:#eeeeec;fill-opacity:1;fill-rule:nonzero;stroke:none;stroke-width:2;marker:none;visibility:visible;display:inline;overflow:visible;enable-background:accumulate"
         id="rect96x96"
         width="96"
         height="96"
         x="288"
         y="28"
         inkscape:label="96x96" />
    </g>
    <g
       inkscape:groupmode="layer"
       id="layer4"
       inkscape:label="Shadow"
       style="display:inline"
       sodipodi:insensitive="true">
      <rect
         ry="50"
         y="47"
         x="34"
         height="220"
         width="220"
         id="rect4114"
         style="opacity:0.1;color:#bebebe;fill:#000000;fill-opacity:1;fill-rule:nonzero;stroke:none;stroke-width:0;marker:none;visibility:visible;display:inline;overflow:visible;enable-background:accumulate" />
      <rect
         style="opacity:0.1;color:#bebebe;fill:#000000;fill-opacity:1;fill-rule:nonzero;stroke:none;stroke-width:0;marker:none;visibility:visible;display:inline;overflow:visible;enable-background:accumulate"
         id="rect4120"
         width="30"
         height="30"
         x="417"
         y="54"
         ry="7" />
      <rect
         transform="scale(1,-1)"
         ry="9"
         y="-266"
         x="291"
         height="42"
         width="42"
         id="rect4122"
         style="opacity:0.1;color:#bebebe;fill:#000000;fill-opacity:1;fill-rule:nonzero;stroke:none;stroke-width:0;marker:none;visibility:visible;display:inline;overflow:visible;enable-background:accumulate" />
      <rect
         style="opacity:0.1;color:#bebebe;fill:#000000;fill-opacity:1;fill-rule:nonzero;stroke:none;stroke-width:0;marker:none;visibility:visible;display:inline;overflow:visible;enable-background:accumulate"
         id="rect4124"
         width="88"
         height="88"
         x="292"
         y="33"
         ry="18" />
      <rect
         ry="12.5"
         y="143"
         x="290"
         height="60"
         width="60"
         id="rect4126"
         style="opacity:0.1;color:#bebebe;fill:#000000;fill-opacity:1;fill-rule:nonzero;stroke:none;stroke-width:0;marker:none;visibility:visible;display:inline;overflow:visible;enable-background:accumulate" />
      <path
         id="path4268"
         d="m 422,101 c -2.77,0 -5,2.23 -5,5 l 0,12 c 0,2.77 2.23,5 5,5 l 12,0 c 2.77,0 5,-2.23 5,-5 l 0,-12 c 0,-2.77 -2.23,-5 -5,-5 z"
         style="opacity:0.1;color:#bebebe;fill:#000000;fill-opacity:1;fill-rule:nonzero;stroke:none;stroke-width:0;marker:none;visibility:visible;display:inline;overflow:visible;enable-background:accumulate"
         inkscape:connector-curvature="0"
         sodipodi:nodetypes="sssssssss" />
      <path
         id="path4270"
         d="m 419,140 c -1.662,0 -3,1.338 -3,3 l 0,10 c 0,1.662 1.338,3 3,3 l 10,0 c 1.662,0 3,-1.338 3,-3 l 0,-10 c 0,-1.662 -1.338,-3 -3,-3 z"
         style="opacity:0.1;color:#bebebe;fill:#000000;fill-opacity:1;fill-rule:nonzero;stroke:none;stroke-width:0;marker:none;visibility:visible;display:inline;overflow:visible;enable-background:accumulate"
         inkscape:connector-curvature="0"
         sodipodi:nodetypes="sssssssss" />
    </g>
    <g
       inkscape:groupmode="layer"
       id="layer2"
       inkscape:label="Background"
       style="display:inline" />
    <g
       inkscape:groupmode="layer"
       id="layer6"
       inkscape:label="Symbols"
       style="display:inline">
      <g
         id="g1088">
        <g
           id="g1023">
          <path
             style="display:inline;enable-background:accumulate;color:#bebebe;fill:#ffffff;fill-opacity:1;fill-rule:nonzero;stroke:none;stroke-width:2;marker:none;visibility:visible;overflow:visible"
             d="M 419 140.5 C 417.6156 140.5 416.5 141.6156 416.5 143 L 416.5 153 C 416.5 154.3844 417.6156 155.5 419 155.5 L 429 155.5 C 430.3844 155.5 431.5 154.3844 431.5 153 L 431.5 143 C 431.5 141.6156 430.3844 140.5 429 140.5 L 419 140.5 z "
             id="path4202" />
          <path
             style="opacity:0.2;color:#bebebe;fill:#000000;fill-opacity:1;fill-rule:nonzero;stroke:none;stroke-width:2;marker:none;visibility:visible;display:inline;overflow:visible;enable-background:accumulate"
             d="m 422,144 0,6 -2,0 4,4 4,-4 -2,0 0,-6 z"
             id="path5687"
             inkscape:connector-curvature="0"
             sodipodi:nodetypes="cccccccc" />
          <path
             sodipodi:nodetypes="cccccccc"
             inkscape:connector-curvature="0"
             id="path4187"
             d="m 422,143 0,6 -2,0 4,4 4,-4 -2,0 0,-6 z"
             style="color:#bebebe;fill:#00ff00;fill-opacity:1;fill-rule:nonzero;stroke:none;stroke-width:2;marker:none;visibility:visible;display:inline;overflow:visible;enable-background:accumulate" />
        </g>
        <g
           id="g1017">
          <path
             style="display:inline;enable-background:accumulate;color:#bebebe;fill:#ffffff;fill-opacity:1;fill-rule:nonzero;stroke:none;stroke-width:2;marker:none;visibility:visible;overflow:visible"
             d="M 422 101.5 C 419.50301 101.5 417.5 103.50301 417.5 106 L 417.5 118 C 417.5 120.49699 419.50301 122.5 422 122.5 L 434 122.5 C 436.49699 122.5 438.5 120.49699 438.5 118 L 438.5 106 C 438.5 103.50301 436.49699 101.5 434 101.5 L 422 101.5 z "
             id="path4204" />
          <path
             sodipodi:nodetypes="cccccccc"
             inkscape:connector-curvature="0"
             id="path5689"
             d="m 425,106 0,8 -2.6,0 5.6,6 5.6,-6 -2.6,0 0,-8 z"
             style="opacity:0.2;color:#bebebe;fill:#000000;fill-opacity:1;fill-rule:nonzero;stroke:none;stroke-width:2;marker:none;visibility:visible;display:inline;overflow:visible;enable-background:accumulate" />
          <path
             style="color:#bebebe;fill:#00ff00;fill-opacity:1;fill-rule:nonzero;stroke:none;stroke-width:2;marker:none;visibility:visible;display:inline;overflow:visible;enable-background:accumulate"
             d="m 425,105 0,8 -2.6,0 5.6,6 5.6,-6 -2.6,0 0,-8 z"
             id="path4189"
             inkscape:connector-curvature="0"
             sodipodi:nodetypes="cccccccc" />
        </g>
        <g
           id="g986">
          <g
             style="display:inline;enable-background:new"
             id="g972"
             transform="translate(-84,-16.5)">
            <path
               id="path4212"
               d="m 396,240 v 41 h 12.16016 c 4.62467,0 8.33984,-3.71517 8.33984,-8.33984 V 248.33984 C 416.5,243.71517 412.78483,240 408.16016,240 Z"
               style="color:#bebebe;display:inline;overflow:visible;visibility:visible;fill:#00ff00;fill-opacity:1;fill-rule:nonzero;stroke:none;stroke-width:1.38983047;marker:none;enable-background:accumulate"
               inkscape:connector-curvature="0" />
            <path
               inkscape:connector-curvature="0"
               style="color:#bebebe;display:inline;overflow:visible;visibility:visible;fill:#ffffff;fill-opacity:1;fill-rule:nonzero;stroke:none;stroke-width:1.38983047;marker:none;enable-background:accumulate"
               d="m 396,240 v 41 H 383.83984 C 379.21517,281 375.5,277.28483 375.5,272.66016 V 248.33984 C 375.5,243.71517 379.21517,240 383.83984,240 Z"
               id="path966" />
          </g>
          <path
             style="opacity:0.2;color:#bebebe;fill:#000000;fill-opacity:1;fill-rule:nonzero;stroke:none;stroke-width:2;marker:none;visibility:visible;display:inline;overflow:visible;enable-background:accumulate"
             d="m 305,241 0,-8 3,0 -6,-6 -6,6 3,0 0,8 z"
             id="path4178"
             inkscape:connector-curvature="0"
             sodipodi:nodetypes="cccccccc" />
          <path
             sodipodi:nodetypes="cccccccc"
             inkscape:connector-curvature="0"
             id="path4115"
             d="m 319,249 0,8 -3,0 6,6 6,-6 -3,0 0,-8 z"
             style="opacity:0.1;color:#bebebe;fill:#000000;fill-opacity:1;fill-rule:nonzero;stroke:none;stroke-width:2;marker:none;visibility:visible;display:inline;overflow:visible;enable-background:accumulate" />
          <path
             style="color:#bebebe;fill:#ffffff;fill-opacity:1;fill-rule:nonzero;stroke:none;stroke-width:2;marker:none;visibility:visible;display:inline;overflow:visible;enable-background:accumulate"
             d="m 319,248 0,8 -3,0 6,6 6,-6 -3,0 0,-8 z"
             id="path4101"
             inkscape:connector-curvature="0"
             sodipodi:nodetypes="cccccccc" />
          <path
             sodipodi:nodetypes="cccccccc"
             inkscape:connector-curvature="0"
             id="path4170"
             d="m 305,240 0,-8 3,0 -6,-6 -6,6 3,0 0,8 z"
             style="color:#bebebe;fill:#00ff00;fill-opacity:1;fill-rule:nonzero;stroke:none;stroke-width:2;marker:none;visibility:visible;display:inline;overflow:visible;enable-background:accumulate" />
          <path
             inkscape:connector-curvature="0"
             style="opacity:0.2;fill:#000000;fill-opacity:1;stroke:none;display:inline;enable-background:new"
             d="m 311,224 0,19 -19,0 0,1 19,0 0,20 1,0 0,-20 20,0 0,-1 -20,0 0,-19 -1,0 z"
             id="rect4277" />
          <path
             inkscape:connector-curvature="0"
             style="opacity:0.2;fill:#ffffff;fill-opacity:1;stroke:none;display:inline;enable-background:new"
             d="m 300,224 c -4.4493,0 -8,3.5507 -8,8 l 0,1 0,10 1,0 0,-11 c 0,-1.94657 0.67534,-3.71326 1.8125,-5.09375 0.0165,-0.014 0.0146,-0.0486 0.0312,-0.0625 0.0139,-0.0166 0.0485,-0.0148 0.0625,-0.0312 C 296.28674,225.67534 298.05343,225 300,225 l 11,0 0,-1 -10,0 -1,0 z m 12,0 0,1 0,18 1,0 0,-18 11,0 c 4.4493,0 8,3.5507 8,8 l 0,-1 c 0,-4.4493 -3.5507,-8 -8,-8 l -12,0 z m -20,20 0,1 0,11 c 0,4.4493 3.5507,8 8,8 l 1,0 c -4.4493,0 -8,-3.5507 -8,-8 l 0,-11 18,0 0,-1 -18,0 -1,0 z m 20,0 0,20 1,0 0,-19 19,0 0,-1 -20,0 z"
             id="rect4282" />
        </g>
        <g
           id="g1172">
          <g
             style="display:inline;enable-background:new"
             id="g1158"
             transform="translate(-135,-200.5)">
            <path
               id="path330"
               d="m 471,233 v 87 h 26 c 9.70255,0 17.5,-7.79745 17.5,-17.5 v -52 c 0,-9.70255 -7.79745,-17.5 -17.5,-17.5 z"
               style="color:#bebebe;display:inline;overflow:visible;visibility:visible;fill:#00ff00;fill-opacity:1;fill-rule:nonzero;stroke:none;stroke-width:2;marker:none;enable-background:accumulate"
               inkscape:connector-curvature="0" />
            <path
               inkscape:connector-curvature="0"
               style="color:#bebebe;display:inline;overflow:visible;visibility:visible;fill:#ffffff;fill-opacity:1;fill-rule:nonzero;stroke:none;stroke-width:2;marker:none;enable-background:accumulate"
               d="m 471,233 v 87 h -26 c -9.70255,0 -17.5,-7.79745 -17.5,-17.5 v -52 c 0,-9.70255 7.79745,-17.5 17.5,-17.5 z"
               id="path343" />
          </g>
          <path
             sodipodi:nodetypes="cccccccc"
             inkscape:connector-curvature="0"
             id="path4176"
             d="m 321,69 0,-17 6,0 -13,-13 -12,13 6,0 0,17 z"
             style="opacity:0.2;color:#bebebe;fill:#000000;fill-opacity:1;fill-rule:nonzero;stroke:none;stroke-width:2;marker:none;visibility:visible;display:inline;overflow:visible;enable-background:accumulate" />
          <path
             style="opacity:0.1;color:#bebebe;fill:#000000;fill-opacity:1;fill-rule:nonzero;stroke:none;stroke-width:2;marker:none;visibility:visible;display:inline;overflow:visible;enable-background:accumulate"
             d="m 351,85 0,17 -6,0 13,13 12,-13 -6,0 0,-17 z"
             id="path4113"
             inkscape:connector-curvature="0"
             sodipodi:nodetypes="cccccccc" />
          <path
             sodipodi:nodetypes="cccccccc"
             inkscape:connector-curvature="0"
             id="path4099"
             d="m 351,84 0,17 -6,0 13,13 12,-13 -6,0 0,-17 z"
             style="color:#bebebe;fill:#ffffff;fill-opacity:1;fill-rule:nonzero;stroke:none;stroke-width:2;marker:none;visibility:visible;display:inline;overflow:visible;enable-background:accumulate" />
          <path
             style="color:#bebebe;fill:#00ff00;fill-opacity:1;fill-rule:nonzero;stroke:none;stroke-width:2;marker:none;visibility:visible;display:inline;overflow:visible;enable-background:accumulate"
             d="m 321,68 0,-17 6,0 -13,-13 -12,13 6,0 0,17 z"
             id="path4168"
             inkscape:connector-curvature="0"
             sodipodi:nodetypes="cccccccc" />
          <path
             inkscape:connector-curvature="0"
             style="opacity:0.2;fill:#000000;fill-opacity:1;stroke:none;display:inline;enable-background:new"
             d="m 335,33 0,42 -42,0 0,1 42,0 0,43 1,0 0,-43 43,0 0,-1 -43,0 0,-42 -1,0 z"
             id="rect4457" />
          <path
             inkscape:connector-curvature="0"
             style="opacity:0.2;fill:#ffffff;fill-opacity:1;stroke:none;display:inline;enable-background:new"
             d="m 310,33 c -9.4353,0 -17,7.564703 -17,17 l 0,1 0,24 1,0 0,-25 c 0,-4.458922 1.7221,-8.477565 4.5,-11.5 3.02243,-2.777896 7.04108,-4.5 11.5,-4.5 l 25,0 0,-1 -24,0 -1,0 z m 26,0 0,1 0,41 1,0 0,-41 25,0 c 9.4353,0 17,7.564703 17,17 l 0,-1 c 0,-9.435297 -7.5647,-17 -17,-17 l -25,0 -1,0 z m -43,43 0,1 0,25 c 0,9.4353 7.5647,17 17,17 l 1,0 c -9.4353,0 -17,-7.5647 -17,-17 l 0,-25 41,0 0,-1 -41,0 -1,0 z m 43,0 0,43 1,0 0,-42 42,0 0,-1 -43,0 z"
             id="rect4459" />
        </g>
        <g
           id="g1011">
          <g
             style="display:inline;enable-background:new"
             id="g997"
             transform="translate(-57.67188,-16.890625)">
            <path
               id="path4208"
               d="m 489.67188,70.390625 v 29 h 8.48632 c 3.33522,0 6.01368,-2.6765 6.01368,-6.011719 V 76.402344 c 0,-3.335219 -2.67846,-6.011719 -6.01368,-6.011719 z"
               style="color:#bebebe;display:inline;overflow:visible;visibility:visible;fill:#00ff00;fill-opacity:1;fill-rule:nonzero;stroke:none;stroke-width:1.41463411;marker:none;enable-background:accumulate"
               inkscape:connector-curvature="0" />
            <path
               inkscape:connector-curvature="0"
               style="color:#bebebe;display:inline;overflow:visible;visibility:visible;fill:#ffffff;fill-opacity:1;fill-rule:nonzero;stroke:none;stroke-width:1.41463411;marker:none;enable-background:accumulate"
               d="m 489.67188,70.390625 v 29 h -8.48632 c -3.33522,0 -6.01368,-2.6765 -6.01368,-6.011719 V 76.402344 c 0,-3.335219 2.67846,-6.011719 6.01368,-6.011719 z"
               id="path991" />
          </g>
          <path
             sodipodi:nodetypes="cccccccc"
             inkscape:connector-curvature="0"
             id="path4119"
             d="m 437,72 0,5 -2,0 4,4 4,-4 -2,0 0,-5 z"
             style="opacity:0.1;color:#bebebe;fill:#000000;fill-opacity:1;fill-rule:nonzero;stroke:none;stroke-width:2;marker:none;visibility:visible;display:inline;overflow:visible;enable-background:accumulate" />
          <path
             style="color:#bebebe;fill:#ffffff;fill-opacity:1;fill-rule:nonzero;stroke:none;stroke-width:2;marker:none;visibility:visible;display:inline;overflow:visible;enable-background:accumulate"
             d="m 437,71 0,5 -2,0 4,4 4,-4 -2,0 0,-5 z"
             id="path4109"
             inkscape:connector-curvature="0"
             sodipodi:nodetypes="cccccccc" />
          <path
             style="opacity:0.1;color:#bebebe;fill:#000000;fill-opacity:1;fill-rule:nonzero;stroke:none;stroke-width:2;marker:none;visibility:visible;display:inline;overflow:visible;enable-background:accumulate"
             d="m 427,66 0,-5 2,0 -4,-4 -4,4 2,0 0,5 z"
             id="path4182"
             inkscape:connector-curvature="0"
             sodipodi:nodetypes="cccccccc" />
          <path
             sodipodi:nodetypes="cccccccc"
             inkscape:connector-curvature="0"
             id="path4184"
             d="m 427,65 0,-5 2,0 -4,-4 -4,4 2,0 0,5 z"
             style="color:#bebebe;fill:#00ff00;fill-opacity:1;fill-rule:nonzero;stroke:none;stroke-width:2;marker:none;visibility:visible;display:inline;overflow:visible;enable-background:accumulate" />
          <path
             inkscape:connector-curvature="0"
             style="opacity:0.2;fill:#000000;fill-opacity:1;stroke:none;display:inline;enable-background:new"
             d="m 431,54 0,13 -13,0 0,1 13,0 0,13.9375 1,0 0,-13.9375 14,0 0,-1 -14,0 0,-13 -1,0 z"
             id="rect4575" />
          <path
             inkscape:connector-curvature="0"
             style="opacity:0.2;fill:#ffffff;fill-opacity:1;stroke:none;display:inline;enable-background:new"
             d="m 424,54 c -3.3413,0 -6,2.658703 -6,6 l 0,1 0,6 1,0 0,-7 c 0,-1.412411 0.48036,-2.699542 1.28125,-3.71875 C 421.30046,55.480364 422.58759,55 424,55 l 7,0 0,-1 -6,0 -1,0 z m 8,0 0,1 0,12 1,0 0,-12 7,0 c 3.3413,0 6,2.658703 6,6 l 0,-1 c 0,-3.341297 -2.6587,-6 -6,-6 l -7,0 -1,0 z m -14,14 0,1 0,7 c 0,3.3413 2.6587,6 6,6 l 1,0 c -3.3413,0 -6,-2.6587 -6,-6 l 0,-7 12,0 0,-1 -12,0 -1,0 z m 14,0 0,13.9375 0,0.0625 1,0 0,-13 13,0 0,-1 -14,0 z"
             id="rect4581" />
        </g>
        <g
           id="g961">
          <g
             style="display:inline;enable-background:new"
             id="g947"
             transform="translate(-193.62523,-17.70114)">
            <path
               inkscape:connector-curvature="0"
               id="path4210"
               d="m 513.62523,160.20114 v 59 h 17.63281 c 6.57989,0 11.86719,-5.2873 11.86719,-11.86719 v -35.26367 c 0,-6.57989 -5.2873,-11.86914 -11.86719,-11.86914 z"
               style="color:#bebebe;display:inline;overflow:visible;visibility:visible;fill:#00ff00;fill-opacity:1;fill-rule:nonzero;stroke:none;stroke-width:1.35632181;marker:none;enable-background:accumulate" />
            <path
               inkscape:connector-curvature="0"
               style="color:#bebebe;display:inline;overflow:visible;visibility:visible;fill:#ffffff;fill-opacity:1;fill-rule:nonzero;stroke:none;stroke-width:1.35632181;marker:none;enable-background:accumulate"
               d="m 513.62523,160.20114 v 59 h -17.63281 c -6.57989,0 -11.86719,-5.2873 -11.86719,-11.86719 v -35.26367 c 0,-6.57989 5.2873,-11.86914 11.86719,-11.86914 z"
               id="path136" />
          </g>
          <path
             style="opacity:0.2;color:#bebebe;fill:#000000;fill-opacity:1;fill-rule:nonzero;stroke:none;stroke-width:2;marker:none;visibility:visible;display:inline;overflow:visible;enable-background:accumulate"
             d="m 309,167 0,-10 4,0 -8,-8 -8,8 4,0 0,10 z"
             id="path4180"
             inkscape:connector-curvature="0"
             sodipodi:nodetypes="cccccccc" />
          <path
             sodipodi:nodetypes="cccccccc"
             inkscape:connector-curvature="0"
             id="path4117"
             d="m 331,179 0,10 -4,0 8,8 8,-8 -4,0 0,-10 z"
             style="opacity:0.1;color:#bebebe;fill:#000000;fill-opacity:1;fill-rule:nonzero;stroke:none;stroke-width:2;marker:none;visibility:visible;display:inline;overflow:visible;enable-background:accumulate" />
          <path
             style="color:#bebebe;fill:#ffffff;fill-opacity:1;fill-rule:nonzero;stroke:none;stroke-width:2;marker:none;visibility:visible;display:inline;overflow:visible;enable-background:accumulate"
             d="m 331,178 0,10 -4,0 8,8 8,-8 -4,0 0,-10 z"
             id="path4103"
             inkscape:connector-curvature="0"
             sodipodi:nodetypes="cccccccc" />
          <path
             sodipodi:nodetypes="cccccccc"
             inkscape:connector-curvature="0"
             id="path4172"
             d="m 309,166 0,-10 4,0 -8,-8 -8,8 4,0 0,10 z"
             style="color:#bebebe;fill:#00ff00;fill-opacity:1;fill-rule:nonzero;stroke:none;stroke-width:2;marker:none;visibility:visible;display:inline;overflow:visible;enable-background:accumulate" />
          <path
             inkscape:connector-curvature="0"
             style="opacity:0.2;fill:#000000;fill-opacity:1;stroke:none;display:inline;enable-background:new"
             d="m 319,143 0,28 -28,0 0,1 28,0 0,29 1,0 0,-29 29,0 0,-1 -29,0 0,-28 -1,0 z"
             id="rect4338" />
          <path
             inkscape:connector-curvature="0"
             style="opacity:0.2;fill:#ffffff;fill-opacity:1;stroke:none;display:inline;enable-background:new"
             d="m 302.5,143 c -6.3883,0 -11.5,5.1117 -11.5,11.5 l 0,1 0,15.5 1,0 0,-16.5 c 0,-2.93338 1.09073,-5.60125 2.875,-7.625 2.02375,-1.78427 4.69162,-2.875 7.625,-2.875 l 16.5,0 0,-1 -15.5,0 -1,0 z m 17.5,0 0,1 0,27 1,0 0,-27 16.5,0 c 6.3883,0 11.5,5.1117 11.5,11.5 l 0,-1 c 0,-6.3883 -5.1117,-11.5 -11.5,-11.5 l -16.5,0 -1,0 z m -29,29 0,1 0,16.5 c 0,6.3883 5.1117,11.5 11.5,11.5 l 1,0 c -6.3883,0 -11.5,-5.1117 -11.5,-11.5 l 0,-16.5 27,0 0,-1 -27,0 -1,0 z m 29,0 0,29 1,0 0,-28 28,0 0,-1 -29,0 z"
             id="path4343" />
        </g>
        <g
           id="g262">
          <g
             id="g157">
            <path
               inkscape:connector-curvature="0"
               id="path1217"
               d="M 84,46.5 C 56.56874,46.5 34.5,68.56873 34.5,96 v 120 c 0,27.43127 22.06874,49.5 49.5,49.5 h 60 v -2 -217 z"
               style="color:#bebebe;display:inline;overflow:visible;visibility:visible;fill:#ffffff;fill-opacity:1;fill-rule:nonzero;stroke:none;stroke-width:2;marker:none;enable-background:accumulate" />
            <path
               style="color:#bebebe;display:inline;overflow:visible;visibility:visible;fill:#00ff00;fill-opacity:1;fill-rule:nonzero;stroke:none;stroke-width:2;marker:none;enable-background:accumulate"
               d="m 204,46.5 c 27.43126,0 49.5,22.06873 49.5,49.5 v 120 c 0,27.43127 -22.06874,49.5 -49.5,49.5 h -60 v -2 -217 z"
               id="path1250"
               inkscape:connector-curvature="0" />
          </g>
          <g
             id="g153">
            <g
               id="g1323">
              <path
                 style="color:#bebebe;display:inline;overflow:visible;visibility:visible;opacity:0.2;fill:#000000;fill-opacity:1;fill-rule:nonzero;stroke:none;stroke-width:2;marker:none;enable-background:accumulate"
                 d="M 108,140 V 94 h 16 L 92,62 60,94 h 16 v 46 z"
                 id="path4174"
                 inkscape:connector-curvature="0"
                 sodipodi:nodetypes="cccccccc" />
              <path
                 sodipodi:nodetypes="cccccccc"
                 inkscape:connector-curvature="0"
                 id="path4111"
                 d="m 183,174 v 46 h -16 l 32,32 32,-32 h -16 v -46 z"
                 style="color:#bebebe;display:inline;overflow:visible;visibility:visible;opacity:0.1;fill:#000000;fill-opacity:1;fill-rule:nonzero;stroke:none;stroke-width:2;marker:none;enable-background:accumulate" />
            </g>
            <g
               id="g1319">
              <path
                 style="color:#bebebe;display:inline;overflow:visible;visibility:visible;fill:#ffffff;fill-opacity:1;fill-rule:nonzero;stroke:none;stroke-width:2;marker:none;enable-background:accumulate"
                 d="m 183,173 v 46 h -16 l 32,32 32,-32 h -16 v -46 z"
                 id="path4579"
                 inkscape:connector-curvature="0"
                 sodipodi:nodetypes="cccccccc" />
              <path
                 sodipodi:nodetypes="cccccccc"
                 inkscape:connector-curvature="0"
                 id="path4166"
                 d="M 108,139 V 93 h 16 L 92,61 60,93 h 16 v 46 z"
                 style="color:#bebebe;display:inline;overflow:visible;visibility:visible;fill:#00ff00;fill-opacity:1;fill-rule:nonzero;stroke:none;stroke-width:2;marker:none;enable-background:accumulate" />
            </g>
          </g>
          <path
             inkscape:connector-curvature="0"
             style="display:inline;opacity:0.2;fill:#000000;fill-opacity:1;stroke:none;enable-background:new"
             d="M 143,47 V 155 H 35 v 1 h 108 v 109 h 1 V 156 h 109 v -1 H 144 V 47 Z"
             id="rect4304" />
          <path
             inkscape:connector-curvature="0"
             style="display:inline;opacity:0.2;fill:#ffffff;fill-opacity:1;stroke:none;enable-background:new"
             d="M 84,47 C 56.836703,47 35,68.836703 35,96 v 1 58 h 1 V 96 C 36,82.674516 41.251308,70.625026 49.8125,61.8125 58.625027,53.251308 70.674518,48 84,48 h 59 V 47 H 85 Z m 60,0 v 1 107 h 1 V 48 h 59 c 27.1633,0 49,21.836703 49,49 V 96 C 253,68.836703 231.1633,47 204,47 H 145 Z M 35,156 v 1 59 c 0,27.1633 21.8367,49 49,49 h 1 C 57.8367,265 36,243.1633 36,216 v -59 h 107 v -1 H 36 Z m 109,0 v 109 h 1 V 157 h 108 v -1 z"
             id="path4309" />
          <path
             id="path1215"
             d="M 143,47 V 155 H 35 v 1 h 108 v 109 h 1 V 156 h 109 v -1 H 144 V 47 Z"
             style="display:inline;opacity:0.2;fill:#000000;fill-opacity:1;stroke:none;enable-background:new"
             inkscape:connector-curvature="0" />
          <path
             id="path1233"
             d="M 84,47 C 56.836703,47 35,68.836703 35,96 v 1 58 h 1 V 96 C 36,82.674516 41.251308,70.625026 49.8125,61.8125 58.625027,53.251308 70.674518,48 84,48 h 59 V 47 H 85 Z m 60,0 v 1 107 h 1 V 48 h 59 c 27.1633,0 49,21.836703 49,49 V 96 C 253,68.836703 231.1633,47 204,47 H 145 Z M 35,156 v 1 59 c 0,27.1633 21.8367,49 49,49 h 1 C 57.8367,265 36,243.1633 36,216 v -59 h 107 v -1 H 36 Z m 109,0 v 109 h 1 V 157 h 108 v -1 z"
             style="display:inline;opacity:0.2;fill:#ffffff;fill-opacity:1;stroke:none;enable-background:new"
             inkscape:connector-curvature="0" />
        </g>
      </g>
    </g>
    <g
       inkscape:groupmode="layer"
       id="layer5"
       inkscape:label="Highlights"
       style="display:inline"
       sodipodi:insensitive="true">
      <path
         style="opacity:0.12999998;color:#bebebe;fill:#ffffff;fill-opacity:1;fill-rule:nonzero;stroke:none;stroke-width:0;marker:none;visibility:visible;display:inline;overflow:visible;enable-background:accumulate"
         d="M 84,47 C 56.836703,47 35,68.836703 35,96 l 0,1 C 35,69.836703 56.836703,48 84,48 l 120,0 c 27.1633,0 49,21.836703 49,49 l 0,-1 C 253,68.836703 231.1633,47 204,47 L 84,47 z"
         id="rect3894"
         inkscape:connector-curvature="0" />
      <path
         style="opacity:0.12999998;color:#bebebe;fill:#ffffff;fill-opacity:1;fill-rule:nonzero;stroke:none;stroke-width:0;marker:none;visibility:visible;display:inline;overflow:visible;enable-background:accumulate"
         d="m 419,141 c -1.1253,0 -2,0.8747 -2,2 l 0,1 c 0,-1.1253 0.8747,-2 2,-2 l 10,0 c 1.1253,0 2,0.8747 2,2 l 0,-1 c 0,-1.1253 -0.8747,-2 -2,-2 l -10,0 z"
         id="rect3896"
         inkscape:connector-curvature="0" />
      <path
         style="opacity:0.12999998;color:#bebebe;fill:#ffffff;fill-opacity:1;fill-rule:nonzero;stroke:none;stroke-width:0;marker:none;visibility:visible;display:inline;overflow:visible;enable-background:accumulate"
         d="m 422,102 c -2.2333,0 -4,1.7667 -4,4 l 0,1 c 0,-2.2333 1.7667,-4 4,-4 l 12,0 c 2.2333,0 4,1.7667 4,4 l 0,-1 c 0,-2.2333 -1.7667,-4 -4,-4 l -12,0 z"
         id="rect3898"
         inkscape:connector-curvature="0" />
      <path
         style="opacity:0.12999998;color:#bebebe;fill:#ffffff;fill-opacity:1;fill-rule:nonzero;stroke:none;stroke-width:0;marker:none;visibility:visible;display:inline;overflow:visible;enable-background:accumulate"
         d="m 424,54 c -3.3413,0 -6,2.658703 -6,6 l 0,1 c 0,-3.341297 2.6587,-6 6,-6 l 16,0 c 3.3413,0 6,2.658703 6,6 l 0,-1 c 0,-3.341297 -2.6587,-6 -6,-6 l -16,0 z"
         id="rect3900"
         inkscape:connector-curvature="0" />
      <path
         style="opacity:0.12999998;color:#bebebe;fill:#ffffff;fill-opacity:1;fill-rule:nonzero;stroke:none;stroke-width:0;marker:none;visibility:visible;display:inline;overflow:visible;enable-background:accumulate"
         d="m 300,224 c -4.4493,0 -8,3.5507 -8,8 l 0,1 c 0,-4.4493 3.5507,-8 8,-8 l 24,0 c 4.4493,0 8,3.5507 8,8 l 0,-1 c 0,-4.4493 -3.5507,-8 -8,-8 l -24,0 z"
         id="rect3902"
         inkscape:connector-curvature="0" />
      <path
         style="opacity:0.12999998;color:#bebebe;fill:#ffffff;fill-opacity:1;fill-rule:nonzero;stroke:none;stroke-width:0;marker:none;visibility:visible;display:inline;overflow:visible;enable-background:accumulate"
         d="m 310,33 c -9.4353,0 -17,7.564703 -17,17 l 0,1 c 0,-9.435297 7.5647,-17 17,-17 l 52,0 c 9.4353,0 17,7.564703 17,17 l 0,-1 c 0,-9.435297 -7.5647,-17 -17,-17 l -52,0 z"
         id="rect3904"
         inkscape:connector-curvature="0" />
      <path
         style="opacity:0.12999998;color:#bebebe;fill:#ffffff;fill-opacity:1;fill-rule:nonzero;stroke:none;stroke-width:0;marker:none;visibility:visible;display:inline;overflow:visible;enable-background:accumulate"
         d="m 302.5,143 c -6.3883,0 -11.5,5.1117 -11.5,11.5 l 0,1 c 0,-6.3883 5.1117,-11.5 11.5,-11.5 l 35,0 c 6.3883,0 11.5,5.1117 11.5,11.5 l 0,-1 c 0,-6.3883 -5.1117,-11.5 -11.5,-11.5 l -35,0 z"
         id="rect3906"
         inkscape:connector-curvature="0" />
      <path
         id="path4085"
         d="m 204,266 c 27.1633,0 49,-21.8367 49,-49 l 0,-1 c 0,27.1633 -21.8367,49 -49,49 L 84,265 C 56.8367,265 35,243.1633 35,216 l 0,1 c 0,27.1633 21.8367,49 49,49 l 120,0 z"
         style="opacity:0.5;color:#bebebe;fill:#000000;fill-opacity:1;fill-rule:nonzero;stroke:none;stroke-width:0;marker:none;visibility:visible;display:inline;overflow:visible;enable-background:accumulate"
         inkscape:connector-curvature="0" />
      <path
         id="path4087"
         d="m 429,156 c 1.1253,0 2,-0.8747 2,-2 l 0,-1 c 0,1.1253 -0.8747,2 -2,2 l -10,0 c -1.1253,0 -2,-0.8747 -2,-2 l 0,1 c 0,1.1253 0.8747,2 2,2 l 10,0 z"
         style="opacity:0.3;color:#bebebe;fill:#000000;fill-opacity:1;fill-rule:nonzero;stroke:none;stroke-width:0;marker:none;visibility:visible;display:inline;overflow:visible;enable-background:accumulate"
         inkscape:connector-curvature="0" />
      <path
         id="path4089"
         d="m 434,123 c 2.2333,0 4,-1.7667 4,-4 l 0,-1 c 0,2.2333 -1.7667,4 -4,4 l -12,0 c -2.2333,0 -4,-1.7667 -4,-4 l 0,1 c 0,2.2333 1.7667,4 4,4 l 12,0 z"
         style="opacity:0.3;color:#bebebe;fill:#000000;fill-opacity:1;fill-rule:nonzero;stroke:none;stroke-width:0;marker:none;visibility:visible;display:inline;overflow:visible;enable-background:accumulate"
         inkscape:connector-curvature="0" />
      <path
         id="path4091"
         d="m 440,83 c 3.3413,0 6,-2.6587 6,-6 l 0,-1 c 0,3.3413 -2.6587,6 -6,6 l -16,0 c -3.3413,0 -6,-2.6587 -6,-6 l 0,1 c 0,3.3413 2.6587,6 6,6 l 16,0 z"
         style="opacity:0.5;color:#bebebe;fill:#000000;fill-opacity:1;fill-rule:nonzero;stroke:none;stroke-width:0;marker:none;visibility:visible;display:inline;overflow:visible;enable-background:accumulate"
         inkscape:connector-curvature="0" />
      <path
         id="path4093"
         d="m 324,265 c 4.4493,0 8,-3.5507 8,-8 l 0,-1 c 0,4.4493 -3.5507,8 -8,8 l -24,0 c -4.4493,0 -8,-3.5507 -8,-8 l 0,1 c 0,4.4493 3.5507,8 8,8 l 24,0 z"
         style="opacity:0.5;color:#bebebe;fill:#000000;fill-opacity:1;fill-rule:nonzero;stroke:none;stroke-width:0;marker:none;visibility:visible;display:inline;overflow:visible;enable-background:accumulate"
         inkscape:connector-curvature="0" />
      <path
         id="path4095"
         d="m 362,120 c 9.4353,0 17,-7.5647 17,-17 l 0,-1 c 0,9.4353 -7.5647,17 -17,17 l -52,0 c -9.4353,0 -17,-7.5647 -17,-17 l 0,1 c 0,9.4353 7.5647,17 17,17 l 52,0 z"
         style="opacity:0.5;color:#bebebe;fill:#000000;fill-opacity:1;fill-rule:nonzero;stroke:none;stroke-width:0;marker:none;visibility:visible;display:inline;overflow:visible;enable-background:accumulate"
         inkscape:connector-curvature="0" />
      <path
         id="path4097"
         d="m 337.5,202 c 6.3883,0 11.5,-5.1117 11.5,-11.5 l 0,-1 c 0,6.3883 -5.1117,11.5 -11.5,11.5 l -35,0 c -6.3883,0 -11.5,-5.1117 -11.5,-11.5 l 0,1 c 0,6.3883 5.1117,11.5 11.5,11.5 l 35,0 z"
         style="opacity:0.5;color:#bebebe;fill:#000000;fill-opacity:1;fill-rule:nonzero;stroke:none;stroke-width:0;marker:none;visibility:visible;display:inline;overflow:visible;enable-background:accumulate"
         inkscape:connector-curvature="0" />
      <path
         inkscape:connector-curvature="0"
         id="path4280"
         d="M 84,265 C 56.836703,265 35,243.1633 35,216 l 0,-1 c 0,27.1633 21.836703,49 49,49 l 120,0 c 27.1633,0 49,-21.8367 49,-49 l 0,1 c 0,27.1633 -21.8367,49 -49,49 l -120,0 z"
         style="opacity:0.1;color:#bebebe;fill:#ffffff;fill-opacity:1;fill-rule:nonzero;stroke:none;stroke-width:0;marker:none;visibility:visible;display:inline;overflow:visible;enable-background:accumulate" />
      <path
         style="opacity:0.1;color:#bebebe;fill:#ffffff;fill-opacity:1;fill-rule:nonzero;stroke:none;stroke-width:0;marker:none;visibility:visible;display:inline;overflow:visible;enable-background:accumulate"
         d="m 300,264 c -4.4493,0 -8,-3.5507 -8,-8 l 0,-1 c 0,4.4493 3.5507,8 8,8 l 24,0 c 4.4493,0 8,-3.5507 8,-8 l 0,1 c 0,4.4493 -3.5507,8 -8,8 l -24,0 z"
         id="path4294"
         inkscape:connector-curvature="0" />
      <path
         style="opacity:0.1;color:#bebebe;fill:#ffffff;fill-opacity:1;fill-rule:nonzero;stroke:none;stroke-width:0;marker:none;visibility:visible;display:inline;overflow:visible;enable-background:accumulate"
         d="m 302.5,201 c -6.3883,0 -11.5,-5.1117 -11.5,-11.5 l 0,-1 c 0,6.3883 5.1117,11.5 11.5,11.5 l 35,0 c 6.3883,0 11.5,-5.1117 11.5,-11.5 l 0,1 c 0,6.3883 -5.1117,11.5 -11.5,11.5 l -35,0 z"
         id="path4296"
         inkscape:connector-curvature="0" />
      <path
         style="opacity:0.1;color:#bebebe;fill:#ffffff;fill-opacity:1;fill-rule:nonzero;stroke:none;stroke-width:0;marker:none;visibility:visible;display:inline;overflow:visible;enable-background:accumulate"
         d="m 310,119 c -9.4353,0 -17,-7.5647 -17,-17 l 0,-1 c 0,9.4353 7.5647,17 17,17 l 52,0 c 9.4353,0 17,-7.5647 17,-17 l 0,1 c 0,9.4353 -7.5647,17 -17,17 l -52,0 z"
         id="path4298"
         inkscape:connector-curvature="0" />
      <path
         style="opacity:0.1;color:#bebebe;fill:#ffffff;fill-opacity:1;fill-rule:nonzero;stroke:none;stroke-width:0;marker:none;visibility:visible;display:inline;overflow:visible;enable-background:accumulate"
         d="m 424,82 c -3.3413,0 -6,-2.658703 -6,-6 l 0,-1 c 0,3.341297 2.6587,6 6,6 l 16,0 c 3.3413,0 6,-2.658703 6,-6 l 0,1 c 0,3.341297 -2.6587,6 -6,6 l -16,0 z"
         id="path4300"
         inkscape:connector-curvature="0" />
      <path
         style="opacity:0.1;color:#bebebe;fill:#ffffff;fill-opacity:1;fill-rule:nonzero;stroke:none;stroke-width:0;marker:none;visibility:visible;display:inline;overflow:visible;enable-background:accumulate"
         d="m 422,122 c -2.2333,0 -4,-1.7667 -4,-4 l 0,-1 c 0,2.2333 1.7667,4 4,4 l 12,0 c 2.2333,0 4,-1.7667 4,-4 l 0,1 c 0,2.2333 -1.7667,4 -4,4 l -12,0 z"
         id="path4302"
         inkscape:connector-curvature="0" />
      <path
         style="opacity:0.1;color:#bebebe;fill:#ffffff;fill-opacity:1;fill-rule:nonzero;stroke:none;stroke-width:0;marker:none;visibility:visible;display:inline;overflow:visible;enable-background:accumulate"
         d="m 419,154.5 c -1.1253,0 -2,-0.8747 -2,-2 l 0,-1 c 0,1.1253 0.8747,2 2,2 l 10,0 c 1.1253,0 2,-0.8747 2,-2 l 0,1 c 0,1.1253 -0.8747,2 -2,2 l -10,0 z"
         id="path4304"
         inkscape:connector-curvature="0" />
    </g>
    <g
       inkscape:groupmode="layer"
       id="layer3"
       inkscape:label="Border"
       style="display:inline"
       sodipodi:insensitive="true">
      <path
         style="opacity:0.41000001;color:#bebebe;fill:#000000;fill-opacity:1;fill-rule:nonzero;stroke:none;stroke-width:0;marker:none;visibility:visible;display:inline;overflow:visible;enable-background:accumulate"
         d="m 422,101 c -2.77,0 -5,2.23 -5,5 l 0,12 c 0,2.77 2.23,5 5,5 l 12,0 c 2.77,0 5,-2.23 5,-5 l 0,-12 c 0,-2.77 -2.23,-5 -5,-5 l -12,0 z m 0,1 12,0 c 2.2333,0 4,1.7667 4,4 l 0,12 c 0,2.2333 -1.7667,4 -4,4 l -12,0 c -2.2333,0 -4,-1.7667 -4,-4 l 0,-12 c 0,-2.2333 1.7667,-4 4,-4 z"
         id="rect4099"
         inkscape:connector-curvature="0" />
      <path
         style="opacity:0.41000001;color:#bebebe;fill:#000000;fill-opacity:1;fill-rule:nonzero;stroke:none;stroke-width:0;marker:none;visibility:visible;display:inline;overflow:visible;enable-background:accumulate"
         d="m 424,53 c -3.878,0 -7,3.122 -7,7 l 0,16 c 0,3.878 3.122,7 7,7 l 16,0 c 3.878,0 7,-3.122 7,-7 l 0,-16 c 0,-3.878 -3.122,-7 -7,-7 l -16,0 z m 0,1 16,0 c 3.3413,0 6,2.658703 6,6 l 0,16 c 0,3.341297 -2.6587,6 -6,6 l -16,0 c -3.3413,0 -6,-2.658703 -6,-6 l 0,-16 c 0,-3.341297 2.6587,-6 6,-6 z"
         id="rect4151"
         inkscape:connector-curvature="0" />
      <path
         style="opacity:0.41000001;color:#bebebe;fill:#000000;fill-opacity:1;fill-rule:nonzero;stroke:none;stroke-width:0;marker:none;visibility:visible;display:inline;overflow:visible;enable-background:accumulate"
         d="m 419,140 c -1.662,0 -3,1.338 -3,3 l 0,10 c 0,1.662 1.338,3 3,3 l 10,0 c 1.662,0 3,-1.338 3,-3 l 0,-10 c 0,-1.662 -1.338,-3 -3,-3 l -10,0 z m 0,1 10,0 c 1.1253,0 2,0.8747 2,2 l 0,10 c 0,1.1253 -0.8747,2 -2,2 l -10,0 c -1.1253,0 -2,-0.8747 -2,-2 l 0,-10 c 0,-1.1253 0.8747,-2 2,-2 z"
         id="rect4095"
         inkscape:connector-curvature="0" />
      <path
         style="opacity:0.41000001;color:#bebebe;fill:#000000;fill-opacity:1;fill-rule:nonzero;stroke:none;stroke-width:0;marker:none;visibility:visible;display:inline;overflow:visible;enable-background:accumulate"
         d="m 300,223 c -4.986,0 -9,4.014 -9,9 l 0,24 c 0,4.986 4.014,9 9,9 l 24,0 c 4.986,0 9,-4.014 9,-9 l 0,-24 c 0,-4.986 -4.014,-9 -9,-9 l -24,0 z m 0,1 24,0 c 4.4493,0 8,3.5507 8,8 l 0,24 c 0,4.4493 -3.5507,8 -8,8 l -24,0 c -4.4493,0 -8,-3.5507 -8,-8 l 0,-24 c 0,-4.4493 3.5507,-8 8,-8 z"
         id="rect4783"
         inkscape:connector-curvature="0" />
      <path
         style="opacity:0.41000001;color:#bebebe;fill:#000000;fill-opacity:1;fill-rule:nonzero;stroke:none;stroke-width:0;marker:none;visibility:visible;display:inline;overflow:visible;enable-background:accumulate"
         d="m 302.5,142 c -6.925,0 -12.5,5.575 -12.5,12.5 l 0,35 c 0,6.925 5.575,12.5 12.5,12.5 l 35,0 c 6.925,0 12.5,-5.575 12.5,-12.5 l 0,-35 c 0,-6.925 -5.575,-12.5 -12.5,-12.5 l -35,0 z m 0,1 35,0 c 6.3883,0 11.5,5.1117 11.5,11.5 l 0,35 c 0,6.3883 -5.1117,11.5 -11.5,11.5 l -35,0 c -6.3883,0 -11.5,-5.1117 -11.5,-11.5 l 0,-35 c 0,-6.3883 5.1117,-11.5 11.5,-11.5 z"
         id="rect4515"
         inkscape:connector-curvature="0" />
      <path
         style="opacity:0.41000001;color:#bebebe;fill:#000000;fill-opacity:1;fill-rule:nonzero;stroke:none;stroke-width:0;marker:none;visibility:visible;display:inline;overflow:visible;enable-background:accumulate"
         d="m 310,32 c -9.972,0 -18,8.028 -18,18 l 0,52 c 0,9.972 8.028,18 18,18 l 52,0 c 9.972,0 18,-8.028 18,-18 l 0,-52 c 0,-9.972 -8.028,-18 -18,-18 l -52,0 z m 0,1 52,0 c 9.4353,0 17,7.564703 17,17 l 0,52 c 0,9.4353 -7.5647,17 -17,17 l -52,0 c -9.4353,0 -17,-7.5647 -17,-17 l 0,-52 c 0,-9.435297 7.5647,-17 17,-17 z"
         id="rect4511"
         inkscape:connector-curvature="0" />
      <path
         style="opacity:0.41000001;color:#bebebe;fill:#000000;fill-opacity:1;fill-rule:nonzero;stroke:none;stroke-width:0;marker:none;visibility:visible;display:inline;overflow:visible;enable-background:accumulate"
         d="M 84,46 C 56.3,46 34,68.3 34,96 l 0,120 c 0,27.7 22.3,50 50,50 l 120,0 c 27.7,0 50,-22.3 50,-50 L 254,96 C 254,68.3 231.7,46 204,46 L 84,46 z m 0,1 120,0 c 27.1633,0 49,21.836703 49,49 l 0,120 c 0,27.1633 -21.8367,49 -49,49 L 84,265 C 56.836703,265 35,243.1633 35,216 L 35,96 C 35,68.836703 56.836703,47 84,47 z"
         id="rect4040"
         inkscape:connector-curvature="0" />
    </g>
  </g>
</svg>
